<svg xmlns="http://www.w3.org/2000/svg" xmlns:xlink="http://www.w3.org/1999/xlink" enable-background="new 0 0 128 128" height="128px" id="Layer_1" version="1.1" viewBox="0 0 128 128" width="128px" xml:space="preserve"><rect fill="#1E3796" height="78" width="128" y="25"/><g><polygon fill="#FFE100" points="64,42.083 61.528,43.804 62.4,40.921 60,39.102 63.011,39.04 64,36.196 64.988,39.04 68,39.102    65.6,40.921 66.473,43.804  "/><polygon fill="#FFE100" points="76,45.299 73.527,47.02 74.4,44.137 72,42.318 75.012,42.255 76,39.412 76.988,42.255 80,42.318    77.6,44.137 78.473,47.02  "/><polygon fill="#FFE100" points="84.785,54.083 82.312,55.804 83.186,52.921 80.785,51.102 83.796,51.04 84.785,48.196    85.773,51.04 88.785,51.102 86.385,52.921 87.258,55.804  "/><polygon fill="#FFE100" points="64,90.084 61.528,91.805 62.4,88.922 60,87.104 63.011,87.041 64,84.195 64.988,87.041 68,87.104    65.6,88.922 66.473,91.805  "/><polygon fill="#FFE100" points="52,86.868 49.528,88.589 50.4,85.706 48,83.887 51.011,83.825 52,80.98 52.989,83.825 56,83.887    53.6,85.706 54.473,88.589  "/><polygon fill="#FFE100" points="43.216,78.083 40.744,79.805 41.615,76.921 39.215,75.102 42.226,75.04 43.216,72.195    44.205,75.04 47.215,75.102 44.815,76.921 45.688,79.805  "/><polygon fill="#FFE100" points="88,66.084 85.527,67.805 86.4,64.921 84,63.102 87.012,63.04 88,60.196 88.988,63.04 92,63.102    89.6,64.921 90.473,67.805  "/><polygon fill="#FFE100" points="84.784,78.085 82.312,79.805 83.186,76.922 80.784,75.104 83.795,75.041 84.784,72.195    85.773,75.041 88.784,75.104 86.384,76.922 87.256,79.805  "/><polygon fill="#FFE100" points="76,86.869 73.527,88.589 74.4,85.706 72,83.887 75.012,83.825 76,80.98 76.988,83.825 80,83.887    77.6,85.706 78.473,88.589  "/><polygon fill="#FFE100" points="40,66.084 37.528,67.805 38.4,64.921 36,63.102 39.011,63.04 40,60.195 40.989,63.04 44,63.102    41.6,64.921 42.473,67.805  "/><polygon fill="#FFE100" points="43.216,54.085 40.744,55.805 41.615,52.922 39.215,51.103 42.226,51.041 43.216,48.196    44.205,51.041 47.215,51.103 44.815,52.922 45.688,55.805  "/><polygon fill="#FFE100" points="52,45.3 49.528,47.02 50.4,44.137 48,42.317 51.011,42.255 52,39.411 52.989,42.255 56,42.317    53.6,44.137 54.473,47.02  "/></g></svg>