<svg width="94" height="93" viewBox="0 0 94 93" fill="none" xmlns="http://www.w3.org/2000/svg">
<path d="M47.222 7.03284C69.0196 7.03284 86.6899 24.7032 86.6899 46.5008C86.6899 68.298 69.0196 85.9684 47.222 85.9684C25.4248 85.9684 7.75439 68.298 7.75439 46.5008C7.75439 24.7032 25.4248 7.03284 47.222 7.03284Z" fill="#DE5833"/>
<path d="M47.2214 92.7966C72.7902 92.7966 93.5179 72.0689 93.5179 46.5001C93.5179 20.9312 72.7902 0.203491 47.2214 0.203491C21.6525 0.203491 0.924805 20.9312 0.924805 46.5001C0.924805 72.0689 21.6525 92.7966 47.2214 92.7966ZM47.2214 88.9386C23.7832 88.9386 4.78285 69.9382 4.78285 46.5001C4.78285 23.0619 23.7832 4.06154 47.2214 4.06154C70.6595 4.06154 89.6599 23.0619 89.6599 46.5001C89.6599 69.9382 70.6595 88.9386 47.2214 88.9386Z" fill="#DE5833"/>
<path d="M27.9952 19.8526C27.9876 19.1889 28.4696 18.8173 29.1101 18.5568C28.8169 18.6048 28.5361 18.6782 28.2833 18.7915C27.6156 19.0941 27.1164 20.2399 27.1211 20.7823C30.3627 20.4546 35.1562 20.6813 38.6615 21.7275C38.9201 21.6912 39.1788 21.6549 39.4414 21.6247C35.9452 20.0724 31.7886 19.473 27.9952 19.8526Z" fill="#D5D7D8"/>
<path d="M28.6596 15.8638C28.7326 15.8507 28.8067 15.8416 28.8801 15.8293C28.1808 15.9161 27.8121 16.166 27.2871 16.2521C27.8571 16.3026 30.0168 17.3107 31.374 17.8651C31.5644 17.7928 31.7359 17.7125 31.8757 17.6177C31.172 17.5138 29.4236 15.9335 28.6596 15.8638Z" fill="#D5D7D8"/>
<path d="M32.0301 23.7129C31.8358 23.7877 31.6512 23.8658 31.4914 23.9498C26.2075 26.7336 23.8734 33.2359 25.2644 41.0276C26.5341 48.1181 31.7381 72.3443 34.1208 83.7389C34.8165 83.9834 35.5206 84.2105 36.2333 84.4165C34.1114 74.1574 28.3196 47.2746 26.9682 39.7245C25.5983 32.0437 26.9311 26.5323 32.0301 23.7129Z" fill="#D5D7D8"/>
<path d="M53.412 79.608C53.3248 79.6662 53.2209 79.7207 53.1101 79.7737C53.028 80.0919 52.9027 80.3332 52.7199 80.4545C51.6286 81.1785 48.5462 81.5432 46.9187 81.1785C46.6386 81.1164 46.4265 81.0136 46.2608 80.8723C43.4821 82.4151 39.486 84.4691 38.6744 84.0063C37.4065 83.2794 37.2227 73.6706 37.4065 71.3125C37.5406 69.5324 43.7934 72.4158 46.8351 73.9281C47.5076 73.3 49.1551 72.8797 50.6133 72.7369C48.41 67.3745 46.785 61.2409 47.7811 56.8913C46.4043 55.9319 44.5795 53.7068 44.9595 51.3844C45.2523 49.6166 49.8202 46.2723 53.0545 46.0703C56.2961 45.8658 57.3064 45.9119 60.007 45.2653C60.1421 45.2329 60.2907 45.1973 60.4462 45.1599C62.1086 39.3158 58.1216 29.1486 53.6743 24.6995C52.2244 23.2497 49.9953 22.3371 47.4836 21.8554C46.5176 20.5298 44.9595 19.2623 42.7537 18.0885C38.6577 15.9139 33.5957 15.0286 28.88 15.8293C28.8066 15.8417 28.7325 15.8507 28.6595 15.8638C29.4234 15.9336 31.1719 17.5138 31.8756 17.6177C31.7357 17.7125 31.5643 17.7928 31.3739 17.8651C30.7134 18.1165 29.8158 18.2691 29.1099 18.5568C28.4695 18.8173 27.9874 19.1889 27.995 19.8526C31.7884 19.473 35.9451 20.0724 39.4413 21.6247C39.1786 21.6549 38.92 21.6912 38.6613 21.7275C36.1819 22.0763 33.9031 22.7186 32.2567 23.5872C32.1793 23.6275 32.1059 23.6711 32.03 23.7129C26.931 26.5323 25.5981 32.0436 26.968 39.7245C28.3194 47.2746 34.149 74.5737 36.2709 84.8328C39.7595 85.8423 43.0214 86.6492 46.8351 86.6492C50.0727 86.6492 53.9667 85.9317 56.978 85.196C55.9204 83.1569 54.56 80.9021 53.7215 79.2851C53.6096 79.4184 53.5213 79.535 53.412 79.608ZM55.5455 40.8964C54.1636 40.8964 53.0364 39.7724 53.0364 38.3825C53.0364 36.9992 54.1636 35.8748 55.5455 35.8748C56.9351 35.8748 58.058 36.9992 58.058 38.3825C58.058 39.7724 56.9351 40.8964 55.5455 40.8964ZM57.0572 31.4482C57.0572 31.4482 55.4743 30.544 54.2461 30.5593C51.722 30.5923 51.0347 31.7076 51.0347 31.7076C51.0347 31.7076 51.4583 29.0491 54.686 29.5824C56.4359 29.8734 57.0572 31.4482 57.0572 31.4482ZM30.445 34.7167C30.445 34.7167 29.3083 32.1835 32.3377 30.9422C35.3704 29.7005 36.8471 31.6487 36.8471 31.6487C36.8471 31.6487 34.6449 30.6526 32.5037 31.9982C30.3662 33.3424 30.445 34.7167 30.445 34.7167ZM33.0933 40.1157C33.0933 38.5006 34.3993 37.1935 36.0166 37.1935C37.6296 37.1935 38.9374 38.5006 38.9374 40.1157C38.9374 41.7313 37.6296 43.0369 36.0166 43.0369C34.3993 43.0376 33.0933 41.7313 33.0933 40.1157Z" fill="white"/>
<path d="M38.9374 40.1157C38.9374 38.5006 37.6296 37.1935 36.0166 37.1935C34.3993 37.1935 33.0933 38.5006 33.0933 40.1157C33.0933 41.7312 34.3993 43.0376 36.0166 43.0369C37.6296 43.0369 38.9374 41.7312 38.9374 40.1157ZM37.3106 39.901C36.8957 39.9021 36.5546 39.561 36.5546 39.1418C36.5546 38.7214 36.8946 38.3832 37.3106 38.3832C37.7298 38.3832 38.0699 38.7214 38.0699 39.1418C38.0699 39.561 37.7298 39.901 37.3106 39.901Z" fill="#2D4F8E"/>
<path d="M37.3107 38.3832C36.8947 38.3832 36.5547 38.7215 36.5547 39.1418C36.5547 39.561 36.8958 39.9021 37.3107 39.901C37.7299 39.901 38.0699 39.561 38.0699 39.1418C38.0699 38.7215 37.7299 38.3832 37.3107 38.3832Z" fill="white"/>
<path d="M55.5458 35.8748C54.1639 35.8748 53.0366 36.9992 53.0366 38.3825C53.0366 39.7725 54.1639 40.8965 55.5458 40.8965C56.9354 40.8965 58.0583 39.7725 58.0583 38.3825C58.0583 36.9992 56.9354 35.8748 55.5458 35.8748ZM56.66 38.1976C56.3058 38.1976 56.0133 37.9096 56.0133 37.5477C56.0133 37.1906 56.3058 36.8975 56.66 36.8975C57.0294 36.8975 57.3128 37.1906 57.3128 37.5477C57.3128 37.9096 57.0294 38.1976 56.66 38.1976Z" fill="#2D4F8E"/>
<path d="M56.6598 36.8975C56.3056 36.8975 56.0132 37.1906 56.0132 37.5477C56.0132 37.9096 56.3056 38.1976 56.6598 38.1976C57.0293 38.1976 57.3126 37.9096 57.3126 37.5477C57.3126 37.1906 57.0293 36.8975 56.6598 36.8975Z" fill="white"/>
<path d="M36.8474 31.6487C36.8474 31.6487 35.3706 29.7005 32.3379 30.9422C29.3085 32.1835 30.4453 34.7167 30.4453 34.7167C30.4453 34.7167 30.3664 33.3424 32.504 31.9982C34.6451 30.6526 36.8474 31.6487 36.8474 31.6487Z" fill="url(#paint0_linear_103_16)"/>
<path d="M54.686 29.5824C51.4583 29.0491 51.0347 31.7076 51.0347 31.7076C51.0347 31.7076 51.722 30.5923 54.2461 30.5593C55.4743 30.544 57.0571 31.4482 57.0571 31.4482C57.0571 31.4482 56.4359 29.8734 54.686 29.5824Z" fill="url(#paint1_linear_103_16)"/>
<path d="M53.0547 46.0703C49.8204 46.2722 45.2525 49.6166 44.9597 51.3843C44.5797 53.7068 46.4044 55.9319 47.7813 56.8913C47.7849 56.8939 47.7889 56.8971 47.7925 56.8997C49.169 57.8573 58.3342 60.9492 62.8814 60.8634C67.4337 60.7748 74.91 57.987 74.089 55.7532C73.2716 53.5186 65.8465 57.7247 58.1021 57.0068C52.3666 56.4739 51.3541 53.9044 52.6242 52.0277C54.2215 49.6689 57.131 52.4753 61.93 51.0392C66.7362 49.6072 73.4576 47.0439 75.9515 45.6481C81.7179 42.4335 73.5386 41.1002 71.6067 41.9921C69.7754 42.8381 63.4013 44.4468 60.4463 45.1599C60.2909 45.1973 60.1423 45.2329 60.0071 45.2652C57.3065 45.9119 56.2962 45.8657 53.0547 46.0703Z" fill="#FDD209"/>
<path d="M45.8312 75.3766C45.8312 75.042 46.1004 74.7459 46.5276 74.4934C46.5396 74.2904 46.6501 74.1015 46.8353 73.9282C43.7936 72.4158 37.5408 69.5325 37.4067 71.3126C37.2229 73.6706 37.4067 83.2794 38.6746 84.0063C39.4862 84.4691 43.4823 82.4152 46.261 80.8723C45.4592 80.189 45.8312 78.5302 45.8312 75.3766Z" fill="#65BC46"/>
<path d="M53.6814 79.2695C53.6945 79.2746 53.7086 79.28 53.7217 79.2851C56.2116 80.246 61.1683 82.0548 62.2447 81.6599C63.696 81.1052 63.3327 69.507 61.7037 69.1376C60.3988 68.848 55.4033 72.3679 53.438 73.8017C53.7856 75.2698 54.2063 78.1775 53.6814 79.2695Z" fill="#65BC46"/>
<path d="M47.6106 80.3321C45.9777 79.9702 46.5233 78.3366 46.5233 74.5301C46.5233 74.5177 46.527 74.5058 46.5277 74.4934C46.1005 74.7459 45.8313 75.042 45.8313 75.3765C45.8313 78.5302 45.4593 80.1889 46.2611 80.8723C46.4267 81.0136 46.6389 81.1164 46.919 81.1785C48.5465 81.5433 51.6289 81.1785 52.7202 80.4545C52.9029 80.3332 53.0283 80.0919 53.1104 79.7737C51.8331 80.3855 49.1056 80.6721 47.6106 80.3321Z" fill="#43A244"/>
<path d="M46.8352 73.9282C46.6499 74.1015 46.5395 74.2904 46.5275 74.4935C46.5267 74.5058 46.5231 74.5178 46.5231 74.5302C46.5231 78.3366 45.9775 79.9703 47.6104 80.3321C49.1053 80.6722 51.8328 80.3855 53.1101 79.7738C53.2209 79.7207 53.3248 79.6662 53.412 79.6081C53.5214 79.5351 53.6096 79.4185 53.6812 79.2695C54.2061 78.1775 53.7855 75.2698 53.4378 73.8018C53.3611 73.4788 53.2885 73.2245 53.23 73.0756C53.08 72.7043 51.9244 72.6088 50.6133 72.737C49.1551 72.8798 47.5076 73.3001 46.8352 73.9282Z" fill="#65BC46"/>
<defs>
<linearGradient id="paint0_linear_103_16" x1="34.9305" y1="34.7167" x2="30.2363" y2="34.7167" gradientUnits="userSpaceOnUse">
<stop stop-color="#394A9F"/>
<stop offset="1" stop-color="#6176B9"/>
</linearGradient>
<linearGradient id="paint1_linear_103_16" x1="55.3109" y1="31.7076" x2="51.0347" y2="31.7076" gradientUnits="userSpaceOnUse">
<stop stop-color="#394A9F"/>
<stop offset="1" stop-color="#6176B9"/>
</linearGradient>
</defs>
</svg>
