<svg width="94" height="93" viewBox="0 0 94 93" fill="none" xmlns="http://www.w3.org/2000/svg">
<path opacity="0.6" d="M0.206299 0H93.2063V93H0.206299V0Z" fill="black"/>
<path d="M0.206299 0H93.2063V93H0.206299V0Z" fill="white"/>
<path d="M2.28564 77.4999C20.0539 68.4267 20.432 68.4267 42.3588 64.6463C48.7856 60.8658 78.2734 72.2072 91.5052 75.9877V91.1097H1.52954L2.09661 77.4999H2.28564Z" fill="#A6D3FC"/>
<path d="M0.206299 0H93.2063V93H0.206299V0ZM91.3161 75.9878C90.56 75.9878 87.5356 76.7439 85.2673 78.2561C85.2673 79.7683 85.2673 80.5244 84.5112 81.6585C81.4868 71.0732 71.2795 68.4268 63.7185 73.7195L64.8526 70.3171C49.7307 58.9756 34.6087 65.7805 26.6697 75.6098C26.6697 75.6098 26.2917 73.7195 28.56 70.3171C23.6453 68.0488 14.9502 71.4512 12.6819 74.4756L15.7063 77.1219C11.1697 75.2317 5.49898 76.7439 2.09654 77.8781V91.1098H91.3161V76.3659V75.9878ZM31.9624 40.4512H61.8283V64.6463L64.0965 66.1585H76.5722V38.561C76.5722 28.3537 66.3648 25.3293 61.4502 25.3293H17.2185V66.1585H31.9624V40.4512ZM54.2673 62.378V48.0122H39.5234V62.378C43.3039 61.2439 49.3526 60.8659 54.2673 62V62.378Z" fill="#0080F5"/>
</svg>
