<svg width="62" height="93" viewBox="0 0 62 93" fill="none" xmlns="http://www.w3.org/2000/svg">
<path d="M35.1712 6.94242L32.6965 16.7712C36.202 9.82931 41.7694 4.60563 48.1622 0C43.4881 5.43003 39.2267 10.8606 36.6147 16.2906C41.0139 10.1041 46.9251 6.66763 53.5922 4.39928C44.7252 12.304 37.6872 20.7865 32.3256 29.3093L28.0642 27.4536C28.8191 20.6491 31.3905 13.679 35.1712 6.94242Z" fill="#ABCD03"/>
<path d="M23.7914 25.6468L31.9025 29.0118C31.9025 31.0743 31.7349 37.365 33.0248 39.2206C46.5141 56.5938 44.2447 91.4186 30.292 92.312C9.04443 92.312 0.941406 77.878 0.941406 64.6117C0.941406 52.5141 15.4443 44.472 24.1055 37.3237C26.3049 35.3991 25.9229 31.1458 23.7914 25.6468Z" fill="#FFFCDB"/>
<path d="M31.9045 28.8906L34.8277 30.3818C34.5529 32.3059 34.9651 36.5683 36.8892 37.6675C45.4129 42.9601 53.4545 48.7339 56.6167 54.5077C67.8895 74.8538 48.712 93.687 32.1466 91.8998C41.151 85.2322 43.7631 71.5542 40.3951 56.6381C39.0206 50.7954 36.8892 45.5028 33.1084 39.5226C31.4707 36.5874 32.0424 32.9466 31.9045 28.8906Z" fill="#7D4698"/>
<path d="M30.4974 28.3883L36.5459 29.2132C34.7588 35.1243 40.0519 39.2483 41.7701 40.2111C45.6193 42.3421 49.3311 44.5415 52.2869 47.222C55.0404 49.7318 57.2391 52.7891 58.7424 56.1981C60.2457 59.607 61.0203 63.2924 61.0166 67.018C61.0166 74.51 57.5796 81.7273 51.8058 86.5387C46.3758 91.0754 38.8837 93 31.5976 93C27.0609 93 23.0053 92.7942 18.6066 91.3502C8.5714 87.9822 1.07888 79.3905 0.460338 69.0795C-0.0897617 61.0374 1.69743 54.9199 7.95286 48.5275C11.183 45.1595 17.7132 41.3103 22.1815 38.2171C24.3814 36.7047 26.7181 32.4428 22.2499 24.4012L23.1438 23.7137L29.7656 28.1487L24.175 25.8446C24.6562 26.5321 25.9622 29.6254 26.2375 30.5187C26.856 33.0618 26.5812 35.537 26.0311 36.6362C23.2132 41.723 18.4017 43.0975 14.8963 45.9844C8.70981 51.0707 1.97374 55.1262 2.72969 69.0795C3.07344 75.953 8.43501 84.3388 16.4766 88.257C21.0133 90.4569 26.2375 91.3502 31.5301 91.625C36.2727 91.8314 45.346 89.0129 50.2949 84.889C55.5875 80.4902 58.5434 73.8225 58.5434 67.018C58.5434 60.144 55.7939 53.6143 50.6387 49.0087C47.6828 46.3281 42.8029 43.0975 39.7786 41.3788C36.7543 39.6605 32.9736 34.849 34.2107 30.2439L30.4974 28.3883Z" fill="black"/>
<path d="M28.6417 38.5613C28.0231 41.7235 27.3356 47.4283 24.5862 49.5592C23.4175 50.3836 22.2489 51.209 21.0118 52.0334C16.0629 55.402 11.1135 58.5632 8.84566 66.6742C8.36452 68.393 8.77722 70.2486 9.18992 71.9669C10.427 76.9157 13.9324 82.2773 16.6819 85.4395C16.6819 85.5769 17.232 85.9207 17.232 86.0581C19.5004 88.7391 20.1879 89.495 28.7796 91.4191L28.5732 92.3819C23.418 91.0074 19.1566 89.7703 16.4756 86.6766C16.4756 86.6081 15.9944 86.1265 15.9944 86.1265C13.1076 82.8269 9.60161 77.3284 8.29607 72.1732C7.81492 70.1107 7.40272 68.5304 7.95232 66.3989C10.2891 58.0136 15.3759 54.714 20.5311 51.2085C21.6998 50.4526 23.0743 49.7646 24.174 48.8712C26.3044 47.2909 27.4725 42.4789 28.6417 38.5613Z" fill="black"/>
<path d="M30.8395 51.6208C30.9084 55.1952 30.5596 56.9879 31.453 59.5315C32.0026 61.0434 33.8597 63.1059 34.4098 65.0995C35.1658 67.7805 35.9892 70.7359 35.9197 72.5231C35.9197 74.5855 35.7908 78.4327 34.8975 82.5572C34.216 85.9655 32.6463 88.8896 30.006 90.547C27.3018 89.9903 24.1265 89.0396 22.2523 87.4331C18.6094 84.2714 15.3828 78.9843 14.9701 74.3787C14.6269 70.599 18.1273 65.0235 23.0072 62.2055C27.1312 59.7998 28.0905 57.0579 28.9838 52.6586C27.7467 56.5078 26.5846 59.7349 22.598 61.7964C16.8243 64.8212 13.8619 69.8979 14.1367 74.7094C14.5489 80.8948 17.0261 85.0873 21.906 88.4553C23.968 89.8987 27.8202 91.4242 30.2259 91.8369V91.5224C32.0504 91.1806 34.4128 88.184 35.5895 84.13C36.6208 80.4872 37.0269 75.8247 36.9575 72.8688C36.8885 71.1506 36.1306 67.4292 34.7556 64.0612C33.9996 62.2055 32.8385 60.3504 32.0821 59.0444C31.2582 57.7373 31.2522 54.9199 30.8395 51.6208Z" fill="black"/>
<path d="M30.4312 65.0994C30.4996 67.5051 31.4659 70.5873 31.8781 73.7495C32.2224 76.0868 32.0729 78.4346 32.004 80.4971C31.936 82.8842 31.1408 87.1617 30.0537 89.2418C29.0285 88.7718 28.6279 88.2352 27.9615 87.3701C27.1371 86.2014 26.5775 85.0328 26.0274 83.6583C25.6147 82.6271 25.133 81.4468 24.9261 80.0723C24.6513 78.0103 24.7284 74.7842 27.0651 71.4846C28.8523 68.8726 29.262 68.6743 29.8806 65.65C29.0552 68.3305 28.4396 68.6038 26.5145 70.8716C24.3841 73.3463 24.0298 76.9912 24.0298 79.9465C24.0298 81.1841 24.523 82.5571 25.0047 83.8626C25.5543 85.2376 26.0263 86.6066 26.7823 87.6373C27.9187 89.3088 29.3732 90.2595 30.0849 90.4371C30.0899 90.4382 30.096 90.4361 30.1005 90.4371C30.1156 90.4407 30.1332 90.4497 30.1478 90.4522V90.3742C31.4815 88.887 32.2843 87.4098 32.5541 85.9231C32.8978 84.1359 32.9768 82.3447 33.1832 80.2138C33.3895 78.4271 33.24 76.0193 32.7589 73.5451C32.0719 70.4519 30.9118 67.2983 30.4312 65.0994Z" fill="black"/>
<path d="M30.6346 35.6744C30.7035 39.2483 30.9783 45.9164 31.9406 48.528C32.2154 49.4213 34.7586 53.3395 36.5452 58.082C37.7828 61.3816 38.0576 64.4059 38.264 65.2992C39.0889 69.2174 38.0576 75.816 36.6826 82.0709C35.9956 85.439 33.6584 89.6319 30.9778 91.2817L30.4282 92.244C31.9406 92.1751 35.6519 88.5322 36.9579 83.9955C39.1578 76.2972 40.0512 72.7228 39.0204 64.1995C38.883 63.3741 38.5393 60.5567 37.2332 57.5319C35.3087 52.9263 32.5592 48.5275 32.2159 47.6336C31.5969 46.1907 30.772 39.9358 30.6346 35.6744Z" fill="black"/>
<path d="M31.9247 30.7864C31.7204 34.459 31.666 35.8118 32.353 38.4924C33.109 41.4482 36.9586 45.7096 38.5395 50.59C41.5638 59.9382 40.8078 72.1732 38.6079 81.7272C37.7835 85.0948 33.8649 89.9757 29.9473 91.5561L32.8342 92.2435C34.415 92.1746 38.47 88.3944 40.0514 84.064C42.594 77.259 43.0757 69.1484 42.0444 60.6252C41.9755 59.8003 40.6005 52.4457 39.2949 49.3524C37.4388 44.7473 34.1392 40.6228 33.7959 39.73C33.1779 38.2176 31.8195 35.0775 31.9247 30.7864Z" fill="black"/>
<path d="M29.7395 28.2009H30.0163V91.6259H29.7395V28.2009Z" fill="black"/>
</svg>
