<svg width="94" height="93" viewBox="0 0 94 93" fill="none" xmlns="http://www.w3.org/2000/svg">
<path d="M46.6111 93C67.0218 93 78.3633 93 85.7947 85.597C93.2056 78.1939 93.2056 66.8739 93.2056 46.4898C93.2056 26.1056 93.2056 14.7857 85.7947 7.38258C78.3633 0 67.0218 0 46.6111 0C26.2004 0 14.8589 0 7.4275 7.40309C0.0166016 14.8062 0.0166016 26.1261 0.0166016 46.5103C0.0166016 66.8944 0.0166016 78.2144 7.4275 85.6175C14.8589 93 26.2004 93 46.6111 93Z" fill="#EF3939"/>
<path d="M76.9094 29.3048C72.4464 21.4915 64.9741 15.4009 55.5774 12.8785C36.9274 7.89527 17.7655 18.9281 12.7703 37.5282C10.2523 46.8794 11.8081 56.3743 16.3529 64.126C16.4144 64.2285 16.4758 64.3516 16.5577 64.4541L32.9763 92.8565C35.6991 92.9386 38.647 92.9591 41.8202 92.9591H46.4469C55.516 92.9591 62.8041 92.9591 68.7615 92.3028C76.1928 91.4826 81.5156 89.6574 85.6305 85.556C91.6288 79.5679 92.7752 70.9959 93.0004 57.1125C83.4195 40.5427 76.9298 29.3253 76.9094 29.3048Z" fill="url(#paint0_linear_101_164)"/>
<path d="M71.1362 21.9017C57.5222 8.28496 35.4328 8.28496 21.7984 21.9017C8.1844 35.5185 8.1844 57.5842 21.7984 71.1804C35.4123 84.7972 57.5018 84.7972 71.1362 71.1804C84.7707 57.5637 84.7707 35.498 71.1362 21.9017ZM69.0481 37.9178C63.2954 47.9048 57.5427 57.8918 51.79 67.8993C50.7255 69.7654 49.1696 70.8728 47.0405 71.0369C44.6657 71.2009 42.7823 70.1961 41.5745 68.1454C37.9304 61.8907 34.3273 55.595 30.7242 49.3198C28.5337 45.5055 26.3227 41.6911 24.1322 37.8563C21.9212 34.0009 24.4188 29.3048 28.8408 29.0792C31.1746 28.9562 32.9762 30.0431 34.1635 32.0733C35.7808 34.8417 37.3777 37.6512 38.995 40.4402C40.1619 42.4499 41.2878 44.4801 42.4752 46.4488C44.1949 49.3403 46.7334 50.9604 50.1113 51.1654C54.8813 51.4525 59.3238 47.9868 59.897 42.9216C59.938 42.5524 59.9584 42.1628 59.9789 41.9782C59.9584 40.3377 59.6513 38.9432 58.9962 37.6512C57.2152 34.083 59.1191 30.0841 62.9883 29.2228C66.141 28.5255 69.4166 30.8428 69.826 34.042C70.0307 35.4159 69.7441 36.7079 69.0481 37.9178Z" fill="white"/>
<defs>
<linearGradient id="paint0_linear_101_164" x1="29.1473" y1="16.3219" x2="73.4252" y2="93.4346" gradientUnits="userSpaceOnUse">
<stop stop-opacity="0.2"/>
<stop offset="0.7908" stop-opacity="0.05"/>
</linearGradient>
</defs>
</svg>
