<svg width="82" height="93" viewBox="0 0 82 93" fill="none" xmlns="http://www.w3.org/2000/svg">
<path d="M40.9129 11.2288C30.7633 11.2288 21.0295 15.2607 13.8527 22.4375C6.67592 29.6143 2.64404 39.3481 2.64404 49.4976C2.64404 59.6472 6.67592 69.381 13.8527 76.5578C21.0295 83.7346 30.7633 87.7665 40.9129 87.7665C51.0624 87.7665 60.7962 83.7346 67.973 76.5578C75.1498 69.381 79.1817 59.6472 79.1817 49.4976C79.1817 39.3481 75.1498 29.6143 67.973 22.4375C60.7962 15.2607 51.0624 11.2288 40.9129 11.2288Z" fill="#354358"/>
<path opacity="0.2" d="M45.3979 3.11023C44.4006 3.11654 42.4984 3.28372 41.5249 3.55337C38.2738 4.45429 35.2417 8.68569 34.1189 11.7643C33.9501 12.2273 33.7328 12.6499 33.6333 12.6992C33.5337 12.7486 33.1447 12.8456 32.7713 12.9238C28.9241 13.7291 24.2267 15.4937 21.0066 17.337C13.7662 21.4818 8.21207 27.3654 4.59806 34.7169C2.55695 38.8688 1.39988 42.6767 0.731144 47.4467C0.44726 49.4717 0.446821 55.6005 0.731144 57.627C2.01415 66.7531 5.83887 74.5756 12.1255 80.9438C19.2879 88.1991 28.4838 92.3333 38.8843 92.9755C40.1768 93.0553 44.0894 92.9292 45.6104 92.757C49.8552 92.2765 54.3753 90.9812 58.2613 89.1329C70.9313 83.1068 79.5678 71.026 81.1593 57.1171C81.2378 56.4309 81.3044 54.5564 81.305 52.9345C81.5515 48.3021 79.649 43.7044 77.7416 40.32C75.7705 36.2362 75.3906 32.6967 75.1002 28.3441C75.1402 28.0782 75.1351 27.8029 75.0939 27.737C69.8722 29.3427 65.4023 33.5618 62.6538 37.4656C60.7952 40.4314 59.5779 43.4613 59.5726 46.1294C59.832 52.9381 65.6603 57.8405 65.7888 63.9889C65.7888 70.5158 61.8576 76.8265 57.1868 81.3384C56.2471 82.2462 56.0211 82.4126 55.9181 82.3097C55.884 82.2756 56.0309 81.8755 56.2398 81.4173C59.4904 74.2844 58.8062 65.7349 53.8116 59.7456C53.1136 58.9085 50.3654 56.1921 49.9751 55.9515C50.1542 56.8941 50.2456 57.8513 50.2483 58.8107C50.2483 67.3935 43.2905 74.3512 34.7078 74.3512C26.125 74.3512 19.1673 67.3935 19.1673 58.8107C19.1673 50.2279 26.125 43.2702 34.7078 43.2702C35.6879 43.2731 36.6655 43.3686 37.6277 43.5556C37.6779 43.5584 37.7293 43.5583 37.7794 43.5618C37.9243 43.4383 38.0162 43.3259 38.0162 43.2886C38.0162 43.0479 34.1906 39.2176 33.1294 38.3958C30.972 36.7249 28.5159 34.7103 25.6809 33.9765C24.9218 33.7801 24.5215 33.6228 24.5215 33.5212C24.5215 33.2326 27.218 32.4298 30.2095 31.8275C33.845 31.0956 36.2033 30.9165 43.249 30.8441C46.205 30.8136 49.1184 30.7375 49.7262 30.6741C57.3209 29.4502 63.4306 24.476 66.1515 18.9155C66.2277 18.6628 66.2193 18.6606 65.0406 18.6606C62.5451 18.6606 60.0332 18.1422 57.6421 17.0883C54.5462 15.3317 51.8227 13.2968 48.506 12.5838C47.6506 12.4 45.3301 12.3675 44.0321 12.1893C43.7275 9.58259 44.8845 5.80209 45.9989 4.124C46.2757 3.72802 46.4819 3.34496 46.4603 3.2802C46.4186 3.15558 45.9963 3.10665 45.3979 3.11023V3.11023Z" fill="black"/>
<path d="M45.3979 0.00231725C44.4006 0.00862669 42.4984 0.175811 41.5249 0.445464C38.2738 1.34638 35.2417 5.57778 34.1189 8.65641C33.9501 9.11936 33.7328 9.542 33.6333 9.59126C33.5337 9.64074 33.1447 9.73773 32.7713 9.81587C28.9241 10.6212 24.2267 12.3858 21.0066 14.2291C13.7662 18.3738 8.21207 24.2575 4.59806 31.609C2.55695 35.7609 1.39988 39.5688 0.731144 44.3388C0.44726 46.3638 0.446821 52.4926 0.731144 54.5191C2.01415 63.6452 5.83887 71.4677 12.1255 77.8359C19.2879 85.0912 28.4838 89.2254 38.8843 89.8676C40.1768 89.9474 44.0894 89.8213 45.6104 89.6491C49.8552 89.1686 54.3753 87.8733 58.2613 86.025C70.9313 79.9989 79.5678 67.9181 81.1593 54.0092C81.2378 53.323 81.3044 51.4485 81.305 49.8266C81.5515 45.1942 79.649 40.5965 77.7416 37.2121C75.7705 33.1283 75.3906 29.5888 75.1002 25.2362C75.1402 24.9703 75.1351 24.695 75.0939 24.6291C69.8722 26.2348 65.4023 30.4539 62.6538 34.3577C60.7952 37.3234 59.5779 40.3534 59.5726 43.0215C59.832 49.8302 65.6603 54.7326 65.7888 60.881C65.7888 67.4079 61.8576 73.7186 57.1868 78.2305C56.2471 79.1383 56.0211 79.3047 55.9181 79.2018C55.884 79.1677 56.0309 78.7676 56.2398 78.3094C59.4904 71.1765 58.8062 62.627 53.8116 56.6377C53.1136 55.8006 50.3654 53.0842 49.9751 52.8436C50.1542 53.7862 50.2456 54.7434 50.2483 55.7028C50.2483 64.2856 43.2905 71.2433 34.7078 71.2433C26.125 71.2433 19.1673 64.2856 19.1673 55.7028C19.1673 47.12 26.125 40.1623 34.7078 40.1623C35.6879 40.1651 36.6655 40.2607 37.6277 40.4477C37.6779 40.4505 37.7293 40.4504 37.7794 40.4539C37.9243 40.3304 38.0162 40.218 38.0162 40.1807C38.0162 39.94 34.1906 36.1097 33.1294 35.2879C30.972 33.617 28.5159 31.6024 25.6809 30.8685C24.9218 30.6721 24.5215 30.5149 24.5215 30.4133C24.5215 30.1247 27.218 29.3219 30.2095 28.7196C33.845 27.9877 36.2033 27.8086 43.249 27.7362C46.205 27.7057 49.1184 27.6296 49.7262 27.5662C57.3209 26.3423 63.4306 21.3681 66.1515 15.8076C66.2277 15.5549 66.2193 15.5527 65.0406 15.5527C62.5451 15.5527 60.0332 15.0343 57.6421 13.9804C54.5462 12.2238 51.8227 10.1889 48.506 9.47592C47.6506 9.29205 45.3301 9.25962 44.0321 9.08134C43.7275 6.47468 44.8845 2.69418 45.9989 1.01609C46.2757 0.620106 46.4819 0.237047 46.4603 0.172291C46.4186 0.047666 45.9963 -0.00126491 45.3979 0.00231873V0.00231725Z" fill="#41A6CC"/>
<path opacity="0.2" d="M45.3977 0.000182498C44.4004 0.00649194 42.4982 0.173677 41.5247 0.443329C38.2736 1.34424 35.2415 5.5781 34.1187 8.65672C33.9499 9.11968 33.7326 9.54232 33.6331 9.59158C33.5335 9.64105 33.1445 9.73805 32.771 9.81619C28.9239 10.6215 24.2265 12.3861 21.0064 14.2294C13.766 18.3742 8.21184 24.2578 4.59783 31.6093C2.55672 35.7612 1.39965 39.5691 0.730913 44.3392C0.545659 45.6606 0.5287 48.4441 0.585221 50.9803C0.615388 49.631 0.632335 48.1504 0.730913 47.4473C1.39965 42.6772 2.55672 38.8693 4.59783 34.7174C8.21184 27.3659 13.766 21.4823 21.0064 17.3375C24.2265 15.4942 28.9239 13.7296 32.771 12.9243C33.1445 12.8461 33.5335 12.7492 33.6331 12.6997C33.7326 12.6504 33.9499 12.2278 34.1187 11.7648C35.2415 8.6862 38.2736 4.45234 41.5247 3.55143C42.3994 3.30915 43.9589 3.16704 45.0031 3.13256C45.3135 2.29898 45.6509 1.53763 45.9987 1.01396C46.2755 0.617971 46.4816 0.234912 46.46 0.170157C46.4184 0.0455312 45.9961 -0.00340114 45.3977 0.000182498ZM44.2382 9.09987C44.043 10.1802 43.9232 11.2595 44.0318 12.1898C45.3299 12.368 47.6504 12.4005 48.5058 12.5843C51.8225 13.2973 54.5459 15.332 57.6419 17.0887C59.8279 18.0522 62.1152 18.5492 64.3984 18.6306C65.0676 17.7146 65.679 16.776 66.1528 15.8078C66.229 15.5551 66.2205 15.5528 65.0419 15.5528C62.5463 15.5528 60.033 15.0344 57.6419 13.9806C54.5459 12.2239 51.8225 10.1892 48.5058 9.47624C47.6872 9.30027 45.5602 9.25903 44.2382 9.09987ZM75.0946 24.6282C69.8729 26.2339 65.4047 30.4554 62.6561 34.3592C60.7975 37.325 59.5777 40.3537 59.5723 43.0219C59.5905 43.4987 59.6916 43.9467 59.7605 44.4059C60.1455 42.1901 61.1857 39.8137 62.6561 37.4673C65.4047 33.5635 69.8729 29.342 75.0946 27.7363C75.1358 27.8022 75.1407 28.0775 75.1007 28.3434C75.3911 32.696 75.7702 36.2367 77.7413 40.3205C79.368 43.2069 80.9787 46.9751 81.2683 50.8953C81.2762 50.4721 81.3046 50.2412 81.3047 49.8269C81.5512 45.1945 79.6487 40.5968 77.7413 37.2124C75.7702 33.1286 75.3911 29.5879 75.1007 25.2353C75.1407 24.9694 75.1358 24.6941 75.0946 24.6282ZM28.7159 32.1921C26.4473 32.7216 24.5212 33.2873 24.5212 33.5215C24.5212 33.6232 24.9216 33.7804 25.6807 33.9768C28.5157 34.7106 30.9718 36.7252 33.1292 38.3961C33.4872 38.6734 34.3132 39.4842 35.0475 40.193C35.9129 40.2145 36.7772 40.2827 37.6274 40.448C37.6776 40.4508 37.729 40.4506 37.7792 40.454C37.924 40.3306 38.016 40.2181 38.016 40.1809C38.0159 39.9401 34.1903 36.1099 33.1292 35.288C31.7862 34.2479 30.3098 33.1067 28.7159 32.1921ZM49.9749 52.8439C50.154 53.7865 50.2454 54.7437 50.248 55.7031C50.248 55.8649 50.2287 56.0222 50.2237 56.1827C50.8703 56.7053 53.1615 58.9667 53.8114 59.7461C56.4336 62.8905 57.8332 66.7414 58.1336 70.7216C58.4909 65.6732 57.1134 60.5976 53.8114 56.638C53.1133 55.8009 50.3652 53.0846 49.9749 52.8439ZM19.246 57.2572C19.1953 57.768 19.167 58.2871 19.167 58.8112C19.167 67.394 26.1248 74.3517 34.7075 74.3517C43.2903 74.3517 50.248 67.394 50.248 58.8112C50.2469 58.3915 50.1617 57.9785 50.1266 57.5607C49.2075 65.2666 42.6609 71.2436 34.7075 71.2436C26.6489 71.2436 20.0252 65.1108 19.246 57.2572ZM65.6428 62.8724C64.9653 68.5577 61.5233 73.9447 57.4416 77.9698C57.1269 79.1421 56.7491 80.2998 56.2396 81.4178C56.0306 81.876 55.8838 82.2761 55.9179 82.3102C56.0209 82.4132 56.2468 82.2467 57.1866 81.3389C61.8574 76.827 65.7885 70.5163 65.7885 63.9894C65.7806 63.6082 65.6919 63.2448 65.6428 62.8724Z" fill="white"/>
</svg>
