<svg width="94" height="93" viewBox="0 0 94 93" fill="none" xmlns="http://www.w3.org/2000/svg">
<path fill-rule="evenodd" clip-rule="evenodd" d="M93.3665 46.5C93.3665 72.1811 72.5475 93 46.8665 93C21.1854 93 0.366455 72.1811 0.366455 46.5C0.366455 20.8189 21.1854 0 46.8665 0C72.5475 0 93.3665 20.8189 93.3665 46.5Z" fill="url(#paint0_linear_101_142)"/>
<path fill-rule="evenodd" clip-rule="evenodd" d="M91.1142 46.5C91.1142 70.9371 71.3037 90.7476 46.8666 90.7476C22.4293 90.7476 2.6189 70.9371 2.6189 46.5C2.6189 22.0627 22.4293 2.25232 46.8666 2.25232C71.3037 2.25232 91.1142 22.0627 91.1142 46.5Z" fill="white"/>
<path fill-rule="evenodd" clip-rule="evenodd" d="M76.8008 27.3187L51.916 51.6586V81.9198C51.916 82.4648 49.5548 82.9007 46.8665 82.937C44.2871 82.9007 41.8168 82.4648 41.8168 81.9198V51.6586L16.9321 27.3187C16.5324 26.9191 17.804 25.03 19.7657 23.0683C21.7274 21.1066 23.6527 19.8351 24.016 20.2347L46.8301 42.5039L69.6442 20.2347C70.0438 19.8351 71.9329 21.1066 73.8946 23.0683C75.8563 25.03 77.1641 26.9191 76.8008 27.3187Z" fill="#EC1C24"/>
<defs>
<linearGradient id="paint0_linear_101_142" x1="46.8665" y1="0" x2="46.8665" y2="93" gradientUnits="userSpaceOnUse">
<stop stop-color="#F5F5F6"/>
<stop offset="1" stop-color="#EDEDEE"/>
</linearGradient>
</defs>
</svg>
