<svg width="29" height="29" viewBox="0 0 29 29" fill="none" xmlns="http://www.w3.org/2000/svg">
    <path d="M5.25008 18.3542C5.25008 19.2021 4.55633 19.8958 3.70841 19.8958C2.8605 19.8958 2.16675 19.2021 2.16675 18.3542V11.4167C2.16675 10.5687 2.8605 9.875 3.70841 9.875C4.55633 9.875 5.25008 10.5687 5.25008 11.4167V18.3542ZM26.8334 18.3542C26.8334 19.2021 26.1397 19.8958 25.2917 19.8958C24.4438 19.8958 23.7501 19.2021 23.7501 18.3542V11.4167C23.7501 10.5687 24.4438 9.875 25.2917 9.875C26.1397 9.875 26.8334 10.5687 26.8334 11.4167V18.3542ZM12.9584 26.8333C12.9584 27.6812 12.2647 28.375 11.4167 28.375C10.5688 28.375 9.87508 27.6812 9.87508 26.8333V19.8958C9.87508 19.0479 10.5688 18.3542 11.4167 18.3542C12.2647 18.3542 12.9584 19.0479 12.9584 19.8958V26.8333ZM19.1251 26.8333C19.1251 27.6812 18.4313 28.375 17.5834 28.375C16.7355 28.375 16.0417 27.6812 16.0417 26.8333V19.8958C16.0417 19.0479 16.7355 18.3542 17.5834 18.3542C18.4313 18.3542 19.1251 19.0479 19.1251 19.8958V26.8333Z"
          fill="#7CB342"/>
    <path d="M6.79175 9.87502V21.4375C6.79175 22.2854 7.4855 22.9792 8.33341 22.9792H20.6667C21.5147 22.9792 22.2084 22.2854 22.2084 21.4375V9.87502H6.79175ZM14.5001 2.16669C9.87508 2.16669 7.023 4.94169 6.79175 8.33335H22.2084C21.9772 4.94169 19.1251 2.16669 14.5001 2.16669ZM11.4167 6.48335C10.9542 6.48335 10.6459 6.17502 10.6459 5.71252C10.6459 5.25002 10.9542 4.94169 11.4167 4.94169C11.8792 4.94169 12.1876 5.25002 12.1876 5.71252C12.1876 6.09794 11.8792 6.48335 11.4167 6.48335ZM17.5834 6.48335C17.1209 6.48335 16.8126 6.17502 16.8126 5.71252C16.8126 5.25002 17.1209 4.94169 17.5834 4.94169C18.0459 4.94169 18.3542 5.25002 18.3542 5.71252C18.3542 6.09794 18.0459 6.48335 17.5834 6.48335Z"
          fill="#7CB342"/>
    <path d="M17.8145 4.09377C17.6603 4.09377 17.5062 4.01668 17.352 3.9396C16.9666 3.70835 16.8895 3.24585 17.1208 2.86043L18.4312 0.93335C18.6624 0.547933 19.1249 0.47085 19.5103 0.7021C19.8958 0.93335 19.9728 1.39585 19.7416 1.78127L18.4312 3.70835C18.3541 3.9396 18.1228 4.09377 17.8145 4.09377ZM10.877 3.78543C10.6458 3.78543 10.3374 3.63127 10.2603 3.40002L9.25825 1.78127C9.027 1.39585 9.10408 0.93335 9.4895 0.7021C9.87492 0.47085 10.3374 0.547933 10.5687 0.93335L11.5708 2.5521C11.802 2.93752 11.7249 3.40002 11.3395 3.63127C11.1853 3.70835 11.0312 3.78543 10.877 3.78543Z"
          fill="#7CB342"/>
</svg>
