<svg width="106" height="124" viewBox="0 0 106 124" fill="none" xmlns="http://www.w3.org/2000/svg">
    <path d="M77.6115 43.3256C78.9706 46.2851 80.4875 49.1707 81.8358 52.1356C84.4304 57.8416 86.401 63.8662 87.2196 70.0802C88.0381 76.2943 87.6821 82.7112 85.7411 88.6694C83.5463 95.3952 79.3797 101.379 74.2747 106.276C68.2355 112.07 60.4833 116.536 52.1208 116.866C46.6719 117.08 41.2471 115.523 36.4218 112.983C32.3666 110.848 28.6646 108.004 25.7109 104.501C22.7573 100.997 20.5642 96.8257 19.5486 92.3569C18.298 86.8541 18.8641 81.0124 20.7566 75.6962C22.1103 71.8943 24.1168 68.3547 25.5452 64.5804C27.1063 60.4563 27.9779 56.0526 30.0462 52.1581C31.9204 48.6268 34.7321 45.6105 36.2256 41.9022C37.1176 39.6874 37.5046 37.3085 38.0806 34.9911C38.6566 32.6736 39.4631 30.3394 41.0317 28.5391C42.9226 26.3698 45.7665 25.1939 48.6245 24.8637C51.4826 24.5336 54.3757 24.9793 57.1807 25.6192C59.4139 26.1285 61.6199 26.7609 63.778 27.5285C65.62 28.1838 67.4454 28.9469 69.0382 30.0806C71.2088 31.625 72.8618 33.7998 74.1787 36.1156C75.4956 38.4314 76.5037 40.9054 77.6157 43.326L77.6115 43.3256Z"
          fill="#020204"/>
    <path d="M53.6151 116.918C55.9109 117.052 58.2025 117.275 60.4774 117.618C62.4778 117.922 64.4638 118.314 66.4297 118.792C69.509 119.539 72.5774 120.49 75.7448 120.58C76.5784 120.604 77.4144 120.567 78.2326 120.386C79.0507 120.205 79.8363 119.875 80.4887 119.355C81.4613 118.58 82.0749 117.411 82.3074 116.188C82.5399 114.965 82.3942 113.693 82.0361 112.502C81.3202 110.12 79.782 108.088 78.5143 105.95C77.786 104.727 77.1369 103.454 76.348 102.269C75.559 101.083 74.6157 99.973 73.4177 99.2008C71.7614 98.133 69.7077 97.7849 67.7471 97.9803C65.7865 98.1756 63.9069 98.884 62.1571 99.7902C59.7043 101.06 57.3956 102.804 56.0586 105.221C55.5932 106.062 55.2551 106.966 54.8598 107.842C54.4645 108.719 54.0016 109.581 53.3321 110.271C52.5849 111.04 51.6157 111.558 50.843 112.301C50.4569 112.676 50.1188 113.104 49.9247 113.602C49.7306 114.1 49.6776 114.669 49.8579 115.174C49.9819 115.52 50.2086 115.824 50.4882 116.063C50.7679 116.301 51.0985 116.476 51.4454 116.597C52.1383 116.841 52.8855 116.877 53.6189 116.919L53.6151 116.918Z"
          fill="#020204"/>
    <path d="M46.7908 116.77C44.8774 116.815 42.984 117.157 41.114 117.544C39.3224 117.914 37.5392 118.327 35.7694 118.791C32.7832 119.575 29.7933 120.514 26.7065 120.58C25.8942 120.596 25.076 120.552 24.2842 120.369C23.4924 120.186 22.726 119.86 22.0907 119.353C21.1202 118.579 20.5033 117.412 20.2749 116.193C20.0466 114.973 20.186 113.703 20.54 112.513C21.2483 110.134 22.7673 108.097 24.0112 105.949C24.7179 104.728 25.3415 103.459 26.1058 102.273C26.8701 101.087 27.7905 99.9743 28.9693 99.1992C30.5755 98.1431 32.5787 97.7854 34.4917 97.9736C36.4047 98.1619 38.238 98.8669 39.9252 99.7886C42.307 101.09 44.4821 102.88 45.8592 105.215C46.8255 106.855 47.3827 108.732 48.5122 110.265C49.1204 111.091 49.8897 111.803 50.3906 112.695C50.6436 113.141 50.8289 113.633 50.8719 114.144C50.9149 114.655 50.8093 115.187 50.5213 115.611C50.3313 115.892 50.0675 116.119 49.7728 116.286C49.4781 116.454 49.153 116.564 48.8211 116.633C48.1533 116.772 47.4729 116.75 46.7946 116.767L46.7908 116.77ZM36.0991 37.0919C35.8303 33.857 35.8904 30.6041 35.7736 27.3599C35.6575 24.2406 35.3703 21.1229 35.4751 18.0031C35.582 14.8308 36.1138 11.6167 37.5263 8.76571C38.9388 5.91477 41.2329 3.50294 44.0317 1.9944C46.6614 0.575188 49.6944 -0.0313172 52.6864 0.00124121C56.7437 0.0454872 60.811 1.27102 64.096 3.65112C66.156 5.14213 67.8883 7.06433 69.2549 9.20859C70.4207 11.039 71.3265 13.038 71.895 15.1359C73.0609 19.4353 72.7841 23.9634 73.0112 28.408C73.2262 32.6206 73.9003 36.8231 73.6707 41.0348C73.6206 41.9532 73.5221 42.8857 73.1143 43.7063C72.7169 44.5057 72.0424 45.1485 71.2672 45.5918C70.4921 46.0351 69.6197 46.2872 68.7377 46.4233C66.9733 46.6954 65.1688 46.5159 63.3914 46.6808C60.8118 46.92 58.3511 47.8767 55.7911 48.2728C52.744 48.7445 49.6313 48.4106 46.5462 48.287C45.3107 48.2378 44.0709 48.2223 42.8446 48.0683C41.6182 47.9143 40.3944 47.6175 39.3032 47.0356C38.6354 46.6775 38.0122 46.2112 37.5104 45.6373C37.0087 45.0633 36.6255 44.385 36.4347 43.6433C36.148 42.5359 36.2991 41.37 36.3033 40.2259C36.3074 39.1798 36.1856 38.1376 36.0946 37.0953L36.0991 37.0919Z"
          fill="#020204"/>
    <path d="M40.9541 35.8456C40.5174 36.3924 40.2328 37.0507 40.0608 37.7298C39.8888 38.409 39.8262 39.1106 39.7991 39.8102C39.7456 41.2098 39.8308 42.6361 39.461 43.9869C39.0644 45.4311 38.177 46.6817 37.3079 47.9014C35.8031 50.0135 34.2817 52.1799 33.5399 54.6644C33.0904 56.1692 32.9405 57.7628 33.1025 59.3248C31.4182 61.7984 29.9593 64.4256 28.7517 67.1639C26.921 71.3138 25.6645 75.7322 25.2225 80.2457C24.6815 85.7731 25.3886 91.4583 27.5713 96.5654C29.1491 100.258 31.5025 103.638 34.5363 106.269C36.0786 107.607 37.7921 108.748 39.6288 109.649C45.9789 112.77 53.8263 112.775 60.0708 109.448C63.3342 107.71 66.0891 105.167 68.7447 102.594C70.3443 101.044 71.9355 99.458 73.1556 97.5947C75.5044 94.0083 76.3225 89.6488 76.8309 85.392C77.72 77.9482 77.7484 70.0854 74.485 63.3366C73.3581 61.0085 71.8671 58.8751 70.0684 57.0165C69.5904 53.769 68.6466 50.5896 67.275 47.6071C66.2857 45.4554 65.0761 43.4071 64.1569 41.2248C63.7796 40.3287 63.4473 39.4112 63.0328 38.5338C62.6183 37.6564 62.0978 36.8119 61.3949 36.1399C60.6757 35.4512 59.7795 34.9636 58.8336 34.6514C57.8878 34.3392 56.8926 34.1977 55.8992 34.1476C53.9102 34.0474 51.917 34.3074 49.9276 34.2285C48.3436 34.1659 46.7645 33.8879 45.1816 33.9814C44.3902 34.0282 43.5996 34.1693 42.865 34.4677C42.1303 34.7662 41.4533 35.2262 40.9591 35.8452L40.9541 35.8456Z"
          fill="#FDFDFB"/>
    <g opacity="0.3" filter="url(#filter0_f_7_311)">
        <path d="M37.9971 37.3952C39.3779 38.2488 40.6173 39.2961 41.6579 40.4911C42.6234 41.5999 43.4444 42.8572 44.705 43.6784C45.5954 44.2582 46.6648 44.5851 47.7496 44.6843C49.0236 44.8008 50.3126 44.6124 51.5406 44.2798C52.6789 43.9714 53.7792 43.5377 54.7889 42.9648C56.7082 41.8745 58.3119 40.2761 60.424 39.5595C60.8861 39.403 61.3674 39.2911 61.8128 39.0981C62.2582 38.9051 62.6768 38.616 62.8897 38.2069C63.0984 37.8139 63.0859 37.3602 63.1527 36.9284C63.2236 36.4671 63.3839 36.0203 63.4716 35.5612C63.5592 35.1021 63.5697 34.6108 63.3547 34.1886C63.1761 33.8387 62.8517 33.5627 62.4781 33.387C62.1045 33.2113 61.685 33.1317 61.266 33.1124C60.4286 33.074 59.6013 33.272 58.7665 33.3424C57.6603 33.4354 56.5467 33.3039 55.4368 33.3347C54.0559 33.3731 52.6952 33.6615 51.3152 33.7211C49.7407 33.7895 48.1704 33.5604 46.5951 33.5096C45.9138 33.4873 45.228 33.4981 44.5564 33.6069C43.8848 33.7157 43.2257 33.9229 42.6572 34.2705C42.1062 34.6077 41.6566 35.0652 41.1515 35.4586C40.899 35.6554 40.6306 35.8373 40.3359 35.9757C40.0412 36.1141 39.7181 36.2083 39.3884 36.2229C39.2185 36.2306 39.0469 36.2172 38.8791 36.241C38.7384 36.2628 38.6037 36.31 38.4829 36.38C38.362 36.45 38.2575 36.5414 38.1751 36.6488C38.0928 36.7562 38.0344 36.8776 38.0033 37.0059C37.9722 37.1342 37.969 37.2669 37.9938 37.3964L37.9971 37.3952Z"
              fill="black"/>
    </g>
    <path d="M41.5919 18.5428C40.8489 18.5833 40.1372 18.9269 39.5933 19.4349C39.0494 19.9429 38.6667 20.6086 38.4304 21.3149C37.9587 22.7274 38.0652 24.2585 38.1716 25.7395C38.2689 27.0844 38.3678 28.4548 38.8716 29.7058C39.1233 30.3311 39.4769 30.9163 39.9485 31.4022C40.4202 31.888 41.0138 32.2545 41.6675 32.4181C42.2811 32.5718 42.9356 32.54 43.5387 32.3505C44.1419 32.161 44.6925 31.8162 45.1441 31.3746C45.8036 30.7297 46.2473 29.8861 46.502 28.9995C46.7566 28.1129 46.8292 27.1829 46.8159 26.2613C46.7992 25.1075 46.6489 23.9488 46.2874 22.8535C45.9259 21.7582 45.3499 20.7234 44.5455 19.8957C44.1561 19.495 43.7115 19.1423 43.2098 18.8951C42.7081 18.648 42.1483 18.509 41.5902 18.5391L41.5919 18.5428Z"
          fill="url(#paint0_radial_7_311)"/>
    <path d="M54.748 18.5428C53.5876 19.3359 52.615 20.4525 52.1392 21.7778C51.5398 23.4483 51.7693 25.3175 52.3479 26.9955C52.9406 28.714 53.9315 30.3515 55.4284 31.3834C56.1768 31.8993 57.043 32.2529 57.9454 32.3601C58.8479 32.4674 59.7862 32.3205 60.5918 31.901C61.574 31.3892 62.3233 30.493 62.7883 29.4883C63.2533 28.4836 63.452 27.372 63.5137 26.2659C63.5972 24.8571 63.4553 23.4249 62.992 22.0917C62.489 20.6433 61.5728 19.3075 60.29 18.474C59.6472 18.0574 58.9159 17.771 58.157 17.6663C57.3982 17.5615 56.6105 17.64 55.8963 17.9176C55.4893 18.0762 55.1087 18.2961 54.7484 18.5437L54.748 18.5428Z"
          fill="url(#paint1_radial_7_311)"/>
    <g opacity="0.3" filter="url(#filter1_f_7_311)">
        <path d="M41.3448 30.5611L39.2009 32.5166C38.8236 32.8965 38.4454 33.3031 38.2763 33.8106C38.1261 34.2614 38.1545 34.7511 38.0802 35.2215C38.0551 35.3826 38.0176 35.5429 38.0167 35.7057C38.0153 35.7873 38.0263 35.8686 38.0493 35.947C38.0731 36.025 38.1119 36.0985 38.1682 36.1582C38.2609 36.2571 38.3928 36.3109 38.5255 36.3377C38.6583 36.3644 38.7948 36.3677 38.9296 36.3823C39.5374 36.4479 40.0975 36.7426 40.6009 37.0898L42.0828 38.1689C43.2223 38.8927 44.5843 39.2145 45.9338 39.2658C47.2833 39.3172 48.6295 39.1114 49.9535 38.8463C51.0054 38.636 52.0548 38.3872 53.0529 37.9931C54.5818 37.3904 55.9597 36.4625 57.2763 35.4795C57.8744 35.0328 58.4642 34.5724 59.0014 34.054C59.1838 33.8778 59.3604 33.695 59.5558 33.5339C59.7511 33.3728 59.9682 33.2325 60.2094 33.1549C60.5768 33.0367 60.9758 33.0706 61.3565 33.134C61.6433 33.182 61.9309 33.2467 62.2214 33.2342C62.3666 33.2283 62.5123 33.2033 62.6471 33.149C62.782 33.0948 62.9068 33.0113 62.999 32.8986C63.1194 32.7479 63.1846 32.5605 63.1835 32.3676C63.1844 32.1764 63.1251 31.9878 63.0291 31.8229C62.835 31.4931 62.4998 31.2707 62.1504 31.1154C61.6721 30.9025 61.1545 30.7981 60.6452 30.6746C59.082 30.2972 57.5626 29.7396 56.1221 29.0241C55.4058 28.6685 54.7096 28.2745 54.005 27.8971C53.2803 27.5089 52.5419 27.1357 51.7551 26.8974C49.9965 26.3644 48.0735 26.5393 46.3383 27.142C44.4098 27.8115 42.6663 29.0049 41.3435 30.5598L41.3448 30.5611Z"
              fill="black"/>
    </g>
    <g filter="url(#filter2_f_7_311)">
        <path d="M59.5451 5.389C58.475 6.1441 58.9425 7.08676 59.4027 8.03328C59.863 8.97979 58.3908 11.7077 58.3749 11.8251C58.3591 11.9425 61.2727 10.4424 62.0667 9.46747C63.0046 8.31655 65.3742 11.0248 65.2458 10.6121C65.2468 9.87484 60.6157 4.63391 59.5456 5.389H59.5451Z"
              fill="#7C7C7C"/>
    </g>
    <path d="M57.4244 22.047C56.9882 22.0783 56.5629 22.2273 56.1931 22.4644C55.8232 22.7015 55.5073 23.0133 55.2593 23.3744C54.7638 24.0957 54.5455 24.9802 54.5109 25.8538C54.4846 26.51 54.5568 27.175 54.7747 27.7948C54.9926 28.4147 55.3591 28.9886 55.8654 29.4073C56.383 29.836 57.0408 30.0935 57.7125 30.1253C58.3841 30.157 59.0649 29.9637 59.6159 29.5797C60.0554 29.2737 60.4098 28.8525 60.6623 28.3805C60.9149 27.9084 61.0672 27.3858 61.1361 26.8548C61.2588 25.9169 61.1202 24.9376 60.6865 24.0969C60.2529 23.2563 59.5178 22.5638 58.6299 22.2369C58.2459 22.095 57.8327 22.0216 57.4244 22.0508V22.047Z"
          fill="#020204"/>
    <g filter="url(#filter3_f_7_311)">
        <path d="M58.4655 24.9084C58.104 25.0511 57.5317 24.9614 57.3735 25.3162C57.2796 25.5266 57.4124 25.8726 57.6252 25.959C58.056 26.1343 58.7239 25.8171 58.8983 25.3851C58.9735 25.1972 58.8595 24.9009 58.673 24.8216C58.6041 24.7923 58.5352 24.88 58.4659 24.9075L58.4655 24.9084Z"
              fill="#141413"/>
    </g>
    <g filter="url(#filter4_f_7_311)">
        <path d="M60.1222 25.8477C60.6064 25.3635 59.7775 24.0779 59.1309 23.5519C58.6625 23.1708 57.2984 22.7713 57.3569 23.1867C57.4153 23.602 58.0247 24.1325 58.4401 24.5378C58.946 25.0367 59.8927 26.0781 60.1222 25.8477Z"
              fill="url(#paint2_linear_7_311)"/>
    </g>
    <g filter="url(#filter5_f_7_311)">
        <path d="M58.7785 15.1046C58.5794 15.3551 58.3995 15.6272 58.2568 15.9269C59.1525 16.1198 60.0099 16.4888 60.7738 16.9968C62.2535 17.9794 63.3772 19.4161 64.1653 21.0144C64.349 20.8107 64.5168 20.592 64.6612 20.349C63.8689 18.6844 62.7227 17.1787 61.1916 16.1623C60.4561 15.674 59.6367 15.305 58.779 15.1063L58.7785 15.1046Z"
              fill="url(#paint3_linear_7_311)"/>
    </g>
    <g filter="url(#filter6_f_7_311)">
        <path d="M41.5076 15.9206C41.4066 15.9185 41.3085 15.9277 41.207 15.9323L41.0109 15.944C41.6007 15.9974 42.1871 16.156 42.7198 16.3948C43.4461 16.7204 44.0864 17.1849 44.6503 17.7138C45.6955 18.6926 46.4723 19.9011 46.9983 21.1825C46.8698 20.2142 46.5788 19.2745 46.1376 18.403C45.9314 18.165 45.7176 17.9313 45.4856 17.7142C44.922 17.1858 44.2809 16.7216 43.555 16.3952C42.9205 16.1101 42.2134 15.9327 41.5072 15.9202L41.5076 15.9206Z"
              fill="url(#paint4_linear_7_311)"/>
    </g>
    <path d="M39.8004 24.6997C39.6451 25.6373 39.6392 26.6207 39.9615 27.5144C40.1702 28.1046 40.525 28.6401 40.9516 29.1006C41.2313 29.4019 41.5477 29.6758 41.9183 29.8532C42.289 30.0306 42.7181 30.1061 43.1163 30.0063C43.4836 29.9145 43.8059 29.6766 44.043 29.3815C44.2801 29.0864 44.4387 28.7332 44.5514 28.3713C44.8841 27.3028 44.8311 26.1331 44.5005 25.0637C44.2596 24.2844 43.861 23.5327 43.2369 23.0071C42.9393 22.7567 42.5908 22.5605 42.2122 22.4699C41.8336 22.3793 41.4233 22.401 41.0693 22.5617C40.6761 22.7404 40.3714 23.0806 40.1719 23.4634C39.9723 23.8461 39.8701 24.2731 39.7995 24.6989L39.8004 24.6997Z"
          fill="#020204"/>
    <g filter="url(#filter7_f_7_311)">
        <path d="M41.7822 24.0214C41.8832 24.286 42.2222 24.382 42.4084 24.5953C42.5891 24.8028 42.7786 25.0169 42.8779 25.2736C43.0679 25.7645 42.6901 26.4925 43.0867 26.8389C43.211 26.9474 43.4602 26.9499 43.5825 26.8389C44.0605 26.404 43.954 25.5266 43.7654 24.9084C43.5942 24.3474 43.1697 23.8164 42.6467 23.5497C42.4046 23.4265 42.0414 23.3243 41.8344 23.4996C41.7008 23.6123 41.72 23.8586 41.7822 24.0214V24.0214Z"
              fill="url(#paint5_linear_7_311)"/>
    </g>
    <path d="M38.0522 36.3539C38.0773 36.4771 38.1245 36.596 38.1887 36.7046C38.2998 36.8903 38.4617 37.041 38.6366 37.1679C38.8115 37.2948 39.001 37.4017 39.1843 37.5164C40.1585 38.1288 40.952 38.9899 41.6575 39.8986C42.6037 41.1183 43.4407 42.472 44.7046 43.359C45.597 43.9851 46.6648 44.342 47.7492 44.451C49.0223 44.5791 50.3121 44.3733 51.5402 44.0119C52.6781 43.6767 53.7788 43.2062 54.7885 42.5843C56.7086 41.4005 58.3115 39.6653 60.4236 38.8872C60.8857 38.7174 61.367 38.5959 61.8119 38.3863C62.2569 38.1768 62.676 37.8629 62.8889 37.4188C63.0976 36.9922 63.0851 36.4996 63.1518 36.0309C63.2228 35.53 63.3831 35.0449 63.4708 34.5465C63.5584 34.0481 63.5688 33.5147 63.3539 33.0564C63.1752 32.6765 62.8509 32.3768 62.4773 32.1861C62.1037 31.9953 61.6842 31.9089 61.2651 31.888C60.4278 31.8463 59.6005 32.0612 58.7656 32.1376C57.6595 32.2386 56.5458 32.0967 55.4359 32.1293C54.0551 32.171 52.6943 32.482 51.3144 32.5488C49.7399 32.6252 48.1691 32.3818 46.5942 32.3192C45.9122 32.2917 45.2251 32.2983 44.5522 32.4131C43.8794 32.5279 43.2186 32.7571 42.6572 33.1449C42.1104 33.523 41.6737 34.0381 41.1712 34.4739C40.9199 34.6918 40.6494 34.8913 40.3505 35.0362C40.0517 35.181 39.7215 35.2716 39.3888 35.2645C39.2218 35.2603 39.0423 35.2323 38.8796 35.2841C38.7777 35.3162 38.6875 35.3789 38.6107 35.4536C38.5339 35.5283 38.4709 35.6151 38.4112 35.704C38.2724 35.9102 38.1513 36.1277 38.0493 36.3544L38.0522 36.3539Z"
          fill="url(#paint6_radial_7_311)"/>
    <g filter="url(#filter8_f_7_311)">
        <path d="M44.2321 38.0508C44.076 38.7244 44.1751 39.432 44.5101 40.0369C44.8451 40.6418 45.3923 41.1012 46.0461 41.3263C46.8718 41.6018 47.8022 41.4665 48.5736 41.0641C49.0202 40.8304 49.4293 40.5023 49.6881 40.069C49.819 39.8524 49.9049 39.6116 49.9406 39.3611C49.974 39.1106 49.9511 38.8518 49.8634 38.616C49.7674 38.3572 49.5963 38.1284 49.3851 37.9498C49.1738 37.7711 48.9238 37.6417 48.6617 37.5549C48.1366 37.3813 47.5722 37.3779 47.0196 37.4046C46.1822 37.4449 45.3492 37.55 44.528 37.719"
              fill="#D9B30D"/>
    </g>
    <g filter="url(#filter9_f_7_311)">
        <path d="M41.5226 32.8677L39.8955 33.9376C39.6213 34.1321 39.3387 34.3425 39.1942 34.6455C39.0916 34.8605 39.0682 35.1047 39.069 35.3426C39.0699 35.5805 39.0815 35.8201 39.0498 36.0522C39.0289 36.2133 38.9855 36.3719 38.978 36.5343C38.9739 36.6157 38.9801 36.6971 39.0014 36.7764C39.0218 36.8555 39.0612 36.9285 39.1162 36.9889C39.1884 37.0653 39.2865 37.1124 39.3875 37.1433C39.4885 37.1742 39.592 37.1892 39.6947 37.2143C40.1852 37.3295 40.6118 37.6305 40.9862 37.9673L42.0882 39.0008C43.1472 39.8624 44.5509 40.2197 45.9117 40.2418C47.2725 40.2639 48.6266 39.9788 49.9586 39.6783L53.0579 38.8251C54.6035 38.2553 56.0382 37.3925 57.2813 36.3114C57.8448 35.8214 58.3736 35.2829 59.0064 34.8859C59.5658 34.5345 60.1932 34.3024 60.7621 33.9664C60.813 33.9363 60.8635 33.9054 60.909 33.8675C60.9545 33.8295 60.995 33.7848 61.0217 33.7318C61.0676 33.64 61.0676 33.5314 61.0384 33.4329C61.0092 33.3344 60.9524 33.2476 60.8882 33.1683C60.8172 33.0806 60.7366 33.0005 60.6502 32.927C60.0558 32.4178 59.249 32.2333 58.4688 32.1715C57.6887 32.1097 56.8993 32.1535 56.1313 32.0246C55.405 31.8993 54.715 31.6322 54.0142 31.408C53.2789 31.1703 52.527 30.9875 51.7647 30.8612C49.9719 30.569 48.1261 30.625 46.3479 30.9948C44.654 31.3475 43.0211 31.9841 41.5309 32.8648L41.5226 32.8677Z"
              fill="#604405"/>
    </g>
    <path d="M41.3448 30.9785C40.5392 31.5211 39.8146 32.1819 39.201 32.9341C38.8503 33.364 38.5314 33.8315 38.3549 34.3583C38.2159 34.7724 38.1687 35.2106 38.081 35.6385C38.0476 35.7988 38.0101 35.9599 38.0101 36.1227C38.0105 36.2045 38.0209 36.2867 38.046 36.3648C38.071 36.4428 38.1119 36.5159 38.1687 36.5747C38.2626 36.6724 38.3941 36.725 38.5268 36.7526C38.6596 36.7801 38.7956 36.7839 38.9301 36.7993C39.5374 36.8682 40.0963 37.1633 40.5997 37.5098L42.0832 38.5859C43.2244 39.308 44.5856 39.6286 45.9347 39.6807C47.2838 39.7329 48.63 39.528 49.9544 39.2633C51.0063 39.0534 52.0557 38.8042 53.0537 38.4101C54.5823 37.8074 55.9606 36.8795 57.2771 35.8964C57.8753 35.4498 58.4651 34.9894 59.0023 34.471C59.1847 34.2948 59.3613 34.112 59.5566 33.9509C59.752 33.7897 59.969 33.6495 60.2103 33.5719C60.5776 33.4537 60.9767 33.4875 61.3574 33.551C61.6441 33.599 61.9317 33.6637 62.2222 33.6512C62.3675 33.6453 62.5132 33.6203 62.648 33.566C62.7828 33.5118 62.9076 33.4283 62.9999 33.3156C63.1203 33.1649 63.1854 32.9775 63.1844 32.7846C63.1852 32.5934 63.126 32.4048 63.0299 32.2399C62.8358 31.9101 62.5007 31.6876 62.1513 31.5324C61.6729 31.3195 61.1553 31.2151 60.6461 31.0916C59.0829 30.7142 57.5635 30.1566 56.123 29.4411C55.4067 29.0855 54.7104 28.6914 54.0058 28.3141C53.2812 27.9259 52.5428 27.5527 51.756 27.3144C49.9974 26.7814 48.0744 26.9562 46.3392 27.559C44.4107 28.2285 42.6672 29.4219 41.3444 30.9768L41.3448 30.9785Z"
          fill="url(#paint7_linear_7_311)"/>
    <g filter="url(#filter10_f_7_311)">
        <path d="M53.7003 31.365C53.6059 31.2456 53.4707 31.1613 53.3246 31.1187C53.1785 31.0761 53.022 31.077 52.8721 31.0978C52.5716 31.1492 52.3028 31.3065 52.0515 31.4839C51.3377 31.9748 50.7074 32.5809 50.1577 33.2496C49.4293 34.1345 48.8282 35.158 48.6266 36.2863C48.5932 36.4762 48.5702 36.6703 48.594 36.8623C48.6178 37.0543 48.6913 37.2443 48.8278 37.3812C48.9472 37.5014 49.1099 37.5749 49.2777 37.5991C49.4455 37.6233 49.6184 37.5999 49.7786 37.5456C50.1001 37.4371 50.3672 37.2117 50.6193 36.9863C52.0118 35.7403 53.2712 34.2447 53.775 32.4448C53.8251 32.2641 53.8685 32.0792 53.8668 31.8917C53.8651 31.7043 53.8167 31.5119 53.7007 31.365H53.7003Z"
              fill="#F6DA4A"/>
    </g>
    <g opacity="0.8" filter="url(#filter11_f_7_311)">
        <path d="M50.3651 28.7854C50.4611 29.0951 50.9612 29.0442 51.25 29.1924C51.5034 29.3226 51.7067 29.6085 51.9918 29.6169C52.2631 29.6252 52.6864 29.523 52.7223 29.2537C52.769 28.8977 52.2489 28.6714 51.9146 28.5408C51.4846 28.373 50.9324 28.2878 50.5288 28.5124C50.4361 28.5638 50.3351 28.6844 50.3668 28.7858L50.3651 28.7854Z"
              fill="url(#paint8_radial_7_311)"/>
    </g>
    <g opacity="0.8" filter="url(#filter12_f_7_311)">
        <path d="M45.597 28.6059C45.2263 28.4849 44.6132 29.139 44.8131 29.4742C44.8682 29.566 45.0364 29.6829 45.1495 29.6203C45.3207 29.5263 45.4601 29.1903 45.645 29.0588C45.7686 28.9712 45.741 28.6531 45.5966 28.6063L45.597 28.6059Z"
              fill="url(#paint9_radial_7_311)"/>
    </g>
    <g filter="url(#filter13_f_7_311)">
        <path d="M61.9419 34.9683C62.6006 34.9683 63.2087 34.3078 63.3 33.4931C63.3913 32.6783 62.9314 32.0178 62.2727 32.0178C61.614 32.0178 61.0059 32.6783 60.9146 33.4931C60.8233 34.3078 61.2832 34.9683 61.9419 34.9683Z"
              fill="url(#paint10_linear_7_311)"/>
    </g>
    <path d="M79.5224 61.5733C82.0624 63.6166 83.6741 66.7017 84.1724 69.9229C84.5615 72.4357 84.3085 75.0133 83.7425 77.4915C83.1765 79.9697 82.3016 82.3652 81.4334 84.7545C81.0869 85.7075 80.7396 86.6692 80.6019 87.6735C80.4641 88.6778 80.5518 89.7414 81.036 90.6321C81.5911 91.6531 82.6276 92.3561 83.7417 92.6871C84.8416 93.0139 86.0291 93.0068 87.1428 92.7296C88.2564 92.4525 89.2954 91.9103 90.2016 91.2061C92.5041 89.4183 93.8932 86.6354 94.4308 83.7711C94.9685 80.9068 94.7214 77.9481 94.2221 75.0763C93.5405 71.161 92.393 67.3333 90.9329 63.6358C89.8589 60.9163 88.6021 58.2428 86.8464 55.9053C85.1279 53.6178 82.9615 51.6923 81.2781 49.379C80.1081 47.7719 79.171 45.977 77.7693 44.5678C77.068 43.8632 76.2499 43.2605 75.3232 42.9003C74.3966 42.54 73.356 42.4344 72.3992 42.7041C71.1387 43.0589 70.1035 44.0523 69.5596 45.2428C69.0157 46.4333 68.9155 47.7986 69.1288 49.0914C69.4043 50.7589 70.1665 52.3067 71.0264 53.7622C71.9977 55.4056 73.1226 56.9876 74.5894 58.2094C76.1201 59.4846 77.9713 60.3257 79.5233 61.5738L79.5224 61.5733Z"
          fill="#020204"/>
    <g opacity="0.25" filter="url(#filter14_f_7_311)">
        <path d="M33.9467 55.7893C34.3707 56.4254 33.6831 58.6185 43.5658 57.2147C43.5658 57.2147 41.8303 57.4055 40.1193 57.8008C37.4597 58.6911 35.1421 59.6863 33.3545 61.0045C31.5833 62.3076 30.2868 64.0086 28.6616 65.4695C28.6616 65.4695 31.2933 60.6609 31.949 59.2137C32.6048 57.7666 31.8392 57.8363 32.3586 55.7016C32.878 53.5669 34.1476 51.5245 34.1476 51.5245C34.1476 51.5245 33.1107 54.5341 33.9467 55.7888V55.7893Z"
              fill="url(#paint11_radial_7_311)"/>
    </g>
    <g opacity="0.42" filter="url(#filter15_f_7_311)">
        <path d="M65.726 55.2153C63.712 56.6178 62.5319 56.4521 60.088 56.7263C57.644 57.0005 51.0309 56.9016 51.0309 56.9016C51.0309 56.9016 51.9884 56.8837 54.1106 57.279C56.2327 57.6743 60.5609 58.052 62.9982 58.9799C65.4355 59.9078 66.3241 60.1725 67.8056 61.1088C69.9135 62.442 71.4613 64.5303 73.477 65.9913C73.477 65.9913 73.5747 64.0528 72.7607 62.6052C71.9467 61.1576 69.7553 58.8756 69.1158 56.7447C68.4763 54.6138 68.1666 50.4283 68.1666 50.4283C68.1666 50.4283 67.7409 53.8115 65.7264 55.2144L65.726 55.2153Z"
              fill="url(#paint12_radial_7_311)"/>
    </g>
    <g opacity="0.2" filter="url(#filter16_f_7_311)">
        <path d="M46.7837 52.2191L46.4928 54.0324C46.4344 54.3288 46.3697 54.6251 46.259 54.906C46.1484 55.187 45.9902 55.4537 45.7665 55.6557C45.5703 55.8327 45.3307 55.9546 45.0903 56.0648C44.1519 56.4947 43.1476 56.7798 42.1233 56.908L43.3484 57.0198C43.6051 57.0478 43.8627 57.0791 44.1131 57.1434C44.3636 57.2077 44.6077 57.3104 44.816 57.4585C45.0448 57.6255 45.2243 57.8542 45.3587 58.1039C45.6258 58.6014 45.7152 59.1737 45.7648 59.7318C45.8274 60.451 45.8324 61.176 45.7786 61.8957C45.827 61.414 45.928 60.9373 46.0791 60.4773C46.3517 59.6483 46.7904 58.8711 47.3815 58.2291C47.6161 57.9745 47.874 57.7407 48.1579 57.5412C49.0376 56.9276 50.115 56.6654 51.1783 56.8061C50.0999 56.8501 49.0394 56.5209 48.1754 55.874C47.7404 55.5464 47.3614 55.1381 47.0985 54.6614C46.69 53.9144 46.5781 53.0409 46.785 52.215L46.7837 52.2191Z"
              fill="url(#paint13_radial_7_311)"/>
    </g>
    <g opacity="0.1" filter="url(#filter17_f_7_311)">
        <path d="M44.2083 66.4279C43.6948 68.3822 43.3421 70.3754 43.1539 72.3873C42.888 75.2307 42.9518 78.0942 42.7991 80.9464C42.6738 83.3666 42.3858 85.8118 42.8057 88.1986C43.0061 89.3369 43.3663 90.4464 43.8722 91.4857C43.9525 91.089 44.0113 90.6883 44.0484 90.2852C44.2266 88.3501 43.9006 86.4087 43.7904 84.4685C43.5976 81.0679 44.0684 77.6647 44.26 74.2678C44.4072 71.6561 44.3898 69.0377 44.2078 66.4283L44.2083 66.4279Z"
              fill="black"/>
    </g>
    <path d="M104.945 105.997C104.665 106.715 104.266 107.386 103.769 107.975C102.674 109.275 101.153 110.133 99.6385 110.905C97.0547 112.222 94.3782 113.377 91.9497 114.961C90.3226 116.022 88.8208 117.268 87.4166 118.61C86.2157 119.758 85.0765 120.984 83.73 121.957C82.3709 122.938 80.7997 123.649 79.1426 123.898C77.1264 124.201 75.0435 123.809 73.1735 122.995C71.8637 122.424 70.6039 121.608 69.8496 120.394C69.0924 119.176 68.9196 117.686 68.9176 116.252C68.9142 113.715 69.3842 111.201 69.8267 108.708C70.194 106.633 70.5446 104.553 70.77 102.457C71.1804 98.6461 71.1774 94.7963 70.9036 90.9728C70.8619 90.3325 70.8043 89.6859 70.9003 89.051C70.9963 88.4161 71.2572 87.7833 71.7435 87.3647C72.193 86.9777 72.7953 86.807 73.3881 86.7744C73.9808 86.7419 74.571 86.8358 75.1579 86.9214C76.5408 87.1234 77.9346 87.2824 79.2862 87.6381C80.1389 87.8622 80.9696 88.164 81.8207 88.3936C83.2412 88.7776 84.7284 88.9613 86.1898 88.791C87.7634 88.6073 89.2912 88.0158 90.8749 88.0542C91.5248 88.0701 92.1688 88.1928 92.7891 88.3882C93.4215 88.5877 94.0455 88.8732 94.5101 89.3461C94.8633 89.7051 95.1095 90.158 95.2949 90.6276C95.5704 91.3263 95.7185 92.0706 95.782 92.819C95.8383 93.4819 95.8292 94.1522 95.9548 94.8059C96.1614 95.8808 96.7258 96.8609 97.4274 97.7007C98.1291 98.5405 98.9719 99.2535 99.805 99.9581C100.64 100.659 101.479 101.358 102.379 101.973C102.802 102.262 103.237 102.533 103.639 102.85C104.04 103.167 104.409 103.537 104.659 103.983C104.999 104.588 105.103 105.322 104.944 105.998L104.945 105.997Z"
          fill="url(#paint14_linear_7_311)"/>
    <g filter="url(#filter18_f_7_311)">
        <path d="M103.644 104.682C103.386 105.329 103.023 105.93 102.571 106.46C101.568 107.634 100.179 108.402 98.7982 109.094C96.4386 110.275 93.9967 111.314 91.7773 112.74C90.2938 113.693 88.9222 114.813 87.6374 116.021C86.5396 117.053 85.4981 118.156 84.2705 119.029C83.0266 119.914 81.5915 120.552 80.0809 120.774C78.2401 121.046 76.3409 120.694 74.6303 119.962C73.4377 119.452 72.2857 118.722 71.5949 117.624C70.9078 116.532 70.7475 115.191 70.7433 113.9C70.7379 111.619 71.1683 109.363 71.574 107.118C71.9108 105.252 72.2314 103.383 72.4355 101.498C72.807 98.0723 72.7895 94.6119 72.5574 91.1736C72.5186 90.5976 72.4739 90.0157 72.5624 89.4455C72.6509 88.8753 72.8872 88.3072 73.3246 87.9303C73.7349 87.5768 74.2859 87.4219 74.8273 87.3935C75.3687 87.3651 75.9072 87.4528 76.4427 87.5313C77.7046 87.717 78.9773 87.8568 80.212 88.1753C80.9905 88.3765 81.7497 88.6479 82.5266 88.8549C83.8247 89.2014 85.1822 89.3662 86.517 89.2122C87.953 89.0465 89.35 88.5151 90.7956 88.5498C91.3883 88.5644 91.9768 88.675 92.5445 88.8503C93.1214 89.0281 93.6924 89.2819 94.1161 89.7114C94.4358 90.0349 94.6566 90.4436 94.8324 90.8635C95.0937 91.4884 95.2636 92.1562 95.2773 92.8337C95.292 93.5408 95.1371 94.2508 95.2331 94.9512C95.3107 95.5202 95.5516 96.0566 95.8592 96.5416C96.1668 97.0266 96.5413 97.4641 96.9124 97.9024C97.6291 98.7497 98.3483 99.6125 99.247 100.263C100.27 101.003 101.485 101.436 102.542 102.127C102.858 102.334 103.163 102.567 103.385 102.87C103.57 103.129 103.691 103.429 103.736 103.744C103.781 104.059 103.75 104.381 103.645 104.682H103.644Z"
              fill="#CD8907"/>
    </g>
    <g filter="url(#filter19_f_7_311)">
        <path d="M101.58 105.894C101.31 106.476 100.96 107.019 100.544 107.501C99.5781 108.619 98.2743 109.388 96.9006 109.882C94.6392 110.696 92.1707 110.805 89.9511 111.731C88.5984 112.295 87.3812 113.146 86.1478 113.95C85.1512 114.599 84.1331 115.226 83.0388 115.68C81.8032 116.193 80.4886 116.481 79.17 116.683C78.3314 116.812 77.4823 116.906 76.6351 116.861C75.7879 116.817 74.938 116.628 74.1908 116.217C73.6239 115.905 73.1144 115.456 72.8112 114.873C72.4748 114.226 72.4165 113.466 72.4246 112.732C72.4452 110.777 72.8848 108.844 72.8713 106.889C72.8597 105.187 72.5058 103.507 72.404 101.809C72.208 98.5419 72.9444 95.2186 72.2963 92.0141C72.1932 91.5012 72.0533 90.9887 72.06 90.4648C72.0636 90.2023 72.1048 89.9399 72.2013 89.6972C72.2977 89.4546 72.4538 89.2345 72.661 89.0812C72.8359 88.9523 73.0422 88.874 73.2543 88.8386C73.4665 88.8031 73.6836 88.81 73.8966 88.8418C74.3218 88.9049 74.7272 89.0637 75.1412 89.1811C76.3261 89.5172 77.5779 89.5098 78.7816 89.7635C79.5374 89.9228 80.2693 90.1825 81.017 90.3777C82.2728 90.7 83.5824 90.8441 84.8705 90.7C86.2563 90.5458 87.6095 90.067 89.0025 90.1015C89.5734 90.1153 90.1404 90.2166 90.6911 90.3731C91.2419 90.5297 91.7922 90.7507 92.2088 91.1512C92.5093 91.4404 92.7246 91.8096 92.9004 92.1918C93.1561 92.7498 93.3341 93.3566 93.3301 93.9727C93.3278 94.2936 93.2763 94.6117 93.2462 94.9303C93.2162 95.249 93.2067 95.5768 93.2866 95.8866C93.3664 96.1965 93.535 96.4792 93.7274 96.7338C93.9199 96.9884 94.1378 97.2218 94.3365 97.4714C94.8935 98.1698 95.2918 98.9839 95.7255 99.7689C96.1592 100.554 96.6458 101.331 97.3311 101.896C98.264 102.666 99.4741 102.973 100.514 103.581C100.819 103.759 101.113 103.968 101.327 104.253C101.499 104.483 101.612 104.753 101.656 105.039C101.7 105.325 101.673 105.618 101.579 105.891L101.58 105.894Z"
              fill="#F5C021"/>
    </g>
    <g filter="url(#filter20_f_7_311)">
        <path d="M72.0958 88.7888C73.4632 88.4186 74.6278 89.4555 75.6196 90.2381C76.2603 90.7849 77.1862 90.6472 77.9726 90.6731C79.2749 90.6259 80.571 90.8914 81.8741 90.7298C84.4392 90.5128 86.9533 89.8825 89.5304 89.7698C90.7618 89.6921 92.1434 89.6207 93.207 90.3395C93.6382 90.6384 94.2701 91.9007 94.6955 91.4269C94.5202 90.1004 93.5363 88.8156 92.216 88.4624C91.1829 88.2996 90.129 88.5835 89.0896 88.4916C85.9911 88.4177 82.9148 87.8426 79.8088 88.0074C77.6482 88.0262 75.4898 87.926 73.3326 87.8417C72.4852 87.6685 72.1859 88.4219 71.7255 88.7099"
              fill="url(#paint15_linear_7_311)"/>
    </g>
    <g opacity="0.75" filter="url(#filter21_f_7_311)">
        <path d="M78.2264 63.5656C78.7221 63.489 81.7815 66.0901 81.3633 67.0606C80.9451 68.031 80.1593 67.4443 79.5972 67.4508C79.035 67.4573 77.4973 68.1554 77.2397 67.715C76.9822 67.2746 77.9199 66.2457 78.4106 65.3862C78.8058 64.6938 77.7306 63.6472 78.2266 63.5705L78.2264 63.5656Z"
              fill="#7C7C7C"/>
    </g>
    <g opacity="0.25" filter="url(#filter22_f_7_311)">
        <path d="M35.0559 47.1947C35.0064 46.5954 34.1507 46.5057 33.769 46.8044C33.4467 47.0572 33.1445 47.9193 33.4225 48.2567C33.8744 48.8035 35.1234 48.0168 35.0559 47.1955L35.0559 47.1947Z"
              fill="#7C7C7C"/>
    </g>
    <g opacity="0.35" filter="url(#filter23_f_7_311)">
        <path d="M90.5347 90.8717C90.2997 90.4117 89.8723 90.0678 89.3951 89.8687C88.918 89.6696 88.3946 89.6057 87.8783 89.6099C86.8452 89.6182 85.8183 89.887 84.7894 89.7977C83.9199 89.7226 83.0947 89.3957 82.2432 89.1895C81.3678 88.9808 80.4391 88.8974 79.5696 89.1299C78.6404 89.3828 77.8206 90.0039 77.3072 90.8183C76.8547 91.5363 76.6393 92.3849 76.5726 93.231C76.5058 94.0771 76.578 94.9282 76.6636 95.773C76.7253 96.3841 76.7946 96.9961 76.9424 97.593C77.0902 98.1899 77.3197 98.7713 77.6795 99.2689C78.1971 99.9852 78.9664 100.496 79.7958 100.803C81.166 101.304 82.6733 101.277 84.0251 100.729C86.3877 99.7034 88.3871 97.8638 89.6059 95.5948C90.0421 94.7825 90.3811 93.9168 90.6002 93.0214C90.687 92.6654 90.7555 92.3026 90.7588 91.9361C90.7622 91.5697 90.6975 91.1973 90.5309 90.8717H90.5347Z"
              fill="url(#paint16_radial_7_311)"/>
    </g>
    <g opacity="0.35" filter="url(#filter24_f_7_311)">
        <path d="M90.5347 90.3893C90.2997 90.0568 89.8723 89.8081 89.3951 89.6642C88.918 89.5202 88.3946 89.4741 87.8783 89.4771C86.8452 89.4831 85.8183 89.6774 84.7894 89.6129C83.9199 89.5585 83.0947 89.3223 82.2432 89.1732C81.3678 89.0223 80.4391 88.962 79.5696 89.13C78.6404 89.3129 77.8206 89.7619 77.3072 90.3507C76.8547 90.8697 76.6393 91.4832 76.5726 92.0948C76.5058 92.7065 76.578 93.3218 76.6636 93.9326C76.7253 94.3743 76.7946 94.8167 76.9424 95.2482C77.0902 95.6797 77.3197 96.1001 77.6795 96.4598C78.1971 96.9776 78.9664 97.347 79.7958 97.5688C81.166 97.9307 82.6733 97.9117 84.0251 97.5154C86.3877 96.7739 88.3871 95.4441 89.6059 93.8037C90.0421 93.2165 90.3811 92.5906 90.6002 91.9434C90.687 91.686 90.7555 91.4237 90.7588 91.1588C90.7622 90.8938 90.6975 90.6247 90.5309 90.3893H90.5347Z"
              fill="url(#paint17_radial_7_311)"/>
    </g>
    <path d="M92.4982 86.5674C92.3291 86.1065 92.0315 85.6983 91.6675 85.3694C91.3035 85.0405 90.8744 84.7883 90.4224 84.5963C89.5187 84.2123 88.5357 84.0704 87.5706 83.8884L84.8457 83.3554C83.8982 83.1942 82.9181 83.0916 81.9802 83.3032C81.1595 83.4881 80.4007 83.9126 79.7795 84.4803C79.1584 85.048 78.6734 85.7559 78.3249 86.5256C77.7104 87.8739 77.5172 89.3912 77.6344 90.868C77.7221 91.9671 77.9997 93.0995 78.7239 93.9318C79.3083 94.6039 80.1377 95.0234 80.9921 95.2759C82.4635 95.7113 84.0672 95.6883 85.5253 95.2112C87.95 94.3917 90.0471 92.8143 91.5068 90.7119C91.9827 90.0231 92.3884 89.2726 92.5725 88.4566C92.7127 87.8305 92.7178 87.1709 92.4982 86.572V86.5674Z"
          fill="#020204"/>
    <g filter="url(#filter25_f_7_311)">
        <path d="M82.4936 82.864C82.2661 82.8764 82.0396 82.9026 81.8153 82.9425C80.3669 83.2 79.0407 84.1154 78.2935 85.3818C77.7663 86.2847 77.5253 87.3262 77.6023 88.3689C77.6328 87.6417 77.8235 86.93 78.1763 86.2943C78.7748 85.2165 79.8593 84.4034 81.0723 84.1813C81.8236 84.0444 82.5883 84.1271 83.3422 84.2206C84.0656 84.3107 84.7948 84.4055 85.5077 84.5599C86.6097 84.7987 87.7008 85.1652 88.6258 85.8122C88.8412 85.9625 89.0432 86.1336 89.2127 86.334C89.3822 86.5343 89.5141 86.7672 89.565 87.0252C89.6393 87.4025 89.5316 87.7987 89.3438 88.1338C89.156 88.469 88.8992 88.7629 88.6258 89.0338C88.4046 89.2534 88.1688 89.4654 87.9346 89.6724C89.0032 89.4654 90.0851 89.1724 90.9734 88.5508C91.3491 88.2879 91.6892 87.9727 91.9126 87.5724C92.1359 87.1721 92.2306 86.6875 92.1213 86.2421C92.0474 85.9416 91.8833 85.6652 91.678 85.4336C91.4726 85.2019 91.2272 85.0112 90.9738 84.8338C89.8551 84.0503 88.5465 83.5481 87.1912 83.3853C86.323 83.2255 85.4464 83.0906 84.5698 82.9804C83.884 82.8944 83.184 82.8247 82.4953 82.8636L82.4936 82.864Z"
              fill="url(#paint18_radial_7_311)"/>
    </g>
    <path d="M35.0243 44.4489L27.9608 53.2922C26.4861 55.1205 24.9763 56.963 24.0162 59.1068C23.1914 60.9489 22.8016 62.95 22.236 64.888C21.594 67.0886 20.7224 69.2166 19.744 71.2895C18.8403 73.2033 17.8447 75.0725 16.8471 76.9396C16.1217 78.2979 15.3841 79.6862 15.1324 81.2056C14.9337 82.4061 15.0489 83.645 15.3553 84.8229C15.6617 86.0009 16.1484 87.1229 16.7069 88.2065C19.0724 92.8294 22.6216 96.8144 26.8259 99.8628C28.7334 101.246 30.7775 102.442 32.921 103.422C34.0822 103.952 35.3061 104.425 36.5825 104.447C37.2212 104.458 37.8657 104.353 38.45 104.097C39.0344 103.84 39.5562 103.427 39.9039 102.892C40.3309 102.233 40.4758 101.415 40.3902 100.635C40.3046 99.8545 39.9999 99.1098 39.5917 98.439C38.5899 96.8015 37.0183 95.6173 35.5027 94.4431C32.2301 91.9077 29.064 89.2338 26.0349 86.412C25.1792 85.6148 24.3243 84.7933 23.7265 83.789C23.1447 82.8106 22.8299 81.6961 22.6171 80.5778C22.0327 77.5098 22.1829 74.2819 23.2265 71.3392C23.6347 70.1879 24.174 69.0885 24.6949 67.9831C25.5966 66.0672 26.451 64.1154 27.6377 62.3618C29.1145 60.1787 31.0885 58.3296 32.2919 55.9845C33.3079 54.006 33.7195 51.7803 34.1127 49.5906L35.0243 44.4489V44.4489Z"
          fill="#020204"/>
    <path d="M17.9432 84.7691C18.6111 84.4923 19.3616 84.4418 20.072 84.5729C20.7825 84.704 21.4537 85.0112 22.0518 85.4169C23.2473 86.2292 24.1339 87.4113 24.9834 88.5809C26.9335 91.2666 28.8111 94.0082 30.512 96.8583C31.892 99.1699 33.1601 101.557 34.7546 103.726C35.7957 105.142 36.9699 106.456 38.0159 107.868C39.0619 109.279 39.9894 110.813 40.4536 112.508C41.0564 114.711 40.823 117.138 39.7745 119.167C39.0369 120.595 37.9061 121.818 36.5303 122.648C35.1545 123.478 33.5374 123.906 31.9321 123.846C29.38 123.75 27.0483 122.475 24.6757 121.53C19.842 119.604 14.591 119 9.60828 117.501C8.07636 117.04 6.57116 116.495 5.02923 116.071C4.34467 115.883 3.64759 115.717 3.00059 115.424C2.3536 115.131 1.74835 114.693 1.38853 114.081C1.11053 113.607 0.992824 113.05 1.00034 112.5C1.00785 111.951 1.13642 111.409 1.32342 110.893C1.69742 109.86 2.30142 108.925 2.70924 107.905C3.37501 106.24 3.49481 104.404 3.40507 102.612C3.31532 100.821 3.02522 99.0455 2.90208 97.2569C2.84782 96.458 2.82695 95.6486 2.9793 94.8626C3.13166 94.0766 3.47019 93.3077 4.04705 92.7526C4.57884 92.2404 5.28469 91.9365 6.00724 91.7854C6.72978 91.6343 7.47445 91.6281 8.21286 91.6443C8.95126 91.6606 9.69051 91.7003 10.4268 91.6402C11.1631 91.58 11.9016 91.4147 12.5431 91.0483C13.1526 90.7001 13.6509 90.1821 14.0642 89.6149C14.4774 89.0476 14.8114 88.4269 15.1536 87.8141C15.4959 87.2014 15.8499 86.5903 16.2982 86.0501C16.7465 85.51 17.2958 85.0387 17.9441 84.7699L17.9432 84.7691Z"
          fill="url(#paint19_linear_7_311)"/>
    <g filter="url(#filter26_f_7_311)">
        <path d="M18.9964 85.9212C19.6037 85.6766 20.2879 85.6499 20.9261 85.7944C21.5643 85.9388 22.1575 86.2535 22.6742 86.6488C23.7086 87.4477 24.4274 88.5747 25.1178 89.6834C26.7749 92.3686 28.3945 95.0822 29.9247 97.851C31.0839 99.9351 32.1892 102.064 33.6134 103.979C34.5585 105.248 35.6366 106.412 36.6013 107.667C37.5659 108.923 38.4254 110.29 38.8524 111.814C39.4017 113.778 39.1793 115.946 38.2284 117.755C37.5399 119.059 36.5011 120.145 35.2288 120.891C33.9534 121.632 32.4922 121.992 31.0184 121.929C28.6817 121.821 26.5478 120.654 24.3481 119.863C20.1309 118.333 15.5602 118.127 11.2345 116.933C9.68384 116.512 8.17196 115.951 6.61375 115.558C5.92418 115.384 5.22251 115.242 4.56758 114.965C3.91266 114.688 3.29572 114.26 2.9405 113.644C2.67627 113.186 2.57067 112.647 2.58695 112.119C2.60323 111.59 2.73721 111.075 2.92088 110.577C3.29739 109.589 3.88928 108.698 4.26913 107.707C4.84516 106.215 4.91612 104.575 4.80927 102.979C4.70241 101.384 4.42524 99.8028 4.32799 98.2066C4.28457 97.4928 4.2779 96.7707 4.42232 96.0711C4.56675 95.3715 4.87146 94.6936 5.38029 94.1877C5.93128 93.6409 6.69097 93.3429 7.45777 93.226C8.22456 93.1091 9.00471 93.1601 9.77651 93.2289C10.5483 93.2978 11.323 93.3846 12.0973 93.3383C12.8716 93.292 13.6568 93.1033 14.2971 92.6675C14.8802 92.273 15.3181 91.6974 15.6512 91.0822C15.9843 90.4669 16.2222 89.807 16.476 89.155C16.7298 88.503 17.0049 87.8518 17.4035 87.2766C17.8022 86.7014 18.3369 86.1892 18.9922 85.9262"
              fill="#D99A03"/>
    </g>
    <g filter="url(#filter27_f_7_311)">
        <path d="M17.5118 85.9698C18.0783 85.6919 18.7453 85.635 19.3665 85.7602C19.9876 85.8855 20.563 86.1857 21.0524 86.5783C22.0308 87.3589 22.6515 88.4811 23.2301 89.5778C24.558 92.0972 25.7947 94.6713 27.3838 97.0435C28.537 98.7609 29.8669 100.368 31.0329 102.08C32.6144 104.403 33.9001 106.958 34.4305 109.694C34.7873 111.535 34.776 113.519 33.8792 115.181C33.2886 116.272 32.3323 117.171 31.2021 117.728C30.0718 118.284 28.774 118.515 27.5096 118.404C25.5191 118.231 23.711 117.263 21.8375 116.588C18.5126 115.389 14.9194 115.103 11.4977 114.199C10.0545 113.818 8.64501 113.327 7.17846 113.028C6.53318 112.895 5.87504 112.798 5.25909 112.567C4.64314 112.337 4.05934 111.956 3.74433 111.393C3.52334 110.996 3.44821 110.532 3.48156 110.082C3.51491 109.633 3.65031 109.194 3.82911 108.778C4.1859 107.945 4.71305 107.182 4.99431 106.321C5.40133 105.055 5.23418 103.683 4.92841 102.391C4.62265 101.099 4.18228 99.8307 4.04688 98.5115C3.98661 97.9241 3.98782 97.3249 4.12322 96.7492C4.25863 96.1735 4.53586 95.6205 4.97101 95.2076C5.5307 94.676 6.3146 94.4113 7.09368 94.3372C7.87276 94.263 8.65746 94.3645 9.43212 94.4738C10.2068 94.5831 10.9863 94.708 11.7685 94.6689C12.5508 94.6299 13.3468 94.4308 13.9595 93.957C14.5654 93.4887 14.9463 92.7912 15.1649 92.0695C15.3835 91.3478 15.4542 90.5934 15.5438 89.8463C15.6334 89.0993 15.7447 88.3452 16.038 87.6489C16.3313 86.9526 16.8255 86.311 17.5166 85.9718L17.5118 85.9698Z"
              fill="#F5BD0C"/>
    </g>
    <g filter="url(#filter28_f_7_311)">
        <path d="M25.8032 91.0095C26.8909 92.9768 27.5546 95.2346 28.6332 97.2186C29.6259 99.0435 30.7554 100.923 31.7639 102.606C32.2126 103.355 33.2595 104.507 34.3184 106.294C35.2777 107.914 36.2461 110.175 36.7883 110.934C36.4769 110.045 35.8366 107.659 35.0727 105.958C34.3631 104.367 33.5283 103.461 33.0161 102.606C32.0076 100.923 30.9219 99.41 29.8855 97.8055C28.4558 95.5923 27.366 93.1158 25.8032 91.0099V91.0095Z"
              fill="url(#paint20_linear_7_311)"/>
    </g>
    <defs>
        <filter id="filter0_f_7_311" x="37.594" y="32.7243" width="26.3195" height="12.3778"
                filterUnits="userSpaceOnUse" color-interpolation-filters="sRGB">
            <feFlood flood-opacity="0" result="BackgroundImageFix"/>
            <feBlend mode="normal" in="SourceGraphic" in2="BackgroundImageFix" result="shape"/>
            <feGaussianBlur stdDeviation="0.191623" result="effect1_foregroundBlur_7_311"/>
        </filter>
        <filter id="filter1_f_7_311" x="37.4335" y="25.9963" width="26.3332" height="13.8605"
                filterUnits="userSpaceOnUse" color-interpolation-filters="sRGB">
            <feFlood flood-opacity="0" result="BackgroundImageFix"/>
            <feBlend mode="normal" in="SourceGraphic" in2="BackgroundImageFix" result="shape"/>
            <feGaussianBlur stdDeviation="0.291564" result="effect1_foregroundBlur_7_311"/>
        </filter>
        <filter id="filter2_f_7_311" x="57.5159" y="4.45583" width="8.59396" height="8.23471"
                filterUnits="userSpaceOnUse" color-interpolation-filters="sRGB">
            <feFlood flood-opacity="0" result="BackgroundImageFix"/>
            <feBlend mode="normal" in="SourceGraphic" in2="BackgroundImageFix" result="shape"/>
            <feGaussianBlur stdDeviation="0.429496" result="effect1_foregroundBlur_7_311"/>
        </filter>
        <filter id="filter3_f_7_311" x="57.2362" y="24.709" width="1.79223" height="1.40588"
                filterUnits="userSpaceOnUse" color-interpolation-filters="sRGB">
            <feFlood flood-opacity="0" result="BackgroundImageFix"/>
            <feBlend mode="normal" in="SourceGraphic" in2="BackgroundImageFix" result="shape"/>
            <feGaussianBlur stdDeviation="0.0533428" result="effect1_foregroundBlur_7_311"/>
        </filter>
        <filter id="filter4_f_7_311" x="57.1327" y="22.788" width="3.35709" height="3.31485"
                filterUnits="userSpaceOnUse" color-interpolation-filters="sRGB">
            <feFlood flood-opacity="0" result="BackgroundImageFix"/>
            <feBlend mode="normal" in="SourceGraphic" in2="BackgroundImageFix" result="shape"/>
            <feGaussianBlur stdDeviation="0.111184" result="effect1_foregroundBlur_7_311"/>
        </filter>
        <filter id="filter5_f_7_311" x="58.1934" y="15.0412" width="6.53124" height="6.03661"
                filterUnits="userSpaceOnUse" color-interpolation-filters="sRGB">
            <feFlood flood-opacity="0" result="BackgroundImageFix"/>
            <feBlend mode="normal" in="SourceGraphic" in2="BackgroundImageFix" result="shape"/>
            <feGaussianBlur stdDeviation="0.0317057" result="effect1_foregroundBlur_7_311"/>
        </filter>
        <filter id="filter6_f_7_311" x="40.953" y="15.8623" width="6.10311" height="5.37801"
                filterUnits="userSpaceOnUse" color-interpolation-filters="sRGB">
            <feFlood flood-opacity="0" result="BackgroundImageFix"/>
            <feBlend mode="normal" in="SourceGraphic" in2="BackgroundImageFix" result="shape"/>
            <feGaussianBlur stdDeviation="0.0289208" result="effect1_foregroundBlur_7_311"/>
        </filter>
        <filter id="filter7_f_7_311" x="41.5146" y="23.1861" width="2.62996" height="3.95498"
                filterUnits="userSpaceOnUse" color-interpolation-filters="sRGB">
            <feFlood flood-opacity="0" result="BackgroundImageFix"/>
            <feBlend mode="normal" in="SourceGraphic" in2="BackgroundImageFix" result="shape"/>
            <feGaussianBlur stdDeviation="0.109899" result="effect1_foregroundBlur_7_311"/>
        </filter>
        <filter id="filter8_f_7_311" x="43.7747" y="37.0072" width="6.56571" height="4.84886"
                filterUnits="userSpaceOnUse" color-interpolation-filters="sRGB">
            <feFlood flood-opacity="0" result="BackgroundImageFix"/>
            <feBlend mode="normal" in="SourceGraphic" in2="BackgroundImageFix" result="shape"/>
            <feGaussianBlur stdDeviation="0.192591" result="effect1_foregroundBlur_7_311"/>
        </filter>
        <filter id="filter9_f_7_311" x="38.652" y="30.3499" width="22.7313" height="10.2179"
                filterUnits="userSpaceOnUse" color-interpolation-filters="sRGB">
            <feFlood flood-opacity="0" result="BackgroundImageFix"/>
            <feBlend mode="normal" in="SourceGraphic" in2="BackgroundImageFix" result="shape"/>
            <feGaussianBlur stdDeviation="0.162385" result="effect1_foregroundBlur_7_311"/>
        </filter>
        <filter id="filter10_f_7_311" x="48.2205" y="30.7201" width="6.01017" height="7.2523"
                filterUnits="userSpaceOnUse" color-interpolation-filters="sRGB">
            <feFlood flood-opacity="0" result="BackgroundImageFix"/>
            <feBlend mode="normal" in="SourceGraphic" in2="BackgroundImageFix" result="shape"/>
            <feGaussianBlur stdDeviation="0.18188" result="effect1_foregroundBlur_7_311"/>
        </filter>
        <filter id="filter11_f_7_311" x="50.3137" y="28.3293" width="2.45864" height="1.33511"
                filterUnits="userSpaceOnUse" color-interpolation-filters="sRGB">
            <feFlood flood-opacity="0" result="BackgroundImageFix"/>
            <feBlend mode="normal" in="SourceGraphic" in2="BackgroundImageFix" result="shape"/>
            <feGaussianBlur stdDeviation="0.0235651" result="effect1_foregroundBlur_7_311"/>
        </filter>
        <filter id="filter12_f_7_311" x="44.7269" y="28.5441" width="1.0436" height="1.14101"
                filterUnits="userSpaceOnUse" color-interpolation-filters="sRGB">
            <feFlood flood-opacity="0" result="BackgroundImageFix"/>
            <feBlend mode="normal" in="SourceGraphic" in2="BackgroundImageFix" result="shape"/>
            <feGaussianBlur stdDeviation="0.0235651" result="effect1_foregroundBlur_7_311"/>
        </filter>
        <filter id="filter13_f_7_311" x="60.7567" y="31.8715" width="2.70124" height="3.24311"
                filterUnits="userSpaceOnUse" color-interpolation-filters="sRGB">
            <feFlood flood-opacity="0" result="BackgroundImageFix"/>
            <feBlend mode="normal" in="SourceGraphic" in2="BackgroundImageFix" result="shape"/>
            <feGaussianBlur stdDeviation="0.073168" result="effect1_foregroundBlur_7_311"/>
        </filter>
        <filter id="filter14_f_7_311" x="28.3656" y="51.2285" width="15.4963" height="14.537"
                filterUnits="userSpaceOnUse" color-interpolation-filters="sRGB">
            <feFlood flood-opacity="0" result="BackgroundImageFix"/>
            <feBlend mode="normal" in="SourceGraphic" in2="BackgroundImageFix" result="shape"/>
            <feGaussianBlur stdDeviation="0.147995" result="effect1_foregroundBlur_7_311"/>
        </filter>
        <filter id="filter15_f_7_311" x="50.5433" y="49.9408" width="23.4249" height="16.538"
                filterUnits="userSpaceOnUse" color-interpolation-filters="sRGB">
            <feFlood flood-opacity="0" result="BackgroundImageFix"/>
            <feBlend mode="normal" in="SourceGraphic" in2="BackgroundImageFix" result="shape"/>
            <feGaussianBlur stdDeviation="0.243791" result="effect1_foregroundBlur_7_311"/>
        </filter>
        <filter id="filter16_f_7_311" x="41.787" y="51.8786" width="9.72767" height="10.3533"
                filterUnits="userSpaceOnUse" color-interpolation-filters="sRGB">
            <feFlood flood-opacity="0" result="BackgroundImageFix"/>
            <feBlend mode="normal" in="SourceGraphic" in2="BackgroundImageFix" result="shape"/>
            <feGaussianBlur stdDeviation="0.168169" result="effect1_foregroundBlur_7_311"/>
        </filter>
        <filter id="filter17_f_7_311" x="41.9663" y="65.8083" width="3.01198" height="26.297"
                filterUnits="userSpaceOnUse" color-interpolation-filters="sRGB">
            <feFlood flood-opacity="0" result="BackgroundImageFix"/>
            <feBlend mode="normal" in="SourceGraphic" in2="BackgroundImageFix" result="shape"/>
            <feGaussianBlur stdDeviation="0.309774" result="effect1_foregroundBlur_7_311"/>
        </filter>
        <filter id="filter18_f_7_311" x="68.6957" y="85.3405" width="37.1081" height="37.5726"
                filterUnits="userSpaceOnUse" color-interpolation-filters="sRGB">
            <feFlood flood-opacity="0" result="BackgroundImageFix"/>
            <feBlend mode="normal" in="SourceGraphic" in2="BackgroundImageFix" result="shape"/>
            <feGaussianBlur stdDeviation="1.0238" result="effect1_foregroundBlur_7_311"/>
        </filter>
        <filter id="filter19_f_7_311" x="70.4463" y="87.2014" width="32.8435" height="31.2847"
                filterUnits="userSpaceOnUse" color-interpolation-filters="sRGB">
            <feFlood flood-opacity="0" result="BackgroundImageFix"/>
            <feBlend mode="normal" in="SourceGraphic" in2="BackgroundImageFix" result="shape"/>
            <feGaussianBlur stdDeviation="0.806721" result="effect1_foregroundBlur_7_311"/>
        </filter>
        <filter id="filter20_f_7_311" x="71.5203" y="87.6109" width="23.3804" height="4.1264"
                filterUnits="userSpaceOnUse" color-interpolation-filters="sRGB">
            <feFlood flood-opacity="0" result="BackgroundImageFix"/>
            <feBlend mode="normal" in="SourceGraphic" in2="BackgroundImageFix" result="shape"/>
            <feGaussianBlur stdDeviation="0.102615" result="effect1_foregroundBlur_7_311"/>
        </filter>
        <filter id="filter21_f_7_311" x="76.2137" y="62.5819" width="6.17084" height="6.26081"
                filterUnits="userSpaceOnUse" color-interpolation-filters="sRGB">
            <feFlood flood-opacity="0" result="BackgroundImageFix"/>
            <feBlend mode="normal" in="SourceGraphic" in2="BackgroundImageFix" result="shape"/>
            <feGaussianBlur stdDeviation="0.491044" result="effect1_foregroundBlur_7_311"/>
        </filter>
        <filter id="filter22_f_7_311" x="33.039" y="46.3643" width="2.29363" height="2.34795"
                filterUnits="userSpaceOnUse" color-interpolation-filters="sRGB">
            <feFlood flood-opacity="0" result="BackgroundImageFix"/>
            <feBlend mode="normal" in="SourceGraphic" in2="BackgroundImageFix" result="shape"/>
            <feGaussianBlur stdDeviation="0.137066" result="effect1_foregroundBlur_7_311"/>
        </filter>
        <filter id="filter23_f_7_311" x="75.3279" y="87.7715" width="16.6496" height="14.6072"
                filterUnits="userSpaceOnUse" color-interpolation-filters="sRGB">
            <feFlood flood-opacity="0" result="BackgroundImageFix"/>
            <feBlend mode="normal" in="SourceGraphic" in2="BackgroundImageFix" result="shape"/>
            <feGaussianBlur stdDeviation="0.609264" result="effect1_foregroundBlur_7_311"/>
        </filter>
        <filter id="filter24_f_7_311" x="76.0739" y="88.5564" width="15.1576" height="9.74308"
                filterUnits="userSpaceOnUse" color-interpolation-filters="sRGB">
            <feFlood flood-opacity="0" result="BackgroundImageFix"/>
            <feBlend mode="normal" in="SourceGraphic" in2="BackgroundImageFix" result="shape"/>
            <feGaussianBlur stdDeviation="0.236245" result="effect1_foregroundBlur_7_311"/>
        </filter>
        <filter id="filter25_f_7_311" x="77.1491" y="82.4134" width="15.4569" height="7.69828"
                filterUnits="userSpaceOnUse" color-interpolation-filters="sRGB">
            <feFlood flood-opacity="0" result="BackgroundImageFix"/>
            <feBlend mode="normal" in="SourceGraphic" in2="BackgroundImageFix" result="shape"/>
            <feGaussianBlur stdDeviation="0.219584" result="effect1_foregroundBlur_7_311"/>
        </filter>
        <filter id="filter26_f_7_311" x="0.904066" y="84.0249" width="39.9248" height="39.5926"
                filterUnits="userSpaceOnUse" color-interpolation-filters="sRGB">
            <feFlood flood-opacity="0" result="BackgroundImageFix"/>
            <feBlend mode="normal" in="SourceGraphic" in2="BackgroundImageFix" result="shape"/>
            <feGaussianBlur stdDeviation="0.840631" result="effect1_foregroundBlur_7_311"/>
        </filter>
        <filter id="filter27_f_7_311" x="2.43927" y="84.6624" width="33.2449" height="34.8036"
                filterUnits="userSpaceOnUse" color-interpolation-filters="sRGB">
            <feFlood flood-opacity="0" result="BackgroundImageFix"/>
            <feBlend mode="normal" in="SourceGraphic" in2="BackgroundImageFix" result="shape"/>
            <feGaussianBlur stdDeviation="0.517366" result="effect1_foregroundBlur_7_311"/>
        </filter>
        <filter id="filter28_f_7_311" x="25.6446" y="90.851" width="11.3022" height="20.242"
                filterUnits="userSpaceOnUse" color-interpolation-filters="sRGB">
            <feFlood flood-opacity="0" result="BackgroundImageFix"/>
            <feBlend mode="normal" in="SourceGraphic" in2="BackgroundImageFix" result="shape"/>
            <feGaussianBlur stdDeviation="0.0792644" result="effect1_foregroundBlur_7_311"/>
        </filter>
        <radialGradient id="paint0_radial_7_311" cx="0" cy="0" r="1" gradientUnits="userSpaceOnUse"
                        gradientTransform="translate(1601.82 2350.86) rotate(-2.41003) scale(103.886 254.277)">
            <stop stop-color="#FEFEFC"/>
            <stop offset="0.757" stop-color="#FEFEFC"/>
            <stop offset="1" stop-color="#D4D4D4"/>
        </radialGradient>
        <radialGradient id="paint1_radial_7_311" cx="0" cy="0" r="1" gradientUnits="userSpaceOnUse"
                        gradientTransform="translate(2883.71 2462.17) rotate(-1.81001) scale(185.993 268.777)">
            <stop stop-color="#FEFEFC"/>
            <stop offset="0.757" stop-color="#FEFEFC"/>
            <stop offset="1" stop-color="#D4D4D4"/>
        </radialGradient>
        <linearGradient id="paint2_linear_7_311" x1="939.847" y1="404.077" x2="959.077" y2="427.186"
                        gradientUnits="userSpaceOnUse">
            <stop stop-color="#949494" stop-opacity="0.392"/>
            <stop offset="0.5" stop-color="#949494"/>
            <stop offset="1" stop-color="#949494" stop-opacity="0.392"/>
        </linearGradient>
        <linearGradient id="paint3_linear_7_311" x1="157.589" y1="638.951" x2="241.808" y2="725.115"
                        gradientUnits="userSpaceOnUse">
            <stop stop-color="#646464" stop-opacity="0"/>
            <stop offset="0.306" stop-color="#646464" stop-opacity="0.583"/>
            <stop offset="0.47" stop-color="#646464"/>
            <stop offset="0.728" stop-color="#646464" stop-opacity="0.257"/>
            <stop offset="1" stop-color="#646464" stop-opacity="0"/>
        </linearGradient>
        <linearGradient id="paint4_linear_7_311" x1="-113.303" y1="577.234" x2="-43.031" y2="654.234"
                        gradientUnits="userSpaceOnUse">
            <stop stop-color="#646464" stop-opacity="0"/>
            <stop offset="0.306" stop-color="#646464" stop-opacity="0.583"/>
            <stop offset="0.47" stop-color="#646464"/>
            <stop offset="0.728" stop-color="#646464" stop-opacity="0.257"/>
            <stop offset="1" stop-color="#646464" stop-opacity="0"/>
        </linearGradient>
        <linearGradient id="paint5_linear_7_311" x1="401.066" y1="487.656" x2="424.992" y2="514.313"
                        gradientUnits="userSpaceOnUse">
            <stop stop-color="#757574" stop-opacity="0"/>
            <stop offset="0.263" stop-color="#757574"/>
            <stop offset="0.5" stop-color="#757574"/>
            <stop offset="1" stop-color="#757574" stop-opacity="0"/>
        </linearGradient>
        <radialGradient id="paint6_radial_7_311" cx="0" cy="0" r="1" gradientUnits="userSpaceOnUse"
                        gradientTransform="translate(7637.45 -1235.42) rotate(-22.428) scale(802.854 278.926)">
            <stop stop-color="#D2940A"/>
            <stop offset="0.751" stop-color="#D89C08"/>
            <stop offset="0.866" stop-color="#B67E07"/>
            <stop offset="1" stop-color="#946106"/>
        </radialGradient>
        <linearGradient id="paint7_linear_7_311" x1="1217.6" y1="2036.39" x2="2639.19" y2="2014.32"
                        gradientUnits="userSpaceOnUse">
            <stop stop-color="#AD780A"/>
            <stop offset="0.12" stop-color="#D89E08"/>
            <stop offset="0.255" stop-color="#EDB80B"/>
            <stop offset="0.392" stop-color="#EBC80D"/>
            <stop offset="0.527" stop-color="#F5D838"/>
            <stop offset="0.769" stop-color="#F6D811"/>
            <stop offset="1" stop-color="#F5CD31"/>
        </linearGradient>
        <radialGradient id="paint8_radial_7_311" cx="0" cy="0" r="1" gradientUnits="userSpaceOnUse"
                        gradientTransform="translate(234.007 135.106) scale(7.63694 2.33803)">
            <stop stop-color="#3A2903"/>
            <stop offset="0.555" stop-color="#735208"/>
            <stop offset="1" stop-color="#AC8C04"/>
        </radialGradient>
        <radialGradient id="paint9_radial_7_311" cx="0" cy="0" r="1" gradientUnits="userSpaceOnUse"
                        gradientTransform="translate(104.699 194.477) scale(1.4572 1.72743)">
            <stop stop-color="#3A2903"/>
            <stop offset="0.555" stop-color="#735208"/>
            <stop offset="1" stop-color="#AC8C04"/>
        </radialGradient>
        <linearGradient id="paint10_linear_7_311" x1="588.882" y1="495.295" x2="590.394" y2="503.143"
                        gradientUnits="userSpaceOnUse">
            <stop stop-color="#F5CE2D"/>
            <stop offset="1" stop-color="#D79B08"/>
        </linearGradient>
        <radialGradient id="paint11_radial_7_311" cx="0" cy="0" r="1" gradientUnits="userSpaceOnUse"
                        gradientTransform="translate(-3332.32 2400.23) rotate(180) scale(285.134 291.578)">
            <stop/>
            <stop offset="1" stop-opacity="0.25"/>
        </radialGradient>
        <radialGradient id="paint12_radial_7_311" cx="0" cy="0" r="1" gradientUnits="userSpaceOnUse"
                        gradientTransform="translate(6937.98 2856.94) scale(614.921 325.407)">
            <stop/>
            <stop offset="1" stop-opacity="0.25"/>
        </radialGradient>
        <radialGradient id="paint13_radial_7_311" cx="0" cy="0" r="1" gradientUnits="userSpaceOnUse"
                        gradientTransform="translate(2416.63 2378.22) scale(98.2014 112.256)">
            <stop/>
            <stop offset="1" stop-opacity="0.25"/>
        </radialGradient>
        <linearGradient id="paint14_linear_7_311" x1="16026.4" y1="13920.2" x2="17840.9" y2="11067.7"
                        gradientUnits="userSpaceOnUse">
            <stop stop-color="#3E2A06"/>
            <stop offset="1" stop-color="#AD780A"/>
        </linearGradient>
        <linearGradient id="paint15_linear_7_311" x1="1109.14" y1="1163.92" x2="1108.28" y2="1211.79"
                        gradientUnits="userSpaceOnUse">
            <stop stop-color="#F3CD0C"/>
            <stop offset="1" stop-color="#F3CD0C" stop-opacity="0"/>
        </linearGradient>
        <radialGradient id="paint16_radial_7_311" cx="0" cy="0" r="1" gradientUnits="userSpaceOnUse"
                        gradientTransform="translate(5303.97 6920.53) rotate(15) scale(324.267 291.469)">
            <stop stop-color="#110800"/>
            <stop offset="0.591" stop-color="#A65A00" stop-opacity="0.8"/>
            <stop offset="1" stop-color="#FF921E" stop-opacity="0"/>
        </radialGradient>
        <radialGradient id="paint17_radial_7_311" cx="0" cy="0" r="1" gradientUnits="userSpaceOnUse"
                        gradientTransform="translate(5303.97 5027.72) rotate(10.9628) scale(319.04 214.162)">
            <stop stop-color="#110800"/>
            <stop offset="0.591" stop-color="#A65A00" stop-opacity="0.8"/>
            <stop offset="1" stop-color="#FF921E" stop-opacity="0"/>
        </radialGradient>
        <radialGradient id="paint18_radial_7_311" cx="0" cy="0" r="1" gradientUnits="userSpaceOnUse"
                        gradientTransform="translate(1969.9 1239.64) rotate(23.5217) scale(117.639 25.4333)">
            <stop stop-color="#7C7C7C"/>
            <stop offset="1" stop-color="#7C7C7C" stop-opacity="0.33"/>
        </radialGradient>
        <linearGradient id="paint19_linear_7_311" x1="4899.33" y1="11949.5" x2="6767.58" y2="15118.4"
                        gradientUnits="userSpaceOnUse">
            <stop stop-color="#B98309"/>
            <stop offset="1" stop-color="#382605"/>
        </linearGradient>
        <linearGradient id="paint20_linear_7_311" x1="1904.7" y1="6511.27" x2="2265.76" y2="6885.99"
                        gradientUnits="userSpaceOnUse">
            <stop stop-color="#EBC40C"/>
            <stop offset="1" stop-color="#EBC40C" stop-opacity="0"/>
        </linearGradient>
    </defs>
</svg>
