<svg xmlns="http://www.w3.org/2000/svg" width="37" height="37" viewBox="0 0 37 37" fill="none">
    <path d="M16.835 23.2793C17.1202 23.2639 17.3823 23.2562 17.6521 23.0095C17.76 22.917 17.9912 22.6781 17.9912 22.2618C17.9912 21.8841 17.7908 21.5372 17.4362 21.3599C17.1896 21.252 16.9429 21.2366 16.7579 21.2366L14.3914 21.2597C14.6921 21.0285 15.0081 20.7972 15.301 20.5506C16.65 19.4483 17.8448 18.2072 17.8448 16.6116C17.8448 15.1933 16.8119 13.5899 14.4916 13.5899C12.0404 13.5899 11.1385 15.5478 11.1385 16.4651C11.1385 17.367 11.7937 17.6214 12.2023 17.6214C12.5954 17.6214 12.9346 17.4056 13.1581 17.0741C13.2352 16.9353 13.2969 16.7735 13.3585 16.6116C13.4973 16.2185 13.6746 15.7097 14.4223 15.7097C14.9696 15.7097 15.3858 16.0874 15.3858 16.7041C15.3858 17.4133 14.9233 18.1378 13.9675 18.9935C13.3277 19.5639 12.6494 20.0804 11.9941 20.6276C11.3544 21.1595 10.9998 21.4447 10.9998 22.0537C10.9998 22.3004 11.0691 22.917 11.7244 23.156C11.9556 23.2408 12.2177 23.2485 12.5106 23.2639H16.835V23.2793ZM24.6512 15.0699C24.6512 13.9368 23.8496 13.6439 23.2637 13.6439C22.5314 13.6439 22.2385 13.9676 22.0073 14.2837L18.9008 18.5772C18.4383 19.217 18.3844 19.3635 18.3844 20.0495C18.3844 20.3656 18.3998 20.7047 18.5848 20.9899C18.87 21.3985 19.2939 21.4139 19.5483 21.4139H22.2616V22.0383C22.2616 22.3543 22.2925 22.732 22.6316 23.0712C22.8783 23.3179 23.1866 23.4104 23.4487 23.4104C23.8187 23.4104 24.1964 23.2331 24.4046 22.917C24.6204 22.601 24.6358 22.2772 24.6358 22.0074V21.4062C24.9056 21.4062 25.1985 21.4216 25.4683 21.2983C25.9462 21.0978 26.0002 20.6585 26.0002 20.4812C26.0002 20.1497 25.8383 19.8028 25.4452 19.6333C25.2139 19.5408 24.9441 19.5408 24.6589 19.5408V15.0699H24.6512ZM22.4004 17.9837C22.3696 18.5001 22.3619 19.0166 22.3464 19.5331H20.535L22.4929 16.5114C22.4698 17.0047 22.4312 17.4903 22.4004 17.9837ZM29.3225 9.38889C29.3225 9.38889 29.2531 9.31181 29.1683 9.20389C29.0758 9.10368 28.7135 9.31181 28.3589 9.66639L27.2798 10.7456C26.9252 11.1001 26.7016 11.4624 26.771 11.5549L26.9021 11.7091C28.621 13.7056 29.5537 16.2647 29.5537 18.9164C29.5537 21.8841 28.4052 24.6668 26.3085 26.7558C24.2273 28.837 21.4908 29.9933 18.5925 30.0164C18.5925 30.0164 18.4614 30.0164 18.3073 30.0164C18.1454 30.0164 18.0221 29.6156 18.0221 29.1145V26.1006C18.0221 25.5995 17.7291 25.4685 17.3591 25.8154L12.3641 30.5406C12.0019 30.8797 12.0019 31.4424 12.3641 31.7893L17.3591 36.5145C17.7291 36.8537 18.0221 36.7304 18.0221 36.2293V34.0787C18.0221 33.5776 18.1762 33.1691 18.3766 33.1691H18.7389C22.6162 33.1383 26.0773 31.7122 28.7598 29.0297C34.0862 23.7187 34.3329 15.0854 29.3225 9.38889ZM18.261 7.92431C18.261 7.92431 18.4691 7.9166 18.7235 7.90889C18.9779 7.90118 19.186 8.30202 19.186 8.81077V10.892C19.186 11.3931 19.4789 11.5241 19.8489 11.1772L24.8439 6.45202C25.2062 6.11285 25.2062 5.55014 24.8439 5.20327L19.8489 0.478057C19.4789 0.13889 19.186 0.262224 19.186 0.763265V3.31472C19.186 3.81577 19.0164 4.23202 18.816 4.23202L18.4383 4.23972C14.7306 4.3091 11.0691 5.89702 8.37893 8.57952C2.95227 14.0139 2.6131 22.7397 7.61581 28.4439C7.61581 28.4439 7.68518 28.521 7.76998 28.6289C7.86248 28.7214 8.22477 28.521 8.57935 28.1664L9.65852 27.0872C10.0131 26.7326 10.2444 26.3703 10.1673 26.2856L10.0285 26.1237C8.31727 24.1272 7.37685 21.5681 7.37685 18.9241C7.37685 15.9487 8.5331 13.166 10.6298 11.077C12.5723 9.1191 15.2856 8.00139 18.261 7.92431Z"
          fill="url(#paint0_linear_1027_283)"/>
    <defs>
        <linearGradient id="paint0_linear_1027_283" x1="18.4994" y1="0.287109" x2="18.4994" y2="36.7055"
                        gradientUnits="userSpaceOnUse">
            <stop stop-color="#1866FF"/>
            <stop offset="1" stop-color="#189BFF"/>
        </linearGradient>
    </defs>
</svg>