<svg width="16" height="16" viewBox="0 0 16 16" fill="none" xmlns="http://www.w3.org/2000/svg">
<path d="M12.3467 2.66666H4.33333C3.89131 2.66666 3.46738 2.84226 3.15482 3.15482C2.84226 3.46738 2.66667 3.8913 2.66667 4.33333V12.3467C2.66667 12.7887 2.84226 13.2126 3.15482 13.5252C3.46738 13.8377 3.89131 14.0133 4.33333 14.0133H12.3467C12.7887 14.0133 13.2126 13.8377 13.5252 13.5252C13.8377 13.2126 14.0133 12.7887 14.0133 12.3467V4.33333C14.0133 3.8913 13.8377 3.46738 13.5252 3.15482C13.2126 2.84226 12.7887 2.66666 12.3467 2.66666ZM6.33333 11C6.33333 11.1768 6.2631 11.3464 6.13807 11.4714C6.01305 11.5964 5.84348 11.6667 5.66667 11.6667C5.48986 11.6667 5.32029 11.5964 5.19526 11.4714C5.07024 11.3464 5 11.1768 5 11V8.33333C5 8.15652 5.07024 7.98695 5.19526 7.86193C5.32029 7.7369 5.48986 7.66666 5.66667 7.66666C5.84348 7.66666 6.01305 7.7369 6.13807 7.86193C6.2631 7.98695 6.33333 8.15652 6.33333 8.33333V11ZM9 11C9 11.1768 8.92976 11.3464 8.80474 11.4714C8.67972 11.5964 8.51015 11.6667 8.33333 11.6667C8.15652 11.6667 7.98695 11.5964 7.86193 11.4714C7.73691 11.3464 7.66667 11.1768 7.66667 11V5.66666C7.66667 5.48985 7.73691 5.32028 7.86193 5.19526C7.98695 5.07024 8.15652 5 8.33333 5C8.51015 5 8.67972 5.07024 8.80474 5.19526C8.92976 5.32028 9 5.48985 9 5.66666V11ZM11.6667 11C11.6667 11.1768 11.5964 11.3464 11.4714 11.4714C11.3464 11.5964 11.1768 11.6667 11 11.6667C10.8232 11.6667 10.6536 11.5964 10.5286 11.4714C10.4036 11.3464 10.3333 11.1768 10.3333 11V7C10.3333 6.82319 10.4036 6.65362 10.5286 6.52859C10.6536 6.40357 10.8232 6.33333 11 6.33333C11.1768 6.33333 11.3464 6.40357 11.4714 6.52859C11.5964 6.65362 11.6667 6.82319 11.6667 7V11Z" fill="#A9A9A9"/>
</svg>
