<svg xmlns="http://www.w3.org/2000/svg" width="116" height="116" viewBox="0 0 116 116" fill="none">
    <g clip-path="url(#clip0_5365_1040)">
        <path fill-rule="evenodd" clip-rule="evenodd"
              d="M116 58C116 25.9675 90.0325 0 58 0C25.9675 0 0 25.9675 0 58C0 90.0325 25.9675 116 58 116C90.0325 116 116 90.0325 116 58Z"
              fill="#94C1FF" fill-opacity="0.15"/>
        <g clip-path="url(#clip1_5365_1040)">
            <path d="M451.429 225.715C451.429 255.356 445.591 284.707 434.247 312.092C422.904 339.477 406.278 364.359 385.319 385.319C364.359 406.278 339.477 422.904 312.092 434.248C284.707 445.591 255.356 451.429 225.714 451.429C165.851 451.429 108.44 427.648 66.1102 385.319C23.7805 342.989 3.10402e-06 285.578 0 225.715C0 165.851 23.7805 108.44 66.1102 66.1103C108.44 23.7806 165.851 1.24161e-05 225.714 0C255.356 -7.68476e-06 284.707 5.83826 312.092 17.1815C339.477 28.5247 364.359 45.1507 385.319 66.1102C406.278 87.0698 422.904 111.952 434.247 139.337C445.591 166.722 451.429 196.073 451.429 225.715Z"
                  fill="#FFCC33"/>
        </g>
        <path d="M104 57.5C104 63.6065 102.797 69.6531 100.46 75.2948C98.1235 80.9364 94.6984 86.0625 90.3805 90.3805C86.0625 94.6984 80.9364 98.1236 75.2948 100.46C69.6531 102.797 63.6065 104 57.5 104C45.1674 104 33.34 99.1009 24.6195 90.3805C15.8991 81.66 11 69.8326 11 57.5C11 45.1674 15.8991 33.34 24.6195 24.6195C33.34 15.8991 45.1674 11 57.5 11C63.6065 11 69.6531 12.2028 75.2948 14.5396C80.9364 16.8764 86.0625 20.3016 90.3805 24.6195C94.6984 28.9375 98.1235 34.0636 100.46 39.7052C102.797 45.3469 104 51.3935 104 57.5Z"
              fill="#FCC24A"/>
        <path d="M53.9983 66.1104V33H62.0016V66.1104H53.9983Z" fill="white"/>
        <path d="M58 70.8079C55.2386 70.8079 53 73.0464 53 75.8079C53 78.5693 55.2386 80.8079 58 80.8079C60.7614 80.8079 63 78.5693 63 75.8079C63 73.0464 60.7614 70.8079 58 70.8079Z"
              fill="white"/>
        <path opacity="0.5" fill-rule="evenodd" clip-rule="evenodd"
              d="M16 57.0964C16 80.321 34.8434 99.2198 58 99.2198C81.1566 99.2198 100 80.3481 100 57.1234C100 33.8988 81.1566 15 58 15C34.8434 15 16 33.8717 16 57.0964ZM21.3624 57.1232C21.3624 36.8726 37.8065 20.3801 57.9978 20.3801C78.1891 20.3801 94.6332 36.8726 94.6332 57.1232C94.6332 77.3738 78.1891 93.8663 57.9978 93.8663C37.8065 93.8663 21.3624 77.3738 21.3624 57.1232Z"
              fill="#D2862A"/>
    </g>
    <defs>
        <clipPath id="clip0_5365_1040">
            <rect width="116" height="116" fill="white"/>
        </clipPath>
        <clipPath id="clip1_5365_1040">
            <rect width="451.429" height="451.429" fill="white"/>
        </clipPath>
    </defs>
</svg>