<svg xmlns="http://www.w3.org/2000/svg" width="45" height="45">
    <path d="M37.86 20.369c-.96-6.86-6.393-12.292-13.253-13.228v3.137c5.15.89 9.201 4.94 10.091 10.09h3.161zm-18.1-.07a2.608 2.608 0 0 0 2.6-2.6 2.593 2.593 0 0 0-2.6-2.598 2.578 2.578 0 0 0-2.598 2.599 2.593 2.593 0 0 0 2.599 2.599zm5.573 3.934a2.608 2.608 0 0 0-2.6 2.598c0 1.451 1.172 2.623 2.6 2.623 1.452 0 2.599-1.172 2.599-2.623a2.593 2.593 0 0 0-2.6-2.598zm1.662-9.132-1.264-.678-7.75 14.445 1.288.68L26.995 15.1zM5.41 20.181c1.03-7.655 7.094-13.72 14.75-14.773V0C9.927 1.03 1.03 10.045 0 20.182h5.409zM0 24.842C1.1 35.47 9.552 43.922 20.205 45v-5.432C12.526 38.56 6.462 32.497 5.41 24.84H0zm39.568-.024c-1.03 7.633-7.047 13.697-14.703 14.75v5.41C35.26 43.899 43.946 35.213 45 24.817h-5.432zM24.841 5.408c7.633 1.054 13.673 7.094 14.727 14.727H45C43.9 9.53 35.447 1.077 24.841 0v5.408zm-4.448 1.733c-6.883.936-12.338 6.392-13.252 13.275h3.137c.867-5.174 4.94-9.248 10.115-10.138V7.141zM7.141 24.607c.937 6.883 6.392 12.338 13.299 13.251v-3.137a12.417 12.417 0 0 1-10.162-10.114H7.141zm27.58-.024c-.89 5.151-4.94 9.225-10.09 10.115v3.137c6.86-.937 12.292-6.392 13.228-13.252h-3.138z" fill="#188BFF" fill-rule="evenodd"/>
</svg>