<svg xmlns="http://www.w3.org/2000/svg" width="17" height="17">
    <g fill-rule="nonzero" fill="none">
        <path d="M6.747 17h-.504c-.355 0-.642-.322-.642-.72v-6.223c0-.426.308-.771.688-.771h.458c.38 0 .687.345.687.771v6.172c0 .426-.307.771-.687.771zM14.858 17h-.504a.644.644 0 0 1-.642-.646V8.692A.69.69 0 0 1 14.4 8h.458c.38 0 .687.31.687.692v7.616a.69.69 0 0 1-.687.692zM10.802 17h-.504c-.354 0-.641-.31-.641-.692v-4.995c0-.41.307-.742.687-.742h.458c.38 0 .688.333.688.742v4.945c0 .41-.308.742-.688.742zM3.379 12.629v3.6c0 .426-.308.771-.688.771h-.504a.608.608 0 0 1-.454-.21.767.767 0 0 1-.188-.51v-3.651c0-.426.308-.772.688-.772h.458c.38 0 .688.346.688.772z" fill="#B7C0C4"/>
        <path d="M1.52 9.273a.302.302 0 0 1-.218-.092L.082 7.926a.284.284 0 0 1 .012-.41l5.93-5.432a.307.307 0 0 1 .417.007l3.107 3.003 3.812-3.197-.869-.839a.27.27 0 0 1-.07-.282.283.283 0 0 1 .23-.187l4.021-.586c.09-.013.18.016.244.078a.27.27 0 0 1 .08.235l-.598 3.89a.279.279 0 0 1-.193.222.292.292 0 0 1-.293-.068l-.865-.832-5.381 4.55a.308.308 0 0 1-.412-.012l-3.07-2.969-4.458 4.097a.304.304 0 0 1-.206.079z" fill="#188BFF"/>
    </g>
</svg>