<svg xmlns="http://www.w3.org/2000/svg" width="164" height="163" viewBox="0 0 164 163" fill="none">
<path d="M46.41 73.1268L40.7441 68.7535L82.5222 14.6277L121.787 42.0684L150.626 8.32733L156.067 12.9778L123.009 51.6542L84.0173 24.4045L46.41 73.1268Z" fill="#EFF6FF"/>
<path d="M42.646 81.5926C48.5293 81.5926 53.2987 76.8233 53.2987 70.94C53.2987 65.0568 48.5293 60.2874 42.646 60.2874C36.7626 60.2874 31.9932 65.0568 31.9932 70.94C31.9932 76.8233 36.7626 81.5926 42.646 81.5926Z" fill="#545B66"/>
<path d="M83.271 31.9578C89.1543 31.9578 93.9237 27.1885 93.9237 21.3052C93.9237 15.4219 89.1543 10.6526 83.271 10.6526C77.3876 10.6526 72.6182 15.4219 72.6182 21.3052C72.6182 27.1885 77.3876 31.9578 83.271 31.9578Z" fill="#116FFF"/>
<path d="M85.1877 10.828C80.2199 11.7313 76.4521 16.0768 76.4521 21.3051C76.4521 26.5335 80.2199 30.879 85.1877 31.7824C90.1555 30.879 93.9233 26.5335 93.9233 21.3051C93.9233 16.0767 90.1555 11.7313 85.1877 10.828Z" fill="#8FBCFF"/>
<path d="M122.398 54.7662C128.281 54.7662 133.051 49.9969 133.051 44.1136C133.051 38.2303 128.281 33.461 122.398 33.461C116.515 33.461 111.745 38.2303 111.745 44.1136C111.745 49.9969 116.515 54.7662 122.398 54.7662Z" fill="#116FFF"/>
<path d="M124.372 33.6464C119.432 34.5722 115.692 38.9049 115.692 44.1135C115.692 49.3223 119.432 53.655 124.372 54.5808C129.312 53.655 133.051 49.3223 133.051 44.1135C133.051 38.9049 129.312 34.5722 124.372 33.6464Z" fill="#8FBCFF"/>
<path d="M153.347 21.3052C159.23 21.3052 164 16.5359 164 10.6526C164 4.76934 159.23 0 153.347 0C147.464 0 142.694 4.76934 142.694 10.6526C142.694 16.5359 147.464 21.3052 153.347 21.3052Z" fill="#116FFF"/>
<path d="M155.858 0.300232C150.75 1.08648 146.839 5.50042 146.839 10.828C146.839 15.8463 150.31 20.0516 154.982 21.1803C160.089 20.3941 164 15.9803 164 10.6525C164 5.6343 160.529 1.42901 155.858 0.300232Z" fill="#8FBCFF"/>
<path d="M128.856 157.795C123.024 163.626 113.493 163.373 107.979 157.24L72.6465 117.938L88.9982 101.586L128.301 136.918C134.434 142.432 134.687 151.963 128.856 157.795Z" fill="#B5C7D8"/>
<path d="M128.855 157.795C134.686 151.963 134.433 142.432 128.3 136.918L90.1403 102.614L77.9736 114.781L113.306 154.082C117.254 158.473 123.259 159.849 128.493 158.138C128.614 158.024 128.736 157.913 128.855 157.795Z" fill="#CCDAE6"/>
<path d="M101.564 112.883L88.9982 101.587L72.6465 117.938L83.9429 130.503L101.564 112.883Z" fill="#FFB883"/>
<path d="M76.7402 113.844L87.9008 126.258L101.412 112.747L88.9974 101.587L76.7402 113.844Z" fill="url(#paint0_linear_252_8898)"/>
<path d="M48.9863 126.913C76.0406 126.913 97.9725 104.981 97.9725 77.9272C97.9725 50.8733 76.0406 28.9417 48.9863 28.9417C21.9319 28.9417 0 50.8733 0 77.9272C0 104.981 21.9319 126.913 48.9863 126.913Z" fill="#92A3B6"/>
<path d="M83.6245 43.2893C67.5483 27.2133 43.0792 24.6491 24.3228 35.5923C24.0788 35.8265 23.8352 36.0617 23.5948 36.302C4.4645 55.4322 4.4645 86.448 23.5948 105.578C39.671 121.654 64.1402 124.218 82.8965 113.275C83.1406 113.041 83.3842 112.806 83.6245 112.565C102.755 93.4352 102.755 62.4193 83.6245 43.2893Z" fill="url(#paint1_linear_252_8898)"/>
<path d="M48.9863 114.959C69.4387 114.959 86.0186 98.3792 86.0186 77.9272C86.0186 57.4752 69.4387 40.8956 48.9863 40.8956C28.534 40.8956 11.9541 57.4752 11.9541 77.9272C11.9541 98.3792 28.534 114.959 48.9863 114.959Z" fill="#E6F3FF"/>
<path d="M75.1724 51.7419C64.8768 41.4464 50.0281 38.4831 37.1086 42.8464C34.4668 44.4033 31.9767 46.3158 29.7078 48.5845C15.2458 63.0463 15.2458 86.4935 29.7078 100.955C40.0033 111.251 54.8521 114.214 67.7716 109.851C70.4133 108.294 72.9035 106.381 75.1723 104.113C89.6343 89.6507 89.6343 66.2035 75.1724 51.7419Z" fill="#D6E4EF"/>
<path d="M28.3506 94.2135C19.3558 85.2188 19.3558 70.6356 28.3506 61.641" stroke="#ECF5FF" stroke-width="5" stroke-miterlimit="10" stroke-linecap="round" stroke-linejoin="round"/>
<path d="M41.7822 69.7425L50.7051 76.6301L72.061 48.9625C69.017 46.5314 65.6795 44.6485 62.1796 43.3168L41.7822 69.7425Z" fill="#B5CAE8"/>
<path d="M47.5815 81.5408C53.4649 81.5408 58.2343 76.7715 58.2343 70.8882C58.2343 65.0049 53.4649 60.2356 47.5815 60.2356C41.6981 60.2356 36.9287 65.0049 36.9287 70.8882C36.9287 76.7715 41.6981 81.5408 47.5815 81.5408Z" fill="#116FFF"/>
<path d="M47.5804 60.2356C46.4514 60.2356 45.3641 60.4125 44.3429 60.7381C42.1367 62.6898 40.7441 65.5402 40.7441 68.7174C40.7441 74.6007 45.5136 79.3702 51.3969 79.3702C52.5259 79.3702 53.6132 79.1931 54.6344 78.8677C56.8405 76.9159 58.2332 74.0654 58.2332 70.8882C58.2332 65.0049 53.4638 60.2356 47.5804 60.2356Z" fill="#7FAEF5"/>
<defs>
<linearGradient id="paint0_linear_252_8898" x1="89.0761" y1="101.587" x2="89.0761" y2="126.258" gradientUnits="userSpaceOnUse">
<stop stop-color="#FFF1B9"/>
<stop offset="1" stop-color="#FFE088"/>
</linearGradient>
<linearGradient id="paint1_linear_252_8898" x1="53.6097" y1="28.9432" x2="53.6097" y2="119.924" gradientUnits="userSpaceOnUse">
<stop stop-color="#CAD8E5"/>
<stop offset="1" stop-color="#AEBBC9"/>
</linearGradient>
</defs>
</svg>