<svg xmlns="http://www.w3.org/2000/svg" width="36" height="40">
    <g fill-rule="nonzero" fill="none">
        <path d="M18 0S12.8 5 0 5v11c0 8.2 6.5 18.9 18 24 11.5-5.1 18-15.8 18-24V5C23.6 5 18 0 18 0z" fill="#B9CBF1"/>
        <path d="M18 40c11.5-5.1 18-15.8 18-24V5C23.6 5 18 0 18 0" opacity=".3" fill="#B9CBF1"/>
        <path d="M17.5 36.5C9.4 32.3 5 25.4 3.6 20.3 3.2 18.8 3 17.4 3 16V7.9l.9-.1c6.6-.5 10.9-2.3 13.4-3.8h.2l.4-.4.6.4c2.6 1.5 7 3.3 13.5 3.9l.9.1v8c0 1.4-.2 2.8-.6 4.3-1.4 5.1-5.8 12-13.9 16.2l-.4.2-.5-.2z" fill="#0970D8"/>
        <path d="M18 33.3C10.2 28.9 6 21.2 6 16v-5.3c5.5-.7 9.4-2.2 12-3.5 2.6 1.3 6.6 2.8 12 3.5V16c0 5.2-4.2 12.9-12 17.3z" fill="#188BFF"/>
        <path d="M18 20V4.4l.4-.4h.1l.4-.4.6.4c2.4 1.4 6.6 3.1 12.7 3.6l.9.1v7.6c0 1.3-.2 2.7-.6 4.1l-.3.6H18zM16.7 36.5C9.1 32.6 4.9 26 3.6 21.2L3.3 20H18v17.2l-1.3-.7z" opacity=".15" fill="#000"/>
    </g>
</svg>