<svg xmlns="http://www.w3.org/2000/svg" width="116" height="116" viewBox="0 0 116 116">
    <g fill="none" fill-rule="evenodd">
        <path d="M116 58c0-32.033-25.967-58-58-58S0 25.967 0 58s25.967 58 58 58 58-25.967 58-58z" fill="#DDD" fill-opacity=".15"/>
        <path d="M66.284 32.53a.695.695 0 0 0-.387-.104H52.633a.695.695 0 0 0-.388.104v4.076c0 .747-.604 1.352-1.349 1.352s-1.35-.605-1.35-1.352v-4.18c0-.811.4-1.529 1.033-2.022.581-.453 1.321-.683 2.054-.683h13.264c.733 0 1.473.23 2.054.683.633.493 1.032 1.21 1.032 2.023v4.179c0 .747-.604 1.352-1.35 1.352-.745 0-1.349-.605-1.349-1.352V32.53z" fill="#D3D3D3"/>
        <path d="M37.55 43.33v40.605a.9.9 0 0 0 .257.631h.002l4.028 4.114c.165.196.411.32.687.32H74.476c.233 0 .466-.09.642-.27l-.002-.002 4.028-4.116a.9.9 0 0 0 .307-.677V43.329H37.549z" fill="#C3C3C3"/>
        <path fill="#B1B1B1" d="M79.45 45.734h-41.9v-2.405h41.9z"/>
        <path d="M33.9 35.71h49.2c.497 0 .9.492.9 1.098v6.438c0 .606-.403 1.098-.9 1.098H33.9c-.497 0-.9-.492-.9-1.098v-6.438c0-.606.403-1.098.9-1.098z" fill="#C3C3C3" fill-rule="nonzero"/>
        <g transform="translate(47.817 50.227)" fill="#B1B1B1">
            <rect width="2.999" height="31.875" rx=".176"/>
            <rect x="9.183" width="2.999" height="31.875" rx=".176"/>
            <rect x="18.366" width="2.999" height="31.875" rx=".176"/>
        </g>
    </g>
</svg>