<svg xmlns="http://www.w3.org/2000/svg" width="34" height="34" viewBox="0 0 34 34" fill="none">
<g clip-path="url(#clip0_5855_745)">
<path fill-rule="evenodd" clip-rule="evenodd" d="M34 17C34 7.61116 26.3888 0 17 0C7.61116 0 0 7.61116 0 17C0 26.3888 7.61116 34 17 34C26.3888 34 34 26.3888 34 17Z" fill="#94C1FF" fill-opacity="0.15"/>
<path d="M30.4828 16.8534C30.4828 18.6433 30.1302 20.4156 29.4453 22.0692C28.7603 23.7227 27.7564 25.2252 26.4908 26.4908C25.2252 27.7564 23.7227 28.7604 22.0692 29.4453C20.4156 30.1302 18.6433 30.4828 16.8534 30.4828C13.2387 30.4828 9.77206 29.0468 7.21607 26.4908C4.66008 23.9348 3.22414 20.4682 3.22414 16.8534C3.22414 13.2387 4.66008 9.77206 7.21607 7.21607C9.77206 4.66008 13.2387 3.22414 16.8534 3.22414C18.6433 3.22414 20.4156 3.57667 22.0692 4.2616C23.7227 4.94654 25.2252 5.95047 26.4908 7.21607C27.7564 8.48167 28.7603 9.98415 29.4453 11.6377C30.1302 13.2913 30.4828 15.0636 30.4828 16.8534Z" fill="#FCC24A"/>
<path d="M15.8271 19.3772V9.67241H18.1729V19.3772H15.8271Z" fill="white"/>
<path d="M17 20.754C16.1906 20.754 15.5345 21.4102 15.5345 22.2195C15.5345 23.0289 16.1906 23.6851 17 23.6851C17.8094 23.6851 18.4655 23.0289 18.4655 22.2195C18.4655 21.4102 17.8094 20.754 17 20.754Z" fill="white"/>
<path opacity="0.5" fill-rule="evenodd" clip-rule="evenodd" d="M4.68965 16.7351C4.68965 23.5424 10.2127 29.0817 17 29.0817C23.7873 29.0817 29.3103 23.5503 29.3103 16.7431C29.3103 9.93584 23.7873 4.39655 17 4.39655C10.2127 4.39655 4.68965 9.92791 4.68965 16.7351ZM6.26138 16.743C6.26138 10.8075 11.0812 5.97348 16.9994 5.97348C22.9175 5.97348 27.7373 10.8075 27.7373 16.743C27.7373 22.6785 22.9175 27.5125 16.9994 27.5125C11.0812 27.5125 6.26138 22.6785 6.26138 16.743Z" fill="#D2862A"/>
</g>
<defs>
<clipPath id="clip0_5855_745">
<rect width="34" height="34" fill="white"/>
</clipPath>
</defs>
</svg>