<svg width="443" height="18" viewBox="0 0 443 18" fill="none" xmlns="http://www.w3.org/2000/svg">
<g id="Group">
<g id="This is a secure SSL">
<path id="Path" d="M118.548 15H117.386V6.69799H114.432V5.66199H121.516V6.69799H118.548V15Z" fill="#878787"/>
<path id="Path_2" d="M128.492 15H127.442V10.548C127.442 9.97865 127.311 9.57965 127.05 9.35099C126.789 9.12232 126.411 9.00799 125.916 9.00799C125.533 9.00799 125.158 9.11065 124.789 9.31599C124.42 9.52132 124.133 9.76865 123.928 10.058V15H122.878V5.66199H123.928V9.21799C124.18 8.90065 124.525 8.62999 124.964 8.40599C125.403 8.18199 125.86 8.06999 126.336 8.06999C127.773 8.06999 128.492 8.78865 128.492 10.226V15Z" fill="#878787"/>
<path id="Shape" fill-rule="evenodd" clip-rule="evenodd" d="M130.974 7.272C131.17 7.272 131.333 7.20667 131.464 7.076C131.604 6.936 131.674 6.768 131.674 6.572C131.674 6.376 131.606 6.208 131.471 6.068C131.336 5.928 131.17 5.858 130.974 5.858C130.778 5.858 130.61 5.928 130.47 6.068C130.33 6.208 130.26 6.376 130.26 6.572C130.26 6.768 130.33 6.93367 130.47 7.069C130.61 7.20433 130.778 7.272 130.974 7.272ZM130.442 15H131.492V8.238H130.442V15Z" fill="#878787"/>
<path id="Path_3" d="M135.598 15.168C134.459 15.168 133.549 14.8133 132.868 14.104L133.4 13.348C133.633 13.6187 133.953 13.8473 134.359 14.034C134.765 14.2207 135.187 14.314 135.626 14.314C136.13 14.314 136.524 14.2067 136.809 13.992C137.094 13.7773 137.236 13.4973 137.236 13.152C137.236 12.8533 137.091 12.6177 136.802 12.445C136.513 12.2723 136.163 12.1417 135.752 12.053C135.341 11.9643 134.933 11.8617 134.527 11.745C134.121 11.6283 133.773 11.4277 133.484 11.143C133.195 10.8583 133.05 10.4827 133.05 10.016C133.05 9.46534 133.274 9.00334 133.722 8.63001C134.17 8.25667 134.781 8.07001 135.556 8.07001C136.592 8.07001 137.427 8.39667 138.062 9.05001L137.572 9.77801C137.096 9.20867 136.424 8.92401 135.556 8.92401C135.099 8.92401 134.735 9.02434 134.464 9.22501C134.193 9.42567 134.058 9.68001 134.058 9.98801C134.058 10.212 134.161 10.3987 134.366 10.548C134.571 10.6973 134.83 10.8047 135.143 10.87C135.456 10.9353 135.792 11.0193 136.151 11.122C136.51 11.2247 136.846 11.339 137.159 11.465C137.472 11.591 137.731 11.7963 137.936 12.081C138.141 12.3657 138.244 12.7133 138.244 13.124C138.244 13.7213 138.013 14.2113 137.551 14.594C137.089 14.9767 136.438 15.168 135.598 15.168Z" fill="#878787"/>
<path id="Shape_2" fill-rule="evenodd" clip-rule="evenodd" d="M143.81 7.272C144.006 7.272 144.169 7.20667 144.3 7.076C144.44 6.936 144.51 6.768 144.51 6.572C144.51 6.376 144.442 6.208 144.307 6.068C144.172 5.928 144.006 5.858 143.81 5.858C143.614 5.858 143.446 5.928 143.306 6.068C143.166 6.208 143.096 6.376 143.096 6.572C143.096 6.768 143.166 6.93367 143.306 7.069C143.446 7.20433 143.614 7.272 143.81 7.272ZM143.278 15H144.328V8.238H143.278V15Z" fill="#878787"/>
<path id="Path_4" d="M148.434 15.168C147.295 15.168 146.385 14.8133 145.704 14.104L146.236 13.348C146.469 13.6187 146.789 13.8473 147.195 14.034C147.601 14.2207 148.023 14.314 148.462 14.314C148.966 14.314 149.36 14.2067 149.645 13.992C149.93 13.7773 150.072 13.4973 150.072 13.152C150.072 12.8533 149.927 12.6177 149.638 12.445C149.349 12.2723 148.999 12.1417 148.588 12.053C148.177 11.9643 147.769 11.8617 147.363 11.745C146.957 11.6283 146.609 11.4277 146.32 11.143C146.031 10.8583 145.886 10.4827 145.886 10.016C145.886 9.46534 146.11 9.00334 146.558 8.63001C147.006 8.25667 147.617 8.07001 148.392 8.07001C149.428 8.07001 150.263 8.39667 150.898 9.05001L150.408 9.77801C149.932 9.20867 149.26 8.92401 148.392 8.92401C147.935 8.92401 147.571 9.02434 147.3 9.22501C147.029 9.42567 146.894 9.68001 146.894 9.98801C146.894 10.212 146.997 10.3987 147.202 10.548C147.407 10.6973 147.666 10.8047 147.979 10.87C148.292 10.9353 148.628 11.0193 148.987 11.122C149.346 11.2247 149.682 11.339 149.995 11.465C150.308 11.591 150.567 11.7963 150.772 12.081C150.977 12.3657 151.08 12.7133 151.08 13.124C151.08 13.7213 150.849 14.2113 150.387 14.594C149.925 14.9767 149.274 15.168 148.434 15.168Z" fill="#878787"/>
<path id="Shape_3" fill-rule="evenodd" clip-rule="evenodd" d="M160.342 15H161.392V10.352C161.392 9.57734 161.149 9.00334 160.664 8.63001C160.179 8.25667 159.549 8.07001 158.774 8.07001C157.691 8.07001 156.791 8.44334 156.072 9.19001L156.562 9.91801C157.131 9.29267 157.822 8.98001 158.634 8.98001C159.138 8.98001 159.549 9.10601 159.866 9.35801C160.183 9.61001 160.342 9.95534 160.342 10.394V11.612C159.801 11.0053 159.054 10.702 158.102 10.702C157.467 10.702 156.917 10.8933 156.45 11.276C155.983 11.6587 155.75 12.2093 155.75 12.928C155.75 13.6187 155.988 14.1647 156.464 14.566C156.94 14.9673 157.486 15.168 158.102 15.168C159.045 15.168 159.791 14.8553 160.342 14.23V15ZM160.342 13.572C159.941 14.132 159.325 14.412 158.494 14.412C157.999 14.412 157.596 14.2743 157.283 13.999C156.97 13.7237 156.814 13.3667 156.814 12.928C156.814 12.4987 156.97 12.1463 157.283 11.871C157.596 11.5957 157.999 11.458 158.494 11.458C159.315 11.458 159.931 11.7333 160.342 12.284V13.572Z" fill="#878787"/>
<path id="Path_5" d="M168.988 15.168C167.849 15.168 166.939 14.8133 166.258 14.104L166.79 13.348C167.023 13.6187 167.343 13.8473 167.749 14.034C168.155 14.2207 168.577 14.314 169.016 14.314C169.52 14.314 169.914 14.2067 170.199 13.992C170.484 13.7773 170.626 13.4973 170.626 13.152C170.626 12.8533 170.481 12.6177 170.192 12.445C169.903 12.2723 169.553 12.1417 169.142 12.053C168.731 11.9643 168.323 11.8617 167.917 11.745C167.511 11.6283 167.163 11.4277 166.874 11.143C166.585 10.8583 166.44 10.4827 166.44 10.016C166.44 9.46534 166.664 9.00334 167.112 8.63001C167.56 8.25667 168.171 8.07001 168.946 8.07001C169.982 8.07001 170.817 8.39667 171.452 9.05001L170.962 9.77801C170.486 9.20867 169.814 8.92401 168.946 8.92401C168.489 8.92401 168.125 9.02434 167.854 9.22501C167.583 9.42567 167.448 9.68001 167.448 9.98801C167.448 10.212 167.551 10.3987 167.756 10.548C167.961 10.6973 168.22 10.8047 168.533 10.87C168.846 10.9353 169.182 11.0193 169.541 11.122C169.9 11.2247 170.236 11.339 170.549 11.465C170.862 11.591 171.121 11.7963 171.326 12.081C171.531 12.3657 171.634 12.7133 171.634 13.124C171.634 13.7213 171.403 14.2113 170.941 14.594C170.479 14.9767 169.828 15.168 168.988 15.168Z" fill="#878787"/>
<path id="Shape_4" fill-rule="evenodd" clip-rule="evenodd" d="M173.766 14.181C174.41 14.839 175.241 15.168 176.258 15.168C177.331 15.168 178.227 14.818 178.946 14.118L178.442 13.432C177.882 14.0107 177.182 14.3 176.342 14.3C175.642 14.3 175.075 14.076 174.641 13.628C174.207 13.18 173.967 12.6247 173.92 11.962H179.38V11.696C179.38 10.6507 179.088 9.78501 178.505 9.09901C177.922 8.41301 177.131 8.07001 176.132 8.07001C175.18 8.07001 174.387 8.41301 173.752 9.09901C173.117 9.78501 172.8 10.6227 172.8 11.612C172.8 12.6667 173.122 13.523 173.766 14.181ZM177.756 9.63101C178.139 10.093 178.335 10.6087 178.344 11.178H173.906C173.934 10.5993 174.142 10.0813 174.529 9.62401C174.916 9.16667 175.446 8.93801 176.118 8.93801C176.827 8.93801 177.373 9.16901 177.756 9.63101Z" fill="#878787"/>
<path id="Path_6" d="M183.906 15.168C182.907 15.168 182.095 14.8297 181.47 14.153C180.845 13.4763 180.532 12.6293 180.532 11.612C180.532 10.5947 180.845 9.75001 181.47 9.07801C182.095 8.40601 182.907 8.07001 183.906 8.07001C184.951 8.07001 185.777 8.46201 186.384 9.24601L185.684 9.87601C185.264 9.29734 184.69 9.00801 183.962 9.00801C183.262 9.00801 182.697 9.25301 182.268 9.74301C181.839 10.233 181.624 10.856 181.624 11.612C181.624 12.3773 181.839 13.005 182.268 13.495C182.697 13.985 183.262 14.23 183.962 14.23C184.671 14.23 185.245 13.936 185.684 13.348L186.384 13.992C185.777 14.776 184.951 15.168 183.906 15.168Z" fill="#878787"/>
<path id="Path_7" d="M193.332 15H192.282V14.048C192.002 14.3653 191.65 14.6313 191.225 14.846C190.8 15.0607 190.35 15.168 189.874 15.168C188.437 15.168 187.718 14.4493 187.718 13.012V8.23801H188.768V12.69C188.768 13.25 188.899 13.6467 189.16 13.88C189.421 14.1133 189.799 14.23 190.294 14.23C190.686 14.23 191.064 14.132 191.428 13.936C191.792 13.74 192.077 13.4973 192.282 13.208V8.23801H193.332V15Z" fill="#878787"/>
<path id="Path_8" d="M196.332 15H195.282V8.23798H196.332V9.31598C196.976 8.49465 197.727 8.08398 198.586 8.08398V9.16198C198.418 9.14332 198.283 9.13398 198.18 9.13398C197.853 9.13398 197.503 9.24365 197.13 9.46298C196.757 9.68232 196.491 9.93198 196.332 10.212V15Z" fill="#878787"/>
<path id="Shape_5" fill-rule="evenodd" clip-rule="evenodd" d="M200.326 14.181C200.97 14.839 201.801 15.168 202.818 15.168C203.891 15.168 204.787 14.818 205.506 14.118L205.002 13.432C204.442 14.0107 203.742 14.3 202.902 14.3C202.202 14.3 201.635 14.076 201.201 13.628C200.767 13.18 200.527 12.6247 200.48 11.962H205.94V11.696C205.94 10.6507 205.648 9.78501 205.065 9.09901C204.482 8.41301 203.691 8.07001 202.692 8.07001C201.74 8.07001 200.947 8.41301 200.312 9.09901C199.677 9.78501 199.36 10.6227 199.36 11.612C199.36 12.6667 199.682 13.523 200.326 14.181ZM204.316 9.63101C204.699 10.093 204.895 10.6087 204.904 11.178H200.466C200.494 10.5993 200.702 10.0813 201.089 9.62401C201.476 9.16667 202.006 8.93801 202.678 8.93801C203.387 8.93801 203.933 9.16901 204.316 9.63101Z" fill="#878787"/>
<path id="Path_9" d="M214.026 15.168C212.514 15.168 211.319 14.6733 210.442 13.684L211.142 12.788C211.917 13.684 212.892 14.132 214.068 14.132C214.824 14.132 215.379 13.9687 215.734 13.642C216.089 13.3153 216.266 12.9373 216.266 12.508C216.266 12.0693 216.077 11.7193 215.699 11.458C215.321 11.1967 214.859 10.9983 214.313 10.863C213.767 10.7277 213.223 10.5783 212.682 10.415C212.141 10.2517 211.681 9.981 211.303 9.603C210.925 9.225 210.736 8.728 210.736 8.112C210.736 7.34666 211.039 6.72133 211.646 6.236C212.253 5.75066 213.023 5.508 213.956 5.508C215.328 5.508 216.429 5.94666 217.26 6.824L216.56 7.678C215.897 6.93133 214.997 6.558 213.858 6.558C213.298 6.558 212.838 6.69566 212.479 6.971C212.12 7.24633 211.94 7.60333 211.94 8.042C211.94 8.36866 212.078 8.63933 212.353 8.854C212.628 9.06866 212.969 9.22733 213.375 9.33C213.781 9.43266 214.224 9.561 214.705 9.715C215.186 9.869 215.629 10.0323 216.035 10.205C216.441 10.3777 216.782 10.6553 217.057 11.038C217.332 11.4207 217.47 11.8827 217.47 12.424C217.47 13.18 217.188 13.8263 216.623 14.363C216.058 14.8997 215.193 15.168 214.026 15.168Z" fill="#878787"/>
<path id="Path_10" d="M222.08 15.168C220.568 15.168 219.373 14.6733 218.496 13.684L219.196 12.788C219.971 13.684 220.946 14.132 222.122 14.132C222.878 14.132 223.433 13.9687 223.788 13.642C224.143 13.3153 224.32 12.9373 224.32 12.508C224.32 12.0693 224.131 11.7193 223.753 11.458C223.375 11.1967 222.913 10.9983 222.367 10.863C221.821 10.7277 221.277 10.5783 220.736 10.415C220.195 10.2517 219.735 9.981 219.357 9.603C218.979 9.225 218.79 8.728 218.79 8.112C218.79 7.34666 219.093 6.72133 219.7 6.236C220.307 5.75066 221.077 5.508 222.01 5.508C223.382 5.508 224.483 5.94666 225.314 6.824L224.614 7.678C223.951 6.93133 223.051 6.558 221.912 6.558C221.352 6.558 220.892 6.69566 220.533 6.971C220.174 7.24633 219.994 7.60333 219.994 8.042C219.994 8.36866 220.132 8.63933 220.407 8.854C220.682 9.06866 221.023 9.22733 221.429 9.33C221.835 9.43266 222.278 9.561 222.759 9.715C223.24 9.869 223.683 10.0323 224.089 10.205C224.495 10.3777 224.836 10.6553 225.111 11.038C225.386 11.4207 225.524 11.8827 225.524 12.424C225.524 13.18 225.242 13.8263 224.677 14.363C224.112 14.8997 223.247 15.168 222.08 15.168Z" fill="#878787"/>
<path id="Path_11" d="M232.458 15H226.956V5.66199H228.118V13.964H232.458V15Z" fill="#878787"/>
<path id="Shape_6" fill-rule="evenodd" clip-rule="evenodd" d="M237.87 14.181C238.514 14.839 239.345 15.168 240.362 15.168C241.435 15.168 242.331 14.818 243.05 14.118L242.546 13.432C241.986 14.0107 241.286 14.3 240.446 14.3C239.746 14.3 239.179 14.076 238.745 13.628C238.311 13.18 238.071 12.6247 238.024 11.962H243.484V11.696C243.484 10.6507 243.192 9.78501 242.609 9.09901C242.026 8.41301 241.235 8.07001 240.236 8.07001C239.284 8.07001 238.491 8.41301 237.856 9.09901C237.221 9.78501 236.904 10.6227 236.904 11.612C236.904 12.6667 237.226 13.523 237.87 14.181ZM241.86 9.63101C242.243 10.093 242.439 10.6087 242.448 11.178H238.01C238.038 10.5993 238.246 10.0813 238.633 9.62401C239.02 9.16667 239.55 8.93801 240.222 8.93801C240.931 8.93801 241.477 9.16901 241.86 9.63101Z" fill="#878787"/>
<path id="Path_12" d="M250.642 15H249.606V10.576C249.606 10.0067 249.475 9.60301 249.214 9.36501C248.953 9.12701 248.575 9.00801 248.08 9.00801C247.688 9.00801 247.31 9.11067 246.946 9.31601C246.582 9.52134 246.293 9.76867 246.078 10.058V15H245.028V8.23801H246.078V9.21801C246.339 8.90067 246.689 8.63001 247.128 8.40601C247.567 8.18201 248.024 8.07001 248.5 8.07001C249.928 8.07001 250.642 8.79801 250.642 10.254V15Z" fill="#878787"/>
<path id="Path_13" d="M255.588 15.168C254.589 15.168 253.777 14.8297 253.152 14.153C252.527 13.4763 252.214 12.6293 252.214 11.612C252.214 10.5947 252.527 9.75001 253.152 9.07801C253.777 8.40601 254.589 8.07001 255.588 8.07001C256.633 8.07001 257.459 8.46201 258.066 9.24601L257.366 9.87601C256.946 9.29734 256.372 9.00801 255.644 9.00801C254.944 9.00801 254.379 9.25301 253.95 9.74301C253.521 10.233 253.306 10.856 253.306 11.612C253.306 12.3773 253.521 13.005 253.95 13.495C254.379 13.985 254.944 14.23 255.644 14.23C256.353 14.23 256.927 13.936 257.366 13.348L258.066 13.992C257.459 14.776 256.633 15.168 255.588 15.168Z" fill="#878787"/>
<path id="Path_14" d="M260.45 15H259.4V8.23798H260.45V9.31598C261.094 8.49465 261.845 8.08398 262.704 8.08398V9.16198C262.536 9.14332 262.401 9.13398 262.298 9.13398C261.971 9.13398 261.621 9.24365 261.248 9.46298C260.875 9.68232 260.609 9.93198 260.45 10.212V15Z" fill="#878787"/>
<path id="Path_15" d="M263.506 17.646L263.66 16.694C263.828 16.7687 264.019 16.806 264.234 16.806C264.477 16.806 264.677 16.7547 264.836 16.652C264.995 16.5493 265.13 16.3627 265.242 16.092L265.69 15.07L262.862 8.23801H264.01L266.25 13.782L268.504 8.23801H269.638L266.25 16.372C265.877 17.268 265.214 17.7253 264.262 17.744C263.973 17.744 263.721 17.7113 263.506 17.646Z" fill="#878787"/>
<path id="Shape_7" fill-rule="evenodd" clip-rule="evenodd" d="M271.63 13.978C272.227 14.7713 272.988 15.168 273.912 15.168C274.808 15.168 275.534 14.846 276.089 14.202C276.644 13.558 276.922 12.6947 276.922 11.612C276.922 10.5293 276.644 9.66834 276.089 9.02901C275.534 8.38967 274.808 8.07001 273.912 8.07001C273.445 8.07001 273.011 8.17734 272.61 8.39201C272.209 8.60667 271.882 8.89134 271.63 9.24601V8.23801H270.58V17.576H271.63V13.978ZM275.228 13.495C274.836 13.985 274.309 14.23 273.646 14.23C273.245 14.23 272.855 14.125 272.477 13.915C272.099 13.705 271.817 13.446 271.63 13.138V10.086C271.817 9.78734 272.099 9.53301 272.477 9.32301C272.855 9.11301 273.245 9.00801 273.646 9.00801C274.309 9.00801 274.836 9.25067 275.228 9.73601C275.62 10.2213 275.816 10.8467 275.816 11.612C275.816 12.3773 275.62 13.005 275.228 13.495Z" fill="#878787"/>
<path id="Path_16" d="M280.16 15.168C279.152 15.168 278.648 14.6407 278.648 13.586V9.16198H277.528V8.23798H278.648V6.38998H279.712V8.23798H281.084V9.16198H279.712V13.362C279.712 13.6233 279.77 13.8333 279.887 13.992C280.004 14.1507 280.169 14.23 280.384 14.23C280.683 14.23 280.921 14.132 281.098 13.936L281.406 14.734C281.098 15.0233 280.683 15.168 280.16 15.168Z" fill="#878787"/>
<path id="Shape_8" fill-rule="evenodd" clip-rule="evenodd" d="M282.978 14.181C283.622 14.839 284.453 15.168 285.47 15.168C286.543 15.168 287.439 14.818 288.158 14.118L287.654 13.432C287.094 14.0107 286.394 14.3 285.554 14.3C284.854 14.3 284.287 14.076 283.853 13.628C283.419 13.18 283.179 12.6247 283.132 11.962H288.592V11.696C288.592 10.6507 288.3 9.78501 287.717 9.09901C287.134 8.41301 286.343 8.07001 285.344 8.07001C284.392 8.07001 283.599 8.41301 282.964 9.09901C282.329 9.78501 282.012 10.6227 282.012 11.612C282.012 12.6667 282.334 13.523 282.978 14.181ZM286.968 9.63101C287.351 10.093 287.547 10.6087 287.556 11.178H283.118C283.146 10.5993 283.354 10.0813 283.741 9.62401C284.128 9.16667 284.658 8.93801 285.33 8.93801C286.039 8.93801 286.585 9.16901 286.968 9.63101Z" fill="#878787"/>
<path id="Shape_9" fill-rule="evenodd" clip-rule="evenodd" d="M295.036 15H296.086V5.66199H295.036V9.25999C294.448 8.46665 293.687 8.06999 292.754 8.06999C291.867 8.06999 291.144 8.39432 290.584 9.04299C290.024 9.69165 289.744 10.5527 289.744 11.626C289.744 12.7087 290.022 13.5697 290.577 14.209C291.132 14.8483 291.858 15.168 292.754 15.168C293.697 15.168 294.457 14.776 295.036 13.992V15ZM294.189 13.915C293.811 14.125 293.421 14.23 293.02 14.23C292.348 14.23 291.816 13.9873 291.424 13.502C291.032 13.0167 290.836 12.3913 290.836 11.626C290.836 10.8607 291.032 10.233 291.424 9.74299C291.816 9.25299 292.348 9.00799 293.02 9.00799C293.421 9.00799 293.811 9.11299 294.189 9.32299C294.567 9.53299 294.849 9.79199 295.036 10.1V13.152C294.849 13.4507 294.567 13.705 294.189 13.915Z" fill="#878787"/>
<path id="Shape_10" fill-rule="evenodd" clip-rule="evenodd" d="M302.562 13.978C303.159 14.7713 303.92 15.168 304.844 15.168C305.74 15.168 306.466 14.846 307.021 14.202C307.576 13.558 307.854 12.6947 307.854 11.612C307.854 10.5293 307.576 9.66834 307.021 9.02901C306.466 8.38967 305.74 8.07001 304.844 8.07001C304.377 8.07001 303.943 8.17734 303.542 8.39201C303.141 8.60667 302.814 8.89134 302.562 9.24601V8.23801H301.512V17.576H302.562V13.978ZM306.16 13.495C305.768 13.985 305.241 14.23 304.578 14.23C304.177 14.23 303.787 14.125 303.409 13.915C303.031 13.705 302.749 13.446 302.562 13.138V10.086C302.749 9.78734 303.031 9.53301 303.409 9.32301C303.787 9.11301 304.177 9.00801 304.578 9.00801C305.241 9.00801 305.768 9.25067 306.16 9.73601C306.552 10.2213 306.748 10.8467 306.748 11.612C306.748 12.3773 306.552 13.005 306.16 13.495Z" fill="#878787"/>
<path id="Shape_11" fill-rule="evenodd" clip-rule="evenodd" d="M313.598 15H314.648V10.352C314.648 9.57734 314.405 9.00334 313.92 8.63001C313.435 8.25667 312.805 8.07001 312.03 8.07001C310.947 8.07001 310.047 8.44334 309.328 9.19001L309.818 9.91801C310.387 9.29267 311.078 8.98001 311.89 8.98001C312.394 8.98001 312.805 9.10601 313.122 9.35801C313.439 9.61001 313.598 9.95534 313.598 10.394V11.612C313.057 11.0053 312.31 10.702 311.358 10.702C310.723 10.702 310.173 10.8933 309.706 11.276C309.239 11.6587 309.006 12.2093 309.006 12.928C309.006 13.6187 309.244 14.1647 309.72 14.566C310.196 14.9673 310.742 15.168 311.358 15.168C312.301 15.168 313.047 14.8553 313.598 14.23V15ZM313.598 13.572C313.197 14.132 312.581 14.412 311.75 14.412C311.255 14.412 310.852 14.2743 310.539 13.999C310.226 13.7237 310.07 13.3667 310.07 12.928C310.07 12.4987 310.226 12.1463 310.539 11.871C310.852 11.5957 311.255 11.458 311.75 11.458C312.571 11.458 313.187 11.7333 313.598 12.284V13.572Z" fill="#878787"/>
<path id="Path_17" d="M316.248 17.646L316.402 16.694C316.57 16.7687 316.761 16.806 316.976 16.806C317.219 16.806 317.419 16.7547 317.578 16.652C317.737 16.5493 317.872 16.3627 317.984 16.092L318.432 15.07L315.604 8.23801H316.752L318.992 13.782L321.246 8.23801H322.38L318.992 16.372C318.619 17.268 317.956 17.7253 317.004 17.744C316.715 17.744 316.463 17.7113 316.248 17.646Z" fill="#878787"/>
<path id="Path_18" d="M332.534 15H331.484V10.408C331.484 9.47467 331.069 9.00801 330.238 9.00801C329.902 9.00801 329.566 9.10834 329.23 9.30901C328.894 9.50967 328.633 9.75467 328.446 10.044V15H327.396V10.408C327.396 9.47467 326.981 9.00801 326.15 9.00801C325.823 9.00801 325.494 9.11067 325.163 9.31601C324.832 9.52134 324.568 9.76867 324.372 10.058V15H323.322V8.23801H324.372V9.21801C324.549 8.94734 324.846 8.68834 325.261 8.44101C325.676 8.19367 326.113 8.07001 326.57 8.07001C327.055 8.07001 327.452 8.18667 327.76 8.42001C328.068 8.65334 328.273 8.95667 328.376 9.33001C328.581 8.99401 328.894 8.70001 329.314 8.44801C329.734 8.19601 330.177 8.07001 330.644 8.07001C331.904 8.07001 332.534 8.75134 332.534 10.114V15Z" fill="#878787"/>
<path id="Shape_12" fill-rule="evenodd" clip-rule="evenodd" d="M335.058 14.181C335.702 14.839 336.533 15.168 337.55 15.168C338.623 15.168 339.519 14.818 340.238 14.118L339.734 13.432C339.174 14.0107 338.474 14.3 337.634 14.3C336.934 14.3 336.367 14.076 335.933 13.628C335.499 13.18 335.259 12.6247 335.212 11.962H340.672V11.696C340.672 10.6507 340.38 9.78501 339.797 9.09901C339.214 8.41301 338.423 8.07001 337.424 8.07001C336.472 8.07001 335.679 8.41301 335.044 9.09901C334.409 9.78501 334.092 10.6227 334.092 11.612C334.092 12.6667 334.414 13.523 335.058 14.181ZM339.048 9.63101C339.431 10.093 339.627 10.6087 339.636 11.178H335.198C335.226 10.5993 335.434 10.0813 335.821 9.62401C336.208 9.16667 336.738 8.93801 337.41 8.93801C338.119 8.93801 338.665 9.16901 339.048 9.63101Z" fill="#878787"/>
<path id="Path_19" d="M347.83 15H346.794V10.576C346.794 10.0067 346.663 9.60301 346.402 9.36501C346.141 9.12701 345.763 9.00801 345.268 9.00801C344.876 9.00801 344.498 9.11067 344.134 9.31601C343.77 9.52134 343.481 9.76867 343.266 10.058V15H342.216V8.23801H343.266V9.21801C343.527 8.90067 343.877 8.63001 344.316 8.40601C344.755 8.18201 345.212 8.07001 345.688 8.07001C347.116 8.07001 347.83 8.79801 347.83 10.254V15Z" fill="#878787"/>
<path id="Path_20" d="M351.516 15.168C350.508 15.168 350.004 14.6407 350.004 13.586V9.16198H348.884V8.23798H350.004V6.38998H351.068V8.23798H352.44V9.16198H351.068V13.362C351.068 13.6233 351.126 13.8333 351.243 13.992C351.36 14.1507 351.525 14.23 351.74 14.23C352.039 14.23 352.277 14.132 352.454 13.936L352.762 14.734C352.454 15.0233 352.039 15.168 351.516 15.168Z" fill="#878787"/>
<path id="Path_21" d="M354.866 14.916C354.717 15.0653 354.535 15.14 354.32 15.14C354.105 15.14 353.923 15.0653 353.774 14.916C353.625 14.7667 353.55 14.5847 353.55 14.37C353.55 14.1553 353.625 13.9733 353.774 13.824C353.923 13.6747 354.105 13.6 354.32 13.6C354.535 13.6 354.717 13.6747 354.866 13.824C355.015 13.9733 355.09 14.1553 355.09 14.37C355.09 14.5847 355.015 14.7667 354.866 14.916Z" fill="#878787"/>
</g>
<g id="511942_lock_login_protection_secure_icon">
<path id="Shape_13" fill-rule="evenodd" clip-rule="evenodd" d="M98.4444 6.95455V5.40909C98.4444 2.42173 96.0069 0 93 0C89.9931 0 87.5556 2.42173 87.5556 5.40909V6.95455H86V17H100V6.95455H98.4444ZM89.1111 5.40909C89.1111 3.27868 90.8557 1.54545 93 1.54545C95.1443 1.54545 96.8889 3.27868 96.8889 5.40909V6.95455H89.1111V5.40909ZM87.5556 8.5V15.4545H98.4444V8.5H87.5556Z" fill="black"/>
<path id="Path_22" d="M92.2222 12.063V13.9091H93.7778V12.063C94.015 11.8505 94.1666 11.5468 94.1666 11.2045C94.1666 10.5647 93.644 10.0454 93 10.0454C92.356 10.0454 91.8333 10.5647 91.8333 11.2045C91.8333 11.5468 91.985 11.8505 92.2222 12.063Z" fill="black"/>
</g>
<path id="Line 9" d="M0.5 8.5H63.5" stroke="#D9D9D9" stroke-linecap="square"/>
<path id="Line 9_2" d="M379.5 8.5H442.5" stroke="#D9D9D9" stroke-linecap="square"/>
</g>
</svg>
