<svg xmlns="http://www.w3.org/2000/svg" width="247" height="215" viewBox="0 0 247 215" fill="none">
<path d="M234 108.468C234 173.081 228.495 215 163.877 215C99.2602 215 0 173.081 0 108.468C0 43.8561 49.2833 0 113.901 0C178.518 0 234 43.8561 234 108.468Z" fill="#EFF8FF"/>
<g filter="url(#filter0_d_1472_955)">
<rect x="22" y="36" width="205" height="143" rx="6" fill="white" fill-opacity="0.9" shape-rendering="crispEdges"/>
<rect x="22.5" y="36.5" width="204" height="142" rx="5.5" stroke="#18A1FF" stroke-opacity="0.2" shape-rendering="crispEdges"/>
</g>
<rect x="25" y="39" width="198" height="6" rx="3" fill="#DCF1FF"/>
<rect x="28" y="51" width="151" height="47" fill="#EDF6FD"/>
<rect x="28" y="102" width="151" height="6" fill="#EDF6FD"/>
<rect x="28" y="112" width="99" height="6" fill="#EDF6FD"/>
<rect x="28" y="123" width="151" height="20" fill="#EDF6FD"/>
<rect x="28" y="149" width="151" height="6" fill="#EDF6FD"/>
<rect x="28" y="159" width="99" height="6" fill="#EDF6FD"/>
<g clip-path="url(#clip0_1472_955)">
<path d="M154.029 100.58L150.834 97.8713C150.348 97.4581 149.967 96.9352 149.722 96.3457C149.478 95.7562 149.377 95.1171 149.429 94.4811L149.773 90.3066C149.872 89.0891 149.706 87.8645 149.285 86.7177C148.864 85.571 148.198 84.5296 147.334 83.6657C146.47 82.8019 145.429 82.1364 144.282 81.7153C143.136 81.2942 141.911 81.1277 140.693 81.2272L136.521 81.571C135.884 81.6311 135.241 81.5343 134.65 81.289C134.059 81.0437 133.536 80.6574 133.129 80.1638L130.42 76.9735C129.629 76.0418 128.646 75.2932 127.538 74.7798C126.429 74.2663 125.222 74.0002 124.001 74C122.779 73.9998 121.572 74.2655 120.463 74.7785C119.355 75.2916 118.371 76.0398 117.581 76.9713L114.871 80.166C114.465 80.6608 113.943 81.0479 113.352 81.293C112.761 81.5381 112.118 81.6336 111.481 81.5711L107.307 81.2274C106.09 81.1331 104.866 81.3021 103.721 81.7229C102.575 82.1436 101.533 82.8063 100.666 83.6658C99.8012 84.529 99.1351 85.5703 98.7139 86.7172C98.2928 87.8641 98.1268 89.089 98.2274 90.3067L98.5711 94.4789C98.6229 95.1155 98.5223 95.7553 98.2776 96.3452C98.0328 96.9352 97.6511 97.4583 97.1639 97.8713L93.9735 100.58C93.0418 101.371 92.2932 102.354 91.7798 103.462C91.2663 104.571 91.0002 105.778 91 106.999C90.9998 108.221 91.2655 109.428 91.7785 110.537C92.2916 111.645 93.0398 112.629 93.9713 113.419L97.166 116.129C97.6523 116.542 98.0333 117.065 98.2776 117.654C98.5219 118.244 98.6225 118.883 98.5711 119.519L98.2273 123.693C98.1278 124.911 98.2943 126.135 98.7154 127.282C99.1365 128.429 99.802 129.47 100.666 130.334C101.53 131.198 102.571 131.863 103.718 132.285C104.865 132.706 106.089 132.872 107.307 132.773L111.479 132.429C112.116 132.373 112.757 132.472 113.348 132.717C113.938 132.962 114.461 133.346 114.871 133.836L117.581 137.026C118.371 137.958 119.354 138.707 120.463 139.22C121.571 139.734 122.778 140 124 140C125.221 140 126.428 139.734 127.537 139.221C128.645 138.708 129.629 137.96 130.42 137.029L133.129 133.834C133.54 133.345 134.062 132.962 134.652 132.718C135.242 132.473 135.883 132.374 136.519 132.429L140.693 132.773C141.911 132.872 143.136 132.706 144.282 132.285C145.429 131.863 146.47 131.198 147.334 130.334C148.198 129.47 148.864 128.429 149.285 127.282C149.706 126.135 149.872 124.911 149.773 123.693L149.429 119.521C149.377 118.884 149.478 118.245 149.722 117.655C149.967 117.065 150.349 116.542 150.836 116.129L154.027 113.42C154.958 112.629 155.707 111.646 156.22 110.537C156.734 109.429 157 108.222 157 107C157 105.779 156.735 104.572 156.222 103.463C155.708 102.355 154.96 101.371 154.029 100.58ZM137.084 100.254L122.167 116.702C121.961 116.93 121.709 117.111 121.428 117.236C121.148 117.36 120.844 117.424 120.537 117.424C120.23 117.424 119.926 117.36 119.645 117.236C119.364 117.111 119.113 116.93 118.906 116.702L110.916 107.892C110.525 107.459 110.323 106.889 110.352 106.307C110.381 105.725 110.64 105.178 111.072 104.786C111.504 104.395 112.073 104.191 112.655 104.219C113.238 104.247 113.785 104.504 114.177 104.935L120.537 111.95L133.823 97.2977C134.215 96.8666 134.762 96.6088 135.345 96.5809C135.927 96.5529 136.496 96.7571 136.928 97.1486C137.36 97.5401 137.619 98.0869 137.648 98.6691C137.678 99.2512 137.475 99.8211 137.084 100.254Z" fill="url(#paint0_linear_1472_955)"/>
</g>
<rect width="35" height="47" transform="matrix(-1 0 0 1 219 51)" fill="#EDF6FD"/>
<rect width="35" height="61" transform="matrix(-1 0 0 1 219 102)" fill="#EDF6FD"/>
<defs>
<filter id="filter0_d_1472_955" x="2" y="20" width="245" height="183" filterUnits="userSpaceOnUse" color-interpolation-filters="sRGB">
<feFlood flood-opacity="0" result="BackgroundImageFix"/>
<feColorMatrix in="SourceAlpha" type="matrix" values="0 0 0 0 0 0 0 0 0 0 0 0 0 0 0 0 0 0 127 0" result="hardAlpha"/>
<feOffset dy="4"/>
<feGaussianBlur stdDeviation="10"/>
<feComposite in2="hardAlpha" operator="out"/>
<feColorMatrix type="matrix" values="0 0 0 0 0 0 0 0 0 0 0 0 0 0 0 0 0 0 0.1 0"/>
<feBlend mode="normal" in2="BackgroundImageFix" result="effect1_dropShadow_1472_955"/>
<feBlend mode="normal" in="SourceGraphic" in2="effect1_dropShadow_1472_955" result="shape"/>
</filter>
<linearGradient id="paint0_linear_1472_955" x1="170.758" y1="97.1669" x2="120.87" y2="53.9085" gradientUnits="userSpaceOnUse">
<stop stop-color="#17A5FF"/>
<stop offset="1" stop-color="#1760FF"/>
</linearGradient>
<clipPath id="clip0_1472_955">
<rect width="66" height="66" fill="white" transform="translate(91 74)"/>
</clipPath>
</defs>
</svg>