<svg xmlns="http://www.w3.org/2000/svg" width="24" height="24" viewBox="0 0 24 24" fill="none">
<rect width="24" height="24" fill="#F2F2F2"/>
<g id="Step 20">
<rect width="1599" height="1609" transform="translate(-454 -941)" fill="#F8FCFF"/>
<path id="Rectangle 3404" d="M-68.5 -775.5H755C757.485 -775.5 759.5 -773.485 759.5 -771V264C759.5 266.485 757.485 268.5 755 268.5H-68.5V-775.5Z" fill="white" stroke="#D2EAFC"/>
<g id="Group 20722">
<rect id="Rectangle 14" x="-22.5" y="-19.5" width="381" height="64" rx="5.5" fill="#279CF8" fill-opacity="0.0954201" stroke="#279CF8" stroke-width="3"/>
</g>
<g id="Frame 191">
<g id="contactless-card 1" clip-path="url(#clip0_4361_2)">
<g id="Group">
<path id="Vector" d="M22.5 3H1.5C1.10218 3 0.720644 3.15804 0.43934 3.43934C0.158035 3.72064 0 4.10218 0 4.5L0 19.5C0 19.8978 0.158035 20.2794 0.43934 20.5607C0.720644 20.842 1.10218 21 1.5 21H22.5C22.8978 21 23.2794 20.842 23.5607 20.5607C23.842 20.2794 24 19.8978 24 19.5V4.5C24 4.10218 23.842 3.72064 23.5607 3.43934C23.2794 3.15804 22.8978 3 22.5 3ZM4.125 6.75H8.625C8.72446 6.75 8.81984 6.78951 8.89017 6.85983C8.96049 6.93016 9 7.02554 9 7.125V10.125C9 10.2245 8.96049 10.3198 8.89017 10.3902C8.81984 10.4605 8.72446 10.5 8.625 10.5H4.125C4.02554 10.5 3.93016 10.4605 3.85984 10.3902C3.78951 10.3198 3.75 10.2245 3.75 10.125V7.125C3.75 7.02554 3.78951 6.93016 3.85984 6.85983C3.93016 6.78951 4.02554 6.75 4.125 6.75ZM12.375 17.25H4.125C4.02554 17.25 3.93016 17.2105 3.85984 17.1402C3.78951 17.0698 3.75 16.9745 3.75 16.875V16.125C3.75 16.0255 3.78951 15.9302 3.85984 15.8598C3.93016 15.7895 4.02554 15.75 4.125 15.75H12.375C12.4745 15.75 12.5698 15.7895 12.6402 15.8598C12.7105 15.9302 12.75 16.0255 12.75 16.125V16.875C12.75 16.9745 12.7105 17.0698 12.6402 17.1402C12.5698 17.2105 12.4745 17.25 12.375 17.25ZM13.5 9.75C13.3517 9.75 13.2067 9.70601 13.0833 9.6236C12.96 9.54119 12.8639 9.42406 12.8071 9.28701C12.7503 9.14997 12.7355 8.99917 12.7644 8.85368C12.7934 8.7082 12.8648 8.57456 12.9697 8.46967C13.0746 8.36478 13.2082 8.29335 13.3537 8.26441C13.4992 8.23547 13.65 8.25032 13.787 8.30709C13.9241 8.36386 14.0412 8.45999 14.1236 8.58332C14.206 8.70666 14.25 8.85166 14.25 9C14.25 9.19891 14.171 9.38968 14.0303 9.53033C13.8897 9.67098 13.6989 9.75 13.5 9.75ZM15.3412 7.977L16.668 7.23975C17.0461 7.74875 17.2502 8.36595 17.2502 9C17.2502 9.63405 17.0461 10.2513 16.668 10.7603L15.3412 10.023C15.6037 9.74708 15.7501 9.38082 15.7501 9C15.7501 8.61918 15.6037 8.25292 15.3412 7.977ZM19.875 17.25H16.125C16.0255 17.25 15.9302 17.2105 15.8598 17.1402C15.7895 17.0698 15.75 16.9745 15.75 16.875V16.125C15.75 16.0255 15.7895 15.9302 15.8598 15.8598C15.9302 15.7895 16.0255 15.75 16.125 15.75H19.875C19.9745 15.75 20.0698 15.7895 20.1402 15.8598C20.2105 15.9302 20.25 16.0255 20.25 16.125V16.875C20.25 16.9745 20.2105 17.0698 20.1402 17.1402C20.0698 17.2105 19.9745 17.25 19.875 17.25ZM19.302 12.225L17.9918 11.4967C18.4861 10.7585 18.75 9.88999 18.75 9.0015C18.75 8.11301 18.4861 7.24454 17.9918 6.50625L19.302 5.775C19.9215 6.73653 20.251 7.85616 20.251 9C20.251 10.1438 19.9215 11.2635 19.302 12.225Z" fill="#279CF8"/>
</g>
</g>
</g>
</g>
<defs>
<clipPath id="clip0_4361_2">
<rect width="24" height="24" fill="white"/>
</clipPath>
</defs>
</svg>