<svg xmlns="http://www.w3.org/2000/svg" width="22" height="18" viewBox="0 0 22 18">
    <g fill="#17D384" fill-rule="evenodd">
        <path d="M20.136.034c.503 0 .934.183 1.293.548.358.366.538.806.538 1.32v14.203c0 .514-.18.954-.538 1.32-.359.366-.79.549-1.293.549H1.83c-.503 0-.934-.183-1.293-.55A1.818 1.818 0 0 1 0 16.105V1.903C0 1.388.179.948.537.582.896.216 1.327.034 1.83.034zm.366 8.97H1.464v7.1c0 .102.036.19.109.264.072.074.158.11.257.11h18.306a.349.349 0 0 0 .257-.11.363.363 0 0 0 .109-.263V9.004zm-.366-7.475H1.83a.35.35 0 0 0-.257.11.363.363 0 0 0-.109.263v2.616h19.038V1.902a.363.363 0 0 0-.109-.263.348.348 0 0 0-.257-.11z"/>
        <path d="M2.929 13.489h2.929v1.495h-2.93v-1.495zM7.322 13.489h4.393v1.495H7.322v-1.495z"/>
    </g>
</svg>