<svg xmlns="http://www.w3.org/2000/svg" width="15" height="13" viewBox="0 0 15 13" fill="none">
<path fill-rule="evenodd" clip-rule="evenodd" d="M7.44361 3.2733H7.37428H6.64315H6.52594C4.46204 7.53552 3.64198 6.33642 1.76076 3.33187H0.878688V5.33023V7.08282V7.13104V7.2159V7.30263V7.39102V7.48126V7.5731V7.66673V7.76203V7.85905V7.95766V8.058V8.15993V8.26353V8.36865V8.4755V8.58387V8.69384V8.80527V8.91829V8.98098H13.9391V8.91829V8.80527V8.69384V8.58387V8.4755V8.36865V8.26353V8.15993V8.058V7.95766V7.85905V7.76203V7.66673V7.5731V7.48126V7.39102V7.30263V7.2159V7.13104V7.08282V5.33023V3.33187H13.0571C11.1758 6.33642 10.3558 7.53545 8.29188 3.2733H8.17468H7.44361ZM0.878688 10.2102V12.0525H7.37428H7.44361H13.9392V10.2102H0.878754H0.878688ZM7.40895 2.56926C7.42754 2.57005 7.4462 2.57045 7.46499 2.57045C8.17474 2.57045 8.75022 1.99504 8.75022 1.28523C8.75022 0.57541 8.17474 0 7.46499 0C7.4462 0 7.42747 0.000398438 7.40895 0.00126172C7.39035 0.000398438 7.37169 0 7.3529 0C6.64315 0 6.06767 0.57541 6.06767 1.28523C6.06767 1.99504 6.64315 2.57045 7.3529 2.57045C7.37169 2.57045 7.39042 2.57005 7.40895 2.56926ZM13.5327 6.64063e-05C12.8228 6.64063e-05 12.2474 0.575543 12.2474 1.28529C12.2474 1.99511 12.8228 2.57052 13.5327 2.57052C14.2425 2.57052 14.8179 1.99511 14.8179 1.28529C14.8179 0.575477 14.2424 6.64063e-05 13.5327 6.64063e-05ZM1.28523 6.64063e-05C1.99504 6.64063e-05 2.57045 0.575543 2.57045 1.28529C2.57045 1.99511 1.99504 2.57052 1.28523 2.57052C0.57541 2.57052 0 1.99511 0 1.28529C0 0.575477 0.575477 6.64063e-05 1.28523 6.64063e-05Z" fill="#1660FF"/>
</svg>