<svg xmlns="http://www.w3.org/2000/svg" width="64px" height="64px">
    <defs>
        <path id="a" d="M0 0h250.9v312.8H0z"/>
    </defs>
    <g class="E">
        <path
                fill="#3c8bd9"
                d="M21.78 9.887c.618-1.624 1.468-3.119 2.731-4.33 5.052-4.923 13.403-3.686 16.831 2.5 2.578 4.691 5.31 9.279 7.965 13.918l13.3 23.146c3.685 6.47-.31 14.64-7.63 15.748-4.485.67-8.686-1.392-11.006-5.413L32.27 35.146a2.336 2.336 0 0 0-.283-.412c-.412-.335-.593-.825-.85-1.263l-8.61-14.924c-1.005-1.752-1.469-3.66-1.417-5.67.077-1.031.206-2.062.67-2.99"
        />
        <path
                fill="#fabc04"
                d="M21.78 9.887c-.233.928-.439 1.856-.49 2.835-.078 2.165.463 4.176 1.546 6.057l8.48 14.666c.258.438.464.876.722 1.289l-4.666 8.016-6.52 11.237c-.104 0-.13-.051-.155-.129-.026-.206.051-.386.103-.592 1.056-3.867.18-7.295-2.475-10.233-1.623-1.778-3.685-2.784-6.057-3.119-3.093-.438-5.825.361-8.273 2.294-.439.335-.722.825-1.238 1.083-.103 0-.154-.052-.18-.13l3.686-6.417 15.336-26.573c.051-.104.129-.18.18-.284"
        />
        <path
                fill="#34a852"
                d="m2.68 43.24 1.47-1.315c6.262-4.949 15.67-1.366 17.036 6.47.335 1.88.155 3.685-.412 5.49a2.696 2.696 0 0 1-.103.437c-.232.413-.438.85-.696 1.263-2.294 3.79-5.67 5.67-10.104 5.387-5.077-.36-9.073-4.175-9.768-9.227-.336-2.449.154-4.743 1.417-6.856.258-.464.567-.877.85-1.34.13-.104.078-.31.31-.31"
        />
        <path
                fill="#fabc04"
                d="M2.68 43.24c-.103.102-.103.283-.284.309-.025-.18.078-.284.18-.413l.104.103"
        />
        <path
                fill="#e1c025"
                d="M20.67 54.322c-.102-.18 0-.309.104-.438l.103.103-.206.335"
        />
    </g>
</svg>