<svg xmlns="http://www.w3.org/2000/svg" width="203" height="202" viewBox="0 0 203 202" fill="none">
<path fill-rule="evenodd" clip-rule="evenodd" d="M72.6169 194.035C92.04 194.035 107.785 190.949 107.785 187.142C107.785 183.335 92.04 180.249 72.6169 180.249C53.1938 180.249 37.4482 183.335 37.4482 187.142C37.4482 190.949 53.1938 194.035 72.6169 194.035Z" fill="#FFD3F8"/>
<path fill-rule="evenodd" clip-rule="evenodd" d="M82.2355 201.228C101.659 201.228 117.404 198.142 117.404 194.335C117.404 190.528 101.659 187.442 82.2355 187.442C62.8124 187.442 47.0669 190.528 47.0669 194.335C47.0669 198.142 62.8124 201.228 82.2355 201.228Z" fill="#FFD3F8"/>
<path fill-rule="evenodd" clip-rule="evenodd" d="M94.2592 194.635C113.682 194.635 129.428 191.549 129.428 187.742C129.428 183.935 113.682 180.849 94.2592 180.849C74.8361 180.849 59.0906 183.935 59.0906 187.742C59.0906 191.549 74.8361 194.635 94.2592 194.635Z" fill="#FFD3F8"/>
<path fill-rule="evenodd" clip-rule="evenodd" d="M79.4216 141.412L143.97 102.192C145.777 101.094 148.019 102.702 147.558 104.766L132.15 173.757C132.15 173.757 123.275 160.985 109.369 152.455C95.4634 143.924 79.4216 141.412 79.4216 141.412Z" fill="url(#paint0_linear_675_23789)"/>
<path fill-rule="evenodd" clip-rule="evenodd" d="M79.4216 141.412L143.97 102.192C145.777 101.094 148.019 102.702 147.558 104.766L132.15 173.757C132.15 173.757 123.275 160.985 109.369 152.455C95.4634 143.924 79.4216 141.412 79.4216 141.412Z" fill="url(#paint1_linear_675_23789)" style="mix-blend-mode:overlay"/>
<mask id="mask0_675_23789" style="mask-type:alpha" maskUnits="userSpaceOnUse" x="79" y="101" width="69" height="73">
<path fill-rule="evenodd" clip-rule="evenodd" d="M79.4216 141.412L143.97 102.192C145.777 101.094 148.019 102.702 147.558 104.766L132.15 173.757C132.15 173.757 123.275 160.985 109.369 152.455C95.4634 143.924 79.4216 141.412 79.4216 141.412Z" fill="white"/>
<path fill-rule="evenodd" clip-rule="evenodd" d="M79.4216 141.412L143.97 102.192C145.777 101.094 148.019 102.702 147.558 104.766L132.15 173.757C132.15 173.757 123.275 160.985 109.369 152.455C95.4634 143.924 79.4216 141.412 79.4216 141.412Z" stroke="white"/>
</mask>
<g mask="url(#mask0_675_23789)">
<g style="mix-blend-mode:soft-light">
<path d="M105.982 124.504C105.982 124.504 128.423 121.428 139.799 145.406" stroke="#8C4545" stroke-width="1.8"/>
</g>
<g style="mix-blend-mode:soft-light">
<path d="M96.3633 131.097C96.3633 131.097 124.174 128.558 137.844 160.468" stroke="#8C4545" stroke-width="1.8"/>
</g>
<g style="mix-blend-mode:soft-light">
<path d="M113.196 117.311C113.196 117.311 135.932 112.232 147.013 138.213" stroke="#8C4545" stroke-width="1.8"/>
</g>
<g style="mix-blend-mode:soft-light">
<path d="M118.226 110.812C118.226 110.812 144.294 105.098 152.117 130.944" stroke="#8C4545" stroke-width="1.8"/>
</g>
<g style="mix-blend-mode:soft-light">
<path d="M132.81 105.284C132.81 105.284 148.395 102.066 151.446 117.872" stroke="#8C4545" stroke-width="1.8"/>
</g>
<g style="mix-blend-mode:soft-light">
<path d="M113.083 153.996C113.083 153.052 113.57 132.61 101.774 120.908" stroke="#8C4545" stroke-width="1.8"/>
</g>
<g style="mix-blend-mode:soft-light">
<path d="M125.708 152.797C125.708 151.852 126.195 131.41 114.398 119.708" stroke="#8C4545" stroke-width="1.8"/>
</g>
<g style="mix-blend-mode:soft-light">
<path d="M137.841 152.797C137.841 151.698 138.435 127.924 124.017 114.314" stroke="#8C4545" stroke-width="1.8"/>
</g>
<g style="mix-blend-mode:soft-light">
<path d="M145.656 143.207C145.656 142.108 146.25 118.333 131.833 104.724" stroke="#8C4545" stroke-width="1.8"/>
</g>
</g>
<path fill-rule="evenodd" clip-rule="evenodd" d="M94.2591 180.249C106.71 180.249 116.803 170.185 116.803 157.771C116.803 145.357 106.71 135.293 94.2591 135.293C81.8084 135.293 71.7151 145.357 71.7151 157.771C71.7151 170.185 81.8084 180.249 94.2591 180.249Z" fill="url(#paint2_linear_675_23789)"/>
<path fill-rule="evenodd" clip-rule="evenodd" d="M95.4614 189.839C107.912 189.839 123.48 189.338 123.48 176.924C123.48 164.509 115.727 153.918 103.277 153.918C90.8259 153.918 65.386 164.509 65.386 176.924C65.386 189.338 83.0107 189.839 95.4614 189.839Z" fill="url(#paint3_linear_675_23789)"/>
<path fill-rule="evenodd" clip-rule="evenodd" d="M111.092 188.641C123.543 188.641 133.636 178.577 133.636 166.163C133.636 153.749 123.543 143.685 111.092 143.685C98.6411 143.685 88.5479 153.749 88.5479 166.163C88.5479 178.577 98.6411 188.641 111.092 188.641Z" fill="url(#paint4_linear_675_23789)"/>
<path d="M95.3594 171.893C96.5955 174.818 98.3626 175.486 100.121 176.018" stroke="#ADFFFC" stroke-width="2.4" stroke-linecap="round" stroke-linejoin="round"/>
<path d="M61.3877 193.292C58.6353 191.923 57.236 192.407 55.9397 192.98" stroke="#ADFFFC" stroke-width="2.4" stroke-linecap="round" stroke-linejoin="round"/>
<path d="M82.5002 156.739C84.4756 156.641 85.242 155.754 85.9267 154.844" stroke="white" stroke-width="2.4" stroke-linecap="round" stroke-linejoin="round"/>
<path d="M93.5412 188.25C94.0322 188.387 94.6817 188.314 95.3259 188.231" stroke="white" stroke-width="2.4" stroke-linecap="round" stroke-linejoin="round"/>
<path d="M89.592 141.851C88.7514 143.636 89.1768 144.727 89.6614 145.757" stroke="#C4A2FF" stroke-width="2.4" stroke-linecap="round" stroke-linejoin="round"/>
<path d="M104.025 194.533C103.32 194.363 103.086 194.48 102.883 194.61" stroke="#C4A2FF" stroke-width="2.4" stroke-linecap="round" stroke-linejoin="round"/>
<path d="M77.6089 172.816C74.6537 173.997 73.9533 175.747 73.3896 177.491" stroke="#FFA6EA" stroke-width="2.4" stroke-linecap="round" stroke-linejoin="round"/>
<path d="M108.76 158.457C107.211 159.775 107.145 160.75 107.16 161.687" stroke="#D6FFA9" stroke-width="2.4" stroke-linecap="round" stroke-linejoin="round"/>
<path d="M60.6277 184.36C62.0487 184.89 62.7101 184.581 63.3163 184.233" stroke="#D6FFA9" stroke-width="2.4" stroke-linecap="round" stroke-linejoin="round"/>
<path d="M123.434 166.95C121.324 165.945 120.267 166.331 119.289 166.784" stroke="#FFAFAF" stroke-width="2.4" stroke-linecap="round" stroke-linejoin="round"/>
<path d="M76.71 193.532C77.5938 194.243 78.8261 194.369 80.051 194.461" stroke="#FFAFAF" stroke-width="2.4" stroke-linecap="round" stroke-linejoin="round"/>
<rect x="79.5303" y="157.471" width="4.80938" height="13.1869" rx="2.40469" fill="#746CA0"/>
<rect x="93.9585" y="157.471" width="4.80938" height="13.1869" rx="2.40469" fill="#746CA0"/>
<path d="M84.6401 178.151C84.6401 178.151 87.3284 176.353 90.0385 176.353C92.7486 176.353 95.4733 178.151 95.4733 178.151" stroke="#746CA0" stroke-width="1.8" stroke-linecap="round" stroke-linejoin="round"/>
<path opacity="0.5" d="M162.519 128.309C182.331 88.1995 151.113 77.7453 151.113 77.7453C129.799 75.9827 121.229 90.9035 110.601 92.6012C90.2635 95.8498 72.8634 79.097 76.4437 62.6881C77.7952 56.4943 94.3742 48.8109 98.6392 77.1506C100.142 87.1344 97.8762 97.9488 80.881 103.073C56.4006 110.454 42.8821 82.0403 41.6212 81.2026" stroke="url(#paint5_linear_675_23789)" stroke-width="2.4" stroke-linecap="round" stroke-linejoin="round" stroke-dasharray="2.4 6"/>
<path opacity="0.4" fill-rule="evenodd" clip-rule="evenodd" d="M35.2433 73.3759C35.2433 73.3759 28.3466 71.8188 26.0538 73.1471C23.7609 74.4754 22.975 77.4165 24.2983 79.7164C25.6217 82.0163 28.5531 82.804 30.846 81.4757C33.1388 80.1474 35.2433 73.3759 35.2433 73.3759Z" fill="#CED8E5"/>
<path opacity="0.4" fill-rule="evenodd" clip-rule="evenodd" d="M38.8268 70.9293C38.8268 70.9293 45.7235 72.4864 48.0163 71.1581C50.3091 69.8298 51.0951 66.8886 49.7717 64.5887C48.4484 62.2889 45.5169 61.5012 43.2241 62.8295C40.9313 64.1578 38.8268 70.9293 38.8268 70.9293Z" fill="#CED8E5"/>
<path d="M35.3378 75.7875C33.2637 75.2318 32.0328 73.0998 32.5886 71.0257L33.7333 66.7536L37.9708 67.8891C40.0449 68.4448 41.2758 70.5768 40.72 72.6509L39.5753 76.923L35.3378 75.7875Z" fill="#A8B7C5"/>
<mask id="mask1_675_23789" style="mask-type:alpha" maskUnits="userSpaceOnUse" x="32" y="66" width="9" height="11">
<path d="M35.3378 75.7875C33.2637 75.2318 32.0328 73.0998 32.5886 71.0257L33.7333 66.7536L37.9708 67.8891C40.0449 68.4448 41.2758 70.5768 40.72 72.6509L39.5753 76.923L35.3378 75.7875Z" fill="white"/>
</mask>
<g mask="url(#mask1_675_23789)">
<path fill-rule="evenodd" clip-rule="evenodd" d="M33.4285 76.7832L32.775 75.6475L41.0781 70.8374L41.7315 71.9731L33.4285 76.7832Z" fill="#DDE5F2"/>
<path fill-rule="evenodd" clip-rule="evenodd" d="M32.0044 73.6838L31.3508 72.5481L39.6534 67.7394L40.3071 68.8752L32.0044 73.6838Z" fill="#DDE5F2"/>
</g>
<path d="M32.8855 61.9068L32.9799 58.6272" stroke="#8696C5" stroke-width="0.5"/>
<path d="M31.2839 62.8361L28.5579 60.8341" stroke="#8696C5" stroke-width="0.5"/>
<path fill-rule="evenodd" clip-rule="evenodd" d="M36.5971 66.1623C37.0973 64.2955 35.996 62.3785 34.1373 61.8805C32.2786 61.3824 30.3663 62.492 29.8661 64.3587C29.3659 66.2255 30.4672 68.1425 32.3259 68.6406C34.1847 69.1386 36.0969 68.029 36.5971 66.1623Z" fill="#8B9AA8"/>
<defs>
<linearGradient id="paint0_linear_675_23789" x1="93.6784" y1="126.638" x2="131.264" y2="167.862" gradientUnits="userSpaceOnUse">
<stop stop-color="#FFF2D2"/>
<stop offset="1" stop-color="#FFE0A6"/>
</linearGradient>
<linearGradient id="paint1_linear_675_23789" x1="113.286" y1="114.485" x2="95.8541" y2="133.578" gradientUnits="userSpaceOnUse">
<stop stop-opacity="0.01"/>
<stop offset="1"/>
</linearGradient>
<linearGradient id="paint2_linear_675_23789" x1="52.2693" y1="167.68" x2="85.5705" y2="191.3" gradientUnits="userSpaceOnUse">
<stop stop-color="#FFEFFD"/>
<stop offset="1" stop-color="#FFDBF9"/>
</linearGradient>
<linearGradient id="paint3_linear_675_23789" x1="42.3282" y1="174.322" x2="66.0005" y2="205.78" gradientUnits="userSpaceOnUse">
<stop stop-color="#FFEFFD"/>
<stop offset="1" stop-color="#FFDBF9"/>
</linearGradient>
<linearGradient id="paint4_linear_675_23789" x1="73.0057" y1="164.777" x2="100.816" y2="190.288" gradientUnits="userSpaceOnUse">
<stop stop-color="#FFEFFD"/>
<stop offset="1" stop-color="#FFDBF9"/>
</linearGradient>
<linearGradient id="paint5_linear_675_23789" x1="168.236" y1="27.6838" x2="60.1302" y2="14.4467" gradientUnits="userSpaceOnUse">
<stop stop-color="#95ABC2" stop-opacity="0.244084"/>
<stop offset="1" stop-color="#5C738E"/>
</linearGradient>
</defs>
</svg>