<svg xmlns="http://www.w3.org/2000/svg" width="30" height="30" viewBox="0 0 30 30" fill="none">
<path d="M21.5625 10.3125L27.1875 23.4375H15L21.5625 10.3125Z" fill="#FDC34B"/>
<path d="M21.5625 10.3125C22.0803 10.3125 22.5 9.89277 22.5 9.375C22.5 8.85723 22.0803 8.4375 21.5625 8.4375C21.0447 8.4375 20.625 8.85723 20.625 9.375C20.625 9.89277 21.0447 10.3125 21.5625 10.3125Z" fill="#FFD33A"/>
<path d="M8.4375 10.3125L2.8125 23.4375H15L8.4375 10.3125Z" fill="#FDC34B"/>
<path d="M15 15C2.34378 15 2.81253 23.4375 2.81253 23.4375H27.1875C27.1875 23.4375 27.6563 15 15 15Z" fill="#1660FF"/>
<path d="M27.6562 25.3125H2.34375C1.82596 25.3125 1.40625 24.8928 1.40625 24.375C1.40625 23.8572 1.82596 23.4375 2.34375 23.4375H27.6562C28.174 23.4375 28.5938 23.8572 28.5938 24.375C28.5938 24.8928 28.174 25.3125 27.6562 25.3125Z" fill="#FDC34B"/>
<path d="M20.625 19.2188L15 6.5625L9.375 19.2188L2.34375 11.25L2.8125 23.4375H27.1875L27.6562 11.25L20.625 19.2188Z" fill="#FFD33A"/>
<path d="M15 21.5625L12.1875 18.75L15 12.1875L17.8125 18.75L15 21.5625Z" fill="#18A1FF"/>
<path d="M15 17.8125V21.5625L12.1875 18.75L15 17.8125Z" fill="#43ADFF"/>
<path d="M17.8125 18.75L15 17.8125V12.1875L17.8125 18.75Z" fill="#1660FF"/>
<path d="M2.34375 11.25C2.86152 11.25 3.28125 10.8303 3.28125 10.3125C3.28125 9.79473 2.86152 9.375 2.34375 9.375C1.82598 9.375 1.40625 9.79473 1.40625 10.3125C1.40625 10.8303 1.82598 11.25 2.34375 11.25Z" fill="#FFD33A"/>
<path d="M8.4375 10.3125C8.95527 10.3125 9.375 9.89277 9.375 9.375C9.375 8.85723 8.95527 8.4375 8.4375 8.4375C7.91973 8.4375 7.5 8.85723 7.5 9.375C7.5 9.89277 7.91973 10.3125 8.4375 10.3125Z" fill="#FFD33A"/>
<path d="M15 6.5625C15.5178 6.5625 15.9375 6.14277 15.9375 5.625C15.9375 5.10723 15.5178 4.6875 15 4.6875C14.4822 4.6875 14.0625 5.10723 14.0625 5.625C14.0625 6.14277 14.4822 6.5625 15 6.5625Z" fill="#FFD33A"/>
<path d="M27.6562 11.25C28.174 11.25 28.5938 10.8303 28.5938 10.3125C28.5938 9.79473 28.174 9.375 27.6562 9.375C27.1385 9.375 26.7188 9.79473 26.7188 10.3125C26.7188 10.8303 27.1385 11.25 27.6562 11.25Z" fill="#FFD33A"/>
<path d="M4.21875 15.9375L4.6875 21.5625H8.90625L4.21875 15.9375Z" fill="#FDC34B"/>
<path d="M25.7812 15.9375L25.3125 21.5625H21.0938L25.7812 15.9375Z" fill="#FDC34B"/>
</svg>