<svg xmlns="http://www.w3.org/2000/svg" width="16" height="13">
    <g fill-rule="nonzero" fill="none">
        <path d="m4.684 7.78-.07-.055h4.265C9.498 7.725 10 7.176 10 6.5s-.502-1.224-1.121-1.224H4.613l.07-.056c.504-.393.62-1.159.259-1.708-.361-.55-1.062-.676-1.565-.283L.468 5.505c-.294.23-.468.6-.468.995s.174.766.468.996l2.91 2.275c.197.154.425.229.651.229.35 0 .694-.178.912-.511.362-.55.247-1.315-.257-1.71z" fill="#188BFF"/>
        <path d="M14.921 0h-5.55c-.595 0-1.078.512-1.078 1.144 0 .631.483 1.144 1.079 1.144h4.471v8.424H9.08c-.596 0-1.079.513-1.079 1.144C8 12.488 8.483 13 9.079 13h5.842c.596 0 1.079-.512 1.079-1.144V1.144C16 .512 15.517 0 14.921 0z" fill="#B7C0C4"/>
    </g>
</svg>