<svg xmlns="http://www.w3.org/2000/svg" width="45" height="45" viewBox="0 0 45 45" fill="none">
<path fill-rule="evenodd" clip-rule="evenodd" d="M27.1666 11.0002C27.5097 11.0272 27.6024 11.0708 27.7755 11.1535C28.3736 11.4406 28.7352 12.1319 28.6116 12.7782C28.5946 12.8684 28.5853 12.8894 28.5591 12.9766L22.3742 31.0181C22.2382 31.3743 22.1516 31.463 21.9847 31.6208C21.2367 32.3287 19.7485 32.007 19.4286 30.976C19.3389 30.6904 19.308 30.5086 19.4409 30.0667L25.6258 12.0267C25.8623 11.406 26.4634 10.9897 27.1666 11.0002ZM33.3623 14.0076C33.7394 14.0377 34.0918 14.191 34.3684 14.445L40.5517 20.4583C40.7464 20.6582 40.782 20.7303 40.8515 20.8701C41.1019 21.3751 41.0324 22.0154 40.6676 22.4587C40.6197 22.5174 40.6043 22.5309 40.5517 22.585L34.3684 28.5983C34.1103 28.8358 33.9944 28.8839 33.7858 28.9545C32.7951 29.2912 31.5572 28.3924 31.752 27.2832C31.7906 27.0623 31.8802 26.8489 32.0147 26.6655C32.0641 26.5964 32.1229 26.5333 32.1816 26.4731L37.2723 21.5224L32.1816 16.5717C32.1816 16.5717 31.4985 15.6308 31.8818 14.8568C32.109 14.3999 32.5849 14.0707 33.1027 14.0151C33.2696 13.9956 33.3082 14.0061 33.3623 14.0076ZM14.8108 14.0076C15.5201 14.0662 15.6144 14.2466 15.8184 14.445C16.3871 14.9996 16.4026 15.9705 15.8184 16.5717L10.7277 21.5224L15.8184 26.4731C15.8184 26.4731 16.483 27.3373 16.1522 28.1114C15.7782 28.9921 14.4507 29.3137 13.695 28.6569C13.6733 28.6374 13.6532 28.6179 13.6316 28.5983L7.44828 22.585C7.25356 22.3851 7.21801 22.313 7.14847 22.1747C6.89811 21.6682 6.96765 21.0294 7.33238 20.5846C7.38028 20.5259 7.39574 20.5139 7.44828 20.4583L13.6316 14.445C13.95 14.1534 14.3595 13.9956 14.8108 14.0076Z" fill="url(#paint0_linear_1027_281)"/>
<defs>
<linearGradient id="paint0_linear_1027_281" x1="24" y1="11" x2="24" y2="32" gradientUnits="userSpaceOnUse">
<stop stop-color="#196AFF"/>
<stop offset="1" stop-color="#1994FF"/>
</linearGradient>
</defs>
</svg>