<svg xmlns="http://www.w3.org/2000/svg" width="45" height="45" viewBox="0 0 45 45" fill="none">
<g id="5365678_fb_facebook_facebook logo_icon" clip-path="url(#clip0_4587_1313)">
<path id="Vector" fill-rule="evenodd" clip-rule="evenodd" d="M39.3013 0C42.3203 0 44.7713 2.45105 44.7713 5.46997V39.3013C44.7713 42.3202 42.3202 44.7713 39.3013 44.7713H29.9914V27.9021H35.8151L36.9232 20.6773H29.9914V15.9889C29.9914 14.0124 30.9596 12.0857 34.0645 12.0857H37.2161V5.93491C37.2161 5.93491 34.3559 5.4468 31.6213 5.4468C25.9123 5.4468 22.1809 8.90687 22.1809 15.1709V20.6773H15.8348V27.9021H22.1809V44.7713H5.46997C2.45105 44.7713 0 42.3202 0 39.3013V5.46997C0 2.45105 2.45097 0 5.46997 0L39.3013 0Z" fill="#1777F2"/>
</g>
<defs>
<clipPath id="clip0_4587_1313">
<rect width="44.7713" height="44.7713" fill="white"/>
</clipPath>
</defs>
</svg>