<svg xmlns="http://www.w3.org/2000/svg" width="49" height="49">
    <g fill-rule="nonzero" fill="none">
        <circle fill="#B9CAF0" cx="24.5" cy="24.5" r="24.5"/>
        <circle fill="#E6E9ED" cx="25" cy="24" r="21"/>
        <path d="M24.5 9c-4.542 0-8.63 1.854-11.5 4.817L17.352 18a9.71 9.71 0 0 1 7.148-3.097c2.847 0 5.394 1.201 7.148 3.096L36 13.816C33.131 10.854 29.042 9 24.5 9z" fill="#188BFF"/>
        <path d="M36.065 14 32 18.331a9.84 9.84 0 0 1 2.265 6.323 9.93 9.93 0 0 1-1.483 5.256c-.082.13-1.107 1.461-.016 2.674.35.389 1.142 1.217 1.915 2.04.569.607 1.654.382 1.947.005C38.734 31.922 40 28.445 40 24.654c0-4.118-1.495-7.861-3.935-10.654z" fill="#075FB7"/>
        <path d="M12.936 14 17 18.331a9.84 9.84 0 0 0-2.265 6.323c0 1.942.546 3.75 1.483 5.256.082.13 1.107 1.461.016 2.674-.35.389-1.141 1.217-1.915 2.04-.569.607-1.654.382-1.947.005C10.266 31.922 9 28.445 9 24.654c0-4.118 1.496-7.861 3.936-10.654z" fill="#B9CAF0"/>
        <path d="M34 16c-3.498 1.198-10.655 3.507-12.507 5.167a4.48 4.48 0 0 0-.334 6.346 4.524 4.524 0 0 0 6.372.332c1.853-1.66 4.9-8.367 6.469-11.845zm-10.868 9.743a1.782 1.782 0 0 1 .134-2.524 1.8 1.8 0 0 1 2.534.133 1.782 1.782 0 0 1-.133 2.525c-.737.66-1.871.6-2.535-.134z" fill="#1067BE"/>
    </g>
</svg>