<svg xmlns="http://www.w3.org/2000/svg" width="30" height="43">
    <g fill="#188BFF" fill-rule="nonzero">
        <path d="M29.012 26.443 13.8 12.763c-1.54-1.384-2.8-.832-2.8 1.227v20.588c0 2.058 1.55 3.047 3.445 2.195l4.236-1.905 2.98 6.487A2.837 2.837 0 0 0 24.244 43c.391 0 .79-.08 1.172-.253a2.794 2.794 0 0 0 1.408-3.717l-2.98-6.485 4.522-2.034c1.893-.852 2.183-2.68.645-4.068zM12 6a1 1 0 0 0 1-1V1a1 1 0 0 0-2 0v4a1 1 0 0 0 1 1zM18 13a1 1 0 0 0 1 1h4a1 1 0 0 0 0-2h-4a1 1 0 0 0-1 1zM6 13a1 1 0 0 0-1-1H1a1 1 0 0 0 0 2h4a1 1 0 0 0 1-1zM17.768 8.696l2.93-2.928a1.038 1.038 0 0 0 0-1.465 1.038 1.038 0 0 0-1.466 0l-2.928 2.93a1.032 1.032 0 0 0 0 1.463 1.032 1.032 0 0 0 1.464 0zM6.231 17.304l-2.928 2.928a1.037 1.037 0 0 0 1.464 1.466l2.929-2.93a1.032 1.032 0 0 0 0-1.464 1.033 1.033 0 0 0-1.465 0zM4.767 4.303a1.036 1.036 0 0 0-1.464 1.466L6.23 8.697a1.036 1.036 0 0 0 1.465-1.464l-2.929-2.93z"/>
    </g>
</svg>