<svg xmlns="http://www.w3.org/2000/svg" xmlns:xlink="http://www.w3.org/1999/xlink" version="1.1" id="Layer_1" x="0px" y="0px" viewBox="0 0 1080.99 539.02" style="enable-background:new 0 0 1080.99 539.02;" xml:space="preserve">
<style type="text/css">
	.st0{fill:#F99400;}
	.st1{fill:#FC584E;}
	.st2{fill:#188BFF;}
</style>
<g>
	<path class="st0" d="M432.86,10.69C527.43-8.37,627.1-1.92,718.23,29.83c21.45,7.45,42.45,16.21,62.76,26.37   c-9.62,14.72-19.27,29.43-28.9,44.14C667.21,59.39,570.35,44.2,476.96,56.45c-60.2,7.7-118.81,27.06-171.96,56.29   c-6.6-16.31-13.22-32.61-19.81-48.93C331.46,39.01,381.39,21.04,432.86,10.69z"/>
</g>
<g>
	<path class="st1" d="M799.2,65.63c89.38,48.64,164.59,123.01,214.05,211.94c44.47,79.45,67.87,170.42,67.74,261.45   c-17.49,0-34.99,0.01-52.48-0.01c0.1-93.2-27.11-186.4-78.35-264.33C905.7,205.9,843.4,148.95,771.34,110.11   C780.63,95.29,789.91,80.46,799.2,65.63z"/>
</g>
<g>
	<path class="st2" d="M119.86,200.54c41.1-50.81,91.58-93.98,147.99-126.95c6.81,16.27,13.63,32.53,20.44,48.8   c-71.52,43.13-131.82,104.81-172.91,177.55C74.12,372.38,52.41,455.67,52.5,539.01c-17.5,0.01-35,0.01-52.5,0   c0.06-49.4,6.73-98.82,20.21-146.36C39.87,322.71,74.1,256.95,119.86,200.54z"/>
</g>
</svg>