<svg xmlns="http://www.w3.org/2000/svg" width="49" height="45" viewBox="0 0 49 45" fill="none">
<g id="Group 43">
<g id="Group">
<path id="Vector" d="M1.00781 32.5939L17.2469 4.44141L31.3184 12.5727L15.0813 40.7252L1.00781 32.5939Z" fill="#FBBC04"/>
<path id="Vector_2" d="M47.6933 32.4954L31.4442 4.3329C29.3466 0.3623 24.4314 -1.15469 20.4641 0.944682C16.4969 3.04406 14.9831 7.96328 17.0788 11.9339C17.1707 12.108 17.2687 12.2781 17.3727 12.4462L33.6218 40.6087C35.8134 44.5272 40.7645 45.9262 44.6798 43.7327C48.5951 41.5393 49.9929 36.584 47.8013 32.6655C47.7653 32.6014 47.7293 32.5394 47.6933 32.4773V32.4954Z" fill="#4285F4"/>
<path id="Vector_3" d="M8.12455 44.7274C12.6116 44.7274 16.2491 41.0869 16.2491 36.596C16.2491 32.1052 12.6116 28.4647 8.12455 28.4647C3.63748 28.4647 0 32.1052 0 36.596C0 41.0869 3.63748 44.7274 8.12455 44.7274Z" fill="#34A853"/>
</g>
</g>
</svg>