<svg xmlns="http://www.w3.org/2000/svg" width="14" height="14" viewBox="0 0 14 14" fill="none">
<path fill-rule="evenodd" clip-rule="evenodd" d="M13.72 7.15936C13.72 6.66299 13.6755 6.18572 13.5927 5.72754H7V8.43527H10.7673C10.605 9.31027 10.1118 10.0516 9.37045 10.548V12.3044H11.6327C12.9564 11.0857 13.72 9.29117 13.72 7.15936Z" fill="#4285F4"/>
<path fill-rule="evenodd" clip-rule="evenodd" d="M6.99996 14.0001C8.88996 14.0001 10.4745 13.3733 11.6327 12.3042L9.37042 10.5478C8.7436 10.9678 7.94178 11.216 6.99996 11.216C5.17678 11.216 3.6336 9.98462 3.08314 8.33008H0.744507V10.1437C1.89632 12.4314 4.2636 14.0001 6.99996 14.0001Z" fill="#34A853"/>
<path fill-rule="evenodd" clip-rule="evenodd" d="M3.08318 8.33008C2.94318 7.91008 2.86364 7.46145 2.86364 7.00008C2.86364 6.53872 2.94318 6.09008 3.08318 5.67008V3.85645H0.744545C0.270454 4.80145 0 5.87054 0 7.00008C0 8.12963 0.270454 9.19872 0.744545 10.1437L3.08318 8.33008Z" fill="#FBBC05"/>
<path fill-rule="evenodd" clip-rule="evenodd" d="M6.99996 2.78409C8.02769 2.78409 8.95042 3.13727 9.67587 3.83091L11.6836 1.82318C10.4713 0.693636 8.88678 0 6.99996 0C4.2636 0 1.89633 1.56864 0.744507 3.85636L3.08314 5.67C3.6336 4.01545 5.17678 2.78409 6.99996 2.78409Z" fill="#EA4335"/>
</svg>