<svg xmlns="http://www.w3.org/2000/svg" width="50" height="50" viewBox="0 0 50 50" fill="none">
<g id="6929237_instagram_icon">
<path id="Vector" d="M36.5487 2.25H12.5282C6.85171 2.25 2.25 6.85171 2.25 12.5282V36.5487C2.25 42.2252 6.85171 46.8269 12.5282 46.8269H36.5487C42.2252 46.8269 46.8269 42.2252 46.8269 36.5487V12.5282C46.8269 6.85171 42.2252 2.25 36.5487 2.25Z" fill="url(#paint0_linear_4587_1315)"/>
<path id="Vector_2" d="M31.727 11.0446C33.4192 11.0515 35.0402 11.7267 36.2368 12.9233C37.4335 14.1199 38.1087 15.7409 38.1155 17.4332V31.6442C38.1087 33.3364 37.4335 34.9574 36.2368 36.154C35.0402 37.3507 33.4192 38.0259 31.727 38.0327H17.3492C15.6569 38.0259 14.0359 37.3507 12.8393 36.154C11.6427 34.9574 10.9675 33.3364 10.9607 31.6442V17.4332C10.9675 15.7409 11.6427 14.1199 12.8393 12.9233C14.0359 11.7267 15.6569 11.0515 17.3492 11.0446H31.727ZM31.727 8.07322H17.3492C12.201 8.07322 7.98828 12.2907 7.98828 17.4341V31.6442C7.98828 36.7924 12.2058 41.0051 17.3492 41.0051H31.727C36.8752 41.0051 41.0879 36.7876 41.0879 31.6442V17.4332C41.0879 12.285 36.8752 8.07227 31.727 8.07227V8.07322Z" fill="white"/>
<path id="Vector_3" d="M24.5379 18.9912C25.635 18.9912 26.7074 19.3165 27.6196 19.926C28.5318 20.5355 29.2428 21.4018 29.6626 22.4154C30.0825 23.429 30.1923 24.5443 29.9783 25.6203C29.7642 26.6963 29.2359 27.6847 28.4602 28.4604C27.6844 29.2362 26.6961 29.7645 25.6201 29.9785C24.5441 30.1925 23.4287 30.0827 22.4152 29.6629C21.4016 29.243 20.5353 28.5321 19.9258 27.6199C19.3163 26.7077 18.9909 25.6352 18.9909 24.5381C18.9927 23.0675 19.5777 21.6577 20.6176 20.6178C21.6574 19.5779 23.0673 18.993 24.5379 18.9912ZM24.5379 16.0198C22.8531 16.0198 21.2062 16.5194 19.8054 17.4554C18.4045 18.3914 17.3127 19.7218 16.668 21.2783C16.0232 22.8348 15.8545 24.5476 16.1832 26.2C16.5119 27.8524 17.3232 29.3702 18.5145 30.5615C19.7058 31.7529 21.2237 32.5642 22.8761 32.8928C24.5285 33.2215 26.2412 33.0528 27.7977 32.4081C29.3543 31.7634 30.6847 30.6715 31.6207 29.2707C32.5567 27.8699 33.0563 26.2229 33.0563 24.5381C33.0563 22.2789 32.1588 20.1123 30.5613 18.5147C28.9638 16.9172 26.7971 16.0198 24.5379 16.0198Z" fill="white"/>
<path id="Vector_4" d="M33.2423 17.6662C34.3577 17.6662 35.2619 16.762 35.2619 15.6466C35.2619 14.5312 34.3577 13.627 33.2423 13.627C32.1269 13.627 31.2227 14.5312 31.2227 15.6466C31.2227 16.762 32.1269 17.6662 33.2423 17.6662Z" fill="white"/>
</g>
<defs>
<linearGradient id="paint0_linear_4587_1315" x1="31.4657" y1="48.698" x2="17.6112" y2="0.378966" gradientUnits="userSpaceOnUse">
<stop stop-color="#FFDB73"/>
<stop offset="0.08" stop-color="#FDAD4E"/>
<stop offset="0.15" stop-color="#FB832E"/>
<stop offset="0.19" stop-color="#FA7321"/>
<stop offset="0.23" stop-color="#F6692F"/>
<stop offset="0.37" stop-color="#E84A5A"/>
<stop offset="0.48" stop-color="#E03675"/>
<stop offset="0.55" stop-color="#DD2F7F"/>
<stop offset="0.68" stop-color="#B43D97"/>
<stop offset="0.97" stop-color="#4D60D4"/>
<stop offset="1" stop-color="#4264DB"/>
</linearGradient>
</defs>
</svg>