<?xml version="1.0" encoding="UTF-8"?>
<svg width="15px" height="17px" viewBox="0 0 17 23" version="1.1" xmlns="http://www.w3.org/2000/svg" xmlns:xlink="http://www.w3.org/1999/xlink">
    <g id="Page-1" stroke="none" stroke-width="1" fill="none" fill-rule="evenodd" opacity="0.813685826">
        <g id="14.-Admin---Billing---Subscription" transform="translate(-1271.000000, -287.000000)" fill="#8B8E92">
            <g id="Group-3" transform="translate(504.000000, 180.000000)">
                <g id="1" transform="translate(0.000000, 100.000000)">
                    <g id="Combined-Shape" transform="translate(767.000000, 7.000000)">
                        <path d="M8.49501896,0 C11.2465301,0 13.4983275,2.14411421 13.6119952,4.8219933 L13.616497,5.03448439 L13.616497,9.42802334 L15.303153,9.42802334 C16.1843101,9.42802334 16.9098151,10.0956442 16.9837432,10.9433173 L16.9899464,11.0861797 L16.9899464,21.3418446 C16.9899464,22.2080187 16.310818,22.9211857 15.4484863,22.9938565 L15.303153,22.9999542 L1.68679297,22.9999542 C0.805635923,22.9999542 0.0801312246,22.3323753 0.0062031873,21.4847066 L0,21.3418446 L0,11.0861349 C0,10.2200033 0.679128012,9.50679654 1.54145972,9.4341214 L1.68679297,9.42802334 L3.37349463,9.42802334 L3.37349463,5.03448439 C3.37349463,2.25844717 5.67100811,0 8.49501896,0 Z M15.3036394,10.5332031 L1.68727958,10.5332031 C1.40826021,10.5332031 1.17602925,10.7340578 1.13237325,10.9963915 L1.125,11.0859219 L1.125,21.3416309 C1.125,21.6159464 1.32932903,21.8441965 1.59620052,21.8871034 L1.68727958,21.8943501 L15.3036394,21.8943501 C15.5826588,21.8943501 15.8148898,21.6934951 15.8585459,21.4311613 L15.8659191,21.3416309 L15.8659191,11.0859219 C15.8659191,10.781127 15.6136609,10.5332031 15.3036394,10.5332031 Z M8.49579048,12.4287109 C9.7760458,12.4287109 10.8177072,13.4526153 10.8177986,14.7111914 C10.8177986,15.2730832 10.6038823,15.8182372 10.2253553,16.2345566 L10.0931506,16.3684044 L10.0931506,18.4291954 C10.0931506,19.2949747 9.37659162,19.9993496 8.49583626,19.9993496 C7.66401175,19.9993496 6.97864613,19.3710646 6.90506176,18.5719044 L6.89852166,18.4291954 L6.89852166,16.3684044 C6.4377394,15.9389063 6.17382812,15.3353809 6.17382812,14.7111914 C6.17382812,13.4526153 7.21544373,12.4287109 8.49579048,12.4287109 Z M8.49623132,13.5341797 C7.83601898,13.5341797 7.29882812,14.0622363 7.29882812,14.7112226 C7.29882812,15.0391523 7.4323604,15.3434979 7.67488459,15.5682421 C7.86478321,15.7442075 7.98531645,15.980174 8.01587903,16.2298322 L8.02356738,16.355588 L8.02356738,18.4292264 C8.02356738,18.6855057 8.23565608,18.8939433 8.49632275,18.8939433 C8.72806707,18.8939433 8.92135664,18.7292519 8.96144884,18.5126606 L8.96907818,18.4292264 L8.96907818,16.355588 C8.96907818,16.0604512 9.09621255,15.7734453 9.31789804,15.5681074 C9.56019373,15.343498 9.69372591,15.0391523 9.69363451,14.7112226 C9.69363451,14.0622363 9.15644366,13.5341797 8.49623132,13.5341797 Z M8.49505758,1.10546875 C6.35787668,1.10546875 4.60709348,2.76286278 4.50294793,4.83871621 L4.49804688,5.03451562 L4.49804688,9.42805481 L12.4920225,9.42805481 L12.4920225,5.03451562 C12.4920225,2.86806846 10.6989796,1.10546875 8.49505758,1.10546875 Z"></path>
                    </g>
                </g>
            </g>
        </g>
    </g>
</svg>