<svg xmlns="http://www.w3.org/2000/svg" width="22" height="30" viewBox="0 0 22 30" fill="none">
<g id="172497_lock_icon">
<path id="Path" fill-rule="evenodd" clip-rule="evenodd" d="M2.79998 28.2C2.13758 28.2 1.59998 27.6624 1.59998 27V13.8C1.59998 13.1376 2.13758 12.6 2.79998 12.6H19.6C20.2624 12.6 20.8 13.1376 20.8 13.8V27C20.8 27.6624 20.2624 28.2 19.6 28.2H2.79998Z" stroke="#7C7C7C" stroke-width="2" stroke-linecap="round"/>
<path id="Path_2" d="M17.2 12.6C17.2 11.973 17.2 9.02699 17.2 8.39999C17.2 5.08619 14.5138 2.39999 11.2 2.39999C7.88615 2.39999 5.19995 5.08619 5.19995 8.39999C5.19995 9.02699 5.19995 11.973 5.19995 12.6" stroke="#7C7C7C" stroke-width="2" stroke-linecap="round"/>
<path id="Path_3" d="M13 19.2C13 18.2058 12.1942 17.4 11.2 17.4C10.2058 17.4 9.39996 18.2058 9.39996 19.2C9.39996 19.731 9.63456 20.2038 9.99996 20.5332V22.2C9.99996 22.8624 10.5376 23.4 11.2 23.4C11.8624 23.4 12.4 22.8624 12.4 22.2V20.5332C12.7654 20.2038 13 19.731 13 19.2Z" fill="#7C7C7C"/>
</g>
</svg>