<svg xmlns="http://www.w3.org/2000/svg" width="527" height="1062" viewBox="0 0 527 1062" fill="none">
<path fill-rule="evenodd" clip-rule="evenodd" d="M600.653 -324C600.653 -324 369.271 -184.774 114.217 -149.82C48.5306 -140.933 -0.586481 -85.2425 0.00529068 -18.888C2.36646 164.179 37.8787 515.502 259.201 792.183C189.964 562.898 176.353 332.435 178.714 170.696C179.904 80.0512 247.366 3.03857 337.907 -8.22391C422.53 -18.888 516.622 -39.0313 600.653 -59.7671C659.239 -74.5784 713.09 -89.3896 755.106 -101.239C810.141 -117.235 845.647 -128.491 845.647 -128.491C845.647 -126.714 845.055 -124.931 845.055 -123.159C829.077 11.3269 742.087 123.3 623.733 176.028C584.078 193.802 540.885 204.466 495.318 206.836H492.945H490.584C476.855 207.41 463.67 210.752 452.113 216.327C452.119 216.321 452.119 216.321 452.119 216.321C451.527 216.321 450.929 216.907 450.343 216.907H449.752C413.056 234.681 388.207 272.598 388.799 315.846C389.391 362.65 389.983 410.639 388.207 428.412C488.217 439.076 585.267 429.005 658.647 415.378C737.939 401.165 790.02 382.787 790.02 382.787C790.02 384.571 789.429 385.756 789.429 387.527C774.043 520.828 670.482 636.961 520.764 653.543C518.989 653.543 517.214 654.13 515.438 654.13C511.888 654.728 508.331 654.728 504.189 654.728H500.052C475.198 655.913 448.568 654.13 421.347 649.989C439.686 774.996 466.913 884.599 511.296 969.313C524.901 995.387 559.821 1042.79 599.464 1061.74C1130.29 807.58 1197.75 232.903 1200.12 -19.4805C1202.49 -85.2425 1152.77 -140.933 1087.68 -149.82C832.628 -184.774 600.653 -324 600.653 -324Z" fill="url(#paint0_linear_4587_1177)"/>
<defs>
<linearGradient id="paint0_linear_4587_1177" x1="1450.39" y1="162.414" x2="434.202" y2="-600.742" gradientUnits="userSpaceOnUse">
<stop stop-color="#17A5FF"/>
<stop offset="1" stop-color="#1760FF"/>
</linearGradient>
</defs>
</svg>