<svg xmlns="http://www.w3.org/2000/svg" width="384" height="70" fill="none" viewBox="0 0 384 70">
    <mask id="a" width="61" height="70" x="0" y="0" maskUnits="userSpaceOnUse">
        <path fill="#fff" fill-rule="evenodd" d="M30.135 0S18.526 6.967 5.73 8.716C2.435 9.161-.03 11.948 0 15.268c.119 9.16 1.9 26.741 13.004 40.586-3.474-11.473-4.156-23.006-4.038-31.1.06-4.535 3.444-8.389 7.987-8.952 4.245-.534 8.966-1.542 13.182-2.58a297 297 0 0 0 7.749-2.075c2.76-.8 4.542-1.364 4.542-1.364 0 .09-.03.179-.03.267-.801 6.73-5.166 12.333-11.103 14.972a18.019 18.019 0 0 1-6.443 1.541h-.238a4.947 4.947 0 0 0-1.93.475c-.029 0-.059.03-.088.03h-.03a5.415 5.415 0 0 0-3.058 4.95c.03 2.342.06 4.744-.03 5.633 5.018.534 9.887.03 13.568-.652 3.978-.711 6.591-1.631 6.591-1.631 0 .09-.03.149-.03.237-.771 6.67-5.967 12.482-13.478 13.312-.09 0-.178.03-.267.03a3.39 3.39 0 0 1-.565.03h-.207c-1.247.058-2.583-.03-3.95-.238.921 6.255 2.287 11.74 4.514 15.98.682 1.304 2.434 3.676 4.423 4.624C56.706 56.625 60.091 27.868 60.21 15.238c.118-3.29-2.376-6.077-5.641-6.522C41.773 6.966 30.135 0 30.135 0z" clip-rule="evenodd"/>
    </mask>
    <g mask="url(#a)">
        <path fill="url(#b)" fill-rule="evenodd" d="M30.135 0S18.526 6.967 5.73 8.716C2.435 9.161-.03 11.948 0 15.268c.119 9.16 1.9 26.741 13.004 40.586-3.474-11.473-4.156-23.006-4.038-31.1.06-4.535 3.444-8.389 7.987-8.952 4.245-.534 8.966-1.542 13.182-2.58a297 297 0 0 0 7.749-2.075c2.76-.8 4.542-1.364 4.542-1.364 0 .09-.03.179-.03.267-.801 6.73-5.166 12.333-11.103 14.972a18.019 18.019 0 0 1-6.443 1.541h-.238a4.947 4.947 0 0 0-1.93.475c-.029 0-.059.03-.088.03h-.03a5.415 5.415 0 0 0-3.058 4.95c.03 2.342.06 4.744-.03 5.633 5.018.534 9.887.03 13.568-.652 3.978-.711 6.591-1.631 6.591-1.631 0 .09-.03.149-.03.237-.771 6.67-5.967 12.482-13.478 13.312-.09 0-.178.03-.267.03a3.39 3.39 0 0 1-.565.03h-.207c-1.247.058-2.583-.03-3.95-.238.921 6.255 2.287 11.74 4.514 15.98.682 1.304 2.434 3.676 4.423 4.624C56.706 56.625 60.091 27.868 60.21 15.238c.118-3.29-2.376-6.077-5.641-6.522C41.773 6.966 30.135 0 30.135 0z" clip-rule="evenodd"/>
    </g>
    <mask id="c" width="21" height="19" x="22" y="9" maskUnits="userSpaceOnUse">
        <path fill="#fff" fill-rule="evenodd" d="M30.165 13.252s1.696 9.435-7.28 13.72a4.966 4.966 0 0 1 1.788-.409c.088-.03.148-.03.237-.03 9.144-.563 16.566-7.678 17.546-16.78 0 0-5.492 1.78-12.291 3.499zm-7.481 13.815z" clip-rule="evenodd"/>
    </mask>
    <g mask="url(#c)">
        <path fill="url(#d)" fill-rule="evenodd" d="M30.165 13.252s1.696 9.435-7.28 13.72a4.966 4.966 0 0 1 1.788-.409c.088-.03.148-.03.237-.03 9.144-.563 16.566-7.678 17.546-16.78 0 0-5.492 1.78-12.291 3.499zm-7.481 13.815z" clip-rule="evenodd"/>
    </g>
    <mask id="e" width="19" height="15" x="21" y="35" maskUnits="userSpaceOnUse">
        <path fill="#fff" fill-rule="evenodd" d="M33.104 36.999s-.03 0-.06.03c-.742.325-12.588 4.06-11.845 11.74 10.242 1.749 17.694-5.248 18.495-13.401 0 0-2.642.89-6.59 1.63z" clip-rule="evenodd"/>
    </mask>
    <g mask="url(#e)">
        <path fill="url(#f)" fill-rule="evenodd" d="M33.104 36.999s-.03 0-.06.03c-.742.325-12.588 4.06-11.845 11.74 10.242 1.749 17.694-5.248 18.495-13.401 0 0-2.642.89-6.59 1.63z" clip-rule="evenodd"/>
    </g>
    <mask id="g" width="23" height="36" x="77" y="16" maskUnits="userSpaceOnUse">
        <path fill="#fff" fill-rule="evenodd" d="M77.785 16.987v34.805h7.037V36.88h11.074v-5.396H84.822v-9.101H99.34v-5.396H77.785z" clip-rule="evenodd"/>
    </mask>
    <g mask="url(#g)">
        <path fill="url(#h)" fill-rule="evenodd" d="M77.785 16.987v34.805h7.037V36.88h11.074v-5.396H84.822v-9.101H99.34v-5.396H77.785z" clip-rule="evenodd"/>
    </g>
    <mask id="i" width="17" height="29" x="102" y="23" maskUnits="userSpaceOnUse">
        <path fill="#fff" fill-rule="evenodd" d="M109.939 29.053v-4.891h-7.036v27.6h7.036V37.919c0-2.55.534-4.358 1.603-5.396 1.069-1.038 2.643-1.571 4.75-1.571h1.752v-7.175c-3.563 0-6.264 1.75-8.105 5.277z" clip-rule="evenodd"/>
    </mask>
    <g mask="url(#i)">
        <path fill="url(#j)" fill-rule="evenodd" d="M109.939 29.053v-4.891h-7.036v27.6h7.036V37.919c0-2.55.534-4.358 1.603-5.396 1.069-1.038 2.643-1.571 4.75-1.571h1.752v-7.175c-3.563 0-6.264 1.75-8.105 5.277z" clip-rule="evenodd"/>
    </g>
    <mask id="k" width="29" height="30" x="119" y="23" maskUnits="userSpaceOnUse">
        <path fill="#fff" fill-rule="evenodd" d="M122.735 27.749c-2.464 2.639-3.681 6.048-3.681 10.198s1.247 7.56 3.711 10.228c2.464 2.669 5.582 4.003 9.323 4.003 3.74 0 6.65-1.69 8.728-5.04v4.625h6.977V24.162h-6.977v4.298c-1.989-3.113-4.899-4.684-8.699-4.684s-6.918 1.334-9.382 3.973zm5.671 16.157c-1.455-1.453-2.197-3.468-2.197-5.988 0-2.52.713-4.506 2.167-5.93 1.455-1.423 3.147-2.134 5.107-2.134 1.959 0 3.681.711 5.136 2.164 1.455 1.452 2.197 3.439 2.197 5.959 0 2.52-.712 4.506-2.197 5.959-1.455 1.453-3.177 2.164-5.107 2.164-1.929 0-3.651-.741-5.106-2.194z" clip-rule="evenodd"/>
    </mask>
    <g mask="url(#k)">
        <path fill="url(#l)" fill-rule="evenodd" d="M122.735 27.749c-2.464 2.639-3.681 6.048-3.681 10.198s1.247 7.56 3.711 10.228c2.464 2.669 5.582 4.003 9.323 4.003 3.74 0 6.65-1.69 8.728-5.04v4.625h6.977V24.162h-6.977v4.298c-1.989-3.113-4.899-4.684-8.699-4.684s-6.918 1.334-9.382 3.973zm5.671 16.157c-1.455-1.453-2.197-3.468-2.197-5.988 0-2.52.713-4.506 2.167-5.93 1.455-1.423 3.147-2.134 5.107-2.134 1.959 0 3.681.711 5.136 2.164 1.455 1.452 2.197 3.439 2.197 5.959 0 2.52-.712 4.506-2.197 5.959-1.455 1.453-3.177 2.164-5.107 2.164-1.929 0-3.651-.741-5.106-2.194z" clip-rule="evenodd"/>
    </g>
    <mask id="m" width="27" height="29" x="152" y="24" maskUnits="userSpaceOnUse">
        <path fill="#fff" fill-rule="evenodd" d="M171.84 24.162V39.37h-.059c0 2.164-.564 3.825-1.663 4.981-1.128 1.156-2.613 1.75-4.513 1.75s-3.384-.594-4.483-1.75c-1.098-1.156-1.633-2.817-1.633-4.98V24.16h-6.977V40.35c0 3.676 1.01 6.581 2.999 8.657 1.989 2.075 4.572 3.112 7.69 3.112 3.978 0 6.857-1.512 8.639-4.535v4.18h7.036V24.162h-7.036z" clip-rule="evenodd"/>
    </mask>
    <g mask="url(#m)">
        <path fill="url(#n)" fill-rule="evenodd" d="M171.84 24.162V39.37h-.059c0 2.164-.564 3.825-1.663 4.981-1.128 1.156-2.613 1.75-4.513 1.75s-3.384-.594-4.483-1.75c-1.098-1.156-1.633-2.817-1.633-4.98V24.16h-6.977V40.35c0 3.676 1.01 6.581 2.999 8.657 1.989 2.075 4.572 3.112 7.69 3.112 3.978 0 6.857-1.512 8.639-4.535v4.18h7.036V24.162h-7.036z" clip-rule="evenodd"/>
    </g>
    <mask id="o" width="30" height="36" x="182" y="17" maskUnits="userSpaceOnUse">
        <path fill="#fff" fill-rule="evenodd" d="M204.113 17.284V28.46c-1.989-3.113-4.899-4.684-8.698-4.684-3.801 0-6.918 1.334-9.382 3.973-2.464 2.638-3.682 6.048-3.682 10.198s1.247 7.56 3.711 10.228c2.465 2.669 5.582 4.003 9.323 4.003 3.711 0 6.65-1.69 8.728-5.04v4.625h6.977v-34.48h-6.977zm-12.409 26.622c-1.455-1.452-2.197-3.468-2.197-5.988 0-2.52.713-4.506 2.168-5.93 1.454-1.423 3.146-2.134 5.106-2.134 1.959 0 3.681.711 5.136 2.164 1.455 1.452 2.197 3.439 2.197 5.959 0 2.52-.742 4.506-2.197 5.959-1.455 1.453-3.177 2.164-5.106 2.164-1.93 0-3.652-.741-5.107-2.194z" clip-rule="evenodd"/>
    </mask>
    <g mask="url(#o)">
        <path fill="url(#p)" fill-rule="evenodd" d="M204.113 17.284V28.46c-1.989-3.113-4.899-4.684-8.698-4.684-3.801 0-6.918 1.334-9.382 3.973-2.464 2.638-3.682 6.048-3.682 10.198s1.247 7.56 3.711 10.228c2.465 2.669 5.582 4.003 9.323 4.003 3.711 0 6.65-1.69 8.728-5.04v4.625h6.977v-34.48h-6.977zm-12.409 26.622c-1.455-1.452-2.197-3.468-2.197-5.988 0-2.52.713-4.506 2.168-5.93 1.454-1.423 3.146-2.134 5.106-2.134 1.959 0 3.681.711 5.136 2.164 1.455 1.452 2.197 3.439 2.197 5.959 0 2.52-.742 4.506-2.197 5.959-1.455 1.453-3.177 2.164-5.106 2.164-1.93 0-3.652-.741-5.107-2.194z" clip-rule="evenodd"/>
    </g>
    <path fill="#4C5F70" fill-rule="evenodd" d="M231.726 49.273h8.64c2.494 0 4.423-.593 5.789-1.81 1.366-1.185 2.049-2.845 2.049-4.92 0-2.075-.772-3.736-2.257-4.951-1.514-1.216-3.533-1.809-6.026-1.809h-8.195v13.49zm0-28.758v12.422h8.135c2.316 0 4.156-.563 5.433-1.66 1.307-1.127 1.96-2.61 1.96-4.507 0-1.897-.653-3.409-1.96-4.536-1.306-1.126-3.117-1.69-5.433-1.69h-8.135v-.03zm-3.474-2.816h11.637c3.533 0 6.235.86 8.106 2.579 1.87 1.72 2.82 3.913 2.82 6.611 0 3.825-2.197 6.315-6.591 7.471 2.197.356 3.978 1.364 5.344 3.024 1.366 1.63 2.049 3.617 2.049 5.959 0 2.312-1.039 4.358-3.088 6.137-2.078 1.749-4.75 2.638-8.075 2.638h-12.173v-34.42h-.029zM255.953 52.06V17.58h3.503v34.51h-3.503v-.03zM276.347 49.776c2.82 0 5.284-1.008 7.333-3.054 2.049-2.016 3.088-4.802 3.088-8.3 0-3.499-.98-6.256-2.94-8.272-1.959-2.016-4.364-3.024-7.184-3.024-2.821 0-5.196 1.008-7.096 2.995-1.9 1.986-2.85 4.773-2.85 8.33 0 3.558.89 6.315 2.702 8.33 1.81 2.017 4.126 2.995 6.947 2.995zm.031 2.787c-3.919 0-7.096-1.304-9.53-3.883-2.435-2.58-3.682-5.989-3.682-10.2 0-4.209 1.306-7.618 3.889-10.227 2.583-2.609 5.849-3.913 9.738-3.913 3.89 0 7.126 1.304 9.738 3.913 2.583 2.609 3.889 5.989 3.889 10.169 0 4.18-1.365 7.56-4.096 10.198-2.732 2.639-6.027 3.943-9.946 3.943zM296.061 48.68c-2.434-2.58-3.651-5.989-3.651-10.228 0-4.21 1.217-7.62 3.651-10.229 2.435-2.579 5.582-3.883 9.471-3.883 6.383 0 10.451 2.846 12.173 8.568h-3.741c-.564-1.838-1.574-3.262-3.028-4.27-1.455-1.008-3.266-1.512-5.404-1.512-2.82 0-5.136.979-6.888 2.906-1.751 1.957-2.642 4.743-2.642 8.36 0 3.617.891 6.433 2.642 8.39 1.752 1.957 4.068 2.935 6.888 2.935 2.168 0 3.979-.504 5.404-1.512 1.454-1.008 2.464-2.43 3.028-4.269h3.741c-.861 2.58-2.316 4.655-4.335 6.226-2.019 1.571-4.631 2.342-7.838 2.342-3.889.06-7.036-1.215-9.471-3.824zM325.602 52.06h-3.503V17.58h3.503V37.03l10.985-12.156h5.048l-13.212 13.46 13.212 13.756h-4.78l-11.223-12.215V52.06h-.03zM364.793 36.969c0-2.995-.921-5.366-2.732-7.145-1.811-1.779-4.067-2.668-6.739-2.668-2.672 0-4.899.86-6.68 2.609-1.781 1.749-2.761 4.15-2.91 7.204h19.061zm-9.531 15.594c-3.89 0-7.066-1.304-9.471-3.884-2.435-2.579-3.652-6.018-3.652-10.227 0-4.21 1.247-7.65 3.711-10.229 2.464-2.579 5.701-3.854 9.62-3.854 3.948 0 7.066 1.216 9.411 3.647 2.316 2.43 3.504 5.425 3.504 9.012 0 .979-.06 1.868-.209 2.698h-22.444c.118 3.113 1.068 5.574 2.85 7.382 1.751 1.809 3.978 2.698 6.68 2.698 2.108 0 3.889-.474 5.373-1.453 1.485-.978 2.494-2.223 3.058-3.794h3.741c-.89 2.312-2.375 4.239-4.393 5.751-2.02 1.512-4.632 2.253-7.779 2.253zM375.568 24.873v4.477c1.485-3.32 4.305-4.98 8.432-4.98v3.646h-1.009c-2.405 0-4.246.652-5.523 1.957-1.276 1.304-1.929 3.528-1.929 6.67v15.446h-3.503V24.873h3.532z" clip-rule="evenodd"/>
    <defs>
        <linearGradient id="b" x1="72.766" x2="21.879" y1="24.34" y2="-13.974" gradientUnits="userSpaceOnUse">
            <stop stop-color="#17A5FF"/>
            <stop offset="1" stop-color="#1760FF"/>
        </linearGradient>
        <linearGradient id="d" x1="40.525" x2="13.719" y1="1.719" y2="13.698" gradientUnits="userSpaceOnUse">
            <stop stop-color="#E9EDF0"/>
            <stop offset="1" stop-color="#90D1F2"/>
        </linearGradient>
        <linearGradient id="f" x1="35.167" x2="13.156" y1="24.142" y2="46.147" gradientUnits="userSpaceOnUse">
            <stop stop-color="#E9EDF0"/>
            <stop offset="1" stop-color="#90D1F2"/>
        </linearGradient>
        <linearGradient id="h" x1="222.911" x2="30.206" y1="-53.021" y2="-94.487" gradientUnits="userSpaceOnUse">
            <stop stop-color="#17A5FF"/>
            <stop offset="1" stop-color="#1760FF"/>
        </linearGradient>
        <linearGradient id="j" x1="222.774" x2="31.449" y1="-80.806" y2="-112.228" gradientUnits="userSpaceOnUse">
            <stop stop-color="#17A5FF"/>
            <stop offset="1" stop-color="#1760FF"/>
        </linearGradient>
        <linearGradient id="l" x1="253.019" x2="74.155" y1="-14.957" y2="-117.713" gradientUnits="userSpaceOnUse">
            <stop stop-color="#17A5FF"/>
            <stop offset="1" stop-color="#1760FF"/>
        </linearGradient>
        <linearGradient id="n" x1="256.62" x2="72.249" y1="-35.081" y2="-127.076" gradientUnits="userSpaceOnUse">
            <stop stop-color="#17A5FF"/>
            <stop offset="1" stop-color="#1760FF"/>
        </linearGradient>
        <linearGradient id="p" x1="259.725" x2="69.024" y1="-65.138" y2="-137.718" gradientUnits="userSpaceOnUse">
            <stop stop-color="#17A5FF"/>
            <stop offset="1" stop-color="#1760FF"/>
        </linearGradient>
    </defs>
</svg>