<svg xmlns="http://www.w3.org/2000/svg" xmlns:xlink="http://www.w3.org/1999/xlink" version="1.1" id="Layer_1" x="0px" y="0px" viewBox="0 0 24 24" style="enable-background:new 0 0 24 24;" xml:space="preserve">
<style type="text/css">
	.st0{fill:#5E94FF;}
</style>
<g>
	<g>
		<path class="st0" d="M2.7,7.8C3.6,6.1,5.6,4.9,7.5,5c2,0,3.8,1.2,4.7,2.9c0.3-0.3,0.4-0.6,0.7-0.9c1-1.3,2.7-2.1,4.3-2    c2.1,0,4.1,1.4,4.8,3.3c0.4,1.1,0.8,2.3,1.1,3.4c0.4,1.4,0.7,2.9,0.5,4.3c-0.1,0.9-0.5,1.9-1.2,2.5c-0.8,0.9-2.2,1.2-3.4,1    c-1.2-0.1-2.3-0.8-2.9-1.8c-1.3-2.1-2.7-4.3-3.9-6.5c-0.1,0.1-0.2,0.2-0.2,0.3c-1,1.7-2,3.4-3.1,5.1c-0.5,0.7-0.9,1.6-1.6,2.1    c-0.9,0.7-2.1,1-3.3,0.8c-0.9-0.1-1.7-0.5-2.3-1.2c-0.8-0.9-1.1-2.2-1-3.5c0.2-1.6,0.7-3.2,1.1-4.7C2.1,9.4,2.3,8.6,2.7,7.8z     M4.1,8.8c-0.4,0.9-0.6,2-0.9,3c-0.3,1.1-0.6,2.2-0.7,3.4c0,0.9,0.2,2.1,1.1,2.5c0.8,0.4,1.9,0.4,2.7-0.2c0.6-0.4,0.9-1.1,1.3-1.7    c1.3-2,2.5-4.1,3.8-6.2c-0.4-0.7-0.8-1.5-1.4-2C9.3,7.1,8.4,6.7,7.5,6.7C6.1,6.6,4.7,7.5,4.1,8.8z M16.5,6.7    c-1.2,0.2-2.2,1-2.7,2.1c-0.1,0.3-0.6,0.6-0.4,1c1.2,2,2.4,4.1,3.7,6.1c0.3,0.5,0.6,1,1,1.4c0.8,0.7,2.2,0.8,3.1,0.2    c0.8-0.6,0.9-1.8,1-2.7c-0.1-1.6-0.7-3.1-1.1-4.6c-0.3-0.8-0.5-1.7-1.2-2.4C19,6.9,17.7,6.5,16.5,6.7z"/>
	</g>
</g>
</svg>