<svg xmlns="http://www.w3.org/2000/svg" width="26" height="18" viewBox="0 0 26 18" fill="#FFFFFF">
<path opacity="1" fill-rule="evenodd" clip-rule="evenodd" d="M12.8391 4.19219C14.2891 2.23125 15.8922 0.6875 17.9422 0.6875C21.8125 0.6875 25 5.61406 25.0016 11.4797C25.0016 15.0578 23.4609 17.3 20.6938 17.3C18.2828 17.3 16.9516 15.9469 14.5625 11.95L13.5203 10.1953L13.3359 9.8875C13.0642 9.42816 12.7881 8.97137 12.5078 8.51719L10.6672 11.7672C8.05313 16.3375 6.58125 17.3 4.5375 17.3C1.69687 17.3 0 15.0891 0 11.5828C0 5.98125 3.11719 0.6875 7.18438 0.6875C7.68281 0.6875 8.16094 0.748437 8.62813 0.878125C9.1125 1.0125 9.58281 1.22188 10.0547 1.51406C10.9563 2.075 11.8578 2.94375 12.8391 4.19219ZM15.2078 7.66719C14.8141 7.02656 14.4359 6.4375 14.0719 5.89687L14.0625 5.88438C15.3828 3.84531 16.4734 2.83125 17.7687 2.83125C20.4609 2.83125 22.6156 6.79531 22.6156 11.6641C22.6156 13.5203 22.0063 14.5969 20.7484 14.5969C19.5406 14.5969 18.9641 13.8 16.6703 10.1125L15.2078 7.66719ZM7.57188 3.43125C8.70469 3.5875 9.73594 4.42188 11.2281 6.55781C10.3671 7.87621 9.51555 9.20072 8.67344 10.5312C6.55313 13.8531 5.82031 14.5984 4.64062 14.5984C3.42656 14.5984 2.70312 13.5328 2.70312 11.6297C2.70312 7.56406 4.73125 3.40469 7.15 3.40469C7.29219 3.40469 7.43281 3.4125 7.57188 3.43125Z" fill="#FFFFFF"/>
</svg>