<svg width="20" height="30" viewBox="0 0 20 30" fill="none" xmlns="http://www.w3.org/2000/svg">
<path fill-rule="evenodd" clip-rule="evenodd" d="M2.91666 0.833328H17.0833C18.6481 0.833328 19.9167 2.10185 19.9167 3.66666V26.3333C19.9167 27.8981 18.6481 29.1667 17.0833 29.1667H2.91666C1.35185 29.1667 0.0833282 27.8981 0.0833282 26.3333V3.66666C0.0833282 2.10185 1.35185 0.833328 2.91666 0.833328ZM2.91666 3.66666V26.3333H17.0833V3.66666H2.91666ZM9.99999 24.9167C9.21759 24.9167 8.58333 24.2824 8.58333 23.5C8.58333 22.7176 9.21759 22.0833 9.99999 22.0833C10.7824 22.0833 11.4167 22.7176 11.4167 23.5C11.4167 24.2824 10.7824 24.9167 9.99999 24.9167Z" fill="#D7D7D7"/>
</svg>
