<svg xmlns="http://www.w3.org/2000/svg" xmlns:xlink="http://www.w3.org/1999/xlink" width="20px" height="20px" viewBox="0 0 20 20" version="1.1">
    <title>3140367_account_impression_visits_icon</title>
    <g id="Page-1" stroke="none" stroke-width="1" fill="none" fill-rule="evenodd">
        <g id="Compare-Plans-Pop-Up" transform="translate(-28.000000, -504.000000)" fill-rule="nonzero">
            <g id="3140367_account_impression_visits_icon" transform="translate(28.000000, 504.000000)">
                <path d="M10,0 L10,2.625 C14.0833333,2.625 17.375,5.95833333 17.375,10 L20,10 C20,4.45833333 15.5416667,0 10,0 Z" id="Path" fill="#B7C0C4"/>
                <path d="M17.375,10 C17.375,14.0833333 14.0416667,17.375 10,17.375 C5.95833333,17.375 2.625,14.0416667 2.625,10 C2.625,7.95833333 3.45833333,6.125 4.79166667,4.79166667 L2.91666667,2.91666667 C1.125,4.70833333 0,7.20833333 0,10 C0,15.5416667 4.45833333,20 10,20 C15.5416667,20 20,15.5416667 20,10 L17.375,10 Z" id="Path" fill="#D9DCE1"/>
                <path d="M4.79166667,4.79166667 C6.125,3.45833333 7.95833333,2.625 10,2.625 L10,0 C7.25,0 4.75,1.125 2.91666667,2.91666667 L4.79166667,4.79166667 Z" id="Path" fill="#CBCED5"/>
                <circle id="Oval" fill="#188BFF" cx="10" cy="8.08333333" r="2"/>
                <path d="M13.3333333,14.1666667 C13.3333333,14.1666667 13.3333333,13.625 13.3333333,13.0416667 C13.3333333,12.75 13.2916667,12.5 13.1666667,12.25 C12.6666667,11.25 11.4166667,10.8333333 10,10.8333333 C8.58333333,10.8333333 7.33333333,11.25 6.83333333,12.25 C6.70833333,12.5 6.66666667,12.7916667 6.66666667,13.0416667 C6.66666667,13.625 6.66666667,14.1666667 6.66666667,14.1666667 L13.3333333,14.1666667 Z" id="Path" fill="#188BFF"/>
            </g>
        </g>
    </g>
</svg>