<svg xmlns="http://www.w3.org/2000/svg" width="49" height="49" viewBox="0 0 49 49" fill="none">
<circle cx="24.5" cy="24.5" r="24.5" fill="#B1B1B1"/>
<path d="M36.3032 36.2742C35.3742 37.2419 33.8258 37.2419 32.8968 36.2742L25 28.0484L17.1032 36.2742C16.1742 37.2419 14.6257 37.2419 13.6967 36.2742C12.7677 35.3065 12.7677 33.6935 13.6967 32.7258L21.5935 24.5L13.6967 16.2742C12.7677 15.3065 12.7677 13.6935 13.6967 12.7258C14.6257 11.7581 16.1742 11.7581 17.1032 12.7258L25 20.9516L32.8968 12.7258C33.8258 11.7581 35.3742 11.7581 36.3032 12.7258C37.2322 13.6935 37.2322 15.3065 36.3032 16.2742L28.4065 24.5L36.3032 32.7258C37.2322 33.6935 37.2322 35.3064 36.3032 36.2742Z" fill="white"/>
</svg>