<svg width="16" height="14" viewBox="0 0 16 14" fill="none" xmlns="http://www.w3.org/2000/svg">
<path d="M0.315002 10.1923L5.39312 1.38879L9.79341 3.93154L4.71591 12.7351L0.315002 10.1923Z" fill="#FFA3A3"/>
<path d="M14.9141 10.1616L9.83281 1.35494C9.17686 0.113295 7.63986 -0.361084 6.39925 0.295411C5.15864 0.951905 4.68528 2.49019 5.3406 3.73184C5.36937 3.78628 5.40001 3.83948 5.43252 3.89205L10.5138 12.6987C11.1991 13.9241 12.7474 14.3615 13.9717 13.6756C15.1961 12.9897 15.6332 11.4402 14.9478 10.2148C14.9366 10.1948 14.9253 10.1754 14.9141 10.156V10.1616Z" fill="#F25022"/>
<path d="M2.54062 13.9867C3.94377 13.9867 5.08124 12.8482 5.08124 11.4439C5.08124 10.0396 3.94377 8.90118 2.54062 8.90118C1.13748 8.90118 0 10.0396 0 11.4439C0 12.8482 1.13748 13.9867 2.54062 13.9867Z" fill="#FD724B"/>
</svg>
