<svg width="24" height="24" viewBox="0 0 24 24" fill="none" xmlns="http://www.w3.org/2000/svg">
<g clip-path="url(#clip0_616_5)">
<path d="M11.9992 8.75C10.3492 8.75 8.94922 10.1 8.94922 11.8C8.94922 13.45 10.2992 14.85 11.9992 14.85C13.6992 14.85 15.0492 13.5 15.0492 11.8C15.0492 10.1 13.6492 8.75 11.9992 8.75ZM11.9992 13.6C10.9992 13.6 10.1492 12.8 10.1492 11.75C10.1492 10.7 10.9492 9.9 11.9992 9.9C13.0492 9.9 13.8492 10.7 13.8492 11.75C13.8492 12.8 12.9992 13.6 11.9992 13.6Z" fill="#188BFF"/>
<path d="M17.1516 7.2499C15.9016 5.7999 14.0516 4.8999 12.0016 4.8999C8.20156 4.8999 5.10156 7.9999 5.10156 11.7999C5.10156 15.5999 8.20156 18.6999 12.0016 18.6999C15.8016 18.6999 18.9016 15.5999 18.9016 11.7999C18.9016 11.4999 18.8516 11.1999 18.8516 10.8999C19.4516 10.5499 19.8516 9.8999 19.8516 9.1499C19.8516 8.0499 18.9516 7.0999 17.8016 7.0999C17.5516 7.0999 17.3516 7.1499 17.1516 7.2499ZM12.0016 17.4499C8.85156 17.4499 6.30156 14.8999 6.30156 11.7499C6.30156 8.5999 8.85156 6.0499 12.0016 6.0499C13.6516 6.0499 15.1516 6.7499 16.1516 7.8999C15.9016 8.2499 15.7016 8.6499 15.7016 9.1499C15.7016 10.2499 16.5516 11.0999 17.6016 11.1499C17.6016 11.3499 17.6516 11.5499 17.6516 11.7499C17.7016 14.8999 15.1516 17.4499 12.0016 17.4499Z" fill="#188BFF"/>
<path d="M22.4484 3.7001C23.3045 3.7001 23.9984 3.00614 23.9984 2.1501C23.9984 1.29406 23.3045 0.600098 22.4484 0.600098C21.5924 0.600098 20.8984 1.29406 20.8984 2.1501C20.8984 3.00614 21.5924 3.7001 22.4484 3.7001Z" fill="#188BFF"/>
<path d="M1.55 22.9999C2.40604 22.9999 3.1 22.3059 3.1 21.4499C3.1 20.5939 2.40604 19.8999 1.55 19.8999C0.693959 19.8999 0 20.5939 0 21.4499C0 22.3059 0.693959 22.9999 1.55 22.9999Z" fill="#188BFF"/>
<path d="M11.9992 1C11.1992 1 10.3992 1.1 9.59922 1.25C9.19922 0.5 8.39922 0 7.49922 0C6.14922 0 5.04922 1.1 5.04922 2.45C5.04922 2.8 5.09922 3.1 5.24922 3.4C2.79922 5.4 1.19922 8.4 1.19922 11.8C1.19922 16.8 4.59922 21 9.24922 22.2C9.34922 23.2 10.1992 24 11.2492 24C12.1992 24 12.9492 23.35 13.1992 22.5C18.5992 21.9 22.7992 17.3 22.7992 11.8C22.7992 5.85 17.9492 1 11.9992 1ZM13.1492 21.3C12.8492 20.5 12.1492 19.95 11.2492 19.95C10.4492 19.95 9.79922 20.4 9.44922 21.05C5.39922 19.95 2.39922 16.2 2.39922 11.8C2.39922 8.8 3.79922 6.1 5.94922 4.35C6.34922 4.7 6.89922 4.9 7.44922 4.9C8.79922 4.9 9.89922 3.8 9.89922 2.45C10.5492 2.3 11.2492 2.2 11.9492 2.2C17.2492 2.2 21.5492 6.5 21.5492 11.8C21.5992 16.65 17.8992 20.7 13.1492 21.3Z" fill="#188BFF"/>
</g>
<defs>
<clipPath id="clip0_616_5">
<rect width="24" height="24" fill="white"/>
</clipPath>
</defs>
</svg>
