<svg xmlns="http://www.w3.org/2000/svg" width="24" height="20" viewBox="0 0 24 20">
    <g fill="#D4D4D4" fill-rule="evenodd">
        <path d="M21.359 4.04a5.975 5.975 0 0 1-.208 1.922c-.488 1.853-1.656 3.429-3.377 4.555-1.72 1.125-3.867 1.72-6.21 1.72H8.148l-1.106 4.198c-.217.824-1.13 1.421-2.169 1.421h-1.54l-.277 1.032a.775.775 0 0 0 .22.755c.21.211.528.334.863.334h3.765c.523 0 .975-.296 1.084-.71l1.293-4.91h4.314c2.086 0 3.993-.525 5.513-1.52 1.521-.995 2.555-2.394 2.99-4.044.44-1.669.125-3.054-.937-4.118a4.637 4.637 0 0 0-.802-.635z"/>
        <path d="M14.582 0c1.786 0 3.528.634 4.548 1.656 1.062 1.064 1.377 2.449.937 4.118-.435 1.65-1.469 3.049-2.99 4.044-1.52.995-3.427 1.52-5.513 1.52H7.25l-1.294 4.91c-.109.414-.56.71-1.084.71H1.108c-.335 0-.653-.123-.863-.335a.774.774 0 0 1-.22-.754L4.101.707C4.212.294 4.663 0 5.184 0zm-2.218 3.454H9.407L8.113 8.092h2.834c1.529 0 3.075-1.035 3.447-2.307l.008-.023c.202-.618.082-1.223-.332-1.66-.389-.412-1.01-.648-1.706-.648z"/>
    </g>
</svg>