<svg xmlns="http://www.w3.org/2000/svg" width="24" height="24" viewBox="0 0 24 24" fill="none">
<g clip-path="url(#clip0_4587_427)">
<path d="M20.0671 8.478C20.5591 9.358 20.6231 10.492 20.3671 11.805C19.6271 15.611 17.0911 16.925 13.8531 16.925H13.3531C13.1615 16.9253 12.9763 16.9939 12.8307 17.1186C12.6852 17.2432 12.5889 17.4157 12.5591 17.605L12.5191 17.825L11.8891 21.818L11.8571 21.988C11.8273 22.1772 11.731 22.3496 11.5854 22.474C11.4399 22.5985 11.2546 22.6669 11.0631 22.667H7.72011C7.65035 22.667 7.58143 22.6518 7.51807 22.6226C7.45472 22.5934 7.39844 22.5509 7.35312 22.4978C7.30779 22.4448 7.27448 22.3826 7.25549 22.3155C7.2365 22.2484 7.23228 22.1779 7.24311 22.109L7.41811 21H8.93611L9.88611 14.98H11.2711C15.9491 14.98 19.0211 12.777 20.0671 8.478ZM17.1071 3.388C17.8691 4.256 18.0901 5.198 17.8591 6.673C17.8401 6.796 17.8191 6.913 17.7971 7.033C17.0621 10.806 14.7081 12.479 10.8411 12.479H8.95711C8.32711 12.479 7.78311 12.893 7.60311 13.481L7.58911 13.479L6.65911 19.373H3.12111C3.11367 19.373 3.10632 19.3713 3.09959 19.3681C3.09286 19.365 3.0869 19.3604 3.08213 19.3547C3.07737 19.3489 3.07391 19.3422 3.07201 19.335C3.07011 19.3279 3.0698 19.3203 3.07111 19.313L5.66911 2.803C5.70414 2.57934 5.81789 2.37555 5.98986 2.22833C6.16184 2.0811 6.38073 2.00013 6.60711 2H12.5831C14.7661 2 16.3001 2.469 17.1071 3.388Z" fill="#9D9D9D"/>
</g>
<defs>
<clipPath id="clip0_4587_427">
<rect width="24" height="24" fill="white"/>
</clipPath>
</defs>
</svg>