<svg xmlns="http://www.w3.org/2000/svg" version="1.2" viewBox="0 0 28 35" width="28" height="35">
	<title>icon - pro-svg</title>
	<style>
		.s0 { fill: #188bff } 
		.s1 { fill: #f1f2f2 } 
		.s2 { fill: #3685d5 } 
		.s3 { fill: #fbb040 } 
		.s4 { fill: #fed555 } 
		.s5 { opacity: .5;fill: #d2862a } 
		.s6 { fill: #ffffff } 
	</style>
	<path id="Layer" class="s0" d="m19.7 34.4l-5.8-3.1-5.8 3.1v-22.5h11.6z"/>
	<path id="Layer" class="s1" d="m12.4 32.1v-20.2h-1.4v21z"/>
	<path id="Layer" class="s1" d="m16.8 32.9v-21h-1.5v20.2z"/>
	<g id="Layer" style="opacity: .5">
		<path id="Layer" class="s2" d="m27.7 15.5c0 1.2-1.2 2.2-1.5 3.3-0.3 1.2 0.2 2.6-0.4 3.6-0.5 1-2.1 1.3-2.9 2.2-0.8 0.8-1.1 2.3-2.1 2.9-1 0.6-2.5 0.1-3.6 0.4-1.1 0.3-2.2 1.5-3.3 1.5-1.2 0-2.3-1.2-3.4-1.5-1.1-0.3-2.6 0.2-3.6-0.4-1-0.6-1.3-2.1-2.1-2.9-0.8-0.9-2.4-1.2-2.9-2.2-0.6-1-0.1-2.4-0.4-3.6-0.3-1.1-1.5-2.1-1.5-3.3 0-1.2 1.2-2.2 1.5-3.3 0.3-1.2-0.2-2.7 0.4-3.7 0.5-1 2.1-1.3 2.9-2.1 0.8-0.8 1.1-2.4 2.1-2.9 1-0.6 2.5-0.1 3.6-0.4 1.1-0.3 2.2-1.5 3.4-1.5 1.1 0 2.2 1.2 3.3 1.5 1.1 0.3 2.6-0.2 3.6 0.4 1 0.5 1.3 2.1 2.1 2.9 0.8 0.8 2.4 1.1 2.9 2.1 0.6 1 0.1 2.5 0.4 3.7 0.3 1.1 1.5 2.1 1.5 3.3z"/>
	</g>
	<path id="Layer" class="s3" d="m27.7 13.9c0 1.2-1.2 2.2-1.5 3.3-0.3 1.2 0.2 2.6-0.4 3.6-0.5 1.1-2.1 1.3-2.9 2.2-0.8 0.8-1.1 2.3-2.1 2.9-1 0.6-2.5 0.1-3.6 0.4-1.1 0.3-2.2 1.5-3.3 1.5-1.2 0-2.3-1.2-3.4-1.5-1.1-0.3-2.6 0.2-3.6-0.4-1-0.6-1.3-2.1-2.1-2.9-0.8-0.9-2.4-1.1-2.9-2.2-0.6-1-0.1-2.4-0.4-3.6-0.3-1.1-1.5-2.1-1.5-3.3 0-1.2 1.2-2.2 1.5-3.3 0.3-1.2-0.2-2.7 0.4-3.7 0.5-1 2.1-1.3 2.9-2.1 0.8-0.8 1.1-2.4 2.1-2.9 1-0.6 2.5-0.1 3.6-0.4 1.1-0.3 2.2-1.5 3.4-1.5 1.1 0 2.2 1.2 3.3 1.5 1.1 0.3 2.6-0.2 3.6 0.4 1 0.5 1.3 2.1 2.1 2.9 0.8 0.8 2.4 1.1 2.9 2.1 0.6 1 0.1 2.5 0.4 3.7 0.3 1.1 1.5 2.1 1.5 3.3z"/>
	<g id="Layer" style="opacity: .5">
		<path id="Layer" class="s4" d="m13.9 25.1c-6.2 0-11.2-5-11.2-11.2 0-6.2 5-11.2 11.2-11.2 6.1 0 11.1 5 11.1 11.2 0 6.2-5 11.2-11.1 11.2z"/>
		<path id="Layer" fill-rule="evenodd" class="s4" d="m13.9 2.5c6.2 0 11.3 5.1 11.3 11.4 0 6.3-5.1 11.3-11.3 11.3-6.3 0-11.4-5-11.4-11.3 0-6.3 5.1-11.4 11.4-11.4zm0 22.5c6 0 11-5 11-11.1 0-6.1-5-11.1-11-11.1-6.1 0-11.1 5-11.1 11.1 0 6.1 5 11.1 11.1 11.1z"/>
	</g>
	<path id="Layer" fill-rule="evenodd" class="s5" d="m13.9 3.4c5.7 0 10.4 4.7 10.4 10.5 0 5.8-4.7 10.5-10.4 10.5-5.8 0-10.5-4.7-10.5-10.5 0-5.8 4.7-10.5 10.5-10.5zm0 19.6c5 0 9.1-4.1 9.1-9.1 0-5-4.1-9.1-9.1-9.1-5.1 0-9.2 4.1-9.2 9.1 0 5 4.1 9.1 9.2 9.1z"/>
	<path id="Layer" class="s6" d="m12.5 17.9l-3.4-3.3 0.9-0.9 2.5 2.4 5.2-5.2 0.9 0.9z"/>
	<path id="Layer" class="s6" d="m8.5 19.4l0.3 1.4 1.4 0.3-1.4 0.3-0.3 1.4-0.3-1.4-1.4-0.3 1.4-0.3z"/>
</svg>