<svg width="214" height="196" viewBox="0 0 214 196" fill="none" xmlns="http://www.w3.org/2000/svg">
<g clip-path="url(#clip0_753_23738)">
<path d="M59.7177 60.8159L35.272 35.097C31.4535 31.372 25.0373 33.0849 23.5909 38.2269L15.2807 72.7228C13.8036 77.9704 18.5964 82.8301 23.8688 81.4173L56.626 72.64C61.894 71.2285 63.6219 64.6266 59.7177 60.8159ZM38.7918 71.5953C37.2942 71.9966 35.7485 71.1041 35.3472 69.6065C34.946 68.1089 35.8384 66.5632 37.336 66.1619C38.8336 65.7607 40.3793 66.6531 40.7806 68.1507C41.1819 69.6483 40.2894 71.194 38.7918 71.5953ZM38.5968 60.0007C38.9981 61.4983 38.1057 63.044 36.608 63.4453C35.1104 63.8466 33.5647 62.9541 33.1635 61.4565L29.5238 47.8732C29.1225 46.3756 30.0149 44.8299 31.5125 44.4286C33.0102 44.0273 34.5559 44.9197 34.9571 46.4173L38.5968 60.0007Z" fill="white"/>
</g>
<g filter="url(#filter0_f_753_23738)">
<ellipse cx="87.5" cy="180.5" rx="19.5" ry="1.5" fill="#395A87"/>
</g>
<g clip-path="url(#clip1_753_23738)">
<path d="M197.588 17C188.993 12.0374 177.963 14.9929 173 23.5885C168.037 32.184 170.993 43.2143 179.588 48.1769C188.184 53.1395 199.214 50.184 204.177 41.5885C209.14 32.9929 206.184 21.9626 197.588 17ZM183.412 41.555C182.537 41.0503 182.238 39.9324 182.743 39.0581C183.247 38.1839 184.365 37.8844 185.239 38.3891C186.114 38.8938 186.413 40.0118 185.909 40.886C185.404 41.7602 184.286 42.0598 183.412 41.555ZM189.686 34.343C189.181 35.2173 188.063 35.5168 187.189 35.0121C186.315 34.5074 186.015 33.3894 186.52 32.5152L191.333 24.1782C191.838 23.304 192.956 23.0044 193.83 23.5092C194.705 24.0139 195.004 25.1318 194.499 26.0061L189.686 34.343Z" fill="white"/>
</g>
<path d="M121.291 128.491L115.932 124.791C115.932 124.785 115.932 124.78 115.927 124.78C115.398 122.832 114.667 120.961 113.771 119.199L115.144 113.809L107.371 105.486L101.898 106.486C100.203 105.476 98.3842 104.615 96.4822 103.957C96.477 103.957 96.4718 103.957 96.4666 103.952L93.1395 98.3496L81.7588 97.9609L78.0585 103.314C78.0533 103.314 78.043 103.32 78.0378 103.32C76.0943 103.848 74.2183 104.579 72.4614 105.47L67.0768 104.097L58.7538 111.871L59.754 117.333C59.754 117.333 59.754 117.338 59.7488 117.338C58.7175 119.054 57.8779 120.873 57.2198 122.775L51.6175 126.102L51.2288 137.488L56.5927 141.193C57.1213 143.152 57.8313 145.023 58.7434 146.801L57.3752 152.175L65.1489 160.498L70.5854 159.503C72.3008 160.519 74.125 161.374 76.0529 162.037H76.0581L79.38 167.629L90.7607 168.018L94.461 162.664C96.4304 162.136 98.3064 161.405 100.084 160.508L105.448 161.876L113.771 154.103L112.771 148.64C113.802 146.925 114.642 145.106 115.3 143.199L120.902 139.872L121.291 128.491ZM85.8167 145.795C78.7426 145.552 73.2129 139.612 73.4565 132.554C73.7 125.48 79.6184 119.95 86.6977 120.194C93.7718 120.437 99.3015 126.356 99.0579 133.435C98.8143 140.488 92.8907 146.039 85.8167 145.795Z" fill="#EBEBEB"/>
<path d="M145.672 83.9915C145.661 83.9915 145.646 83.9915 145.635 83.9915L136.659 83.6858C136.286 83.6754 135.944 83.4733 135.757 83.152L133.342 79.0837C132.057 78.6173 130.793 78.0317 129.57 77.3321L125.678 78.0421C125.31 78.1094 124.936 77.9851 124.683 77.7104L118.552 71.1494C118.298 70.8747 118.199 70.4912 118.293 70.1336L119.272 66.2934C118.676 65.0755 118.179 63.7799 117.79 62.4221L113.887 59.7272C113.582 59.5147 113.4 59.1623 113.416 58.7892L113.722 49.8131C113.732 49.44 113.934 49.0979 114.255 48.9114L118.334 46.4912C118.816 45.1696 119.402 43.9051 120.081 42.7339L119.365 38.8315C119.298 38.4635 119.422 38.0904 119.697 37.8364L126.258 31.7056C126.533 31.4516 126.916 31.3531 127.274 31.4464L131.124 32.4311C132.373 31.8247 133.664 31.3272 134.985 30.9437L137.68 27.0413C137.893 26.7356 138.24 26.5438 138.618 26.5697L147.594 26.8755C147.967 26.8858 148.309 27.088 148.496 27.4093L150.916 31.4879C152.201 31.9595 153.461 32.5451 154.663 33.2344L158.576 32.5192C158.944 32.4518 159.317 32.5762 159.571 32.8509L165.702 39.4171C165.956 39.6917 166.054 40.0752 165.961 40.4328L164.976 44.2886C165.583 45.5376 166.08 46.828 166.464 48.1495L170.361 50.8444C170.667 51.0569 170.843 51.4093 170.832 51.7825L170.527 60.7585C170.516 61.1316 170.314 61.4737 169.993 61.6603L165.914 64.0805C165.432 65.402 164.847 66.6613 164.168 67.8326L164.883 71.7402C164.95 72.1081 164.826 72.4813 164.551 72.7352L157.99 78.8609C157.716 79.1148 157.337 79.2133 156.975 79.12L153.14 78.1405C151.875 78.7521 150.574 79.2496 149.258 79.6279L146.568 83.5251C146.366 83.8153 146.029 83.9915 145.672 83.9915ZM137.333 81.5143L145.112 81.7786L147.688 78.0472C147.833 77.8348 148.056 77.6793 148.304 77.6119C149.735 77.2284 151.16 76.6791 152.528 75.9898C152.528 75.9898 152.533 75.9898 152.533 75.9846C152.761 75.8706 153.031 75.8395 153.29 75.9069L156.938 76.8345L162.629 71.5225L161.95 67.8067C161.903 67.5424 161.95 67.2729 162.09 67.0448C162.841 65.8011 163.479 64.4329 163.981 62.987C164.064 62.7278 164.24 62.5154 164.468 62.3806L168.366 60.0641L168.63 52.2852L164.899 49.7095C164.702 49.5747 164.557 49.3778 164.484 49.1549C164.474 49.129 164.468 49.0979 164.458 49.0668C164.069 47.6365 163.525 46.232 162.846 44.895C162.727 44.6566 162.696 44.3871 162.763 44.1279L163.696 40.4588L158.384 34.7684L154.658 35.4525C154.399 35.4991 154.129 35.4525 153.901 35.3177C152.606 34.5455 151.238 33.9081 149.833 33.4158C149.755 33.3899 149.672 33.3536 149.605 33.3069C149.455 33.2137 149.33 33.0841 149.237 32.9338L146.921 29.0314L139.142 28.7671L136.566 32.4985C136.41 32.7213 136.182 32.8768 135.923 32.939C134.483 33.3328 133.083 33.8718 131.751 34.5507C131.513 34.6699 131.244 34.701 130.984 34.6336L127.315 33.7008L121.625 39.0128L122.304 42.7287C122.345 42.9619 122.314 43.2055 122.205 43.4128C122.19 43.4439 122.174 43.4698 122.153 43.5009C121.402 44.7498 120.765 46.1232 120.262 47.5743C120.179 47.8179 120.008 48.0252 119.785 48.1547L115.883 50.4713L115.618 58.2502L119.355 60.8311C119.567 60.9762 119.723 61.1938 119.79 61.4478C120.195 62.9403 120.733 64.3551 121.402 65.6559C121.438 65.7285 121.469 65.8114 121.49 65.8892C121.532 66.0654 121.532 66.2467 121.49 66.423L120.557 70.0766L125.869 75.7669L129.57 75.088C129.829 75.0414 130.098 75.0881 130.321 75.2228C131.643 76.0002 133.016 76.6428 134.41 77.1248C134.664 77.2025 134.882 77.3735 135.016 77.6067L137.333 81.5143ZM142.137 71.6883C141.945 71.6883 141.754 71.6832 141.562 71.678C132.518 71.367 125.418 63.7592 125.724 54.7209C126.035 45.6775 133.653 38.5775 142.681 38.8833C151.725 39.1942 158.825 46.8021 158.519 55.8403C158.369 60.2143 156.524 64.2722 153.321 67.2625C150.263 70.1284 146.309 71.6883 142.137 71.6883ZM142.116 41.0599C134.498 41.0599 128.176 47.1234 127.911 54.7935C127.642 62.6294 133.799 69.2215 141.634 69.491C145.433 69.6205 149.051 68.2627 151.828 65.6663C154.601 63.0751 156.202 59.5562 156.332 55.7678C156.601 47.9319 150.445 41.3398 142.609 41.0703C142.448 41.0651 142.282 41.0599 142.116 41.0599Z" fill="white"/>
<path d="M166.343 19.4018L162.627 18.4016L161.627 14.6858L163.083 13.2295L164.617 16.4063L167.799 17.9455L166.343 19.4018Z" fill="#E0E0E0"/>
<path d="M166.576 16.9095C167.255 16.2306 167.255 15.1267 166.576 14.453C165.897 13.7741 164.798 13.7793 164.125 14.4582L165.975 11.6855L168.457 12.9397L169.001 15.5465L166.576 16.9095Z" fill="#E0E0E0"/>
<path d="M162.793 13.5199L165.519 10.7939L169.235 11.7942L170.235 15.51L167.509 18.236L163.793 17.2358L162.793 13.5199ZM167.737 15.7484C168.416 15.0695 168.416 13.9656 167.737 13.2919C167.058 12.613 165.959 12.6182 165.286 13.2971C164.607 13.976 164.607 15.0695 165.286 15.7432C165.959 16.4221 167.058 16.4273 167.737 15.7484Z" fill="white"/>
<path d="M2.21335 130.755L4.2086 130.221L4.74758 128.226L3.96502 127.443L3.14101 129.148L1.43597 129.972L2.21335 130.755Z" fill="#E0E0E0"/>
<path d="M2.0942 129.418C1.73143 129.055 1.73143 128.464 2.0942 128.096C2.45698 127.734 3.04778 127.734 3.41055 128.102L2.4207 126.614L1.0888 127.288L0.798584 128.687L2.0942 129.418Z" fill="#E0E0E0"/>
<path d="M4.12045 127.599L2.65899 126.138L0.663738 126.671L0.129944 128.667L1.5914 130.128L3.58665 129.594L4.12045 127.599ZM1.46702 128.796C1.10425 128.434 1.10425 127.843 1.46702 127.475C1.82979 127.112 2.4206 127.112 2.78337 127.48C3.14614 127.843 3.14614 128.428 2.78337 128.796C2.4206 129.159 1.82979 129.159 1.46702 128.796Z" fill="#F0F0F0"/>
<path d="M145.301 95.185C145.272 95.5368 145.238 95.8964 145.197 96.2618C145.129 96.8717 145.044 97.5 144.937 98.1428C144.877 98.5091 144.81 98.8813 144.734 99.2563C144.556 100.149 144.335 101.064 144.064 101.987C143.957 102.349 143.843 102.712 143.721 103.076C143.454 103.868 143.148 104.666 142.797 105.457C142.63 105.834 142.453 106.21 142.264 106.584C141.755 107.602 141.166 108.606 140.485 109.582C140.235 109.942 139.971 110.299 139.696 110.65C138.933 111.621 138.073 112.556 137.101 113.436C136.753 113.752 136.392 114.06 136.016 114.361C135.889 114.462 135.761 114.563 135.631 114.662C132.172 117.308 127.897 118.973 123.262 119.479L122.597 113.381C125.384 113.077 127.904 112.274 130.114 110.989C130.411 110.816 130.702 110.635 130.988 110.444C131.3 110.236 131.605 110.02 131.904 109.791C132.482 109.349 133.015 108.88 133.507 108.389C133.752 108.146 133.986 107.898 134.21 107.646C134.902 106.866 135.502 106.039 136.022 105.187C136.201 104.894 136.37 104.598 136.53 104.299C136.971 103.478 137.344 102.638 137.659 101.795C137.783 101.466 137.897 101.135 138.003 100.806C138.236 100.081 138.429 99.3578 138.589 98.6483C138.667 98.3004 138.736 97.9553 138.799 97.6141C138.929 96.9017 139.029 96.2076 139.101 95.5407C139.143 95.1647 139.175 94.7993 139.201 94.4426C139.441 91.1755 139.101 88.8005 139.092 88.7435L145.157 87.8232C145.203 88.1171 145.632 91.1136 145.301 95.185Z" fill="#5B6470"/>
<path d="M145.301 95.1847C145.272 95.5366 145.238 95.8962 145.197 96.2615C144.474 96.421 143.651 96.5129 142.748 96.4703C142.562 96.4616 142.372 96.4471 142.18 96.4259C141.116 96.3099 140.071 96.0083 139.102 95.5395C139.144 95.1635 139.176 94.7981 139.202 94.4414C139.969 94.857 141.015 95.2708 142.289 95.409C143.436 95.5337 144.457 95.4061 145.301 95.1847Z" fill="#4E5864"/>
<path d="M144.937 98.143C144.877 98.5093 144.811 98.8815 144.734 99.2565C143.966 99.4421 143.077 99.5571 142.093 99.5108C141.906 99.5021 141.717 99.4876 141.524 99.4663C140.513 99.3561 139.519 99.0777 138.59 98.6485C138.668 98.3006 138.737 97.9555 138.799 97.6143C139.537 97.9825 140.495 98.3267 141.634 98.4504C142.917 98.5886 144.04 98.4117 144.937 98.143Z" fill="#4E5864"/>
<path d="M144.063 101.987C143.957 102.348 143.842 102.712 143.72 103.076C142.973 103.174 142.124 103.193 141.207 103.065C141.023 103.039 140.834 103.007 140.645 102.968C139.594 102.753 138.58 102.355 137.658 101.795C137.782 101.467 137.896 101.136 138.002 100.807C138.715 101.264 139.671 101.726 140.848 101.967C142.066 102.213 143.164 102.156 144.063 101.987Z" fill="#4E5864"/>
<path d="M142.796 105.457C142.629 105.834 142.453 106.21 142.263 106.584C141.533 106.679 140.71 106.699 139.82 106.579C139.636 106.554 139.448 106.524 139.258 106.486C138.113 106.261 137.011 105.816 136.021 105.185C136.2 104.892 136.369 104.597 136.529 104.298C137.252 104.764 138.236 105.243 139.456 105.483C140.732 105.734 141.875 105.651 142.796 105.457Z" fill="#4E5864"/>
<path d="M140.487 109.583C140.237 109.943 139.973 110.3 139.698 110.651C138.957 110.657 138.133 110.579 137.259 110.353C137.079 110.306 136.897 110.253 136.713 110.194C135.543 109.813 134.449 109.195 133.509 108.39C133.754 108.147 133.988 107.899 134.212 107.646C134.877 108.209 135.815 108.827 137.029 109.221C138.327 109.642 139.525 109.682 140.487 109.583Z" fill="#4E5864"/>
<path d="M137.102 113.436C136.754 113.752 136.392 114.06 136.016 114.361C135.252 114.248 134.408 114.028 133.537 113.634C133.368 113.557 133.197 113.474 133.025 113.383C131.91 112.795 130.912 111.974 130.114 110.989C130.412 110.816 130.703 110.635 130.989 110.443C131.548 111.111 132.368 111.881 133.502 112.479C134.817 113.172 136.092 113.399 137.102 113.436Z" fill="#4E5864"/>
<path d="M131.666 121.495C131.445 123.292 130.841 124.923 129.969 126.275C129.758 126.604 129.529 126.917 129.288 127.211C128.827 127.773 128.314 128.267 127.763 128.681C126.308 129.78 124.58 130.329 122.805 130.111C122.534 130.078 122.269 130.028 122.01 129.961C121.921 129.939 121.833 129.914 121.745 129.888C121.141 129.706 120.571 129.436 120.045 129.09C117.375 127.337 115.789 123.642 116.283 119.611C116.604 116.99 117.744 114.721 119.33 113.162C120.147 112.359 121.082 111.744 122.086 111.369C122.097 111.365 122.11 111.361 122.121 111.357C122.616 111.174 123.127 111.051 123.648 110.99C124.109 110.936 124.578 110.934 125.05 110.984C125.082 110.988 125.113 110.99 125.145 110.994C125.394 111.024 125.639 111.07 125.879 111.128C129.724 112.068 132.274 116.525 131.666 121.495Z" fill="#FF6B74"/>
<path d="M129.97 126.274C129.759 126.604 129.53 126.917 129.289 127.211C127.609 129.255 125.254 130.41 122.806 130.111C122.535 130.078 122.27 130.027 122.011 129.961C121.922 129.938 121.834 129.913 121.746 129.887C121.142 129.705 120.572 129.436 120.046 129.09C117.376 127.336 115.79 123.642 116.284 119.61C116.605 116.99 117.744 114.72 119.331 113.162C120.147 112.359 121.083 111.744 122.087 111.369C122.098 111.364 122.111 111.36 122.122 111.356C122.617 111.174 123.128 111.051 123.649 110.99C124.141 110.932 124.641 110.933 125.146 110.994C125.395 111.024 125.64 111.069 125.879 111.127C125.697 112.393 125.477 113.936 125.233 115.689C124.837 118.53 124.611 120.246 124.808 122.526C124.996 124.706 125.111 126.045 126.046 126.679C126.944 127.289 128.382 127.094 129.97 126.274Z" fill="#FF4B55"/>
<path d="M127.764 128.683C126.308 129.782 124.581 130.33 122.805 130.113C122.534 130.08 122.269 130.03 122.01 129.963C121.922 129.941 121.834 129.916 121.746 129.89C121.141 129.708 120.571 129.438 120.045 129.092C117.376 127.339 115.789 123.644 116.283 119.613C116.604 116.992 117.744 114.723 119.33 113.164C120.147 112.361 121.082 111.746 122.086 111.371C122.097 111.367 122.11 111.363 122.122 111.359C122.617 111.176 123.127 111.053 123.648 110.992C124.109 110.938 124.578 110.936 125.05 110.986C124.946 112.074 124.881 112.924 124.813 113.728C124.73 114.697 124.518 116.58 124.092 120.346C123.625 124.48 123.451 125.85 124.386 127.116C124.572 127.367 125.117 128.042 126.064 128.422C126.644 128.655 127.223 128.718 127.764 128.683Z" fill="#FF4A54"/>
<path d="M142.705 93.4209C140.071 93.476 138.058 90.581 137.021 89.0905C135.975 87.5865 135.455 86.1105 135.185 84.907C134.988 84.0293 134.923 83.2966 134.881 82.7988C134.826 82.1193 134.618 79.552 135.377 79.3045C136.23 79.0271 137.831 81.8226 138.274 82.6171C138.141 81.6756 138.045 80.1967 138.443 78.4781C139.065 75.7919 141.035 71.8974 143.188 71.8539C144.154 71.8345 145.244 72.5875 146.236 73.8364C148.417 76.5826 150.111 81.7259 148.901 86.3028C148.14 89.1891 145.826 93.3562 142.705 93.4209Z" fill="#FF6B74"/>
<path d="M142.706 93.4214C140.072 93.4765 138.06 90.5815 137.023 89.091C135.977 87.587 135.457 86.111 135.186 84.9075C135.503 85.3725 135.879 85.8374 136.327 86.282C137.049 87.0012 139.323 89.2669 141.741 88.803C144.954 88.1863 146.164 83.1812 146.484 81.8559C147.196 78.9078 146.882 76.1307 146.238 73.8359C148.419 76.5821 150.114 81.7254 148.903 86.3023C148.142 89.1896 145.828 93.3567 142.706 93.4214Z" fill="#FF4B55"/>
<path d="M37.9453 108.446C37.5365 107.625 37.1904 106.789 36.9004 105.956C36.767 105.578 36.6453 105.2 36.5341 104.824C36.2035 103.712 35.9628 102.616 35.7879 101.578C35.7173 101.164 35.6583 100.76 35.609 100.367V100.366C35.1673 96.8973 35.4351 94.3039 35.4418 94.244L29.3464 93.5645C29.3087 93.8999 28.9085 97.7876 29.7572 102.726C29.8142 103.061 29.879 103.403 29.9486 103.747C30.2153 105.066 30.574 106.445 31.0544 107.839C31.1665 108.167 31.2864 108.496 31.413 108.824C31.9533 110.232 32.6212 111.643 33.4477 113.015C33.6236 113.308 33.8073 113.599 33.9987 113.889C34.7178 114.977 35.5433 116.033 36.4896 117.036C36.7255 117.286 36.97 117.534 37.2214 117.776C38.0024 118.529 38.8569 119.246 39.7945 119.916C39.837 119.947 39.8795 119.977 39.923 120.007C40.1763 120.186 40.4344 120.36 40.6963 120.528C44.1017 122.721 48.1518 124.033 52.4697 124.333L52.895 118.213C49.6133 117.985 46.6729 117.057 44.1413 115.451C43.9084 115.304 43.6793 115.151 43.4541 114.991C43.3816 114.94 43.31 114.889 43.2395 114.838C42.3589 114.196 41.5769 113.492 40.8809 112.741C40.5948 112.434 40.3242 112.119 40.0671 111.798V111.797C39.4977 111.084 38.9951 110.341 38.5533 109.578V109.577C38.3349 109.204 38.1329 108.826 37.9453 108.446Z" fill="#5B6470"/>
<path d="M44.1411 115.451C43.9082 115.304 43.6791 115.151 43.4538 114.992C43.3813 114.94 43.3098 114.889 43.2393 114.838C43.0778 115.562 42.7946 116.384 42.3094 117.218C41.5699 118.487 40.6226 119.349 39.7943 119.915C39.8368 119.946 39.8793 119.976 39.9228 120.006C40.1761 120.185 40.4341 120.359 40.6961 120.527C41.4288 119.98 42.2156 119.229 42.8913 118.216C42.9937 118.061 43.0952 117.9 43.1929 117.733C43.6075 117.02 43.9265 116.25 44.1411 115.451Z" fill="#4E5864"/>
<path d="M40.8794 112.741C40.5932 112.434 40.3226 112.119 40.0655 111.798C39.9069 112.542 39.6218 113.397 39.1163 114.263C38.3439 115.59 37.3425 116.472 36.488 117.036C36.7239 117.286 36.9684 117.534 37.2198 117.776C38.0298 117.217 38.9355 116.406 39.6991 115.261C39.8016 115.106 39.9031 114.945 40.0007 114.778C40.3729 114.138 40.6677 113.453 40.8794 112.741Z" fill="#4E5864"/>
<path d="M38.5524 109.577C38.3349 109.203 38.1329 108.825 37.9454 108.445C37.6351 109.214 37.1402 110.114 36.3572 110.966C35.4071 112.001 34.3506 112.632 33.4468 113.014C33.6227 113.306 33.8064 113.598 33.9977 113.888C34.8503 113.51 35.8092 112.937 36.712 112.065C36.8464 111.936 36.9788 111.801 37.1093 111.658C37.6805 111.036 38.1667 110.333 38.5524 109.577Z" fill="#4E5864"/>
<path d="M36.5325 104.823C36.0366 105.432 35.3609 106.09 34.4668 106.645C33.2499 107.4 32.0387 107.721 31.0537 107.839C31.1658 108.167 31.2857 108.495 31.4123 108.824C32.3335 108.689 33.4113 108.394 34.5132 107.798C34.6775 107.71 34.8409 107.615 35.0062 107.512C35.7012 107.081 36.3391 106.555 36.8998 105.956C36.7664 105.578 36.6436 105.199 36.5325 104.823Z" fill="#4E5864"/>
<path d="M35.6091 100.366C35.0234 100.933 34.2307 101.539 33.2061 101.998C31.9389 102.565 30.7335 102.729 29.7573 102.726C29.8143 103.061 29.8791 103.402 29.9487 103.746C30.8679 103.731 31.9515 103.58 33.0969 103.148C33.2719 103.082 33.4468 103.01 33.6247 102.931C34.4018 102.583 35.1316 102.124 35.788 101.577C35.7174 101.164 35.6584 100.76 35.6091 100.366Z" fill="#4E5864"/>
<path d="M57.3323 114.141C55.4803 112.252 53.0318 111.308 50.6192 111.821C50.3524 111.877 50.0924 111.952 49.8401 112.041C49.7541 112.07 49.669 112.103 49.5839 112.137C48.9972 112.372 48.453 112.69 47.9591 113.082C47.6488 113.328 47.3578 113.602 47.0872 113.901C46.0384 115.059 45.3018 116.592 44.9742 118.316C44.7035 119.736 44.7083 121.283 45.0438 122.854C45.5938 125.437 46.9286 127.598 48.6454 129.01C49.5288 129.739 50.5158 130.27 51.5481 130.555C51.5597 130.559 51.5723 130.562 51.5848 130.565C51.9289 130.658 52.2789 130.724 52.6317 130.762C52.7989 130.78 52.968 130.791 53.1362 130.797C53.6311 130.81 54.1289 130.766 54.6268 130.66C54.7901 130.626 54.9506 130.584 55.1091 130.538C59.0026 129.384 61.2655 124.626 60.2022 119.627C59.7343 117.425 58.6943 115.527 57.3323 114.141Z" fill="#FF6B74"/>
<path d="M57.3326 114.141C55.4806 112.252 53.0322 111.308 50.6195 111.821C50.3527 111.877 50.0927 111.952 49.8404 112.041C49.7544 112.07 49.6693 112.103 49.5843 112.137C48.9975 112.372 48.4533 112.69 47.9594 113.082C46.4457 114.279 45.3872 116.148 44.9745 118.316C46.2263 117.445 48.1556 116.459 49.8201 117.122C51.5562 117.814 52.1062 119.945 53.1356 123.929C53.8654 126.753 53.6672 127.944 53.5996 128.302C53.4169 129.266 53.0496 130.087 52.633 130.762C52.8002 130.78 52.9693 130.791 53.1375 130.797C53.6324 130.81 54.1302 130.766 54.6281 130.66C58.8145 129.768 61.3093 124.829 60.2025 119.627C59.7347 117.425 58.6946 115.527 57.3326 114.141Z" fill="#FF4B55"/>
<path d="M57.3325 114.141C55.4805 112.252 53.0321 111.308 50.6194 111.821C50.3526 111.877 50.0926 111.952 49.8403 112.041C49.7543 112.07 49.6692 112.103 49.5842 112.137C48.9974 112.372 48.4532 112.69 47.9593 113.082C47.649 113.328 47.3581 113.602 47.0874 113.901C47.9999 113.721 49.0641 113.716 50.0124 114.248C50.8765 114.734 51.2873 115.468 52.0732 116.917C52.9924 118.611 53.3714 119.995 53.9948 122.325C54.5564 124.426 54.8599 125.562 55.0262 127.231C55.1519 128.494 55.1548 129.615 55.1093 130.539C59.0028 129.384 61.2657 124.627 60.2024 119.628C59.7346 117.425 58.6945 115.527 57.3325 114.141Z" fill="#FF4A54"/>
<path d="M39.4121 88.1392C39.3947 88.5539 39.3666 89.1319 39.2642 89.825C39.2439 89.9651 39.2197 90.1091 39.1917 90.258C39.0718 90.9105 38.8833 91.6451 38.5808 92.4252C38.3217 93.094 37.9766 93.7968 37.5223 94.5101C36.5441 96.0413 34.6467 99.0126 32.0126 99.0609C28.8924 99.1189 26.415 95.0456 25.5402 92.1922C25.3063 91.4315 25.1545 90.6514 25.0733 89.8675C24.9912 89.0758 24.9805 88.2784 25.0298 87.4916C25.2241 84.4206 26.3415 81.5044 27.7132 79.6311C28.6546 78.3435 29.714 77.548 30.6797 77.5296C32.8333 77.4871 34.956 81.3023 35.6819 83.9625C36.1478 85.6637 36.1101 87.1455 36.0144 88.0909C36.4243 87.2799 37.9167 84.4235 38.778 84.6661C39.5484 84.8846 39.4401 87.4577 39.4121 88.1392Z" fill="#FF6B74"/>
<path d="M38.5806 92.4238C38.3215 93.0927 37.9765 93.7954 37.5222 94.5088C36.5439 96.0399 34.6465 99.0113 32.0125 99.0596C28.8922 99.1176 26.4148 95.0443 25.54 92.1909C25.3061 91.4301 25.1543 90.6501 25.0731 89.8662C24.991 89.0745 24.9804 88.2771 25.0297 87.4902C25.426 89.3345 26.2949 91.348 28.0938 92.9071C28.6438 93.3837 30.4726 94.9699 33.0081 94.9931C34.9925 95.0105 36.9644 94.069 38.5806 92.4238Z" fill="#FF4B55"/>
<path d="M123.525 133.008C123.525 152.331 108.301 168.096 89.1907 168.962C88.8852 168.974 88.5778 168.985 88.2705 168.991C88.0559 168.996 87.8413 168.998 87.6257 168.998C87.5958 168.999 87.5639 168.999 87.5339 168.999C87.3183 168.999 87.1037 168.997 86.8892 168.993C67.3085 168.649 51.543 152.67 51.543 133.008C51.543 126.688 53.1727 120.748 56.0349 115.586C57.5844 112.791 59.4954 110.224 61.7041 107.948C68.2432 101.207 77.399 97.0186 87.5339 97.0186C95.6341 97.0186 103.108 99.6941 109.121 104.21C110.632 105.344 112.05 106.595 113.363 107.948C119.653 114.427 123.525 123.267 123.525 133.008Z" fill="#FF6B74"/>
<path d="M123.524 133.007C123.524 152.885 107.412 168.998 87.5333 168.998C70.462 168.998 56.1677 157.114 52.4714 141.166C51.8634 138.545 51.5425 135.814 51.5425 133.007C51.5425 126.687 53.1722 120.747 56.0343 115.585C55.1711 120.2 55.1199 125.897 57.5258 131.812C62.5715 144.218 75.9243 151.415 88.1771 150.037C95.9245 149.165 103.316 144.855 107.599 138.9C113.696 130.424 114.161 117.69 109.121 104.21C110.632 105.344 112.05 106.595 113.362 107.948C119.571 114.343 123.423 123.039 123.521 132.633C123.523 132.757 123.524 132.883 123.524 133.007Z" fill="#FF4B55"/>
<path d="M123.523 133.008C123.523 152.885 107.41 168.999 87.5317 168.999C70.4603 168.999 56.1661 157.114 52.4697 141.167C53.2382 142.892 54.1748 144.699 55.3145 146.538C57.3821 149.872 61.3877 156.162 69.398 160.714C78.5025 165.888 87.1373 165.609 89.1885 165.501C90.4518 165.433 100.488 164.77 109.439 157.86C118.582 150.802 122.169 140.64 123.521 132.632C123.522 132.757 123.523 132.883 123.523 133.008Z" fill="#FF6B73"/>
<path d="M89.1917 115.795V168.961C88.8863 168.973 88.5789 168.984 88.2715 168.99C88.0569 168.995 87.8423 168.997 87.6268 168.997C87.5968 168.998 87.5649 168.998 87.5349 168.998C87.3194 168.998 87.1048 168.996 86.8902 168.992V115.795H89.1917Z" fill="white"/>
<path d="M88.2711 115.795V168.99C88.0565 168.995 87.8419 168.997 87.6263 168.997V115.795H88.2711Z" fill="#FF6B73"/>
<path d="M113.362 107.947C107.789 116.269 98.3002 121.748 87.5321 121.748C76.764 121.748 67.2748 116.269 61.7023 107.947C62.4949 107.129 63.3262 106.351 64.1923 105.612C70.4753 100.252 78.6257 97.0176 87.5321 97.0176C96.4075 97.0176 104.532 100.23 110.806 105.556C111.696 106.312 112.55 107.11 113.362 107.947Z" fill="#FF4B55"/>
<path d="M110.805 105.556C107.591 108.029 103.156 110.656 97.4711 112.205C94.5626 112.998 83.7762 115.565 72.0657 110.364C68.8439 108.933 66.2273 107.213 64.1897 105.611C70.4727 100.251 78.6232 97.0166 87.5295 97.0166C96.4059 97.0176 104.531 100.23 110.805 105.556Z" fill="#FF6B73"/>
<path d="M92.7822 128.682C93.8499 128.682 94.7154 127.816 94.7154 126.749C94.7154 125.681 93.8499 124.815 92.7822 124.815C91.7145 124.815 90.8489 125.681 90.8489 126.749C90.8489 127.816 91.7145 128.682 92.7822 128.682Z" fill="white"/>
<path d="M94.5725 133.38C94.9811 132.394 94.5127 131.263 93.5262 130.854C92.5398 130.446 91.4089 130.914 91.0003 131.9C90.5917 132.887 91.0601 134.018 92.0465 134.426C93.033 134.835 94.1639 134.367 94.5725 133.38Z" fill="white"/>
<path d="M93.876 132.818C93.9737 132.216 93.5647 131.648 92.9624 131.551C92.3601 131.453 91.7926 131.862 91.6948 132.464C91.5971 133.066 92.0061 133.634 92.6084 133.732C93.2107 133.829 93.7782 133.42 93.876 132.818Z" fill="#FF6B73"/>
<path d="M89.1053 10.4533C89.1053 9.20443 88.0933 8.19238 86.8444 8.19238C85.5955 8.19238 84.5835 9.20443 84.5835 10.4533C84.5835 11.5146 85.3152 12.4049 86.3012 12.6475L85.9493 40.3168H87.6602L87.3084 12.6659C88.334 12.4522 89.1053 11.5427 89.1053 10.4533Z" fill="black"/>
<path d="M87.4794 42.8067C80.8581 43.2369 75.2121 39.268 74.8661 33.941C74.6534 30.6632 76.4967 27.6348 79.4903 25.6909C81.3607 24.4749 83.6806 23.6833 86.2266 23.518C89.141 23.3295 91.8668 23.9926 94.034 25.2492C96.7917 26.846 98.6467 29.4027 98.84 32.3847C99.186 37.7108 94.0997 42.3766 87.4794 42.8067Z" fill="#FF6B74"/>
<path d="M87.4784 42.8066C80.8571 43.2367 75.2111 39.2678 74.8651 33.9408C74.8264 33.3502 74.8554 32.7673 74.9453 32.198C75.3551 29.6065 77.0361 27.2847 79.4893 25.6898C79.151 26.58 79.0863 27.4674 79.3424 28.2581C79.8045 29.6858 81.1635 30.3421 82.5641 31.0197C83.2611 31.357 87.8863 33.502 92.0447 31.1115C92.9852 30.5702 94.1036 29.9274 94.5298 28.7182C94.8836 27.7148 94.6971 26.5046 94.033 25.248C96.4737 26.6622 98.2078 28.8274 98.7075 31.3744C98.7733 31.705 98.8168 32.0404 98.839 32.3836C99.1851 37.7106 94.0987 42.3764 87.4784 42.8066Z" fill="#FF4B55"/>
<path d="M87.4784 42.8072C80.8571 43.2373 75.2111 39.2684 74.8651 33.9414C74.8264 33.3508 74.8554 32.7679 74.9453 32.1986C75.2865 32.4924 75.5997 32.708 75.8442 32.8617C76.3778 33.1961 77.038 33.5992 77.9611 33.6901C78.6909 33.7616 79.2399 33.605 79.6179 33.5064C79.962 33.4165 81.2283 33.2309 83.7598 32.8617C85.3557 32.6287 86.4992 32.678 88.6383 32.7698C90.2767 32.8394 92.3791 33.0299 94.8053 33.5064C95.1291 33.5441 95.6221 33.5615 96.1856 33.4146C97.4393 33.0888 98.1363 32.1918 98.3944 31.8496C98.5132 31.6921 98.6157 31.5335 98.7056 31.377C98.7713 31.7075 98.8148 32.0429 98.8371 32.3861C99.185 37.7112 94.0987 42.377 87.4784 42.8072Z" fill="#FF6B73"/>
<path d="M125.365 71.8891C125.365 93.1894 108.097 110.457 86.7967 110.457C65.4964 110.457 48.2288 93.1894 48.2288 71.8891C48.2288 69.2078 48.5024 66.5911 49.0234 64.0644C52.6395 46.5156 68.1778 33.3213 86.7967 33.3213C91.4741 33.3213 95.9582 34.1545 100.107 35.6808C114.85 41.1006 125.365 55.2663 125.365 71.8891Z" fill="#FF6B74"/>
<path d="M125.365 71.889C125.365 93.1893 108.097 110.457 86.7972 110.457C65.4969 110.457 48.2293 93.1893 48.2293 71.889C48.2293 69.2076 48.5029 66.591 49.0239 64.0643C49.2182 66.9767 49.8107 70.0747 50.9909 73.2703C55.9612 86.7304 67.6814 91.9675 70.3212 93.0607C83.6228 98.5666 100.655 95.7856 108.704 86.0654C118.175 74.6284 116.458 52.0841 100.107 35.6816C114.85 41.1005 125.365 55.2662 125.365 71.889Z" fill="#FF4B55"/>
<path d="M114.597 83.2022C114.533 84.5352 114.202 85.8275 113.645 87.0648C110.337 94.4217 99.0694 99.856 88.8021 100.477C87.7514 100.54 86.7123 100.554 85.6935 100.513C75.1158 100.097 62.2947 93.7538 59.5988 85.5114C59.2982 84.5922 59.1242 83.6497 59.0913 82.688C58.8477 75.2856 67.1248 67.7422 76.9775 64.4663C80.583 63.2677 84.3992 62.6414 88.0858 62.8009C100.758 63.3528 115.066 73.3408 114.597 83.2022Z" fill="#5B6470"/>
<path d="M114.597 83.2022C114.534 84.5352 114.202 85.8275 113.645 87.0648C110.337 94.4217 99.0697 99.856 88.8023 100.477C89.708 99.8859 90.5963 99.1446 91.4006 98.2147C95.2032 93.8214 94.5382 88.2247 94.1622 85.0523C93.1888 76.8564 88.057 71.6009 86.5221 70.1404C83.4811 67.2463 80.1115 65.5045 76.9787 64.4663C80.5842 63.2677 84.4003 62.6414 88.087 62.8009C100.758 63.3528 115.066 73.3408 114.597 83.2022Z" fill="#4E5864"/>
<mask id="mask0_753_23738" style="mask-type:alpha" maskUnits="userSpaceOnUse" x="61" y="70" width="19" height="20">
<path d="M70.3895 89.8834C75.4364 89.8834 79.5278 85.6492 79.5278 80.4261C79.5278 75.2029 75.4364 70.9688 70.3895 70.9688C65.3425 70.9688 61.2511 75.2029 61.2511 80.4261C61.2511 85.6492 65.3425 89.8834 70.3895 89.8834Z" fill="url(#paint0_radial_753_23738)"/>
</mask>
<g mask="url(#mask0_753_23738)">
<path d="M70.3895 89.8834C75.4364 89.8834 79.5278 85.6492 79.5278 80.4261C79.5278 75.2029 75.4364 70.9688 70.3895 70.9688C65.3425 70.9688 61.2511 75.2029 61.2511 80.4261C61.2511 85.6492 65.3425 89.8834 70.3895 89.8834Z" fill="url(#paint1_radial_753_23738)"/>
</g>
<mask id="mask1_753_23738" style="mask-type:alpha" maskUnits="userSpaceOnUse" x="93" y="70" width="20" height="20">
<path d="M102.973 89.8834C108.02 89.8834 112.111 85.6492 112.111 80.4261C112.111 75.2029 108.02 70.9688 102.973 70.9688C97.9256 70.9688 93.8342 75.2029 93.8342 80.4261C93.8342 85.6492 97.9256 89.8834 102.973 89.8834Z" fill="url(#paint2_radial_753_23738)"/>
</mask>
<g mask="url(#mask1_753_23738)">
<path d="M102.974 89.8834C108.021 89.8834 112.112 85.6492 112.112 80.4261C112.112 75.2029 108.021 70.9688 102.974 70.9688C97.9267 70.9688 93.8353 75.2029 93.8353 80.4261C93.8353 85.6492 97.9267 89.8834 102.974 89.8834Z" fill="url(#paint3_radial_753_23738)"/>
<path d="M102.975 85.6043C105.452 85.6043 107.46 83.286 107.46 80.4262C107.46 77.5664 105.452 75.248 102.975 75.248C100.498 75.248 98.4901 77.5664 98.4901 80.4262C98.4901 83.286 100.498 85.6043 102.975 85.6043Z" fill="#FF4B55"/>
<path d="M102.974 83.3944C104.702 83.3944 106.103 81.7767 106.103 79.7812C106.103 77.7857 104.702 76.168 102.974 76.168C101.246 76.168 99.8451 77.7857 99.8451 79.7812C99.8451 81.7767 101.246 83.3944 102.974 83.3944Z" fill="#FF6B73"/>
</g>
<path d="M114.596 83.2025C114.532 84.5354 114.201 85.8278 113.644 87.065C113.788 85.6722 113.982 83.4306 113.307 80.9097C111.633 74.6653 105.8 71.1469 103.826 69.956C99.9897 67.6419 96.4886 66.9711 93.3326 66.366C88.2656 65.3946 84.3721 65.6623 83.5756 65.7213C81.3167 65.8924 77.1254 66.2481 72.4383 68.4829C69.2224 70.0159 63.153 72.91 60.6563 79.5284C59.8559 81.6482 59.593 83.7012 59.5988 85.5107C59.2982 84.5915 59.1242 83.649 59.0913 82.6873C58.7578 72.5765 74.3232 62.2009 88.0858 62.8002C100.757 63.3531 115.065 73.3411 114.596 83.2025Z" fill="#404851"/>
<path d="M59.0899 82.6883C58.7565 72.5775 74.3218 62.2019 88.0845 62.8012C98.8516 63.27 110.801 70.5535 113.86 78.7822C113.801 77.342 113.506 75.8447 112.845 74.3735C111.544 71.4804 109.372 69.9107 106.125 67.5618C101.18 63.9853 96.436 62.5973 94.0668 62.0386C91.5246 61.4402 87.6678 60.8438 83.0213 61.302C81.8778 61.4151 76.7819 61.9767 70.871 64.892C68.1442 66.2366 65.3584 67.644 62.679 70.5989C60.9014 72.5592 58.6347 75.0579 58.4452 78.7909C58.364 80.3762 58.6782 81.7787 59.1015 82.9193C59.0977 82.8439 59.0928 82.7666 59.0899 82.6883Z" fill="#FF4B55"/>
<path d="M96.7792 7.21383C95.7517 4.06654 93.2685 1.57171 90.1279 0.528737C89.0946 0.186556 87.9898 0 86.8434 0C81.0824 0 76.3962 4.68711 76.3962 10.4472C76.3962 11.5936 76.5828 12.6984 76.925 13.7307C77.9679 16.8713 80.4628 19.3545 83.6101 20.382C84.6289 20.7136 85.7154 20.8933 86.8434 20.8933C92.6044 20.8933 97.2905 16.2062 97.2905 10.4462C97.2905 9.31912 97.1108 8.23264 96.7792 7.21383ZM86.8434 20.5792C85.8062 20.5792 84.8048 20.4226 83.8614 20.1316C80.6861 19.1515 78.1719 16.6489 77.1753 13.4804C76.8737 12.5225 76.7114 11.5027 76.7114 10.4472C76.7114 4.8611 81.2573 0.315116 86.8434 0.315116C87.8989 0.315116 88.9187 0.477507 89.8766 0.77909C93.0452 1.77567 95.5477 4.28983 96.5279 7.46515C96.8188 8.40857 96.9754 9.40998 96.9754 10.4472C96.9754 16.0342 92.4294 20.5792 86.8434 20.5792Z" fill="#FF6B73"/>
<path d="M95.7931 8.20063C94.9724 4.93347 92.4042 2.35165 89.1447 1.51166C88.4091 1.32221 87.6387 1.22168 86.8452 1.22168C81.7588 1.22168 77.6198 5.36072 77.6198 10.447C77.6198 11.2406 77.7203 12.011 77.9098 12.7466C78.7498 16.006 81.3306 18.5743 84.5988 19.395C85.3179 19.5757 86.0709 19.6714 86.8452 19.6714C91.9315 19.6714 96.0705 15.5324 96.0705 10.4461C96.0696 9.67278 95.9729 8.91979 95.7931 8.20063ZM86.8442 19.0422C86.2555 19.0422 85.6804 18.9832 85.1246 18.8691C81.7811 18.1867 79.1374 15.5585 78.4347 12.2227C78.3138 11.6495 78.25 11.056 78.25 10.448C78.25 5.70966 82.1059 1.85384 86.8442 1.85384C87.4522 1.85384 88.0457 1.91764 88.6189 2.03847C91.9547 2.74216 94.5839 5.38585 95.2653 8.7284C95.3784 9.2842 95.4384 9.85933 95.4384 10.448C95.4384 15.1863 91.5835 19.0422 86.8442 19.0422Z" fill="#FF6B73"/>
<path d="M93.701 10.2923C93.6207 6.65495 90.6938 3.70678 87.0642 3.59176C86.9907 3.58886 86.9173 3.58789 86.8438 3.58789C83.0615 3.58789 79.9838 6.66559 79.9838 10.4479C79.9838 10.5224 79.9847 10.5958 79.9876 10.6683C80.1027 14.298 83.0508 17.2249 86.6882 17.3051C86.7394 17.307 86.7916 17.307 86.8438 17.307C90.6262 17.307 93.7039 14.2293 93.7039 10.447C93.7039 10.3948 93.7029 10.3435 93.701 10.2923ZM88.0869 15.9064C87.6867 15.9973 87.2711 16.0456 86.8438 16.0456C83.7565 16.0456 81.2452 13.5343 81.2452 10.447C81.2452 10.0507 81.2868 9.66305 81.3651 9.28994C81.8203 7.12956 83.5264 5.42446 85.6868 4.96821C86.0599 4.88992 86.4465 4.84835 86.8438 4.84835C89.9312 4.84835 92.4424 7.35962 92.4424 10.447C92.4424 10.8733 92.3941 11.2899 92.3032 11.69C91.8277 13.7808 90.1777 15.4308 88.0869 15.9064Z" fill="#FF6B73"/>
<path d="M83.8635 20.1317L83.6122 20.3831C80.4649 19.3556 77.9701 16.8723 76.9271 13.7318L77.1775 13.4814C78.1741 16.649 80.6882 19.1516 83.8635 20.1317Z" fill="#FF4B55"/>
<path d="M85.1255 18.8691L84.5987 19.3959C81.3315 18.5752 78.7497 16.0069 77.9097 12.7475L78.4346 12.2227C79.1383 15.5584 81.782 18.1867 85.1255 18.8691Z" fill="#FF4B55"/>
<path d="M86.8453 16.0457C87.2716 16.0457 87.6882 15.9974 88.0884 15.9065L86.6907 17.3042C83.0533 17.224 80.1051 14.2971 79.9901 10.6675L81.3675 9.29004C81.2892 9.66315 81.2477 10.0498 81.2477 10.4471C81.2477 13.5344 83.7589 16.0457 86.8453 16.0457Z" fill="#FF4B55"/>
<path d="M93.7014 10.2923L92.3037 11.6901C92.3945 11.2899 92.4429 10.8742 92.4429 10.447C92.4429 7.35964 89.9316 4.84838 86.8442 4.84838C86.4479 4.84838 86.0603 4.88995 85.6872 4.96824L87.0646 3.59082C90.6942 3.70681 93.6212 6.65498 93.7014 10.2923Z" fill="#FF4B55"/>
<path d="M95.7942 8.20069L95.2674 8.72749C94.585 5.38398 91.9568 2.74029 88.621 2.03757L89.1458 1.5127C92.4053 2.35172 94.9726 4.93354 95.7942 8.20069Z" fill="#FF4B55"/>
<path d="M96.7809 7.21341L96.5296 7.46474C95.5495 4.28941 93.0469 1.77525 89.8784 0.778673L90.1287 0.52832C93.2702 1.5713 95.7534 4.06612 96.7809 7.21341Z" fill="#FF4B55"/>
<path d="M75.5442 15.4738L76.0889 13.5687L74.2873 12.9375L73.4879 14.9012C73.2925 14.8903 73.0957 14.891 72.899 14.9032C72.5156 14.9277 72.1405 14.9951 71.7762 15.1054L70.6752 13.2058L68.9703 14.065L69.897 16.156C69.7655 16.2731 69.6396 16.3977 69.5197 16.5292C69.3114 16.7586 69.1269 17.0044 68.9662 17.2659L66.8752 16.6681L66.244 18.4697L68.2622 19.2908C68.2268 19.5884 68.2186 19.8886 68.2376 20.1903C68.2567 20.4939 68.3037 20.7928 68.3772 21.0856L66.4347 22.237L67.311 23.9331L69.3373 23.0112C69.4973 23.2093 69.6729 23.3959 69.8636 23.5695C70.089 23.7738 70.33 23.9555 70.586 24.1142L69.9569 26.2413L71.7585 26.8725L72.613 24.8257C72.9146 24.8625 73.219 24.8713 73.5247 24.8523C73.8393 24.8325 74.1484 24.7828 74.45 24.7052L75.5544 26.611L77.2593 25.7517L76.366 23.7363C76.5567 23.5804 76.7364 23.4102 76.9032 23.2263C77.0626 23.0507 77.2083 22.8648 77.3404 22.67L79.3953 23.2781L80.0265 21.4765L78.1302 20.6846C78.1915 20.3155 78.2099 19.9417 78.186 19.5652C78.1649 19.2323 78.1111 18.9048 78.0247 18.5854L79.7997 17.5355L78.9105 15.8462L77.0442 16.6926C76.8951 16.5135 76.7337 16.3446 76.5601 16.186C76.2503 15.9055 75.9105 15.6672 75.5442 15.4738ZM76.637 21.0734C75.9766 22.9655 73.8978 23.9658 72.007 23.3005C70.1257 22.6387 69.1276 20.5641 69.7846 18.6814C70.4451 16.7893 72.5238 15.789 74.4146 16.4543C76.2966 17.1161 77.2948 19.1907 76.637 21.0734Z" fill="white"/>
<path d="M74.1556 21.902C75.2811 21.3606 75.7546 20.0094 75.2132 18.884C74.6718 17.7585 73.3206 17.285 72.1952 17.8264C71.0697 18.3678 70.5962 19.719 71.1376 20.8444C71.679 21.9699 73.0302 22.4434 74.1556 21.902Z" fill="white"/>
<defs>
<filter id="filter0_f_753_23738" x="54" y="165" width="67" height="31" filterUnits="userSpaceOnUse" color-interpolation-filters="sRGB">
<feFlood flood-opacity="0" result="BackgroundImageFix"/>
<feBlend mode="normal" in="SourceGraphic" in2="BackgroundImageFix" result="shape"/>
<feGaussianBlur stdDeviation="7" result="effect1_foregroundBlur_753_23738"/>
</filter>
<radialGradient id="paint0_radial_753_23738" cx="0" cy="0" r="1" gradientUnits="userSpaceOnUse" gradientTransform="translate(70.389 80.426) scale(9.87006 8.84707)">
<stop stop-color="white"/>
<stop offset="1"/>
</radialGradient>
<radialGradient id="paint1_radial_753_23738" cx="0" cy="0" r="1" gradientUnits="userSpaceOnUse" gradientTransform="translate(70.389 80.426) scale(9.87006 8.84707)">
<stop stop-color="#FF4B55"/>
<stop offset="1"/>
</radialGradient>
<radialGradient id="paint2_radial_753_23738" cx="0" cy="0" r="1" gradientUnits="userSpaceOnUse" gradientTransform="translate(102.972 80.426) scale(9.87006 8.84707)">
<stop stop-color="white"/>
<stop offset="1"/>
</radialGradient>
<radialGradient id="paint3_radial_753_23738" cx="0" cy="0" r="1" gradientUnits="userSpaceOnUse" gradientTransform="translate(102.973 80.426) scale(9.87006 8.84707)">
<stop stop-color="#FF4B55"/>
<stop offset="1"/>
</radialGradient>
<clipPath id="clip0_753_23738">
<rect width="48" height="48" fill="white" transform="translate(5 38.2119) rotate(-15)"/>
</clipPath>
<clipPath id="clip1_753_23738">
<rect width="36" height="36" fill="white" transform="translate(182 8) rotate(30)"/>
</clipPath>
</defs>
</svg>
