<svg width="25" height="24" viewBox="0 0 25 24" fill="none" xmlns="http://www.w3.org/2000/svg">
<path d="M3.28128 20.775L5.00003 19.725C5.07816 19.6875 5.19535 19.725 5.19535 19.8375L5.11722 20.4375C5.11722 20.55 5.19535 20.625 5.31253 20.5875L8.16409 19.7625C9.37503 19.425 10.1953 18.3375 10.1953 17.1375C10.1953 15.6375 8.90628 14.4 7.34378 14.4H7.30472C6.05472 14.4 4.96097 15.1875 4.60941 16.3125L3.08597 20.5875C3.00785 20.7375 3.16409 20.85 3.28128 20.775Z" fill="#D9DCE1"/>
<path d="M11.5625 9.225L8.94531 9.15C8.47656 9.15 8.04688 9.3 7.69531 9.5625L4.64844 12.1125L8.125 13.125M15.625 13.125L15.7031 15.6375C15.7031 16.0875 15.5469 16.5 15.2734 16.8375L12.6172 19.7625L11.6016 16.5" fill="#0478ED"/>
<path d="M11.6016 16.5C12.5781 16.1625 15.0391 15.225 17.1875 13.125C22.3047 8.25 21.9141 3.1875 21.9141 3.1875C21.9141 3.1875 16.6797 2.8125 11.5625 7.6875C8.78906 10.35 8.39844 12.15 8.04688 13.05L11.6016 16.5Z" fill="#56AAFF"/>
<path d="M16.2891 10.2C17.1952 10.2 17.9297 9.49485 17.9297 8.625C17.9297 7.75515 17.1952 7.05 16.2891 7.05C15.383 7.05 14.6484 7.75515 14.6484 8.625C14.6484 9.49485 15.383 10.2 16.2891 10.2Z" fill="white"/>
<path d="M8.94531 16.2L8.35938 15.6375L12.1875 11.4C12.5 11.1 13.0469 11.1 13.3594 11.4C13.6719 11.7 13.6719 12.225 13.3594 12.525L8.94531 16.2Z" fill="#0478ED"/>
</svg>
