<svg xmlns="http://www.w3.org/2000/svg" xmlns:xlink="http://www.w3.org/1999/xlink" width="443px" height="18px" viewBox="0 0 443 18" version="1.1">
    <title>Group</title>
    <g id="Page-1" stroke="none" stroke-width="1" fill="none" fill-rule="evenodd">
        <g id="sign-up---3-payment" transform="translate(-788.000000, -1345.000000)">
            <g id="Group" transform="translate(788.000000, 1345.000000)">
                <g id="This-is-a-secure-SSL" transform="translate(114.432009, 5.508000)" fill="#878787" fill-rule="nonzero">
                    <path d="M4.116,9.492 L2.954,9.492 L2.954,1.19 L0,1.19 L0,0.154 L7.084,0.154 L7.084,1.19 L4.116,1.19 L4.116,9.492 Z" id="Path"/>
                    <path d="M14.06,9.492 L13.01,9.492 L13.01,5.04 C13.01,4.47066667 12.8793333,4.07166667 12.618,3.843 C12.3566666,3.61433333 11.9786666,3.5 11.484,3.5 C11.1013333,3.5 10.7256666,3.60266667 10.357,3.808 C9.9883333,4.01333333 9.7013333,4.26066667 9.49599997,4.55 L9.49599997,9.492 L8.44599997,9.492 L8.44599997,0.154 L9.49599997,0.154 L9.49599997,3.71 C9.74799997,3.39266667 10.0933333,3.122 10.532,2.898 C10.9706666,2.674 11.428,2.562 11.904,2.562 C13.3413333,2.562 14.06,3.28066667 14.06,4.718 L14.06,9.492 Z" id="Path"/>
                    <path d="M17.0319999,1.568 C16.9013333,1.69866667 16.7379999,1.764 16.5419999,1.764 C16.3459999,1.764 16.1779999,1.69633333 16.0379999,1.561 C15.8979999,1.42566667 15.8279999,1.26 15.8279999,1.064 C15.8279999,0.868 15.8979999,0.7 16.0379999,0.56 C16.1779999,0.42 16.3459999,0.35 16.5419999,0.35 C16.7379999,0.35 16.9036666,0.42 17.0389999,0.56 C17.1743333,0.7 17.2419999,0.868 17.2419999,1.064 C17.2419999,1.26 17.1719999,1.428 17.0319999,1.568 Z M17.0599999,9.492 L16.0099999,9.492 L16.0099999,2.73 L17.0599999,2.73 L17.0599999,9.492 Z" id="Shape"/>
                    <path d="M21.1659999,9.66 C20.0273332,9.66 19.1173332,9.30533333 18.4359999,8.596 L18.9679999,7.84 C19.2013332,8.11066667 19.5209999,8.33933333 19.9269999,8.526 C20.3329999,8.71266667 20.7553332,8.806 21.1939999,8.806 C21.6979999,8.806 22.0923332,8.69866667 22.3769999,8.484 C22.6616666,8.26933333 22.8039999,7.98933333 22.8039999,7.644 C22.8039999,7.34533333 22.6593332,7.10966667 22.3699999,6.937 C22.0806666,6.76433333 21.7306666,6.63366667 21.3199999,6.545 C20.9093332,6.45633333 20.5009999,6.35366667 20.0949999,6.237 C19.6889999,6.12033333 19.3413332,5.91966667 19.0519999,5.635 C18.7626666,5.35033333 18.6179999,4.97466667 18.6179999,4.508 C18.6179999,3.95733333 18.8419999,3.49533333 19.2899999,3.122 C19.7379999,2.74866667 20.3493332,2.562 21.1239999,2.562 C22.1599999,2.562 22.9953332,2.88866667 23.6299999,3.542 L23.1399999,4.27 C22.6639999,3.70066667 21.9919999,3.416 21.1239999,3.416 C20.6666666,3.416 20.3026666,3.51633333 20.0319999,3.717 C19.7613332,3.91766667 19.6259999,4.172 19.6259999,4.48 C19.6259999,4.704 19.7286666,4.89066667 19.9339999,5.04 C20.1393332,5.18933333 20.3983332,5.29666667 20.7109999,5.362 C21.0236666,5.42733333 21.3596666,5.51133333 21.7189999,5.614 C22.0783332,5.71666667 22.4143332,5.831 22.7269999,5.957 C23.0396666,6.083 23.2986666,6.28833333 23.5039999,6.573 C23.7093332,6.85766667 23.8119999,7.20533333 23.8119999,7.616 C23.8119999,8.21333333 23.5809999,8.70333333 23.1189999,9.086 C22.6569999,9.46866667 22.0059999,9.66 21.1659999,9.66 Z" id="Path"/>
                    <path d="M29.8679998,1.568 C29.7373332,1.69866667 29.5739998,1.764 29.3779998,1.764 C29.1819998,1.764 29.0139998,1.69633333 28.8739998,1.561 C28.7339998,1.42566667 28.6639998,1.26 28.6639998,1.064 C28.6639998,0.868 28.7339998,0.7 28.8739998,0.56 C29.0139998,0.42 29.1819998,0.35 29.3779998,0.35 C29.5739998,0.35 29.7396665,0.42 29.8749998,0.56 C30.0103332,0.7 30.0779998,0.868 30.0779998,1.064 C30.0779998,1.26 30.0079998,1.428 29.8679998,1.568 Z M29.8959998,9.492 L28.8459998,9.492 L28.8459998,2.73 L29.8959998,2.73 L29.8959998,9.492 Z" id="Shape"/>
                    <path d="M34.0019998,9.66 C32.8633332,9.66 31.9533332,9.30533333 31.2719998,8.596 L31.8039998,7.84 C32.0373332,8.11066667 32.3569998,8.33933333 32.7629998,8.526 C33.1689998,8.71266667 33.5913332,8.806 34.0299998,8.806 C34.5339998,8.806 34.9283332,8.69866667 35.2129998,8.484 C35.4976665,8.26933333 35.6399998,7.98933333 35.6399998,7.644 C35.6399998,7.34533333 35.4953332,7.10966667 35.2059998,6.937 C34.9166665,6.76433333 34.5666665,6.63366667 34.1559998,6.545 C33.7453332,6.45633333 33.3369998,6.35366667 32.9309998,6.237 C32.5249998,6.12033333 32.1773332,5.91966667 31.8879998,5.635 C31.5986665,5.35033333 31.4539998,4.97466667 31.4539998,4.508 C31.4539998,3.95733333 31.6779998,3.49533333 32.1259998,3.122 C32.5739998,2.74866667 33.1853332,2.562 33.9599998,2.562 C34.9959998,2.562 35.8313332,2.88866667 36.4659998,3.542 L35.9759998,4.27 C35.4999998,3.70066667 34.8279998,3.416 33.9599998,3.416 C33.5026665,3.416 33.1386665,3.51633333 32.8679998,3.717 C32.5973332,3.91766667 32.4619998,4.172 32.4619998,4.48 C32.4619998,4.704 32.5646665,4.89066667 32.7699998,5.04 C32.9753332,5.18933333 33.2343332,5.29666667 33.5469998,5.362 C33.8596665,5.42733333 34.1956665,5.51133333 34.5549998,5.614 C34.9143332,5.71666667 35.2503332,5.831 35.5629998,5.957 C35.8756665,6.083 36.1346665,6.28833333 36.3399998,6.573 C36.5453332,6.85766667 36.6479998,7.20533333 36.6479998,7.616 C36.6479998,8.21333333 36.4169998,8.70333333 35.9549998,9.086 C35.4929998,9.46866667 34.8419998,9.66 34.0019998,9.66 Z" id="Path"/>
                    <path d="M46.9599998,9.492 L45.9099998,9.492 L45.9099998,8.722 C45.3593331,9.34733333 44.6126664,9.66 43.6699998,9.66 C43.0539998,9.66 42.5079998,9.45933333 42.0319998,9.058 C41.5559998,8.65666667 41.3179998,8.11066667 41.3179998,7.42 C41.3179998,6.70133333 41.5513331,6.15066667 42.0179998,5.768 C42.4846664,5.38533333 43.0353331,5.194 43.6699998,5.194 C44.6219998,5.194 45.3686664,5.49733333 45.9099998,6.104 L45.9099998,4.886 C45.9099998,4.44733333 45.7513331,4.102 45.4339998,3.85 C45.1166664,3.598 44.7059998,3.472 44.2019998,3.472 C43.3899998,3.472 42.6993331,3.78466667 42.1299998,4.41 L41.6399998,3.682 C42.3586664,2.93533333 43.2593331,2.562 44.3419998,2.562 C45.1166664,2.562 45.7466664,2.74866667 46.2319998,3.122 C46.7173331,3.49533333 46.9599998,4.06933333 46.9599998,4.844 L46.9599998,9.492 Z M44.0619998,8.904 C44.8926664,8.904 45.5086664,8.624 45.9099998,8.064 L45.9099998,6.776 C45.4993331,6.22533333 44.8833331,5.95 44.0619998,5.95 C43.5673331,5.95 43.1636664,6.08766667 42.8509998,6.363 C42.5383331,6.63833333 42.3819998,6.99066667 42.3819998,7.42 C42.3819998,7.85866667 42.5383331,8.21566667 42.8509998,8.491 C43.1636664,8.76633333 43.5673331,8.904 44.0619998,8.904 Z" id="Shape"/>
                    <path d="M54.5559997,9.66 C53.417333,9.66 52.507333,9.30533333 51.8259997,8.596 L52.3579997,7.84 C52.591333,8.11066667 52.9109997,8.33933333 53.3169997,8.526 C53.7229997,8.71266667 54.145333,8.806 54.5839997,8.806 C55.0879997,8.806 55.482333,8.69866667 55.7669997,8.484 C56.0516664,8.26933333 56.1939997,7.98933333 56.1939997,7.644 C56.1939997,7.34533333 56.049333,7.10966667 55.7599997,6.937 C55.4706664,6.76433333 55.1206664,6.63366667 54.7099997,6.545 C54.299333,6.45633333 53.8909997,6.35366667 53.4849997,6.237 C53.0789997,6.12033333 52.731333,5.91966667 52.4419997,5.635 C52.1526664,5.35033333 52.0079997,4.97466667 52.0079997,4.508 C52.0079997,3.95733333 52.2319997,3.49533333 52.6799997,3.122 C53.1279997,2.74866667 53.739333,2.562 54.5139997,2.562 C55.5499997,2.562 56.385333,2.88866667 57.0199997,3.542 L56.5299997,4.27 C56.0539997,3.70066667 55.3819997,3.416 54.5139997,3.416 C54.0566664,3.416 53.6926664,3.51633333 53.4219997,3.717 C53.151333,3.91766667 53.0159997,4.172 53.0159997,4.48 C53.0159997,4.704 53.1186664,4.89066667 53.3239997,5.04 C53.529333,5.18933333 53.788333,5.29666667 54.1009997,5.362 C54.4136664,5.42733333 54.7496664,5.51133333 55.1089997,5.614 C55.468333,5.71666667 55.804333,5.831 56.1169997,5.957 C56.4296664,6.083 56.6886664,6.28833333 56.8939997,6.573 C57.099333,6.85766667 57.2019997,7.20533333 57.2019997,7.616 C57.2019997,8.21333333 56.9709997,8.70333333 56.5089997,9.086 C56.0469997,9.46866667 55.3959997,9.66 54.5559997,9.66 Z" id="Path"/>
                    <path d="M61.8259997,9.66 C60.8086663,9.66 59.9779997,9.331 59.3339997,8.673 C58.6899997,8.015 58.3679997,7.15866667 58.3679997,6.104 C58.3679997,5.11466667 58.685333,4.277 59.3199997,3.591 C59.9546663,2.905 60.7479997,2.562 61.6999997,2.562 C62.6986663,2.562 63.4896663,2.905 64.0729997,3.591 C64.656333,4.277 64.9479997,5.14266667 64.9479997,6.188 L64.9479997,6.454 L59.4879997,6.454 C59.5346663,7.11666667 59.7749997,7.672 60.2089997,8.12 C60.6429997,8.568 61.2099997,8.792 61.9099997,8.792 C62.7499997,8.792 63.4499997,8.50266667 64.0099997,7.924 L64.5139997,8.61 C63.795333,9.31 62.899333,9.66 61.8259997,9.66 Z M63.9119997,5.67 C63.9026663,5.10066667 63.7066663,4.585 63.3239997,4.123 C62.941333,3.661 62.395333,3.43 61.6859997,3.43 C61.0139997,3.43 60.484333,3.65866667 60.0969997,4.116 C59.7096663,4.57333333 59.5019997,5.09133333 59.4739997,5.67 L63.9119997,5.67 Z" id="Shape"/>
                    <path d="M69.4739996,9.66 C68.475333,9.66 67.663333,9.32166667 67.0379996,8.645 C66.4126663,7.96833333 66.0999996,7.12133333 66.0999996,6.104 C66.0999996,5.08666667 66.4126663,4.242 67.0379996,3.57 C67.663333,2.898 68.475333,2.562 69.4739996,2.562 C70.519333,2.562 71.345333,2.954 71.9519996,3.738 L71.2519996,4.368 C70.8319996,3.78933333 70.2579996,3.5 69.5299996,3.5 C68.8299996,3.5 68.265333,3.745 67.8359996,4.235 C67.4066663,4.725 67.1919996,5.348 67.1919996,6.104 C67.1919996,6.86933333 67.4066663,7.497 67.8359996,7.987 C68.265333,8.477 68.8299996,8.722 69.5299996,8.722 C70.239333,8.722 70.813333,8.428 71.2519996,7.84 L71.9519996,8.484 C71.345333,9.268 70.519333,9.66 69.4739996,9.66 Z" id="Path"/>
                    <path d="M78.8999996,9.492 L77.8499996,9.492 L77.8499996,8.54 C77.5699996,8.85733333 77.2176663,9.12333333 76.7929996,9.338 C76.3683329,9.55266667 75.9179996,9.66 75.4419996,9.66 C74.0046663,9.66 73.2859996,8.94133333 73.2859996,7.504 L73.2859996,2.73 L74.3359996,2.73 L74.3359996,7.182 C74.3359996,7.742 74.4666663,8.13866667 74.7279996,8.372 C74.9893329,8.60533333 75.3673329,8.722 75.8619996,8.722 C76.2539996,8.722 76.6319996,8.624 76.9959996,8.428 C77.3599996,8.232 77.6446663,7.98933333 77.8499996,7.7 L77.8499996,2.73 L78.8999996,2.73 L78.8999996,9.492 Z" id="Path"/>
                    <path d="M81.8999996,9.492 L80.8499996,9.492 L80.8499996,2.73 L81.8999996,2.73 L81.8999996,3.808 C82.5439996,2.98666667 83.2953329,2.576 84.1539996,2.576 L84.1539996,3.654 C83.9859996,3.63533333 83.8506662,3.626 83.7479996,3.626 C83.4213329,3.626 83.0713329,3.73566667 82.6979996,3.955 C82.3246662,4.17433333 82.0586662,4.424 81.8999996,4.704 L81.8999996,9.492 Z" id="Path"/>
                    <path d="M88.3859995,9.66 C87.3686662,9.66 86.5379995,9.331 85.8939995,8.673 C85.2499995,8.015 84.9279995,7.15866667 84.9279995,6.104 C84.9279995,5.11466667 85.2453329,4.277 85.8799995,3.591 C86.5146662,2.905 87.3079995,2.562 88.2599995,2.562 C89.2586662,2.562 90.0496662,2.905 90.6329995,3.591 C91.2163329,4.277 91.5079995,5.14266667 91.5079995,6.188 L91.5079995,6.454 L86.0479995,6.454 C86.0946662,7.11666667 86.3349995,7.672 86.7689995,8.12 C87.2029995,8.568 87.7699995,8.792 88.4699995,8.792 C89.3099995,8.792 90.0099995,8.50266667 90.5699995,7.924 L91.0739995,8.61 C90.3553329,9.31 89.4593329,9.66 88.3859995,9.66 Z M90.4719995,5.67 C90.4626662,5.10066667 90.2666662,4.585 89.8839995,4.123 C89.5013329,3.661 88.9553329,3.43 88.2459995,3.43 C87.5739995,3.43 87.0443329,3.65866667 86.6569995,4.116 C86.2696662,4.57333333 86.0619995,5.09133333 86.0339995,5.67 L90.4719995,5.67 Z" id="Shape"/>
                    <path d="M99.5939995,9.66 C98.0819995,9.66 96.8873328,9.16533333 96.0099995,8.176 L96.7099995,7.28 C97.4846662,8.176 98.4599995,8.624 99.6359995,8.624 C100.391999,8.624 100.947333,8.46066667 101.301999,8.134 C101.656666,7.80733333 101.833999,7.42933333 101.833999,7 C101.833999,6.56133333 101.644999,6.21133333 101.266999,5.95 C100.888999,5.68866667 100.426999,5.49033333 99.8809995,5.355 C99.3349995,5.21966667 98.7913328,5.07033333 98.2499995,4.907 C97.7086662,4.74366667 97.2489995,4.473 96.8709995,4.095 C96.4929995,3.717 96.3039995,3.22 96.3039995,2.604 C96.3039995,1.83866667 96.6073328,1.21333333 97.2139995,0.728 C97.8206662,0.242666667 98.5906662,0 99.5239995,0 C100.895999,0 101.997333,0.438666667 102.827999,1.316 L102.127999,2.17 C101.465333,1.42333333 100.564666,1.05 99.4259995,1.05 C98.8659995,1.05 98.4063328,1.18766667 98.0469995,1.463 C97.6876662,1.73833333 97.5079995,2.09533333 97.5079995,2.534 C97.5079995,2.86066667 97.6456662,3.13133333 97.9209995,3.346 C98.1963328,3.56066667 98.5369995,3.71933333 98.9429995,3.822 C99.3489995,3.92466667 99.7923328,4.053 100.272999,4.207 C100.753666,4.361 101.196999,4.52433333 101.602999,4.697 C102.008999,4.86966667 102.349666,5.14733333 102.624999,5.53 C102.900333,5.91266667 103.037999,6.37466667 103.037999,6.916 C103.037999,7.672 102.755666,8.31833333 102.190999,8.855 C101.626333,9.39166667 100.760666,9.66 99.5939995,9.66 Z" id="Path"/>
                    <path d="M107.647999,9.66 C106.135999,9.66 104.941333,9.16533333 104.063999,8.176 L104.763999,7.28 C105.538666,8.176 106.513999,8.624 107.689999,8.624 C108.445999,8.624 109.001333,8.46066667 109.355999,8.134 C109.710666,7.80733333 109.887999,7.42933333 109.887999,7 C109.887999,6.56133333 109.698999,6.21133333 109.320999,5.95 C108.942999,5.68866667 108.480999,5.49033333 107.934999,5.355 C107.388999,5.21966667 106.845333,5.07033333 106.303999,4.907 C105.762666,4.74366667 105.302999,4.473 104.924999,4.095 C104.546999,3.717 104.357999,3.22 104.357999,2.604 C104.357999,1.83866667 104.661333,1.21333333 105.267999,0.728 C105.874666,0.242666667 106.644666,0 107.577999,0 C108.949999,0 110.051333,0.438666667 110.881999,1.316 L110.181999,2.17 C109.519333,1.42333333 108.618666,1.05 107.479999,1.05 C106.919999,1.05 106.460333,1.18766667 106.100999,1.463 C105.741666,1.73833333 105.561999,2.09533333 105.561999,2.534 C105.561999,2.86066667 105.699666,3.13133333 105.974999,3.346 C106.250333,3.56066667 106.590999,3.71933333 106.996999,3.822 C107.402999,3.92466667 107.846333,4.053 108.326999,4.207 C108.807666,4.361 109.250999,4.52433333 109.656999,4.697 C110.062999,4.86966667 110.403666,5.14733333 110.678999,5.53 C110.954333,5.91266667 111.091999,6.37466667 111.091999,6.916 C111.091999,7.672 110.809666,8.31833333 110.244999,8.855 C109.680333,9.39166667 108.814666,9.66 107.647999,9.66 Z" id="Path"/>
                    <path d="M118.025999,9.492 L112.523999,9.492 L112.523999,0.154 L113.685999,0.154 L113.685999,8.456 L118.025999,8.456 L118.025999,9.492 Z" id="Path"/>
                    <path d="M125.929999,9.66 C124.912666,9.66 124.081999,9.331 123.437999,8.673 C122.793999,8.015 122.471999,7.15866667 122.471999,6.104 C122.471999,5.11466667 122.789333,4.277 123.423999,3.591 C124.058666,2.905 124.851999,2.562 125.803999,2.562 C126.802666,2.562 127.593666,2.905 128.176999,3.591 C128.760333,4.277 129.051999,5.14266667 129.051999,6.188 L129.051999,6.454 L123.591999,6.454 C123.638666,7.11666667 123.878999,7.672 124.312999,8.12 C124.746999,8.568 125.313999,8.792 126.013999,8.792 C126.853999,8.792 127.553999,8.50266667 128.113999,7.924 L128.617999,8.61 C127.899333,9.31 127.003333,9.66 125.929999,9.66 Z M128.015999,5.67 C128.006666,5.10066667 127.810666,4.585 127.427999,4.123 C127.045333,3.661 126.499333,3.43 125.789999,3.43 C125.117999,3.43 124.588333,3.65866667 124.200999,4.116 C123.813666,4.57333333 123.605999,5.09133333 123.577999,5.67 L128.015999,5.67 Z" id="Shape"/>
                    <path d="M136.209999,9.492 L135.173999,9.492 L135.173999,5.068 C135.173999,4.49866667 135.043333,4.095 134.781999,3.857 C134.520666,3.619 134.142666,3.5 133.647999,3.5 C133.255999,3.5 132.877999,3.60266667 132.513999,3.808 C132.149999,4.01333333 131.860666,4.26066667 131.645999,4.55 L131.645999,9.492 L130.595999,9.492 L130.595999,2.73 L131.645999,2.73 L131.645999,3.71 C131.907333,3.39266667 132.257333,3.122 132.695999,2.898 C133.134666,2.674 133.591999,2.562 134.067999,2.562 C135.495999,2.562 136.209999,3.29 136.209999,4.746 L136.209999,9.492 Z" id="Path"/>
                    <path d="M141.155999,9.66 C140.157333,9.66 139.345333,9.32166667 138.719999,8.645 C138.094666,7.96833333 137.781999,7.12133333 137.781999,6.104 C137.781999,5.08666667 138.094666,4.242 138.719999,3.57 C139.345333,2.898 140.157333,2.562 141.155999,2.562 C142.201333,2.562 143.027333,2.954 143.633999,3.738 L142.933999,4.368 C142.513999,3.78933333 141.939999,3.5 141.211999,3.5 C140.511999,3.5 139.947333,3.745 139.517999,4.235 C139.088666,4.725 138.873999,5.348 138.873999,6.104 C138.873999,6.86933333 139.088666,7.497 139.517999,7.987 C139.947333,8.477 140.511999,8.722 141.211999,8.722 C141.921333,8.722 142.495333,8.428 142.933999,7.84 L143.633999,8.484 C143.027333,9.268 142.201333,9.66 141.155999,9.66 Z" id="Path"/>
                    <path d="M146.017999,9.492 L144.967999,9.492 L144.967999,2.73 L146.017999,2.73 L146.017999,3.808 C146.661999,2.98666667 147.413333,2.576 148.271999,2.576 L148.271999,3.654 C148.103999,3.63533333 147.968666,3.626 147.865999,3.626 C147.539333,3.626 147.189333,3.73566667 146.815999,3.955 C146.442666,4.17433333 146.176666,4.424 146.017999,4.704 L146.017999,9.492 Z" id="Path"/>
                    <path d="M149.073999,12.138 L149.227999,11.186 C149.395999,11.2606667 149.587333,11.298 149.801999,11.298 C150.044666,11.298 150.245333,11.2466667 150.403999,11.144 C150.562666,11.0413333 150.697999,10.8546667 150.809999,10.584 L151.257999,9.562 L148.429999,2.73 L149.577999,2.73 L151.817999,8.274 L154.071999,2.73 L155.205999,2.73 L151.817999,10.864 C151.444666,11.76 150.781999,12.2173333 149.829999,12.236 C149.540666,12.236 149.288666,12.2033333 149.073999,12.138 Z" id="Path"/>
                    <path d="M159.479999,9.66 C158.555999,9.66 157.795333,9.26333333 157.197999,8.47 L157.197999,12.068 L156.147999,12.068 L156.147999,2.73 L157.197999,2.73 L157.197999,3.738 C157.449999,3.38333333 157.776666,3.09866667 158.177999,2.884 C158.579333,2.66933333 159.013333,2.562 159.479999,2.562 C160.375999,2.562 161.101666,2.88166667 161.656999,3.521 C162.212333,4.16033333 162.489999,5.02133333 162.489999,6.104 C162.489999,7.18666667 162.212333,8.05 161.656999,8.694 C161.101666,9.338 160.375999,9.66 159.479999,9.66 Z M159.213999,8.722 C159.876666,8.722 160.403999,8.477 160.795999,7.987 C161.187999,7.497 161.383999,6.86933333 161.383999,6.104 C161.383999,5.33866667 161.187999,4.71333333 160.795999,4.228 C160.403999,3.74266667 159.876666,3.5 159.213999,3.5 C158.812666,3.5 158.422999,3.605 158.044999,3.815 C157.666999,4.025 157.384666,4.27933333 157.197999,4.578 L157.197999,7.63 C157.384666,7.938 157.666999,8.197 158.044999,8.407 C158.422999,8.617 158.812666,8.722 159.213999,8.722 Z" id="Shape"/>
                    <path d="M165.727999,9.66 C164.719999,9.66 164.215999,9.13266667 164.215999,8.078 L164.215999,3.654 L163.095999,3.654 L163.095999,2.73 L164.215999,2.73 L164.215999,0.882 L165.279999,0.882 L165.279999,2.73 L166.651999,2.73 L166.651999,3.654 L165.279999,3.654 L165.279999,7.854 C165.279999,8.11533333 165.338333,8.32533333 165.454999,8.484 C165.571666,8.64266667 165.737333,8.722 165.951999,8.722 C166.250666,8.722 166.488666,8.624 166.665999,8.428 L166.973999,9.226 C166.665999,9.51533333 166.250666,9.66 165.727999,9.66 Z" id="Path"/>
                    <path d="M171.037999,9.66 C170.020666,9.66 169.189999,9.331 168.545999,8.673 C167.901999,8.015 167.579999,7.15866667 167.579999,6.104 C167.579999,5.11466667 167.897332,4.277 168.531999,3.591 C169.166666,2.905 169.959999,2.562 170.911999,2.562 C171.910666,2.562 172.701666,2.905 173.284999,3.591 C173.868332,4.277 174.159999,5.14266667 174.159999,6.188 L174.159999,6.454 L168.699999,6.454 C168.746666,7.11666667 168.986999,7.672 169.420999,8.12 C169.854999,8.568 170.421999,8.792 171.121999,8.792 C171.961999,8.792 172.661999,8.50266667 173.221999,7.924 L173.725999,8.61 C173.007332,9.31 172.111332,9.66 171.037999,9.66 Z M173.123999,5.67 C173.114666,5.10066667 172.918666,4.585 172.535999,4.123 C172.153332,3.661 171.607332,3.43 170.897999,3.43 C170.225999,3.43 169.696332,3.65866667 169.308999,4.116 C168.921666,4.57333333 168.713999,5.09133333 168.685999,5.67 L173.123999,5.67 Z" id="Shape"/>
                    <path d="M181.653999,9.492 L180.603999,9.492 L180.603999,8.484 C180.025332,9.268 179.264666,9.66 178.321999,9.66 C177.425999,9.66 176.700332,9.34033333 176.144999,8.701 C175.589666,8.06166667 175.311999,7.20066667 175.311999,6.118 C175.311999,5.04466667 175.591999,4.18366667 176.151999,3.535 C176.711999,2.88633333 177.435332,2.562 178.321999,2.562 C179.255332,2.562 180.015999,2.95866667 180.603999,3.752 L180.603999,0.154 L181.653999,0.154 L181.653999,9.492 Z M178.587999,8.722 C178.989332,8.722 179.378999,8.617 179.756999,8.407 C180.134999,8.197 180.417332,7.94266667 180.603999,7.644 L180.603999,4.592 C180.417332,4.284 180.134999,4.025 179.756999,3.815 C179.378999,3.605 178.989332,3.5 178.587999,3.5 C177.915999,3.5 177.383999,3.745 176.991999,4.235 C176.599999,4.725 176.403999,5.35266667 176.403999,6.118 C176.403999,6.88333333 176.599999,7.50866667 176.991999,7.994 C177.383999,8.47933333 177.915999,8.722 178.587999,8.722 Z" id="Shape"/>
                    <path d="M190.411999,9.66 C189.487999,9.66 188.727332,9.26333333 188.129999,8.47 L188.129999,12.068 L187.079999,12.068 L187.079999,2.73 L188.129999,2.73 L188.129999,3.738 C188.381999,3.38333333 188.708666,3.09866667 189.109999,2.884 C189.511332,2.66933333 189.945332,2.562 190.411999,2.562 C191.307999,2.562 192.033666,2.88166667 192.588999,3.521 C193.144332,4.16033333 193.421999,5.02133333 193.421999,6.104 C193.421999,7.18666667 193.144332,8.05 192.588999,8.694 C192.033666,9.338 191.307999,9.66 190.411999,9.66 Z M190.145999,8.722 C190.808666,8.722 191.335999,8.477 191.727999,7.987 C192.119999,7.497 192.315999,6.86933333 192.315999,6.104 C192.315999,5.33866667 192.119999,4.71333333 191.727999,4.228 C191.335999,3.74266667 190.808666,3.5 190.145999,3.5 C189.744666,3.5 189.354999,3.605 188.976999,3.815 C188.598999,4.025 188.316666,4.27933333 188.129999,4.578 L188.129999,7.63 C188.316666,7.938 188.598999,8.197 188.976999,8.407 C189.354999,8.617 189.744666,8.722 190.145999,8.722 Z" id="Shape"/>
                    <path d="M200.215999,9.492 L199.165999,9.492 L199.165999,8.722 C198.615332,9.34733333 197.868666,9.66 196.925999,9.66 C196.309999,9.66 195.763999,9.45933333 195.287999,9.058 C194.811999,8.65666667 194.573999,8.11066667 194.573999,7.42 C194.573999,6.70133333 194.807332,6.15066667 195.273999,5.768 C195.740666,5.38533333 196.291332,5.194 196.925999,5.194 C197.877999,5.194 198.624666,5.49733333 199.165999,6.104 L199.165999,4.886 C199.165999,4.44733333 199.007332,4.102 198.689999,3.85 C198.372666,3.598 197.961999,3.472 197.457999,3.472 C196.645999,3.472 195.955332,3.78466667 195.385999,4.41 L194.895999,3.682 C195.614666,2.93533333 196.515332,2.562 197.597999,2.562 C198.372666,2.562 199.002666,2.74866667 199.487999,3.122 C199.973332,3.49533333 200.215999,4.06933333 200.215999,4.844 L200.215999,9.492 Z M197.317999,8.904 C198.148666,8.904 198.764666,8.624 199.165999,8.064 L199.165999,6.776 C198.755332,6.22533333 198.139332,5.95 197.317999,5.95 C196.823332,5.95 196.419666,6.08766667 196.106999,6.363 C195.794332,6.63833333 195.637999,6.99066667 195.637999,7.42 C195.637999,7.85866667 195.794332,8.21566667 196.106999,8.491 C196.419666,8.76633333 196.823332,8.904 197.317999,8.904 Z" id="Shape"/>
                    <path d="M201.815999,12.138 L201.969999,11.186 C202.137999,11.2606667 202.329332,11.298 202.543999,11.298 C202.786666,11.298 202.987332,11.2466667 203.145999,11.144 C203.304666,11.0413333 203.439999,10.8546667 203.551999,10.584 L203.999999,9.562 L201.171999,2.73 L202.319999,2.73 L204.559999,8.274 L206.813999,2.73 L207.947999,2.73 L204.559999,10.864 C204.186666,11.76 203.523999,12.2173333 202.571999,12.236 C202.282666,12.236 202.030666,12.2033333 201.815999,12.138 Z" id="Path"/>
                    <path d="M218.101999,9.492 L217.051999,9.492 L217.051999,4.9 C217.051999,3.96666667 216.636666,3.5 215.805999,3.5 C215.469999,3.5 215.133999,3.60033333 214.797999,3.801 C214.461999,4.00166667 214.200666,4.24666667 214.013999,4.536 L214.013999,9.492 L212.963999,9.492 L212.963999,4.9 C212.963999,3.96666667 212.548666,3.5 211.717999,3.5 C211.391332,3.5 211.062332,3.60266667 210.730999,3.808 C210.399666,4.01333333 210.135999,4.26066667 209.939999,4.55 L209.939999,9.492 L208.889999,9.492 L208.889999,2.73 L209.939999,2.73 L209.939999,3.71 C210.117332,3.43933333 210.413666,3.18033333 210.828999,2.933 C211.244332,2.68566667 211.680666,2.562 212.137999,2.562 C212.623332,2.562 213.019999,2.67866667 213.327999,2.912 C213.635999,3.14533333 213.841332,3.44866667 213.943999,3.822 C214.149332,3.486 214.461999,3.192 214.881999,2.94 C215.301999,2.688 215.745332,2.562 216.211999,2.562 C217.471999,2.562 218.101999,3.24333333 218.101999,4.606 L218.101999,9.492 Z" id="Path"/>
                    <path d="M223.117999,9.66 C222.100666,9.66 221.269999,9.331 220.625999,8.673 C219.981999,8.015 219.659999,7.15866667 219.659999,6.104 C219.659999,5.11466667 219.977332,4.277 220.611999,3.591 C221.246666,2.905 222.039999,2.562 222.991999,2.562 C223.990666,2.562 224.781666,2.905 225.364999,3.591 C225.948332,4.277 226.239999,5.14266667 226.239999,6.188 L226.239999,6.454 L220.779999,6.454 C220.826666,7.11666667 221.066999,7.672 221.500999,8.12 C221.934999,8.568 222.501999,8.792 223.201999,8.792 C224.041999,8.792 224.741999,8.50266667 225.301999,7.924 L225.805999,8.61 C225.087332,9.31 224.191332,9.66 223.117999,9.66 Z M225.203999,5.67 C225.194666,5.10066667 224.998666,4.585 224.615999,4.123 C224.233332,3.661 223.687332,3.43 222.977999,3.43 C222.305999,3.43 221.776332,3.65866667 221.388999,4.116 C221.001666,4.57333333 220.793999,5.09133333 220.765999,5.67 L225.203999,5.67 Z" id="Shape"/>
                    <path d="M233.397999,9.492 L232.361999,9.492 L232.361999,5.068 C232.361999,4.49866667 232.231332,4.095 231.969999,3.857 C231.708666,3.619 231.330666,3.5 230.835999,3.5 C230.443999,3.5 230.065999,3.60266667 229.701999,3.808 C229.337999,4.01333333 229.048666,4.26066667 228.833999,4.55 L228.833999,9.492 L227.783999,9.492 L227.783999,2.73 L228.833999,2.73 L228.833999,3.71 C229.095332,3.39266667 229.445332,3.122 229.883999,2.898 C230.322666,2.674 230.779999,2.562 231.255999,2.562 C232.683999,2.562 233.397999,3.29 233.397999,4.746 L233.397999,9.492 Z" id="Path"/>
                    <path d="M237.083999,9.66 C236.075999,9.66 235.571999,9.13266667 235.571999,8.078 L235.571999,3.654 L234.451999,3.654 L234.451999,2.73 L235.571999,2.73 L235.571999,0.882 L236.635999,0.882 L236.635999,2.73 L238.007999,2.73 L238.007999,3.654 L236.635999,3.654 L236.635999,7.854 C236.635999,8.11533333 236.694332,8.32533333 236.810999,8.484 C236.927666,8.64266667 237.093332,8.722 237.307999,8.722 C237.606666,8.722 237.844666,8.624 238.021999,8.428 L238.329999,9.226 C238.021999,9.51533333 237.606666,9.66 237.083999,9.66 Z" id="Path"/>
                    <path d="M240.433999,9.408 C240.284666,9.55733333 240.102666,9.632 239.887999,9.632 C239.673332,9.632 239.491332,9.55733333 239.341999,9.408 C239.192666,9.25866667 239.117999,9.07666667 239.117999,8.862 C239.117999,8.64733333 239.192666,8.46533333 239.341999,8.316 C239.491332,8.16666667 239.673332,8.092 239.887999,8.092 C240.102666,8.092 240.284666,8.16666667 240.433999,8.316 C240.583332,8.46533333 240.657999,8.64733333 240.657999,8.862 C240.657999,9.07666667 240.583332,9.25866667 240.433999,9.408 Z" id="Path"/>
                </g>
                <g id="511942_lock_login_protection_secure_icon" transform="translate(86.000000, 0.000000)" fill="#949494" fill-rule="nonzero">
                    <path d="M12.4444444,6.95454545 L12.4444444,5.40909091 C12.4444444,2.42172727 10.0068889,0 7,0 C3.99311111,0 1.55555556,2.42172727 1.55555556,5.40909091 L1.55555556,6.95454545 L0,6.95454545 L0,17 L14,17 L14,6.95454545 L12.4444444,6.95454545 Z M3.11111111,5.40909091 C3.11111111,3.27868182 4.85566667,1.54545455 7,1.54545455 C9.14433333,1.54545455 10.8888889,3.27868182 10.8888889,5.40909091 L10.8888889,6.95454545 L3.11111111,6.95454545 L3.11111111,5.40909091 Z M12.4444444,15.4545455 L1.55555556,15.4545455 L1.55555556,8.5 L12.4444444,8.5 L12.4444444,15.4545455 Z" id="Shape"/>
                    <path d="M6.22222222,12.0630455 L6.22222222,13.9090909 L7.77777778,13.9090909 L7.77777778,12.0630455 C8.015,11.8505455 8.16666667,11.5468636 8.16666667,11.2045455 C8.16666667,10.5647273 7.644,10.0454545 7,10.0454545 C6.356,10.0454545 5.83333333,10.5647273 5.83333333,11.2045455 C5.83333333,11.5468636 5.985,11.8505455 6.22222222,12.0630455 Z" id="Path"/>
                </g>
                <line x1="0.5" y1="8.5" x2="63.5" y2="8.5" id="Line-9" stroke="#D9D9D9" stroke-linecap="square"/>
                <line x1="379.5" y1="8.5" x2="442.5" y2="8.5" id="Line-9" stroke="#D9D9D9" stroke-linecap="square"/>
            </g>
        </g>
    </g>
</svg>