<svg xmlns="http://www.w3.org/2000/svg" width="20" height="21">
    <g fill="none" fill-rule="evenodd">
        <g fill="#B7C0C4" fill-rule="nonzero">
            <path d="M18.504 15.25a9.624 9.624 0 0 0 .832-3.917A9.62 9.62 0 0 0 17.56 5.75a9.696 9.696 0 0 0-4.541-3.484l-.594 1.607a7.982 7.982 0 0 1 3.738 2.868 7.908 7.908 0 0 1 1.46 4.594 7.93 7.93 0 0 1-.581 2.986l-1.585-1.007.433 4.336L20 16.203l-1.496-.952zM9.668 19.287a7.917 7.917 0 0 1-6.1-2.853l1.543-.872-4.03-1.658-.657 4.308 1.632-.923A9.63 9.63 0 0 0 9.668 21a9.63 9.63 0 0 0 5.708-1.866l-1.012-1.381a7.916 7.916 0 0 1-4.696 1.534zM1.713 11.333c0-2.199.89-4.182 2.33-5.624A7.938 7.938 0 0 1 8.08 3.54l.015 1.844L11.5 2.665 8.053 0l.014 1.801A9.649 9.649 0 0 0 2.83 4.498a9.639 9.639 0 0 0-2.728 8.226l1.696-.245a7.95 7.95 0 0 1-.086-1.146z"/>
        </g>
        <path d="m12.776 8.305-.889.496c-.339-.28-.732-.5-1.161-.647v-.99A4.783 4.783 0 0 0 9.5 7c-.425 0-.835.06-1.226.163v.99c-.43.148-.822.368-1.161.648l-.89-.496A4.466 4.466 0 0 0 5 10.357l.887.495c-.04.21-.064.427-.064.648 0 .221.024.438.064.648L5 12.643a4.465 4.465 0 0 0 1.224 2.052l.889-.496c.339.28.732.5 1.161.647v.99c.391.104.801.164 1.226.164.425 0 .835-.06 1.226-.163v-.99c.43-.148.822-.368 1.161-.648l.89.496A4.466 4.466 0 0 0 14 12.643l-.887-.495c.04-.21.064-.427.064-.648 0-.221-.024-.438-.064-.648l.887-.495a4.466 4.466 0 0 0-1.224-2.052zM9.5 13.158c-.948 0-1.716-.742-1.716-1.658 0-.916.768-1.658 1.716-1.658s1.716.742 1.716 1.658c0 .916-.768 1.658-1.716 1.658z" fill="#188BFF"/>
    </g>
</svg>