<svg xmlns="http://www.w3.org/2000/svg" width="60" height="69" viewBox="0 0 60 69" fill="none">
<mask id="mask0_1027_255" style="mask-type:alpha" maskUnits="userSpaceOnUse" x="0" y="0" width="60" height="69">
<path fill-rule="evenodd" clip-rule="evenodd" d="M29.8884 0C29.8884 0 18.3748 6.93245 5.68342 8.67294C2.41487 9.11543 -0.0291831 11.8884 0.000263263 15.1924C0.117754 24.3078 1.88483 41.8012 12.8978 55.5779C9.45256 44.1612 8.77529 32.6858 8.89278 24.6323C8.95197 20.1189 12.3089 16.2842 16.8142 15.7234C21.025 15.1924 25.707 14.1894 29.8884 13.1569C32.8036 12.4194 35.4832 11.6819 37.5739 11.0919C40.3124 10.2954 42.0792 9.73493 42.0792 9.73493C42.0792 9.82343 42.0497 9.91222 42.0497 10.0004C41.2547 16.6969 36.9261 22.2723 31.0368 24.8978C29.0636 25.7828 26.9143 26.3138 24.6469 26.4318H24.5288H24.4113C23.7282 26.4604 23.0721 26.6268 22.497 26.9044C22.4973 26.9041 22.4973 26.9041 22.4973 26.9041C22.4679 26.9041 22.4381 26.9333 22.409 26.9333H22.3795C20.5536 27.8183 19.3171 29.7063 19.3466 31.8598C19.376 34.1903 19.4054 36.5797 19.3171 37.4647C24.2935 37.9957 29.1228 37.4942 32.7741 36.8157C36.7196 36.108 39.3112 35.1929 39.3112 35.1929C39.3112 35.2817 39.2818 35.3407 39.2818 35.4289C38.5162 42.0664 33.363 47.8489 25.9131 48.6746C25.8248 48.6746 25.7364 48.7038 25.6481 48.7038C25.4714 48.7336 25.2944 48.7336 25.0883 48.7336H24.8825C23.6457 48.7926 22.3206 48.7038 20.9661 48.4976C21.8786 54.7221 23.2335 60.1796 25.442 64.3977C26.1189 65.696 27.8566 68.0563 29.8292 69C56.2429 56.3446 59.5998 27.7298 59.7176 15.1629C59.8354 11.8884 57.3616 9.11543 54.1228 8.67294C41.4314 6.93245 29.8884 0 29.8884 0Z" fill="white"/>
</mask>
<g mask="url(#mask0_1027_255)">
<path fill-rule="evenodd" clip-rule="evenodd" d="M29.8884 0C29.8884 0 18.3748 6.93245 5.68342 8.67294C2.41487 9.11543 -0.0291831 11.8884 0.000263263 15.1924C0.117754 24.3078 1.88483 41.8012 12.8978 55.5779C9.45256 44.1612 8.77529 32.6858 8.89278 24.6323C8.95197 20.1189 12.3089 16.2842 16.8142 15.7234C21.025 15.1924 25.707 14.1894 29.8884 13.1569C32.8036 12.4194 35.4832 11.6819 37.5739 11.0919C40.3124 10.2954 42.0792 9.73493 42.0792 9.73493C42.0792 9.82343 42.0497 9.91222 42.0497 10.0004C41.2547 16.6969 36.9261 22.2723 31.0368 24.8978C29.0636 25.7828 26.9143 26.3138 24.6469 26.4318H24.5288H24.4113C23.7282 26.4604 23.0721 26.6268 22.497 26.9044C22.4973 26.9041 22.4973 26.9041 22.4973 26.9041C22.4679 26.9041 22.4381 26.9333 22.409 26.9333H22.3795C20.5536 27.8183 19.3171 29.7063 19.3466 31.8598C19.376 34.1903 19.4054 36.5797 19.3171 37.4647C24.2935 37.9957 29.1228 37.4942 32.7741 36.8157C36.7196 36.108 39.3112 35.1929 39.3112 35.1929C39.3112 35.2817 39.2818 35.3407 39.2818 35.4289C38.5162 42.0664 33.363 47.8489 25.9131 48.6746C25.8248 48.6746 25.7364 48.7038 25.6481 48.7038C25.4714 48.7336 25.2944 48.7336 25.0883 48.7336H24.8825C23.6457 48.7926 22.3206 48.7038 20.9661 48.4976C21.8786 54.7221 23.2335 60.1796 25.442 64.3977C26.1189 65.696 27.8566 68.0563 29.8292 69C56.2429 56.3446 59.5998 27.7298 59.7176 15.1629C59.8354 11.8884 57.3616 9.11543 54.1228 8.67294C41.4314 6.93245 29.8884 0 29.8884 0Z" fill="url(#paint0_linear_1027_255)"/>
</g>
<mask id="mask1_1027_255" style="mask-type:alpha" maskUnits="userSpaceOnUse" x="22" y="9" width="21" height="18">
<path fill-rule="evenodd" clip-rule="evenodd" d="M29.9181 13.1865C29.9181 13.1865 31.6004 22.5748 22.6979 26.839C23.2379 26.6007 23.8425 26.4582 24.4709 26.4319C24.5589 26.4024 24.6178 26.4024 24.7061 26.4024C33.7756 25.8422 41.1372 18.762 42.109 9.70557C42.109 9.70557 36.6614 11.4756 29.9181 13.1865ZM22.4983 26.9332C22.5657 26.9019 22.6323 26.8707 22.6985 26.8388C22.6308 26.8686 22.564 26.9002 22.4983 26.9332Z" fill="white"/>
</mask>
<g mask="url(#mask1_1027_255)">
<path fill-rule="evenodd" clip-rule="evenodd" d="M29.9181 13.1865C29.9181 13.1865 31.6004 22.5748 22.6979 26.839C23.2379 26.6007 23.8425 26.4582 24.4709 26.4319C24.5589 26.4024 24.6178 26.4024 24.7061 26.4024C33.7756 25.8422 41.1372 18.762 42.109 9.70557C42.109 9.70557 36.6614 11.4756 29.9181 13.1865ZM22.4983 26.9332C22.5657 26.9019 22.6323 26.8707 22.6985 26.8388C22.6308 26.8686 22.564 26.9002 22.4983 26.9332Z" fill="url(#paint1_linear_1027_255)"/>
</g>
<mask id="mask2_1027_255" style="mask-type:alpha" maskUnits="userSpaceOnUse" x="20" y="35" width="20" height="14">
<path fill-rule="evenodd" clip-rule="evenodd" d="M32.8326 36.8154C32.8326 36.8154 32.8032 36.8154 32.7738 36.8449C32.0376 37.1694 20.2885 40.8864 21.0246 48.5268C31.1836 50.2676 38.5747 43.3054 39.3695 35.1926C39.3695 35.1926 36.749 36.0779 32.8326 36.8154Z" fill="white"/>
</mask>
<g mask="url(#mask2_1027_255)">
<path fill-rule="evenodd" clip-rule="evenodd" d="M32.8326 36.8154C32.8326 36.8154 32.8032 36.8154 32.7738 36.8449C32.0376 37.1694 20.2885 40.8864 21.0246 48.5268C31.1836 50.2676 38.5747 43.3054 39.3695 35.1926C39.3695 35.1926 36.749 36.0779 32.8326 36.8154Z" fill="url(#paint2_linear_1027_255)"/>
</g>
<defs>
<linearGradient id="paint0_linear_1027_255" x1="72.1709" y1="24.2199" x2="21.5815" y2="-13.7475" gradientUnits="userSpaceOnUse">
<stop stop-color="#17A5FF"/>
<stop offset="1" stop-color="#1760FF"/>
</linearGradient>
<linearGradient id="paint1_linear_1027_255" x1="40.1934" y1="1.71057" x2="13.5787" y2="13.566" gradientUnits="userSpaceOnUse">
<stop stop-color="#E9EDF0"/>
<stop offset="1" stop-color="#90D1F2"/>
</linearGradient>
<linearGradient id="paint2_linear_1027_255" x1="34.8787" y1="24.0224" x2="12.9768" y2="45.8469" gradientUnits="userSpaceOnUse">
<stop stop-color="#E9EDF0"/>
<stop offset="1" stop-color="#90D1F2"/>
</linearGradient>
</defs>
</svg>