<svg xmlns="http://www.w3.org/2000/svg" width="26" height="33" viewBox="0 0 26 33" fill="none">
<path d="M16.1138 0C16.1405 4.78137 12.5087 8.68144 8 8.7096C12.5084 8.68142 16.1838 12.5355 16.2104 17.3168C16.1839 12.5355 19.8164 8.6354 24.3235 8.60688C19.8164 8.63533 16.1404 4.78137 16.1138 0Z" fill="#279CF8"/>
<path d="M5.40924 8.6582C5.42702 12.6427 3.00582 15.8927 0 15.9162C3.0056 15.8927 5.45586 19.1044 5.47356 23.089C5.45595 19.1044 7.87763 15.8544 10.8824 15.8306C7.87763 15.8543 5.42694 12.6427 5.40924 8.6582Z" fill="#279CF8"/>
<path d="M16.2911 20.1996C16.3089 23.3871 13.8877 25.9873 10.8818 26.006C13.8874 25.9873 16.3377 28.5566 16.3554 31.7442C16.3378 28.5566 18.7595 25.9565 21.7642 25.9375C18.7595 25.9565 16.3088 23.3871 16.2911 20.1996Z" fill="#279CF8"/>
</svg>