<svg xmlns="http://www.w3.org/2000/svg" width="107" height="18" viewBox="0 0 107 18" fill="none">
<path d="M49.4056 11.2446L44.7429 6.75988L51.1742 5.82483L54.0147 0.104004L56.873 5.81465L63.3073 6.72934L58.658 11.2286L59.7626 17.537L54.0385 14.5704L48.3248 17.5544L49.4056 11.2446Z" fill="#EDC606"/>
<path d="M4.66416 11.2446L0 6.75988L6.43128 5.82338L9.27027 0.104004L12.1301 5.81465L18.5644 6.72789L13.9136 11.2286L15.0197 17.5355L9.29558 14.5689L3.58186 17.5544L4.66416 11.2446Z" fill="#EDC606"/>
<path d="M26.2738 11.5918L21.6111 7.10705L28.0424 6.17054L30.8828 0.451172L33.7412 6.15891L40.1754 7.0736L35.5247 11.5758L36.6308 17.8812L30.9067 14.9176L25.1944 17.9016L26.2738 11.5918Z" fill="#EDC606"/>
<path d="M93.0982 11.5918L88.4355 7.10705L94.8668 6.17054L97.7058 0.451172L100.563 6.15891L107 7.0736L102.348 11.5758L103.455 17.8812L97.7311 14.9161L92.0174 17.9016L93.0982 11.5918Z" fill="#EDC606"/>
<path d="M71.2525 11.2432L66.5891 6.75843L73.0214 5.82338L75.8594 0.104004L78.7182 5.8132L85.1535 6.72789L80.5034 11.2286L81.6097 17.5355L75.8832 14.5689L70.1715 17.5544L71.2525 11.2432Z" fill="#EDC606"/>
</svg>