<svg xmlns="http://www.w3.org/2000/svg" width="193" height="32" viewBox="0 0 193 32" fill="none">
<path d="M88.8307 20.0307L80.4473 11.9672L92.0106 10.286L97.1178 0L102.257 10.2677L113.826 11.9123L105.466 20.002L107.453 31.3443L97.1606 26.0104L86.8874 31.3756L88.8307 20.0307Z" fill="#EDC606"/>
<path d="M8.38611 20.0307L0 11.9672L11.5634 10.2834L16.6678 0L21.8098 10.2677L33.3785 11.9097L25.0165 20.002L27.0053 31.3417L16.7133 26.0078L6.44015 31.3756L8.38611 20.0307Z" fill="#EDC606"/>
<path d="M47.2399 20.655L38.8564 12.5915L50.4198 10.9076L55.527 0.624268L60.6662 10.8867L72.2349 12.5313L63.8729 20.6262L65.8617 31.9633L55.5698 26.6347L45.2993 31.9999L47.2399 20.655Z" fill="#EDC606"/>
<path d="M167.389 20.655L159.006 12.5915L170.569 10.9076L175.674 0.624268L180.81 10.8867L192.384 12.5313L184.02 20.6262L186.011 31.9633L175.719 26.6321L165.446 31.9999L167.389 20.655Z" fill="#EDC606"/>
<path d="M128.111 20.0281L119.727 11.9646L131.292 10.2834L136.394 0L141.534 10.2651L153.105 11.9097L144.744 20.002L146.733 31.3417L136.437 26.0078L126.168 31.3756L128.111 20.0281Z" fill="#EDC606"/>
</svg>