<svg xmlns="http://www.w3.org/2000/svg" version="1.2" viewBox="0 0 23 23" width="23" height="23">
	<title>check-svg</title>
	<style>
		.s0 { fill: #18a1ff } 
		.s1 { opacity: .5;fill: #18a1ff } 
		.s2 { fill: #ffffff } 
	</style>
	<g id="Layer" style="opacity: .5">
		<path id="Layer" class="s0" d="m11.3 22.6c-6.2 0-11.2-5-11.2-11.2 0-6.3 5-11.3 11.2-11.3 6.2 0 11.2 5 11.2 11.3 0 6.2-5 11.2-11.2 11.2z"/>
		<path id="Layer" fill-rule="evenodd" class="s0" d="m11.3 0c6.3 0 11.3 5.1 11.3 11.4 0 6.2-5 11.3-11.3 11.3-6.2 0-11.3-5.1-11.3-11.3 0-6.3 5.1-11.4 11.3-11.4zm0 22.4c6.1 0 11.1-4.9 11.1-11 0-6.2-5-11.1-11.1-11.1-6.1 0-11 4.9-11 11.1 0 6.1 4.9 11 11 11z"/>
	</g>
	<path id="Layer" fill-rule="evenodd" class="s1" d="m11.3 0.9c5.8 0 10.5 4.7 10.5 10.5 0 5.7-4.7 10.4-10.5 10.4-5.7 0-10.4-4.7-10.4-10.5 0-5.7 4.7-10.4 10.4-10.4zm0 19.6c5 0 9.1-4.1 9.1-9.1 0-5.1-4.1-9.2-9.1-9.2-5 0-9.1 4.1-9.1 9.2 0 5 4.1 9.1 9.1 9.1z"/>
	<path id="Layer" class="s2" d="m9.9 15.4l-3.3-3.3 0.9-0.9 2.4 2.4 5.2-5.3 0.9 0.9z"/>
</svg>