<svg xmlns="http://www.w3.org/2000/svg" width="601" height="74" viewBox="0 0 601 74" fill="none">
<path d="M599.202 0.299988L597.202 48.2H582.702L580.702 0.299988H599.202ZM590.202 73.8C587.202 73.8 584.736 72.9333 582.802 71.2C580.936 69.4 580.002 67.2 580.002 64.6C580.002 61.9333 580.936 59.7 582.802 57.9C584.736 56.1 587.202 55.2 590.202 55.2C593.136 55.2 595.536 56.1 597.402 57.9C599.336 59.7 600.302 61.9333 600.302 64.6C600.302 67.2 599.336 69.4 597.402 71.2C595.536 72.9333 593.136 73.8 590.202 73.8Z" fill="url(#paint0_linear_5489_2)"/>
<path d="M548.73 25C547.464 22.6667 545.63 20.9 543.23 19.7C540.897 18.4333 538.13 17.8 534.93 17.8C529.397 17.8 524.964 19.6333 521.63 23.3C518.297 26.9 516.63 31.7333 516.63 37.8C516.63 44.2667 518.364 49.3333 521.831 53C525.364 56.6 530.197 58.4 536.331 58.4C540.531 58.4 544.064 57.3333 546.93 55.2C549.864 53.0667 551.997 50 553.331 46H531.63V33.4H568.831V49.3C567.564 53.5667 565.397 57.5333 562.331 61.2C559.331 64.8667 555.497 67.8333 550.831 70.1C546.164 72.3667 540.897 73.5 535.03 73.5C528.097 73.5 521.897 72 516.43 69C511.03 65.9333 506.797 61.7 503.73 56.3C500.73 50.9 499.23 44.7333 499.23 37.8C499.23 30.8667 500.73 24.7 503.73 19.3C506.797 13.8333 511.03 9.6 516.43 6.6C521.83 3.53334 527.997 2 534.93 2C543.33 2 550.397 4.03333 556.13 8.1C561.93 12.1667 565.764 17.8 567.63 25H548.73Z" fill="url(#paint1_linear_5489_2)"/>
<path d="M491.335 73H474.235L445.635 29.7V73H428.535V2.79999H445.635L474.235 46.3V2.79999H491.335V73Z" fill="url(#paint2_linear_5489_2)"/>
<path d="M417.743 2.79999V73H400.643V2.79999H417.743Z" fill="url(#paint3_linear_5489_2)"/>
<path d="M371.687 59.8H394.087V73H354.587V2.79999H371.687V59.8Z" fill="url(#paint4_linear_5489_2)"/>
<path d="M341.179 30.8V45H297.179V30.8H341.179Z" fill="url(#paint5_linear_5489_2)"/>
<path d="M254.366 73.7C247.766 73.7 241.699 72.1667 236.166 69.1C230.699 66.0333 226.332 61.7667 223.066 56.3C219.866 50.7667 218.266 44.5667 218.266 37.7C218.266 30.8333 219.866 24.6667 223.066 19.2C226.332 13.7333 230.699 9.46665 236.166 6.39999C241.699 3.33332 247.766 1.79999 254.366 1.79999C260.966 1.79999 266.999 3.33332 272.466 6.39999C277.999 9.46665 282.332 13.7333 285.466 19.2C288.666 24.6667 290.266 30.8333 290.266 37.7C290.266 44.5667 288.666 50.7667 285.466 56.3C282.266 61.7667 277.932 66.0333 272.466 69.1C266.999 72.1667 260.966 73.7 254.366 73.7ZM254.366 58.1C259.966 58.1 264.432 56.2333 267.766 52.5C271.166 48.7667 272.866 43.8333 272.866 37.7C272.866 31.5 271.166 26.5667 267.766 22.9C264.432 19.1666 259.966 17.3 254.366 17.3C248.699 17.3 244.166 19.1333 240.766 22.8C237.432 26.4667 235.766 31.4333 235.766 37.7C235.766 43.9 237.432 48.8667 240.766 52.6C244.166 56.2667 248.699 58.1 254.366 58.1Z" fill="url(#paint6_linear_5489_2)"/>
<path d="M210.469 2.79999V73H193.369V30.9L177.669 73H163.869L148.069 30.8V73H130.969V2.79999H151.169L170.869 51.4L190.369 2.79999H210.469Z" fill="url(#paint7_linear_5489_2)"/>
<path d="M78.8607 2.79999V44.8C78.8607 49 79.8941 52.2333 81.9607 54.5C84.0274 56.7667 87.0607 57.9 91.0607 57.9C95.0607 57.9 98.1274 56.7667 100.261 54.5C102.394 52.2333 103.461 49 103.461 44.8V2.79999H120.561V44.7C120.561 50.9667 119.227 56.2667 116.561 60.6C113.894 64.9333 110.294 68.2 105.761 70.4C101.294 72.6 96.2941 73.7 90.7607 73.7C85.2274 73.7 80.2607 72.6333 75.8607 70.5C71.5274 68.3 68.0941 65.0333 65.5607 60.7C63.0274 56.3 61.7607 50.9667 61.7607 44.7V2.79999H78.8607Z" fill="url(#paint8_linear_5489_2)"/>
<path d="M27.5374 73.7C22.4041 73.7 17.8041 72.8666 13.7374 71.2C9.67078 69.5333 6.40412 67.0667 3.93745 63.8C1.53745 60.5333 0.270785 56.6 0.137451 52H18.3375C18.6041 54.6 19.5041 56.6 21.0374 58C22.5708 59.3333 24.5708 60 27.0374 60C29.5708 60 31.5708 59.4333 33.0374 58.3C34.5041 57.1 35.2375 55.4667 35.2375 53.4C35.2375 51.6667 34.6374 50.2333 33.4375 49.1C32.3041 47.9667 30.8708 47.0333 29.1375 46.3C27.4708 45.5667 25.0708 44.7333 21.9375 43.8C17.4041 42.4 13.7041 41 10.8375 39.6C7.97079 38.2 5.50412 36.1333 3.43745 33.4C1.37078 30.6667 0.337452 27.1 0.337452 22.7C0.337452 16.1667 2.70412 11.0667 7.43745 7.39999C12.1708 3.66665 18.3375 1.79999 25.9375 1.79999C33.6708 1.79999 39.9041 3.66665 44.6375 7.39999C49.3708 11.0667 51.9041 16.2 52.2375 22.8H33.7375C33.6041 20.5333 32.7708 18.7667 31.2375 17.5C29.7041 16.1667 27.7375 15.5 25.3375 15.5C23.2708 15.5 21.6041 16.0667 20.3375 17.2C19.0708 18.2667 18.4375 19.8333 18.4375 21.9C18.4375 24.1667 19.5041 25.9333 21.6374 27.2C23.7708 28.4667 27.1041 29.8333 31.6375 31.3C36.1708 32.8333 39.8374 34.3 42.6374 35.7C45.5041 37.1 47.9708 39.1333 50.0374 41.8C52.1041 44.4667 53.1375 47.9 53.1375 52.1C53.1375 56.1 52.1041 59.7333 50.0374 63C48.0375 66.2667 45.1041 68.8667 41.2375 70.8C37.3708 72.7333 32.8041 73.7 27.5374 73.7Z" fill="url(#paint9_linear_5489_2)"/>
<defs>
<linearGradient id="paint0_linear_5489_2" x1="165.5" y1="-19.8572" x2="335.776" y2="201.172" gradientUnits="userSpaceOnUse">
<stop stop-color="#0B9CFF"/>
<stop offset="1" stop-color="#09FF98"/>
</linearGradient>
<linearGradient id="paint1_linear_5489_2" x1="165.5" y1="-19.8571" x2="335.776" y2="201.172" gradientUnits="userSpaceOnUse">
<stop stop-color="#0B9CFF"/>
<stop offset="1" stop-color="#09FF98"/>
</linearGradient>
<linearGradient id="paint2_linear_5489_2" x1="165.5" y1="-19.8571" x2="335.776" y2="201.172" gradientUnits="userSpaceOnUse">
<stop stop-color="#0B9CFF"/>
<stop offset="1" stop-color="#09FF98"/>
</linearGradient>
<linearGradient id="paint3_linear_5489_2" x1="165.5" y1="-19.8571" x2="335.776" y2="201.172" gradientUnits="userSpaceOnUse">
<stop stop-color="#0B9CFF"/>
<stop offset="1" stop-color="#09FF98"/>
</linearGradient>
<linearGradient id="paint4_linear_5489_2" x1="165.5" y1="-19.8571" x2="335.776" y2="201.172" gradientUnits="userSpaceOnUse">
<stop stop-color="#0B9CFF"/>
<stop offset="1" stop-color="#09FF98"/>
</linearGradient>
<linearGradient id="paint5_linear_5489_2" x1="165.5" y1="-19.8571" x2="335.776" y2="201.172" gradientUnits="userSpaceOnUse">
<stop stop-color="#0B9CFF"/>
<stop offset="1" stop-color="#09FF98"/>
</linearGradient>
<linearGradient id="paint6_linear_5489_2" x1="165.5" y1="-19.8571" x2="335.776" y2="201.172" gradientUnits="userSpaceOnUse">
<stop stop-color="#0B9CFF"/>
<stop offset="1" stop-color="#09FF98"/>
</linearGradient>
<linearGradient id="paint7_linear_5489_2" x1="165.5" y1="-19.8571" x2="335.776" y2="201.172" gradientUnits="userSpaceOnUse">
<stop stop-color="#0B9CFF"/>
<stop offset="1" stop-color="#09FF98"/>
</linearGradient>
<linearGradient id="paint8_linear_5489_2" x1="165.5" y1="-19.8571" x2="335.776" y2="201.172" gradientUnits="userSpaceOnUse">
<stop stop-color="#0B9CFF"/>
<stop offset="1" stop-color="#09FF98"/>
</linearGradient>
<linearGradient id="paint9_linear_5489_2" x1="165.5" y1="-19.8571" x2="335.776" y2="201.172" gradientUnits="userSpaceOnUse">
<stop stop-color="#0B9CFF"/>
<stop offset="1" stop-color="#09FF98"/>
</linearGradient>
</defs>
</svg>