<svg xmlns="http://www.w3.org/2000/svg" width="16" height="16">
    <g fill-rule="nonzero" fill="none">
        <path d="M5 5.967 1.814 3c-2.419 2.94-2.419 7.06 0 10L5 10.033a3.88 3.88 0 0 1 0-4.066z" fill="#B7C0C4"/>
        <path d="M10.033 5 13 1.814c-2.94-2.419-7.06-2.419-10 0L5.967 5a3.88 3.88 0 0 1 4.066 0zM5.967 11 3 14.186c2.94 2.419 7.047 2.419 10 0L10.033 11a3.88 3.88 0 0 1-4.066 0z" fill="#188BFF"/>
        <path d="M11 10.033 14.186 13c2.419-2.94 2.419-7.047 0-10L11 5.967a3.88 3.88 0 0 1 0 4.066z" fill="#B7C0C4"/>
    </g>
</svg>