<svg xmlns="http://www.w3.org/2000/svg" width="22" height="22" viewBox="0 0 22 22" fill="none">
<path d="M11 2.0625C6.06418 2.0625 2.0625 6.06418 2.0625 11C2.0625 15.9358 6.06418 19.9375 11 19.9375C15.9358 19.9375 19.9375 15.9358 19.9375 11C19.9375 6.06418 15.9358 2.0625 11 2.0625ZM11 15.8125C9.82572 15.812 8.69201 15.3829 7.81169 14.6057C6.93137 13.8286 6.36498 12.7568 6.21887 11.5917L5.83816 11.9724L4.86578 11L6.84234 9.02344L8.88551 10.9777L7.93504 11.9711L7.62566 11.6755C7.75315 12.3022 8.05242 12.8812 8.49003 13.3477C8.92764 13.8141 9.48635 14.1497 10.1037 14.3169C10.7211 14.484 11.3728 14.4762 11.9859 14.2943C12.5991 14.1124 13.1497 13.7636 13.576 13.2868L14.5973 14.2068C14.1435 14.7113 13.5888 15.1149 12.9691 15.3915C12.3495 15.6681 11.6786 15.8115 11 15.8125V15.8125ZM15.1589 12.9766L13.1158 11.0215L14.0662 10.028L14.361 10.3095C14.2316 9.68525 13.9316 9.10913 13.4944 8.64521C13.0571 8.18129 12.4998 7.84776 11.8842 7.6817C11.2687 7.51565 10.6192 7.52358 10.008 7.70462C9.39673 7.88567 8.84767 8.23272 8.42188 8.70719L7.39836 7.78895C8.01637 7.10045 8.81946 6.60435 9.71176 6.35988C10.6041 6.11541 11.5479 6.1329 12.4305 6.41026C13.3131 6.68761 14.0973 7.21312 14.6894 7.92404C15.2814 8.63496 15.6564 9.50125 15.7695 10.4195L16.161 10.0276L17.1342 11L15.1589 12.9766Z" fill="#CECECE"/>
</svg>