<svg width="78" height="78" viewBox="0 0 78 78" fill="none" xmlns="http://www.w3.org/2000/svg">
<g clip-path="url(#clip0_1636_344)">
<path d="M6.88238 62.3592C1.15487 62.3592 -2.33868 51.1144 1.83006 38.0933C8.01887 18.7614 25.6639 14.8639 39.5723 15.831C56.8036 17.0296 71.6858 29.5766 71.6858 53.3179L6.88238 62.3592Z" fill="#EBA533"/>
<path d="M22.7175 59.3879C16.5386 61.9455 10.4951 57.0603 12.3392 54.9424C9.26419 54.2742 7.15082 52.3331 7.0083 50.82C6.85714 49.2028 8.8539 46.8423 11.2394 46.7108C4.54943 43.967 8.03475 40.5832 12.8748 40.4901C12.0801 39.9236 11.045 36.8973 12.8748 35.1479C14.6369 33.4611 18.1639 33.1685 18.1639 33.1685C17.3635 30.8213 19.1011 28.3607 21.6637 28.0477C24.4263 27.7097 31.3466 29.2338 32.3125 30.4246C32.3125 30.4246 39.502 29.6274 43.0867 29.6274C46.6713 29.6274 67.0002 32.8985 67.0002 32.8985L59.3155 52.9066C59.3155 52.9066 36.6703 60.6139 30.346 60.6139C24.0218 60.6139 22.7175 59.3879 22.7175 59.3879Z" fill="#783700"/>
<path d="M6.88232 62.3592C12.0443 61.9734 15.2692 49.1315 23.7285 35.1579C31.6309 22.1033 39.1749 18.9053 49.474 18.9053C65.1441 18.9053 77.0183 33.8739 77.9671 50.2503C78.0994 52.5135 77.9799 57.2861 74.7393 57.2861L6.88232 62.3592Z" fill="#FFC333"/>
<path d="M31.7558 44.3844C31.7558 45.2089 31.0873 45.8762 30.2629 45.8762C29.4384 45.8762 28.7693 45.2083 28.7693 44.3844C28.7693 43.5581 29.4384 42.8909 30.2629 42.8909C31.088 42.8909 31.7558 43.5575 31.7558 44.3844Z" fill="#D29133"/>
<path d="M48.8676 53.6658C49.5629 53.6658 50.1266 53.1022 50.1266 52.4069C50.1266 51.7115 49.5629 51.1479 48.8676 51.1479C48.1723 51.1479 47.6086 51.7115 47.6086 52.4069C47.6086 53.1022 48.1723 53.6658 48.8676 53.6658Z" fill="#D29133"/>
<path d="M69.7809 42.3339C69.7809 43.0298 69.2166 43.5923 68.5207 43.5923C67.8266 43.5923 67.2617 43.0292 67.2617 42.3339C67.2617 41.6386 67.8272 41.0755 68.5207 41.0755C69.2166 41.0749 69.7809 41.6386 69.7809 42.3339Z" fill="#D29133"/>
<path d="M54.3897 28.0111C55.0847 28.0111 55.6481 27.4478 55.6481 26.7528C55.6481 26.0578 55.0847 25.4944 54.3897 25.4944C53.6947 25.4944 53.1313 26.0578 53.1313 26.7528C53.1313 27.4478 53.6947 28.0111 54.3897 28.0111Z" fill="#D29133"/>
<path d="M36.1852 37.8635C36.8805 37.8635 37.4442 37.2999 37.4442 36.6046C37.4442 35.9092 36.8805 35.3456 36.1852 35.3456C35.4899 35.3456 34.9263 35.9092 34.9263 36.6046C34.9263 37.2999 35.4899 37.8635 36.1852 37.8635Z" fill="#D29133"/>
<path d="M35.0816 53.352C35.7772 53.352 36.3412 52.7881 36.3412 52.0924C36.3412 51.3968 35.7772 50.8328 35.0816 50.8328C34.386 50.8328 33.822 51.3968 33.822 52.0924C33.822 52.7881 34.386 53.352 35.0816 53.352Z" fill="#D29133"/>
<path d="M50.5037 43.3314C51.3283 43.3314 51.9967 42.663 51.9967 41.8385C51.9967 41.0139 51.3283 40.3455 50.5037 40.3455C49.6792 40.3455 49.0107 41.0139 49.0107 41.8385C49.0107 42.663 49.6792 43.3314 50.5037 43.3314Z" fill="#D29133"/>
<path d="M63.7442 35.2371C64.5687 35.2371 65.2372 34.5687 65.2372 33.7441C65.2372 32.9196 64.5687 32.2512 63.7442 32.2512C62.9196 32.2512 62.2512 32.9196 62.2512 33.7441C62.2512 34.5687 62.9196 35.2371 63.7442 35.2371Z" fill="#D29133"/>
<path d="M67.2081 52.6415C68.0326 52.6415 68.701 51.973 68.701 51.1485C68.701 50.324 68.0326 49.6555 67.2081 49.6555C66.3835 49.6555 65.7151 50.324 65.7151 51.1485C65.7151 51.973 66.3835 52.6415 67.2081 52.6415Z" fill="#D29133"/>
<path d="M41.075 29.431C41.7346 29.431 42.2694 28.8962 42.2694 28.2366C42.2694 27.577 41.7346 27.0422 41.075 27.0422C40.4154 27.0422 39.8806 27.577 39.8806 28.2366C39.8806 28.8962 40.4154 29.431 41.075 29.431Z" fill="#D29133"/>
<path d="M50.5721 32.7222C50.5721 33.381 50.0365 33.9154 49.3771 33.9154C48.7178 33.9154 48.1833 33.3816 48.1833 32.7222C48.1833 32.0617 48.7178 31.5266 49.3771 31.5266C50.0365 31.5266 50.5721 32.061 50.5721 32.7222Z" fill="#D29133"/>
<path d="M42.112 46.5495C42.7713 46.5495 43.3057 46.0151 43.3057 45.3558C43.3057 44.6965 42.7713 44.162 42.112 44.162C41.4527 44.162 40.9182 44.6965 40.9182 45.3558C40.9182 46.0151 41.4527 46.5495 42.112 46.5495Z" fill="#D29133"/>
<path d="M24.8601 53.2703C24.8601 53.9297 24.3263 54.4629 23.6663 54.4629C23.0063 54.4629 22.4719 53.9297 22.4719 53.2703C22.4719 52.6098 23.0063 52.0754 23.6663 52.0754C24.3263 52.0754 24.8601 52.6098 24.8601 53.2703Z" fill="#D29133"/>
<path d="M58.742 40.2894C59.4016 40.2894 59.9364 39.7547 59.9364 39.0951C59.9364 38.4354 59.4016 37.9007 58.742 37.9007C58.0824 37.9007 57.5476 38.4354 57.5476 39.0951C57.5476 39.7547 58.0824 40.2894 58.742 40.2894Z" fill="#D29133"/>
<path d="M58.7157 48.8438C59.375 48.8438 59.9095 48.3094 59.9095 47.6501C59.9095 46.9908 59.375 46.4563 58.7157 46.4563C58.0564 46.4563 57.522 46.9908 57.522 47.6501C57.522 48.3094 58.0564 48.8438 58.7157 48.8438Z" fill="#D29133"/>
</g>
<defs>
<clipPath id="clip0_1636_344">
<rect width="78" height="78" fill="white"/>
</clipPath>
</defs>
</svg>
