<svg width="78" height="78" viewBox="0 0 78 78" fill="none" xmlns="http://www.w3.org/2000/svg">
<g clip-path="url(#clip0_1946_144)">
<path d="M6.88238 62.3592C1.15487 62.3592 -2.33868 51.1144 1.83006 38.0933C8.01887 18.7615 25.6639 14.8639 39.5723 15.831C56.8036 17.0296 71.6858 29.5767 71.6858 53.3179L6.88238 62.3592Z" fill="#EBA533"/>
<path d="M8.73128 59.6591C6.11584 61.6512 3.55769 57.8462 4.3383 56.1967C3.03667 55.6762 2.14211 54.1644 2.08178 52.9859C2.0178 51.7263 2.863 49.8878 3.87273 49.7854C1.04097 47.6483 2.51626 45.0128 4.56498 44.9403C4.22861 44.4991 3.79047 42.142 4.56498 40.7795C5.31086 39.4657 6.80383 39.2377 6.80383 39.2377C6.46501 37.4096 7.20053 35.4931 8.28522 35.2494C9.45461 34.9861 12.3839 36.1732 12.7928 37.1007C12.7928 37.1007 15.836 36.4797 17.3533 36.4797C18.8707 36.4797 27.4757 39.0275 27.4757 39.0275L24.2228 54.6111C24.2228 54.6111 14.6373 60.614 11.9604 60.614C9.28337 60.614 8.73128 59.6591 8.73128 59.6591Z" fill="#783700"/>
<path d="M6.88111 34.1756C7.4198 32.481 8.54531 32.7558 9.49655 32.7406C9.07608 31.857 9.07364 30.3884 9.84267 29.712C10.6007 29.0459 11.4228 29.1385 12.2077 29.4792C12.3131 27.1093 13.4508 27.166 14.0705 27.1179C14.8194 27.0606 17.037 27.918 17.5074 28.0094C18.7341 28.2489 20.0186 28.0167 21.2624 28.2872C23.7376 28.8253 26.1331 30.1154 27.9984 31.8009C29.2299 32.9112 30.69 34.64 30.9459 36.3438C31.0337 36.9318 31.1251 37.841 30.9831 38.4279C30.7991 39.1859 29.7278 40.3681 29.0459 40.7051C28.1794 41.1335 26.9588 41.1767 26.0143 41.1822C24.8589 41.1889 23.6152 41.2986 22.4622 41.1828C20.6835 41.0025 18.5531 39.7855 17.0918 38.8154C16.4873 38.4144 13.1351 37.317 11.9456 37.4535C11.1181 37.5491 10.0791 38.3224 9.32288 37.8136C8.56542 37.3054 6.40884 35.6619 6.88111 34.1756Z" fill="#E13319"/>
<path d="M10.7131 59.9156C11.7064 58.5909 9.18477 54.4885 9.62169 53.3521C10.5571 50.9188 11.4523 51.8457 12.2182 50.3619C13.3986 48.0749 10.6674 47.4411 12.2182 44.936C13.4346 42.9701 14.4638 44 15.1566 42.1249C15.9226 40.0524 13.8904 39.3267 15.2584 37.1012C16.7099 34.7375 18.2413 36.0549 19.3296 34.7375C20.4174 33.4206 19.8178 30.2951 21.3455 28.8467C22.9896 27.2885 24.0889 28.9862 25.5855 27.1154C27.0821 25.244 26.0504 23.5268 27.1894 22.2002C28.736 20.3983 30.9785 21.9211 32.2636 21.2252C34.5092 20.0089 33.0448 18.99 35.0832 17.8407C37.3921 16.5391 38.8979 17.8365 41.169 17.6664C43.3421 17.5037 43.7016 15.6348 46.1836 15.6409C47.5382 15.6445 48.7759 16.7835 50.9288 16.8767C52.5235 16.9462 54.6301 16.4087 56.5954 16.8767C58.5606 17.3447 61.3631 21.8687 62.393 23.3659C63.4222 24.8632 65.4563 43.8135 65.4563 43.8135L19.2352 59.5299" fill="#64AF00"/>
<path d="M6.88232 62.3592C12.0443 61.9735 15.2692 49.1315 23.7285 35.1579C31.6309 22.1033 39.1749 18.9053 49.474 18.9053C65.1441 18.9053 77.0183 33.874 77.9671 50.2503C78.0994 52.5135 77.9799 57.2861 74.7393 57.2861L6.88232 62.3592Z" fill="#FFC333"/>
<path d="M31.7558 44.3846C31.7558 45.2091 31.0873 45.8763 30.2629 45.8763C29.4384 45.8763 28.7693 45.2084 28.7693 44.3846C28.7693 43.5583 29.4384 42.891 30.2629 42.891C31.088 42.891 31.7558 43.5576 31.7558 44.3846Z" fill="#D29133"/>
<path d="M48.8676 53.6659C49.5629 53.6659 50.1266 53.1022 50.1266 52.4069C50.1266 51.7116 49.5629 51.1479 48.8676 51.1479C48.1723 51.1479 47.6086 51.7116 47.6086 52.4069C47.6086 53.1022 48.1723 53.6659 48.8676 53.6659Z" fill="#D29133"/>
<path d="M69.7809 42.3339C69.7809 43.0298 69.2166 43.5923 68.5207 43.5923C67.8266 43.5923 67.2617 43.0292 67.2617 42.3339C67.2617 41.6386 67.8272 41.0756 68.5207 41.0756C69.2166 41.075 69.7809 41.6386 69.7809 42.3339Z" fill="#D29133"/>
<path d="M54.3897 28.0112C55.0847 28.0112 55.6481 27.4478 55.6481 26.7529C55.6481 26.0579 55.0847 25.4945 54.3897 25.4945C53.6947 25.4945 53.1313 26.0579 53.1313 26.7529C53.1313 27.4478 53.6947 28.0112 54.3897 28.0112Z" fill="#D29133"/>
<path d="M36.1852 37.8636C36.8805 37.8636 37.4442 37.3 37.4442 36.6047C37.4442 35.9094 36.8805 35.3457 36.1852 35.3457C35.4899 35.3457 34.9263 35.9094 34.9263 36.6047C34.9263 37.3 35.4899 37.8636 36.1852 37.8636Z" fill="#D29133"/>
<path d="M35.0816 53.352C35.7772 53.352 36.3412 52.7881 36.3412 52.0925C36.3412 51.3968 35.7772 50.8329 35.0816 50.8329C34.386 50.8329 33.822 51.3968 33.822 52.0925C33.822 52.7881 34.386 53.352 35.0816 53.352Z" fill="#D29133"/>
<path d="M63.7442 35.2372C64.5687 35.2372 65.2372 34.5687 65.2372 33.7442C65.2372 32.9196 64.5687 32.2512 63.7442 32.2512C62.9196 32.2512 62.2512 32.9196 62.2512 33.7442C62.2512 34.5687 62.9196 35.2372 63.7442 35.2372Z" fill="#D29133"/>
<path d="M67.2081 52.6416C68.0326 52.6416 68.701 51.9732 68.701 51.1486C68.701 50.3241 68.0326 49.6556 67.2081 49.6556C66.3835 49.6556 65.7151 50.3241 65.7151 51.1486C65.7151 51.9732 66.3835 52.6416 67.2081 52.6416Z" fill="#D29133"/>
<path d="M41.075 29.4311C41.7346 29.4311 42.2694 28.8964 42.2694 28.2367C42.2694 27.5771 41.7346 27.0424 41.075 27.0424C40.4154 27.0424 39.8806 27.5771 39.8806 28.2367C39.8806 28.8964 40.4154 29.4311 41.075 29.4311Z" fill="#D29133"/>
<path d="M42.112 46.5496C42.7713 46.5496 43.3057 46.0152 43.3057 45.3559C43.3057 44.6966 42.7713 44.1621 42.112 44.1621C41.4527 44.1621 40.9182 44.6966 40.9182 45.3559C40.9182 46.0152 41.4527 46.5496 42.112 46.5496Z" fill="#D29133"/>
<path d="M24.8601 53.2704C24.8601 53.9298 24.3263 54.463 23.6663 54.463C23.0063 54.463 22.4719 53.9298 22.4719 53.2704C22.4719 52.6099 23.0063 52.0754 23.6663 52.0754C24.3263 52.0754 24.8601 52.6099 24.8601 53.2704Z" fill="#D29133"/>
<path d="M58.7157 48.844C59.375 48.844 59.9095 48.3095 59.9095 47.6502C59.9095 46.9909 59.375 46.4564 58.7157 46.4564C58.0564 46.4564 57.522 46.9909 57.522 47.6502C57.522 48.3095 58.0564 48.844 58.7157 48.844Z" fill="#D29133"/>
<path fill-rule="evenodd" clip-rule="evenodd" d="M50.4999 32C50.4999 32 48.3782 33.5078 46.0459 33.8849C45.4439 33.9822 44.9934 34.5836 45.0001 35.3026C45.0184 37.2816 45.3476 41.0846 47.3711 44.0771C46.7376 41.5986 46.6123 39.105 46.6346 37.355C46.6473 36.3706 47.2663 35.5386 48.0919 35.4178C48.8639 35.305 49.728 35.0863 50.4999 34.8597C51.0369 34.7019 51.5291 34.5404 51.9148 34.4078C52.4198 34.2341 52.7421 34.1103 52.7421 34.1103V34.1105C52.7404 34.1291 52.738 34.1473 52.7359 34.1658C52.5877 35.6229 51.7961 36.8352 50.7115 37.4009C50.3488 37.59 49.9535 37.7073 49.5385 37.7371C49.5319 37.7374 49.5255 37.7379 49.519 37.7382C49.512 37.7389 49.5048 37.7395 49.4983 37.7401C49.3675 37.7484 49.2448 37.7874 49.133 37.85C49.1375 37.8476 49.1415 37.8448 49.146 37.8424C49.1407 37.8453 49.135 37.8474 49.1298 37.8504C49.1285 37.851 49.1275 37.8517 49.1262 37.8524C48.7897 38.0432 48.5614 38.4518 48.5682 38.9201C48.5756 39.4271 48.5778 39.9464 48.5607 40.1363C49.4745 40.2523 50.3624 40.1418 51.0374 39.9967H51.0375C51.7619 39.8408 52.2408 39.6447 52.2408 39.6447C52.2408 39.6447 52.2408 39.6449 52.2408 39.645L52.2412 39.6449C52.2396 39.6624 52.2372 39.6793 52.2355 39.6966C52.0972 41.1368 51.148 42.3974 49.7757 42.5763C49.7589 42.5784 49.7419 42.5811 49.7249 42.583C49.6913 42.5867 49.6573 42.5892 49.6231 42.5915C49.6108 42.5922 49.5984 42.5933 49.586 42.594C49.3567 42.6068 49.117 42.5907 48.8678 42.5402C49.0381 43.8898 49.2827 45.0817 49.691 45.9978C49.8173 46.2813 50.136 46.7936 50.4999 47C55.3598 44.2478 55.9752 38.0289 55.9999 35.2978C56.0064 34.5807 55.5546 33.9821 54.9542 33.8849C52.6218 33.508 50.4999 32 50.4999 32Z" fill="#D29133"/>
</g>
<defs>
<clipPath id="clip0_1946_144">
<rect width="78" height="78" fill="white"/>
</clipPath>
</defs>
</svg>
