<svg xmlns="http://www.w3.org/2000/svg" width="217" height="164" viewBox="0 0 217 164" fill="none">
<path fill-rule="evenodd" clip-rule="evenodd" d="M2.05967 123.278C36.1934 84.3559 96.8496 17.1794 158.164 17.1794L158.155 17.1968C173.467 17.1623 188.476 21.4579 201.45 29.5878C203.556 30.9073 205.58 32.3531 207.512 33.9173C203.268 23.8778 195.965 15.4329 186.643 9.78466C176.566 3.39154 164.877 -0.00214783 152.943 1.01984e-06C97.5619 1.01984e-06 37.9653 68.095 6.97873 103.5C5.72751 104.93 4.52294 106.306 3.36717 107.623C1.44958 109.721 0.281189 112.395 0.0446262 115.227C-0.191937 118.06 0.516665 120.891 2.05967 123.278ZM18.5923 163.934L180.767 146.105C186.192 146.037 191.486 144.426 196.029 141.461C200.572 138.495 204.178 134.297 206.423 129.358C216.641 106.966 227.733 66.7451 192.075 44.353C181.997 37.9599 170.309 34.5662 158.374 34.5683C102.979 34.5683 43.3652 102.7 12.3934 138.097C11.1514 139.516 9.95541 140.883 8.80763 142.191C7.13837 144.076 6.049 146.403 5.67042 148.893C5.29184 151.382 5.64016 153.928 6.67353 156.224C7.70689 158.521 9.38133 160.47 11.4957 161.837C13.61 163.205 16.0742 163.933 18.5923 163.934Z" fill="#FFBC00"/>
</svg>