<svg xmlns="http://www.w3.org/2000/svg" width="144" height="144" viewBox="0 0 144 144" fill="none">
<g clip-path="url(#clip0_5425_243)">
<path d="M41.2949 115.358C40.4001 116.252 40.4001 117.707 41.2949 118.601C42.1897 119.496 43.6455 119.496 44.5403 118.601C45.4352 117.707 45.4352 116.252 44.5403 115.358C43.6455 114.464 42.1897 114.464 41.2949 115.358Z" fill="#18A1FF"/>
<path d="M49.6699 106.99C48.7751 107.884 48.7751 109.339 49.6699 110.233C50.5647 111.127 52.0205 111.127 52.9153 110.233C53.8102 109.339 53.8102 107.884 52.9153 106.99C52.0205 106.095 50.5647 106.095 49.6699 106.99Z" fill="#18A1FF"/>
<path d="M58.0417 98.6209C57.1469 99.5152 57.1469 100.97 58.0417 101.864C58.9366 102.759 60.3923 102.759 61.2872 101.864C62.182 100.97 62.182 99.5152 61.2872 98.6209C60.3923 97.7267 58.9366 97.7267 58.0417 98.6209Z" fill="#18A1FF"/>
<path d="M66.4043 90.2524C65.5094 91.1466 65.5094 92.6014 66.4043 93.4957C67.2991 94.3899 68.7549 94.3899 69.6497 93.4957C70.5446 92.6014 70.5446 91.1466 69.6497 90.2524C68.7549 89.3581 67.2991 89.3581 66.4043 90.2524Z" fill="#18A1FF"/>
<path d="M74.7761 81.8838C73.8813 82.7781 73.8813 84.2329 74.7761 85.1271C75.6709 86.0214 77.1267 86.0214 78.0215 85.1271C78.9164 84.2329 78.9164 82.7781 78.0215 81.8838C77.1267 80.9896 75.6709 80.9896 74.7761 81.8838Z" fill="#18A1FF"/>
<path d="M83.1511 73.5286C82.2563 74.4228 82.2563 75.8777 83.1511 76.7719C84.0459 77.6662 85.5017 77.6662 86.3965 76.7719C87.2914 75.8777 87.2914 74.4228 86.3965 73.5286C85.5017 72.6343 84.0459 72.6343 83.1511 73.5286Z" fill="#18A1FF"/>
<path d="M91.5261 65.1601C90.6313 66.0543 90.6313 67.5091 91.5261 68.4034C92.4209 69.2976 93.8767 69.2976 94.7715 68.4034C95.6664 67.5091 95.6664 66.0543 94.7715 65.1601C93.8767 64.2658 92.4209 64.2658 91.5261 65.1601Z" fill="#18A1FF"/>
<path d="M39.4903 93.5758C38.5955 92.6816 37.1397 92.6816 36.2449 93.5758C35.35 94.4701 35.35 95.9249 36.2449 96.8192C37.1397 97.7134 38.5955 97.7134 39.4903 96.8192C40.3851 95.9249 40.3851 94.4701 39.4903 93.5758Z" fill="#18A1FF"/>
<path d="M47.8653 85.2072C46.9705 84.3129 45.5147 84.3129 44.6199 85.2072C43.725 86.1014 43.725 87.5563 44.6199 88.4505C45.5147 89.3448 46.9705 89.3448 47.8653 88.4505C48.7601 87.5563 48.7601 86.1014 47.8653 85.2072Z" fill="#18A1FF"/>
<path d="M56.2278 76.852C55.333 75.9577 53.8772 75.9577 52.9824 76.852C52.0876 77.7462 52.0876 79.201 52.9824 80.0953C53.8772 80.9895 55.333 80.9895 56.2278 80.0953C57.1227 79.201 57.1227 77.7462 56.2278 76.852Z" fill="#18A1FF"/>
<path d="M64.5997 68.4834C63.7048 67.5892 62.2491 67.5892 61.3542 68.4834C60.4594 69.3777 60.4594 70.8325 61.3542 71.7268C62.2491 72.621 63.7048 72.621 64.5997 71.7268C65.4945 70.8325 65.4945 69.3777 64.5997 68.4834Z" fill="#18A1FF"/>
<path d="M72.9747 60.1149C72.0798 59.2207 70.6241 59.2207 69.7292 60.1149C68.8344 61.0091 68.8344 62.464 69.7292 63.3582C70.6241 64.2525 72.0798 64.2525 72.9747 63.3582C73.8695 62.464 73.8695 61.0091 72.9747 60.1149Z" fill="#18A1FF"/>
<path d="M41.856 104.707C40.9612 103.813 39.5054 103.813 38.6106 104.707C37.7157 105.601 37.7157 107.056 38.6106 107.951C39.5054 108.845 40.9612 108.845 41.856 107.951C42.7509 107.056 42.7509 105.601 41.856 104.707Z" fill="#18A1FF"/>
<path d="M50.2154 96.3386C49.3206 95.4443 47.8648 95.4443 46.97 96.3386C46.0751 97.2328 46.0751 98.6877 46.97 99.5819C47.8648 100.476 49.3206 100.476 50.2154 99.5819C51.1102 98.6877 51.1102 97.2328 50.2154 96.3386Z" fill="#18A1FF"/>
<path d="M56.9733 91.8807C58.2346 91.8807 59.2571 90.8589 59.2571 89.5984C59.2571 88.3379 58.2346 87.316 56.9733 87.316C55.712 87.316 54.6895 88.3379 54.6895 89.5984C54.6895 90.8589 55.712 91.8807 56.9733 91.8807Z" fill="#18A1FF"/>
<path d="M66.9654 79.6148C66.0706 78.7206 64.6148 78.7206 63.72 79.6148C62.8251 80.5091 62.8251 81.9639 63.72 82.8582C64.6148 83.7524 66.0706 83.7524 66.9654 82.8582C67.8602 81.9639 67.8602 80.5091 66.9654 79.6148Z" fill="#18A1FF"/>
<path d="M75.3372 71.2462C74.4424 70.352 72.9866 70.352 72.0918 71.2462C71.1969 72.1405 71.1969 73.5953 72.0918 74.4896C72.9866 75.3838 74.4424 75.3838 75.3372 74.4896C76.2321 73.5953 76.2321 72.1405 75.3372 71.2462Z" fill="#18A1FF"/>
<path d="M83.7122 62.8777C82.8174 61.9834 81.3616 61.9834 80.4668 62.8777C79.5719 63.7719 79.5719 65.2267 80.4668 66.121C81.3616 67.0152 82.8174 67.0152 83.7122 66.121C84.6071 65.2267 84.6071 63.7719 83.7122 62.8777Z" fill="#18A1FF"/>
<path d="M36.3528 82.4845C35.458 81.5902 34.0022 81.5902 33.1074 82.4845C32.2126 83.3787 32.2126 84.8335 33.1074 85.7278C34.0022 86.622 35.458 86.622 36.3528 85.7278C37.2477 84.8335 37.2477 83.3787 36.3528 82.4845Z" fill="#18A1FF"/>
<path d="M44.7278 77.3458C45.6227 76.4516 45.6227 74.9968 44.7278 74.1025C43.833 73.2083 42.3772 73.2083 41.4824 74.1025C40.5876 74.9968 40.5876 76.4516 41.4824 77.3458C42.3772 78.2401 43.833 78.2401 44.7278 77.3458Z" fill="#18A1FF"/>
<path d="M51.4733 69.6446C52.7346 69.6446 53.7571 68.6228 53.7571 67.3623C53.7571 66.1018 52.7346 65.08 51.4733 65.08C50.212 65.08 49.1895 66.1018 49.1895 67.3623C49.1895 68.6228 50.212 69.6446 51.4733 69.6446Z" fill="#18A1FF"/>
<path d="M59.8451 61.276C61.1064 61.276 62.1289 60.2542 62.1289 58.9937C62.1289 57.7332 61.1064 56.7114 59.8451 56.7114C58.5838 56.7114 57.5613 57.7332 57.5613 58.9937C57.5613 60.2542 58.5838 61.276 59.8451 61.276Z" fill="#18A1FF"/>
<path d="M117.996 42.1231C102.651 28.5492 80.3064 26.6806 62.1694 37.3449C57.7219 36.1703 52.767 37.3048 49.3078 40.7617C47.0774 42.9907 45.7419 45.8603 45.4614 48.9701C44.4196 49.3839 43.5115 49.9845 42.7235 50.7586C39.9188 50.7987 37.2209 51.9198 35.2443 53.9085C33.2676 55.8972 32.1725 58.4865 32.0923 61.236C30.7434 61.89 29.528 62.7442 28.4596 63.812C27.1507 65.12 26.1223 66.6949 25.4545 68.4167C24.0121 68.8038 22.7032 69.5512 21.6481 70.6056C19.2041 73.0481 18.5096 76.6785 19.765 79.8284C19.6581 79.9218 19.5513 80.0286 19.4578 80.122C14.2624 85.314 14.2624 93.7627 19.4578 98.9546C20.4461 99.9423 21.5814 100.743 22.8101 101.384C23.972 110.326 27.6849 118.948 34.0022 126.089C36.1792 128.545 39.1842 129.96 42.4697 130.053C42.5899 130.053 42.7235 130.053 42.8437 130.053C45.9823 130.053 48.9339 128.839 51.1643 126.61L116.086 61.7032C116.086 61.7032 116.086 61.7032 116.1 61.7032C116.113 61.6898 116.126 61.6631 116.14 61.6498L118.09 59.7011C118.183 59.6077 118.29 59.5276 118.397 59.4208L118.517 59.3007C120.841 56.9783 122.07 53.8952 121.963 50.6118C121.869 47.3284 120.454 44.3254 117.996 42.1498V42.1231ZM115.966 44.4054C117.783 46.0204 118.838 48.236 118.904 50.6652C118.904 50.8921 118.904 51.119 118.904 51.3325C118.437 49.5307 117.515 47.8223 116.1 46.4075C112.894 43.2042 107.966 42.39 103.919 44.2586C103.746 44.0451 103.559 43.8449 103.358 43.658C100.527 40.8418 96.36 39.9342 92.6605 41.2422C92.2865 40.8418 91.8992 40.4814 91.4986 40.1477C87.5453 36.9311 82.0561 36.5574 77.7288 39.0933C74.4834 36.5974 69.8356 36.7576 66.7504 39.5471C66.4165 39.2935 66.0693 39.0666 65.722 38.8531C82.3232 30.1375 102.183 32.2196 115.953 44.4054H115.966ZM37.3945 56.0574C38.9438 54.5091 41.1341 53.695 43.3245 53.8151C43.8053 53.8418 44.2594 53.6416 44.5799 53.2812C44.6467 53.2011 44.7135 53.121 44.847 52.9475C45.5148 52.2802 46.3562 51.7997 47.3312 51.5461C47.999 51.3726 48.4664 50.772 48.4664 50.0779C48.4931 47.3685 49.5482 44.8192 51.4715 42.8972C55.398 38.9732 61.8489 38.9198 65.8556 42.7771C66.1761 43.0841 66.6035 43.2309 67.0309 43.2042C67.4716 43.1642 67.8723 42.9506 68.126 42.6036L68.2195 42.4835C68.3397 42.3233 68.4599 42.1498 68.6068 42.003C70.677 39.9475 74.2296 39.8942 76.3665 41.9496C76.3932 41.9896 76.4333 42.0297 76.4467 42.043C76.9675 42.6169 77.849 42.7104 78.4901 42.2432C81.8157 39.8007 86.3699 39.9075 89.562 42.5102C90.0828 42.9373 90.5636 43.4311 91.0044 44.005C91.4451 44.579 92.2465 44.7658 92.8875 44.4455C95.6655 43.0707 98.9911 43.618 101.181 45.8069C101.542 46.1672 101.876 46.5943 102.17 47.0481C102.383 47.3952 102.731 47.6354 103.131 47.7155C103.532 47.8089 103.946 47.7288 104.28 47.5153C107.312 45.58 111.358 46.0204 113.909 48.5564C116.567 51.2124 116.874 55.3233 114.858 58.3264C113.322 59.3808 111.505 59.9413 109.596 59.9413C107.098 59.9413 104.747 58.967 102.984 57.2052C85.9025 40.121 55.6785 41.4824 36.9939 60.1549C36.3528 60.7956 35.7384 61.4496 35.1508 62.1169C35.1508 62.1169 35.1508 62.0902 35.1508 62.0769C34.9772 59.8212 35.7919 57.619 37.3812 56.0307L37.3945 56.0574ZM21.6081 96.7791C17.6014 92.775 17.6014 86.275 21.6081 82.2709C21.9153 81.9639 22.2492 81.6836 22.5964 81.4167C23.1974 80.9495 23.3577 80.0953 22.9704 79.4413C21.7016 77.2658 22.0355 74.5163 23.8118 72.7545C24.6265 71.9403 25.6816 71.4064 26.8569 71.2196C27.4312 71.1261 27.912 70.7124 28.0856 70.1652C28.5798 68.5635 29.4345 67.1354 30.6232 65.9475C31.5047 65.0666 32.5331 64.3726 33.6683 63.8654C25.6682 73.6087 21.8885 85.6744 22.4495 97.4598C22.169 97.2329 21.8752 97.0327 21.6214 96.7657L21.6081 96.7791ZM48.9873 124.421C47.2644 126.142 45.0073 127.01 42.5498 126.97C40.1191 126.89 37.8887 125.849 36.286 124.034C20.7934 106.536 22.0488 79.4413 39.1708 62.3305C56.6802 44.8325 84.9275 43.4845 100.848 59.3808C103.185 61.7165 106.31 63.0112 109.622 63.0112C109.903 63.0112 110.183 62.9845 110.45 62.9711L49.0007 124.407L48.9873 124.421Z" fill="url(#paint0_linear_5425_243)"/>
<path d="M141.955 53.2011L142.743 52.4136C143.344 51.813 143.344 50.852 142.743 50.2514C142.142 49.6508 141.181 49.6508 140.58 50.2514L139.792 51.0389L139.004 50.2514C138.403 49.6508 137.441 49.6508 136.84 50.2514C136.239 50.852 136.239 51.813 136.84 52.4136L137.628 53.2011L136.84 53.9886C136.239 54.5892 136.239 55.5502 136.84 56.1508C137.134 56.4444 137.535 56.6046 137.922 56.6046C138.309 56.6046 138.71 56.4578 139.004 56.1508L139.792 55.3633L140.58 56.1508C140.874 56.4444 141.274 56.6046 141.662 56.6046C142.049 56.6046 142.45 56.4578 142.743 56.1508C143.344 55.5502 143.344 54.5892 142.743 53.9886L141.955 53.2011Z" fill="#17D384"/>
<path d="M32.3341 25.386C32.6279 25.6796 33.0286 25.8398 33.4159 25.8398C33.8032 25.8398 34.2039 25.693 34.4977 25.386L35.2857 24.5985L36.0737 25.386C36.3675 25.6796 36.7682 25.8398 37.1555 25.8398C37.5428 25.8398 37.9435 25.693 38.2373 25.386C38.8383 24.7854 38.8383 23.8244 38.2373 23.2238L37.4493 22.4363L38.2373 21.6488C38.8383 21.0482 38.8383 20.0872 38.2373 19.4866C37.6363 18.886 36.6747 18.886 36.0737 19.4866L35.2857 20.2741L34.4977 19.4866C33.8967 18.886 32.9351 18.886 32.3341 19.4866C31.733 20.0872 31.733 21.0482 32.3341 21.6488L33.122 22.4363L32.3341 23.2238C31.733 23.8244 31.733 24.7854 32.3341 25.386Z" fill="#18A1FF"/>
<path d="M113.014 101.397H112.012V100.396C112.012 99.5553 111.331 98.8746 110.489 98.8746C109.648 98.8746 108.967 99.5553 108.967 100.396V101.397H107.965C107.124 101.397 106.443 102.078 106.443 102.919C106.443 103.76 107.124 104.44 107.965 104.44H108.967V105.441C108.967 106.282 109.648 106.963 110.489 106.963C111.331 106.963 112.012 106.282 112.012 105.441V104.44H113.014C113.855 104.44 114.536 103.76 114.536 102.919C114.536 102.078 113.855 101.397 113.014 101.397Z" fill="#18A1FF"/>
<path d="M12.6347 112.795C12.0337 112.195 11.0721 112.195 10.4711 112.795L10.0437 113.223L9.61633 112.795C9.01533 112.195 8.05372 112.195 7.45271 112.795C6.8517 113.396 6.8517 114.357 7.45271 114.958L7.88009 115.385L7.45271 115.812C6.8517 116.413 6.8517 117.374 7.45271 117.974C7.74653 118.268 8.14721 118.428 8.53452 118.428C8.92184 118.428 9.32251 118.281 9.61633 117.974L10.0437 117.547L10.4711 117.974C10.7649 118.268 11.1656 118.428 11.5529 118.428C11.9402 118.428 12.3409 118.281 12.6347 117.974C13.2357 117.374 13.2357 116.413 12.6347 115.812L12.2073 115.385L12.6347 114.958C13.2357 114.357 13.2357 113.396 12.6347 112.795Z" fill="#FFBC00"/>
<path d="M110.196 16.6704C110.49 16.964 110.891 17.1242 111.278 17.1242C111.665 17.1242 112.066 16.9773 112.36 16.6704L112.787 16.2433L113.215 16.6704C113.509 16.964 113.909 17.1242 114.297 17.1242C114.684 17.1242 115.085 16.9773 115.378 16.6704C115.979 16.0697 115.979 15.1088 115.378 14.5081L114.951 14.081L115.378 13.6539C115.979 13.0533 115.979 12.0923 115.378 11.4917C114.777 10.8911 113.816 10.8911 113.215 11.4917L112.787 11.9188L112.36 11.4917C111.759 10.8911 110.797 10.8911 110.196 11.4917C109.595 12.0923 109.595 13.0533 110.196 13.6539L110.624 14.081L110.196 14.5081C109.595 15.1088 109.595 16.0697 110.196 16.6704Z" fill="#18A1FF"/>
<path d="M89.0937 117.64C86.289 117.64 84.0051 119.923 84.0051 122.726C84.0051 125.529 86.289 127.811 89.0937 127.811C91.8984 127.811 94.1822 125.529 94.1822 122.726C94.1822 119.923 91.8984 117.64 89.0937 117.64ZM89.0937 124.768C87.9718 124.768 87.0502 123.86 87.0502 122.726C87.0502 121.591 87.9584 120.684 89.0937 120.684C90.2289 120.684 91.1371 121.591 91.1371 122.726C91.1371 123.86 90.2289 124.768 89.0937 124.768Z" fill="#18A1FF"/>
<path d="M126.184 116.626C124.074 116.626 122.365 118.335 122.365 120.443C122.365 122.552 124.074 124.261 126.184 124.261C128.294 124.261 130.004 122.552 130.004 120.443C130.004 118.335 128.294 116.626 126.184 116.626ZM126.184 121.204C125.77 121.204 125.423 120.857 125.423 120.443C125.423 120.03 125.77 119.683 126.184 119.683C126.598 119.683 126.946 120.03 126.946 120.443C126.946 120.857 126.598 121.204 126.184 121.204Z" fill="#FFBC00"/>
<path d="M19.525 48.5296C19.525 46.0071 17.4682 43.965 14.9573 43.965C12.4464 43.965 10.3896 46.0204 10.3896 48.5296C10.3896 51.0389 12.4464 53.0943 14.9573 53.0943C17.4682 53.0943 19.525 51.0389 19.525 48.5296ZM14.9573 50.0512C14.1159 50.0512 13.4348 49.3705 13.4348 48.5296C13.4348 47.6888 14.1159 47.0214 14.9573 47.0214C15.7987 47.0214 16.4665 47.7021 16.4665 48.5296C16.4665 49.3572 15.7854 50.0512 14.9573 50.0512Z" fill="#18A1FF"/>
<path d="M14.7424 24.2781C15.7708 24.3849 16.679 23.6508 16.7992 22.6364C16.9061 21.6087 16.1715 20.7011 15.1565 20.581C14.1281 20.4742 13.2199 21.2083 13.0997 22.2227C12.9928 23.2504 13.7274 24.158 14.7424 24.2781Z" fill="#17D384"/>
<path d="M107.538 127.33C106.509 127.224 105.601 127.958 105.481 128.972C105.374 130 106.109 130.907 107.124 131.028C108.152 131.134 109.06 130.4 109.181 129.386C109.287 128.358 108.553 127.451 107.538 127.33Z" fill="#17D384"/>
<path d="M102.303 84.0327C101.408 84.5399 101.101 85.6877 101.621 86.5686C102.142 87.4628 103.278 87.7698 104.159 87.2493C105.054 86.7421 105.361 85.5943 104.84 84.7134C104.333 83.8191 103.184 83.5121 102.303 84.0327Z" fill="#FFBC00"/>
<path d="M136.669 94.6836C135.641 94.5768 134.733 95.3109 134.612 96.3253C134.506 97.353 135.24 98.2606 136.255 98.3807C137.284 98.4875 138.192 97.7534 138.312 96.739C138.419 95.7113 137.684 94.8037 136.669 94.6836Z" fill="#17D384"/>
<path d="M61.5691 139.489C60.5407 139.383 59.6325 140.117 59.5123 141.131C59.4054 142.159 60.14 143.066 61.155 143.187C62.1834 143.293 63.0916 142.559 63.2118 141.545C63.3187 140.517 62.5841 139.61 61.5691 139.489Z" fill="#FFBC00"/>
<path d="M32.3987 43.004C33.4271 43.1108 34.3353 42.3767 34.4555 41.3623C34.5623 40.3346 33.8277 39.427 32.8127 39.3069C31.7843 39.2001 30.8761 39.9342 30.7559 40.9486C30.6491 41.9763 31.3836 42.8839 32.3987 43.004Z" fill="#17D384"/>
<path d="M65.4139 121.685C64.8396 122.539 65.0533 123.687 65.9081 124.274C66.7629 124.848 67.9115 124.634 68.4991 123.78C69.0734 122.926 68.8597 121.778 68.005 121.191C67.1502 120.617 66.0016 120.83 65.4139 121.685Z" fill="#17D384"/>
<path d="M8.28036 97.5799C8.85466 96.7257 8.64097 95.5778 7.7862 94.9906C6.93144 94.4033 5.78284 94.6302 5.19519 95.4844C4.6209 96.3386 4.83459 97.4865 5.68936 98.0737C6.54412 98.6477 7.69271 98.4341 8.28036 97.5799Z" fill="#17D384"/>
<path d="M30.7427 134.217C29.7143 134.217 28.8862 135.045 28.8862 136.073C28.8862 137.1 29.7143 137.928 30.7427 137.928C31.7711 137.928 32.5991 137.1 32.5991 136.073C32.5991 135.045 31.7711 134.217 30.7427 134.217Z" fill="#17D384"/>
<path d="M89.0959 22.4229C90.1212 22.4229 90.9524 21.5923 90.9524 20.5677C90.9524 19.5431 90.1212 18.7125 89.0959 18.7125C88.0707 18.7125 87.2395 19.5431 87.2395 20.5677C87.2395 21.5923 88.0707 22.4229 89.0959 22.4229Z" fill="#17D384"/>
<path d="M65.096 17.8048C66.1243 17.8048 66.9524 16.9773 66.9524 15.9496C66.9524 14.9219 66.1243 14.0944 65.096 14.0944C64.0676 14.0944 63.2395 14.9219 63.2395 15.9496C63.2395 16.9773 64.0676 17.8048 65.096 17.8048Z" fill="#17D384"/>
<path d="M51.0835 5.95272C52.1119 5.95272 52.9399 5.1252 52.9399 4.09748C52.9399 3.06976 52.1119 2.24225 51.0835 2.24225C50.0551 2.24225 49.2271 3.06976 49.2271 4.09748C49.2271 5.1252 50.0551 5.95272 51.0835 5.95272Z" fill="#17D384"/>
<path d="M130.258 27.9752C129.23 27.9752 128.402 28.8027 128.402 29.8305C128.402 30.8582 129.23 31.6857 130.258 31.6857C131.287 31.6857 132.115 30.8582 132.115 29.8305C132.115 28.8027 131.287 27.9752 130.258 27.9752Z" fill="#17D384"/>
<path d="M127.186 82.3242C127.92 82.3242 128.561 81.8037 128.695 81.0563C128.842 80.2288 128.281 79.4279 127.439 79.2945L122.297 78.4269C121.469 78.3068 120.668 78.8407 120.534 79.6815C120.401 80.5091 120.948 81.3099 121.79 81.4433L126.932 82.3109C127.012 82.3242 127.105 82.3376 127.186 82.3376V82.3242Z" fill="#18A1FF"/>
<path d="M79.8793 8.15495C79.9728 8.16829 80.0662 8.18164 80.1464 8.18164C80.8676 8.18164 81.522 7.66111 81.6556 6.92702L82.5771 1.80177C82.724 0.974257 82.1764 0.173436 81.3484 0.0266192C80.5203 -0.133545 79.719 0.427029 79.5721 1.25454L78.6505 6.37979C78.5036 7.20731 79.0512 8.00813 79.8793 8.15495Z" fill="#FFBC00"/>
<path d="M7.024 69.8181C6.52984 69.1241 5.58158 68.9639 4.88709 69.4578L0.639968 72.4742C-0.0545295 72.968 -0.214798 73.9157 0.279363 74.6097C0.573189 75.0235 1.054 75.2504 1.52145 75.2504C1.82863 75.2504 2.13581 75.1569 2.40292 74.9701L6.65004 71.9537C7.34454 71.4598 7.50481 70.5122 7.01064 69.8181H7.024Z" fill="#18A1FF"/>
<path d="M89.3084 108.271C89.3886 108.271 89.482 108.271 89.5622 108.244C90.3902 108.111 90.9645 107.323 90.8176 106.482L90.3902 103.92C90.2567 103.092 89.4687 102.505 88.6273 102.665C87.7992 102.799 87.2249 103.586 87.3718 104.427L87.7992 106.99C87.9194 107.737 88.5739 108.271 89.3084 108.271Z" fill="#17D384"/>
</g>
<defs>
<linearGradient id="paint0_linear_5425_243" x1="68.7653" y1="30.4741" x2="68.7653" y2="130.053" gradientUnits="userSpaceOnUse">
<stop stop-color="#18A1FF"/>
<stop offset="1" stop-color="#0AE8B1"/>
</linearGradient>
<clipPath id="clip0_5425_243">
<rect width="143.2" height="143.2" fill="white"/>
</clipPath>
</defs>
</svg>