<svg width="78" height="78" viewBox="0 0 78 78" fill="none" xmlns="http://www.w3.org/2000/svg">
<g clip-path="url(#clip0_1946_220)">
<path d="M6.88226 62.3592C1.15475 62.3592 -2.3388 51.1144 1.82993 38.0933C8.01875 18.7615 25.6638 14.8639 39.5722 15.831C56.8035 17.0296 71.6856 29.5767 71.6856 53.3179L6.88226 62.3592Z" fill="#EBA533"/>
<path d="M8.73116 59.6591C6.11572 61.6512 3.55756 57.8462 4.33817 56.1967C3.03655 55.6762 2.14199 54.1644 2.08166 52.9859C2.01767 51.7263 2.86288 49.8878 3.87261 49.7854C1.04085 47.6483 2.51614 45.0128 4.56486 44.9403C4.22849 44.4991 3.79035 42.142 4.56486 40.7795C5.31074 39.4657 6.8037 39.2377 6.8037 39.2377C6.46489 37.4096 7.20041 35.4931 8.28509 35.2494C9.45449 34.9861 12.3838 36.1732 12.7926 37.1007C12.7926 37.1007 15.8359 36.4797 17.3532 36.4797C18.8705 36.4797 27.4755 39.0275 27.4755 39.0275L24.2227 54.6111C24.2227 54.6111 14.6372 60.614 11.9602 60.614C9.28325 60.614 8.73116 59.6591 8.73116 59.6591Z" fill="#783700"/>
<path d="M6.88111 34.1756C7.4198 32.481 8.54531 32.7558 9.49655 32.7406C9.07608 31.857 9.07364 30.3884 9.84267 29.712C10.6007 29.0459 11.4228 29.1385 12.2077 29.4792C12.3131 27.1093 13.4508 27.166 14.0705 27.1179C14.8194 27.0606 17.037 27.918 17.5074 28.0094C18.7341 28.2489 20.0186 28.0167 21.2624 28.2872C23.7376 28.8253 26.1331 30.1154 27.9984 31.8009C29.2299 32.9112 30.69 34.64 30.9459 36.3438C31.0337 36.9318 31.1251 37.841 30.9831 38.4279C30.7991 39.1859 29.7278 40.3681 29.0459 40.7051C28.1794 41.1335 26.9588 41.1767 26.0143 41.1822C24.8589 41.1889 23.6152 41.2986 22.4622 41.1828C20.6835 41.0025 18.5531 39.7855 17.0918 38.8154C16.4873 38.4144 13.1351 37.317 11.9456 37.4535C11.1181 37.5491 10.0791 38.3224 9.32288 37.8136C8.56542 37.3054 6.40884 35.6619 6.88111 34.1756Z" fill="#E13319"/>
<path d="M24.2205 28.0001C23.9115 28 23.614 27.8973 23.388 27.7127C23.1621 27.5281 23.0245 27.2754 23.003 27.0055C22.9815 26.7355 23.0776 26.4685 23.2721 26.2582C23.4666 26.048 23.7449 25.9101 24.051 25.8724C26.2696 25.5932 28.3264 24.6954 29.9166 23.3123C30.0301 23.2132 30.1648 23.1346 30.313 23.081C30.4613 23.0274 30.6201 22.9999 30.7804 23.0001C30.9408 23.0003 31.0995 23.0281 31.2476 23.082C31.3957 23.1359 31.5302 23.2148 31.6434 23.3142C31.7567 23.4136 31.8464 23.5315 31.9076 23.6613C31.9688 23.7911 32.0002 23.9302 32 24.0706C31.9998 24.211 31.968 24.3499 31.9065 24.4796C31.8449 24.6092 31.7548 24.727 31.6413 24.8261C29.6764 26.5352 27.1348 27.6444 24.3933 27.9894C24.3361 27.9966 24.2783 28.0001 24.2205 28.0001Z" fill="#FFE133"/>
<path d="M11.1404 37.0001C10.8634 37.0002 10.5959 36.9001 10.3879 36.7186C10.1798 36.5371 10.0453 36.2865 10.0095 36.0137C9.9738 35.7409 10.0392 35.4645 10.1936 35.2361C10.348 35.0077 10.5808 34.8429 10.8485 34.7726C12.87 34.2347 14.6633 33.0641 15.9626 31.4342C16.0551 31.3169 16.17 31.2188 16.3008 31.1457C16.4315 31.0726 16.5754 31.0259 16.7244 31.0082C16.8734 30.9904 17.0244 31.0021 17.1688 31.0425C17.3132 31.0828 17.4481 31.1511 17.5659 31.2434C17.6837 31.3357 17.782 31.4502 17.8552 31.5803C17.9284 31.7104 17.975 31.8536 17.9923 32.0016C18.0097 32.1497 17.9975 32.2996 17.9564 32.443C17.9153 32.5863 17.8461 32.7202 17.7529 32.8369C16.1474 34.8509 13.9315 36.2973 11.4336 36.9619C11.338 36.9872 11.2394 37 11.1404 37.0001Z" fill="#FFE133"/>
<path d="M29.9053 27.0001C29.7497 27.0001 29.596 26.965 29.4543 26.8972C27.1979 25.8143 25.3326 23.9941 24.1349 21.7065C24.0658 21.5738 24.0222 21.4282 24.0065 21.2778C23.9909 21.1274 24.0035 20.9753 24.0436 20.83C24.0837 20.6848 24.1506 20.5493 24.2404 20.4313C24.3303 20.3133 24.4413 20.2151 24.5671 20.1423C24.8213 19.9953 25.1205 19.9606 25.3988 20.0461C25.6772 20.1315 25.912 20.3299 26.0515 20.5977C27.0209 22.4492 28.5307 23.9223 30.357 24.7985C30.5849 24.907 30.7706 25.0946 30.8831 25.3299C30.9956 25.5652 31.0282 25.8341 30.9753 26.0916C30.9225 26.3492 30.7874 26.5799 30.5927 26.7452C30.398 26.9105 30.1553 27.0005 29.9053 27.0001Z" fill="#FFE133"/>
<path d="M13.2182 31.0001C12.9092 31 12.6118 30.8755 12.3861 30.6519C12.1604 30.4282 12.0234 30.1221 12.0027 29.7955C11.9821 29.4688 12.0793 29.1461 12.2747 28.8925C12.4702 28.6389 12.7493 28.4735 13.0555 28.4297C15.2715 28.1053 17.3298 27.0332 18.9254 25.3722C19.0393 25.2531 19.1743 25.159 19.3225 25.0951C19.4708 25.0313 19.6295 24.999 19.7895 25.0002C19.9495 25.0013 20.1078 25.0358 20.2552 25.1017C20.4027 25.1676 20.5364 25.2637 20.6488 25.3844C20.7612 25.5051 20.8501 25.648 20.9103 25.8051C20.9706 25.9621 21.001 26.1302 21 26.2998C20.9989 26.4693 20.9663 26.637 20.9041 26.7932C20.8419 26.9494 20.7512 27.0911 20.6373 27.2101C18.6657 29.2627 16.1222 30.5875 13.3839 30.9882C13.329 30.9961 13.2736 31.0001 13.2182 31.0001Z" fill="#FFE133"/>
<path d="M21.7678 29.0001C21.7008 29.0002 21.634 28.9956 21.5679 28.9864C18.8149 28.601 16.2816 27.4726 14.3433 25.7686C14.1172 25.5688 13.9938 25.301 14.0002 25.024C14.0034 24.8869 14.0384 24.7516 14.1032 24.626C14.1679 24.5003 14.2612 24.3867 14.3777 24.2916C14.4942 24.1966 14.6316 24.1219 14.782 24.0719C14.9325 24.0219 15.093 23.9976 15.2546 24.0003C15.5808 24.0058 15.8911 24.1211 16.1172 24.3208C17.6859 25.6996 19.736 26.6126 21.9638 26.9244C22.2695 26.9659 22.5456 27.1036 22.7369 27.3103C22.9283 27.5169 23.0208 27.7772 22.9961 28.0392C22.9713 28.3012 22.8311 28.5457 22.6034 28.7238C22.3758 28.9019 22.0774 29.0006 21.7678 29.0001Z" fill="#FFE133"/>
<path d="M22.862 26.432C22.862 26.432 24.606 26.9369 26.7358 26.9242C27.3041 26.9207 35.1025 27.8795 36.2957 27.9851C38.5863 28.1882 42.9967 26.3136 41.7969 22.4733C41.6352 21.958 41.7252 20.0462 41.4436 19.586C40.5836 18.1769 32.4794 16.7816 30.9287 19.7758C27.0241 18.5286 25.7218 20.9911 25.7218 22.37C21.5913 20.4658 19.6115 23.3549 20.0631 24.9828C20.299 25.8296 22.862 26.432 22.862 26.432Z" fill="white"/>
<path d="M10.7128 59.9156C11.7061 58.5909 9.18453 54.4885 9.62145 53.3521C10.5568 50.9188 11.452 51.8457 12.218 50.3619C13.3984 48.0749 10.6671 47.4411 12.218 44.936C13.4343 42.9701 14.4635 44 15.1564 42.1249C15.9224 40.0524 13.8901 39.3267 15.2582 37.1012C16.7097 34.7375 18.2411 36.0549 19.3294 34.7375C20.4171 33.4206 19.8175 30.2951 21.3452 28.8467C22.9893 27.2885 24.0886 28.9862 25.5852 27.1154C27.0819 25.244 26.0502 23.5268 27.1891 22.2002C28.7357 20.3983 30.9782 21.9211 32.2634 21.2252C34.5089 20.0089 33.0446 18.99 35.083 17.8407C37.3919 16.5391 38.8976 17.8365 41.1688 17.6664C43.3418 17.5037 43.7014 15.6348 46.1833 15.6409C47.538 15.6445 48.7756 16.7835 50.9285 16.8767C52.5233 16.9462 54.6299 16.4087 56.5951 16.8767C58.5604 17.3447 61.3629 21.8687 62.3927 23.3659C63.422 24.8632 65.456 43.8135 65.456 43.8135L19.2349 59.5299" fill="#64AF00"/>
<path d="M6.8822 62.3592C12.0442 61.9735 15.269 49.1315 23.7284 35.1579C31.6307 22.1033 39.1748 18.9053 49.4739 18.9053C65.1439 18.9053 77.0182 33.874 77.967 50.2503C78.0993 52.5135 77.9798 57.2861 74.7392 57.2861L6.8822 62.3592Z" fill="#FFC333"/>
<path d="M31.7557 44.3846C31.7557 45.2091 31.0872 45.8763 30.2627 45.8763C29.4383 45.8763 28.7692 45.2084 28.7692 44.3846C28.7692 43.5583 29.4383 42.891 30.2627 42.891C31.0878 42.891 31.7557 43.5576 31.7557 44.3846Z" fill="#D29133"/>
<path d="M48.8676 53.6659C49.5629 53.6659 50.1266 53.1022 50.1266 52.4069C50.1266 51.7116 49.5629 51.1479 48.8676 51.1479C48.1723 51.1479 47.6086 51.7116 47.6086 52.4069C47.6086 53.1022 48.1723 53.6659 48.8676 53.6659Z" fill="#D29133"/>
<path d="M69.7808 42.3339C69.7808 43.0298 69.2165 43.5923 68.5206 43.5923C67.8265 43.5923 67.2616 43.0292 67.2616 42.3339C67.2616 41.6386 67.8271 41.0756 68.5206 41.0756C69.2165 41.075 69.7808 41.6386 69.7808 42.3339Z" fill="#D29133"/>
<path d="M54.3898 28.0112C55.0848 28.0112 55.6482 27.4478 55.6482 26.7529C55.6482 26.0579 55.0848 25.4945 54.3898 25.4945C53.6949 25.4945 53.1315 26.0579 53.1315 26.7529C53.1315 27.4478 53.6949 28.0112 54.3898 28.0112Z" fill="#D29133"/>
<path d="M36.1852 37.8636C36.8805 37.8636 37.4442 37.3 37.4442 36.6047C37.4442 35.9094 36.8805 35.3457 36.1852 35.3457C35.4899 35.3457 34.9263 35.9094 34.9263 36.6047C34.9263 37.3 35.4899 37.8636 36.1852 37.8636Z" fill="#D29133"/>
<path d="M35.0817 53.352C35.7774 53.352 36.3413 52.7881 36.3413 52.0925C36.3413 51.3968 35.7774 50.8329 35.0817 50.8329C34.3861 50.8329 33.8221 51.3968 33.8221 52.0925C33.8221 52.7881 34.3861 53.352 35.0817 53.352Z" fill="#D29133"/>
<path d="M63.7443 35.2372C64.5689 35.2372 65.2373 34.5687 65.2373 33.7442C65.2373 32.9196 64.5689 32.2512 63.7443 32.2512C62.9198 32.2512 62.2513 32.9196 62.2513 33.7442C62.2513 34.5687 62.9198 35.2372 63.7443 35.2372Z" fill="#D29133"/>
<path d="M67.2079 52.6416C68.0325 52.6416 68.7009 51.9732 68.7009 51.1486C68.7009 50.3241 68.0325 49.6556 67.2079 49.6556C66.3834 49.6556 65.715 50.3241 65.715 51.1486C65.715 51.9732 66.3834 52.6416 67.2079 52.6416Z" fill="#D29133"/>
<path d="M41.0749 29.4311C41.7345 29.4311 42.2692 28.8964 42.2692 28.2367C42.2692 27.5771 41.7345 27.0424 41.0749 27.0424C40.4152 27.0424 39.8805 27.5771 39.8805 28.2367C39.8805 28.8964 40.4152 29.4311 41.0749 29.4311Z" fill="#D29133"/>
<path d="M42.1121 46.5496C42.7714 46.5496 43.3059 46.0152 43.3059 45.3559C43.3059 44.6966 42.7714 44.1621 42.1121 44.1621C41.4528 44.1621 40.9183 44.6966 40.9183 45.3559C40.9183 46.0152 41.4528 46.5496 42.1121 46.5496Z" fill="#D29133"/>
<path d="M24.8601 53.2704C24.8601 53.9298 24.3263 54.463 23.6663 54.463C23.0063 54.463 22.4719 53.9298 22.4719 53.2704C22.4719 52.6099 23.0063 52.0754 23.6663 52.0754C24.3263 52.0754 24.8601 52.6099 24.8601 53.2704Z" fill="#D29133"/>
<path d="M58.7157 48.844C59.375 48.844 59.9095 48.3095 59.9095 47.6502C59.9095 46.9909 59.375 46.4564 58.7157 46.4564C58.0564 46.4564 57.522 46.9909 57.522 47.6502C57.522 48.3095 58.0564 48.844 58.7157 48.844Z" fill="#D29133"/>
<path fill-rule="evenodd" clip-rule="evenodd" d="M50.4999 32C50.4999 32 48.3782 33.5078 46.0459 33.8849C45.4439 33.9822 44.9934 34.5836 45.0001 35.3026C45.0184 37.2816 45.3476 41.0846 47.3711 44.0771C46.7376 41.5986 46.6123 39.105 46.6346 37.355C46.6473 36.3706 47.2663 35.5386 48.0919 35.4178C48.8639 35.305 49.728 35.0863 50.4999 34.8597C51.0369 34.7019 51.5291 34.5404 51.9148 34.4078C52.4198 34.2341 52.7421 34.1103 52.7421 34.1103V34.1105C52.7404 34.1291 52.738 34.1473 52.7359 34.1658C52.5877 35.6229 51.7961 36.8352 50.7115 37.4009C50.3488 37.59 49.9535 37.7073 49.5385 37.7371C49.5319 37.7374 49.5255 37.7379 49.519 37.7382C49.512 37.7389 49.5048 37.7395 49.4983 37.7401C49.3675 37.7484 49.2448 37.7874 49.133 37.85C49.1375 37.8476 49.1415 37.8448 49.146 37.8424C49.1407 37.8453 49.135 37.8474 49.1298 37.8504C49.1285 37.851 49.1275 37.8517 49.1262 37.8524C48.7897 38.0432 48.5614 38.4518 48.5682 38.9201C48.5756 39.4271 48.5778 39.9464 48.5607 40.1363C49.4745 40.2523 50.3624 40.1418 51.0374 39.9967H51.0375C51.7619 39.8408 52.2408 39.6447 52.2408 39.6447C52.2408 39.6447 52.2408 39.6449 52.2408 39.645L52.2412 39.6449C52.2396 39.6624 52.2372 39.6793 52.2355 39.6966C52.0972 41.1368 51.148 42.3974 49.7757 42.5763C49.7589 42.5784 49.7419 42.5811 49.7249 42.583C49.6913 42.5867 49.6573 42.5892 49.6231 42.5915C49.6108 42.5922 49.5984 42.5933 49.586 42.594C49.3567 42.6068 49.117 42.5907 48.8678 42.5402C49.0381 43.8898 49.2827 45.0817 49.691 45.9978C49.8173 46.2813 50.136 46.7936 50.4999 47C55.3598 44.2478 55.9752 38.0289 55.9999 35.2978C56.0064 34.5807 55.5546 33.9821 54.9542 33.8849C52.6218 33.508 50.4999 32 50.4999 32Z" fill="#D29133"/>
</g>
<defs>
<clipPath id="clip0_1946_220">
<rect width="78" height="78" fill="white"/>
</clipPath>
</defs>
</svg>
