<svg width="78" height="78" viewBox="0 0 78 78" fill="none" xmlns="http://www.w3.org/2000/svg">
<g clip-path="url(#clip0_1946_179)">
<path d="M6.88226 62.3592C1.15475 62.3592 -2.3388 51.1144 1.82993 38.0933C8.01875 18.7615 25.6638 14.8639 39.5722 15.831C56.8035 17.0296 71.6856 29.5767 71.6856 53.3179L6.88226 62.3592Z" fill="#EBA533"/>
<path d="M8.7311 59.6591C6.11566 61.6512 3.5575 57.8462 4.33811 56.1967C3.03649 55.6762 2.14192 54.1644 2.0816 52.9859C2.01761 51.7263 2.86282 49.8878 3.87255 49.7854C1.04078 47.6483 2.51608 45.0128 4.5648 44.9403C4.22842 44.4991 3.79028 42.142 4.5648 40.7795C5.31067 39.4657 6.80364 39.2377 6.80364 39.2377C6.46483 37.4096 7.20035 35.4931 8.28503 35.2494C9.45442 34.9861 12.3837 36.1732 12.7926 37.1007C12.7926 37.1007 15.8358 36.4797 17.3531 36.4797C18.8705 36.4797 27.4755 39.0275 27.4755 39.0275L24.2226 54.6111C24.2226 54.6111 14.6372 60.614 11.9602 60.614C9.28319 60.614 8.7311 59.6591 8.7311 59.6591Z" fill="#783700"/>
<path d="M6.88105 34.1756C7.41974 32.481 8.54525 32.7558 9.49649 32.7406C9.07602 31.857 9.07358 30.3884 9.84261 29.712C10.6007 29.0459 11.4227 29.1385 12.2076 29.4792C12.313 27.1093 13.4507 27.166 14.0705 27.1179C14.8194 27.0606 17.0369 27.918 17.5073 28.0094C18.734 28.2489 20.0186 28.0167 21.2623 28.2872C23.7376 28.8253 26.133 30.1154 27.9983 31.8009C29.2299 32.9112 30.6899 34.64 30.9459 36.3438C31.0336 36.9318 31.125 37.841 30.9831 38.4279C30.799 39.1859 29.7277 40.3681 29.0458 40.7051C28.1793 41.1335 26.9587 41.1767 26.0142 41.1822C24.8588 41.1889 23.6151 41.2986 22.4622 41.1828C20.6834 41.0025 18.553 39.7855 17.0917 38.8154C16.4872 38.4144 13.1351 37.317 11.9456 37.4535C11.118 37.5491 10.079 38.3224 9.32281 37.8136C8.56536 37.3054 6.40878 35.6619 6.88105 34.1756Z" fill="#E13319"/>
<path d="M10.7128 59.9156C11.7061 58.5909 9.18447 54.4885 9.62139 53.3521C10.5568 50.9188 11.4519 51.8457 12.2179 50.3619C13.3983 48.0749 10.6671 47.4411 12.2179 44.936C13.4342 42.9701 14.4635 44 15.1563 42.1249C15.9223 40.0524 13.8901 39.3267 15.2581 37.1012C16.7096 34.7375 18.241 36.0549 19.3293 34.7375C20.4171 33.4206 19.8175 30.2951 21.3452 28.8467C22.9892 27.2885 24.0886 28.9862 25.5852 27.1154C27.0818 25.244 26.0501 23.5268 27.1891 22.2002C28.7357 20.3983 30.9782 21.9211 32.2633 21.2252C34.5089 20.0089 33.0445 18.99 35.0829 17.8407C37.3918 16.5391 38.8976 17.8365 41.1687 17.6664C43.3418 17.5037 43.7013 15.6348 46.1833 15.6409C47.5379 15.6445 48.7756 16.7835 50.9285 16.8767C52.5232 16.9462 54.6298 16.4087 56.5951 16.8767C58.5603 17.3447 61.3628 21.8687 62.3927 23.3659C63.4219 24.8632 65.456 43.8135 65.456 43.8135L19.2349 59.5299" fill="#64AF00"/>
<path d="M24.2203 29C23.9113 28.9999 23.6138 28.8972 23.3879 28.7126C23.1619 28.528 23.0243 28.2753 23.0028 28.0053C22.9813 27.7354 23.0775 27.4684 23.2719 27.2581C23.4664 27.0478 23.7447 26.9099 24.0508 26.8723C26.2694 26.593 28.3262 25.6953 29.9164 24.3122C30.0299 24.213 30.1646 24.1344 30.3128 24.0809C30.4611 24.0273 30.6199 23.9998 30.7802 24C30.9406 24.0002 31.0993 24.028 31.2474 24.0819C31.3955 24.1358 31.53 24.2147 31.6432 24.3141C31.7565 24.4135 31.8463 24.5314 31.9074 24.6612C31.9686 24.791 32 24.93 31.9998 25.0704C31.9996 25.2108 31.9678 25.3498 31.9063 25.4795C31.8447 25.6091 31.7546 25.7269 31.6411 25.826C29.6762 27.5351 27.1346 28.6443 24.3931 28.9893C24.3359 28.9964 24.2782 29 24.2203 29Z" fill="#FFE133"/>
<path d="M11.1402 38C10.8633 38.0001 10.5958 37.9 10.3877 37.7185C10.1796 37.537 10.0451 37.2864 10.0094 37.0136C9.97361 36.7408 10.039 36.4643 10.1934 36.2359C10.3478 36.0075 10.5806 35.8428 10.8483 35.7724C12.8699 35.2346 14.6631 34.064 15.9624 32.4341C16.0549 32.3167 16.1698 32.2187 16.3006 32.1456C16.4313 32.0725 16.5753 32.0258 16.7242 32.008C16.8732 31.9903 17.0242 32.002 17.1686 32.0423C17.313 32.0827 17.448 32.151 17.5658 32.2433C17.6835 32.3356 17.7818 32.4501 17.855 32.5802C17.9282 32.7103 17.9748 32.8535 17.9922 33.0015C18.0095 33.1495 17.9973 33.2995 17.9562 33.4429C17.9151 33.5862 17.846 33.7201 17.7527 33.8368C16.1472 35.8508 13.9313 37.2972 11.4335 37.9618C11.3378 37.9871 11.2392 37.9999 11.1402 38Z" fill="#FFE133"/>
<path d="M29.9051 28C29.7495 28 29.5958 27.9649 29.4542 27.897C27.1977 26.8141 25.3324 24.994 24.1347 22.7063C24.0656 22.5737 24.022 22.4281 24.0063 22.2777C23.9907 22.1273 24.0033 21.9752 24.0434 21.8299C24.0835 21.6847 24.1504 21.5492 24.2403 21.4312C24.3301 21.3132 24.4411 21.215 24.5669 21.1422C24.8211 20.9951 25.1203 20.9605 25.3987 21.0459C25.677 21.1313 25.9118 21.3298 26.0514 21.5976C27.0207 23.4491 28.5305 24.9222 30.3569 25.7984C30.5847 25.9069 30.7704 26.0945 30.8829 26.3298C30.9954 26.5651 31.028 26.834 30.9751 27.0915C30.9223 27.3491 30.7872 27.5797 30.5925 27.7451C30.3978 27.9104 30.1552 28.0004 29.9051 28Z" fill="#FFE133"/>
<path d="M13.218 32C12.909 31.9999 12.6116 31.8754 12.3859 31.6517C12.1603 31.4281 12.0232 31.122 12.0025 30.7953C11.9819 30.4687 12.0791 30.1459 12.2746 29.8924C12.47 29.6388 12.7491 29.4734 13.0553 29.4296C15.2713 29.1052 17.3296 28.0331 18.9252 26.3721C19.0391 26.253 19.1741 26.1588 19.3223 26.095C19.4706 26.0312 19.6293 25.9989 19.7893 26C19.9493 26.0012 20.1076 26.0357 20.255 26.1016C20.4025 26.1675 20.5362 26.2636 20.6486 26.3842C20.761 26.5049 20.8499 26.6479 20.9101 26.8049C20.9704 26.962 21.0009 27.1301 20.9998 27.2997C20.9987 27.4692 20.9661 27.6368 20.9039 27.793C20.8417 27.9492 20.751 28.0909 20.6371 28.21C18.6655 30.2625 16.122 31.5874 13.3838 31.9881C13.3288 31.996 13.2735 32 13.218 32Z" fill="#FFE133"/>
<path d="M21.7676 30C21.7006 30 21.6338 29.9955 21.5677 29.9863C18.8148 29.6009 16.2814 28.4725 14.3431 26.7684C14.117 26.5687 13.9936 26.3009 14.0001 26.0239C14.0032 25.8868 14.0382 25.7515 14.103 25.6258C14.1677 25.5002 14.261 25.3866 14.3775 25.2915C14.494 25.1964 14.6314 25.1218 14.7818 25.0718C14.9323 25.0218 15.0929 24.9975 15.2544 25.0002C15.5806 25.0057 15.8909 25.121 16.117 25.3207C17.6857 26.6995 19.7358 27.6125 21.9636 27.9243C22.2693 27.9657 22.5454 28.1035 22.7368 28.3102C22.9281 28.5168 23.0206 28.7771 22.9959 29.0391C22.9711 29.3011 22.8309 29.5456 22.6033 29.7237C22.3756 29.9018 22.0772 30.0005 21.7676 30Z" fill="#FFE133"/>
<path d="M6.88226 62.3592C12.0443 61.9735 15.2691 49.1315 23.7284 35.1579C31.6308 22.1033 39.1749 18.9053 49.4739 18.9053C65.144 18.9053 77.0183 33.874 77.9671 50.2503C78.0993 52.5135 77.9799 57.2861 74.7392 57.2861L6.88226 62.3592Z" fill="#FFC333"/>
<path d="M31.7558 44.3846C31.7558 45.2091 31.0873 45.8763 30.2628 45.8763C29.4383 45.8763 28.7692 45.2084 28.7692 44.3846C28.7692 43.5583 29.4383 42.891 30.2628 42.891C31.0879 42.891 31.7558 43.5576 31.7558 44.3846Z" fill="#D29133"/>
<path d="M48.8676 53.6659C49.5629 53.6659 50.1266 53.1022 50.1266 52.4069C50.1266 51.7116 49.5629 51.1479 48.8676 51.1479C48.1723 51.1479 47.6086 51.7116 47.6086 52.4069C47.6086 53.1022 48.1723 53.6659 48.8676 53.6659Z" fill="#D29133"/>
<path d="M69.7808 42.3339C69.7808 43.0298 69.2165 43.5923 68.5206 43.5923C67.8265 43.5923 67.2616 43.0292 67.2616 42.3339C67.2616 41.6386 67.8271 41.0756 68.5206 41.0756C69.2165 41.075 69.7808 41.6386 69.7808 42.3339Z" fill="#D29133"/>
<path d="M54.3898 28.0112C55.0847 28.0112 55.6481 27.4478 55.6481 26.7529C55.6481 26.0579 55.0847 25.4945 54.3898 25.4945C53.6948 25.4945 53.1314 26.0579 53.1314 26.7529C53.1314 27.4478 53.6948 28.0112 54.3898 28.0112Z" fill="#D29133"/>
<path d="M36.1853 37.8636C36.8806 37.8636 37.4443 37.3 37.4443 36.6047C37.4443 35.9094 36.8806 35.3457 36.1853 35.3457C35.49 35.3457 34.9263 35.9094 34.9263 36.6047C34.9263 37.3 35.49 37.8636 36.1853 37.8636Z" fill="#D29133"/>
<path d="M35.0817 53.352C35.7774 53.352 36.3413 52.7881 36.3413 52.0925C36.3413 51.3968 35.7774 50.8329 35.0817 50.8329C34.3861 50.8329 33.8221 51.3968 33.8221 52.0925C33.8221 52.7881 34.3861 53.352 35.0817 53.352Z" fill="#D29133"/>
<path d="M63.7443 35.2372C64.5689 35.2372 65.2373 34.5687 65.2373 33.7442C65.2373 32.9196 64.5689 32.2512 63.7443 32.2512C62.9198 32.2512 62.2513 32.9196 62.2513 33.7442C62.2513 34.5687 62.9198 35.2372 63.7443 35.2372Z" fill="#D29133"/>
<path d="M67.208 52.6416C68.0325 52.6416 68.701 51.9732 68.701 51.1486C68.701 50.3241 68.0325 49.6556 67.208 49.6556C66.3835 49.6556 65.715 50.3241 65.715 51.1486C65.715 51.9732 66.3835 52.6416 67.208 52.6416Z" fill="#D29133"/>
<path d="M41.0749 29.4311C41.7346 29.4311 42.2693 28.8964 42.2693 28.2367C42.2693 27.5771 41.7346 27.0424 41.0749 27.0424C40.4153 27.0424 39.8806 27.5771 39.8806 28.2367C39.8806 28.8964 40.4153 29.4311 41.0749 29.4311Z" fill="#D29133"/>
<path d="M42.1121 46.5496C42.7714 46.5496 43.3059 46.0152 43.3059 45.3559C43.3059 44.6966 42.7714 44.1621 42.1121 44.1621C41.4528 44.1621 40.9183 44.6966 40.9183 45.3559C40.9183 46.0152 41.4528 46.5496 42.1121 46.5496Z" fill="#D29133"/>
<path d="M24.8601 53.2704C24.8601 53.9298 24.3263 54.463 23.6663 54.463C23.0063 54.463 22.4719 53.9298 22.4719 53.2704C22.4719 52.6099 23.0063 52.0754 23.6663 52.0754C24.3263 52.0754 24.8601 52.6099 24.8601 53.2704Z" fill="#D29133"/>
<path d="M58.7157 48.844C59.375 48.844 59.9095 48.3095 59.9095 47.6502C59.9095 46.9909 59.375 46.4564 58.7157 46.4564C58.0564 46.4564 57.522 46.9909 57.522 47.6502C57.522 48.3095 58.0564 48.844 58.7157 48.844Z" fill="#D29133"/>
<path fill-rule="evenodd" clip-rule="evenodd" d="M50.4999 32C50.4999 32 48.3782 33.5078 46.0459 33.8849C45.4439 33.9822 44.9934 34.5836 45.0001 35.3026C45.0184 37.2816 45.3476 41.0846 47.3711 44.0771C46.7376 41.5986 46.6123 39.105 46.6346 37.355C46.6473 36.3706 47.2663 35.5386 48.0919 35.4178C48.8639 35.305 49.728 35.0863 50.4999 34.8597C51.0369 34.7019 51.5291 34.5404 51.9148 34.4078C52.4198 34.2341 52.7421 34.1103 52.7421 34.1103V34.1105C52.7404 34.1291 52.738 34.1473 52.7359 34.1658C52.5877 35.6229 51.7961 36.8352 50.7115 37.4009C50.3488 37.59 49.9535 37.7073 49.5385 37.7371C49.5319 37.7374 49.5255 37.7379 49.519 37.7382C49.512 37.7389 49.5048 37.7395 49.4983 37.7401C49.3675 37.7484 49.2448 37.7874 49.133 37.85C49.1375 37.8476 49.1415 37.8448 49.146 37.8424C49.1407 37.8453 49.135 37.8474 49.1298 37.8504C49.1285 37.851 49.1275 37.8517 49.1262 37.8524C48.7897 38.0432 48.5614 38.4518 48.5682 38.9201C48.5756 39.4271 48.5778 39.9464 48.5607 40.1363C49.4745 40.2523 50.3624 40.1418 51.0374 39.9967H51.0375C51.7619 39.8408 52.2408 39.6447 52.2408 39.6447C52.2408 39.6447 52.2408 39.6449 52.2408 39.645L52.2412 39.6449C52.2396 39.6624 52.2372 39.6793 52.2355 39.6966C52.0972 41.1368 51.148 42.3974 49.7757 42.5763C49.7589 42.5784 49.7419 42.5811 49.7249 42.583C49.6913 42.5867 49.6573 42.5892 49.6231 42.5915C49.6108 42.5922 49.5984 42.5933 49.586 42.594C49.3567 42.6068 49.117 42.5907 48.8678 42.5402C49.0381 43.8898 49.2827 45.0817 49.691 45.9978C49.8173 46.2813 50.136 46.7936 50.4999 47C55.3598 44.2478 55.9752 38.0289 55.9999 35.2978C56.0064 34.5807 55.5546 33.9821 54.9542 33.8849C52.6218 33.508 50.4999 32 50.4999 32Z" fill="#D29133"/>
</g>
<defs>
<clipPath id="clip0_1946_179">
<rect width="78" height="78" fill="white"/>
</clipPath>
</defs>
</svg>
