<svg xmlns="http://www.w3.org/2000/svg" width="363" height="156" viewBox="0 0 363 156" fill="none">
<path d="M262.493 81.2955L286.556 39.5806L307.406 51.6292L283.347 93.3441L262.493 81.2955Z" fill="#FBBC04"/>
<path d="M331.67 81.15L307.593 39.4203C304.485 33.5368 297.202 31.289 291.323 34.3998C285.445 37.5105 283.202 44.7996 286.307 50.683C286.443 50.941 286.588 51.1931 286.742 51.4422L310.819 93.1719C314.067 98.9782 321.403 101.051 327.205 97.801C333.006 94.5508 335.077 87.2084 331.83 81.4021C331.776 81.3072 331.723 81.2152 331.67 81.1233V81.15Z" fill="#4285F4"/>
<path d="M273.039 99.2749C279.687 99.2749 285.077 93.8806 285.077 87.2263C285.077 80.5721 279.687 75.1777 273.039 75.1777C266.39 75.1777 261 80.5721 261 87.2263C261 93.8806 266.39 99.2749 273.039 99.2749Z" fill="#34A853"/>
<path d="M237.799 134.208C239.543 134.208 240.999 133.472 241.991 132.368V128.512H236.999V129.696H240.663V131.872C240.135 132.4 239.079 133.024 237.799 133.024C235.463 133.024 233.687 131.2 233.687 128.672C233.687 126.128 235.463 124.336 237.799 124.336C239.079 124.336 240.215 124.944 240.887 125.808L241.943 125.152C240.999 123.984 239.687 123.152 237.799 123.152C234.759 123.152 232.311 125.36 232.311 128.672C232.311 131.984 234.759 134.208 237.799 134.208Z" fill="#222222"/>
<path d="M247.278 134.192C249.63 134.192 251.102 132.368 251.102 130.128C251.102 127.888 249.63 126.08 247.278 126.08C244.926 126.08 243.454 127.888 243.454 130.128C243.454 132.368 244.926 134.192 247.278 134.192ZM247.278 133.12C245.63 133.12 244.702 131.712 244.702 130.128C244.702 128.56 245.63 127.152 247.278 127.152C248.926 127.152 249.838 128.56 249.838 130.128C249.838 131.712 248.926 133.12 247.278 133.12Z" fill="#222222"/>
<path d="M256.234 134.192C258.586 134.192 260.058 132.368 260.058 130.128C260.058 127.888 258.586 126.08 256.234 126.08C253.882 126.08 252.41 127.888 252.41 130.128C252.41 132.368 253.882 134.192 256.234 134.192ZM256.234 133.12C254.586 133.12 253.658 131.712 253.658 130.128C253.658 128.56 254.586 127.152 256.234 127.152C257.882 127.152 258.794 128.56 258.794 130.128C258.794 131.712 257.882 133.12 256.234 133.12Z" fill="#222222"/>
<path d="M264.918 137.136C266.806 137.136 268.598 136.336 268.598 133.776V126.272H267.398V127.44C266.774 126.592 265.846 126.08 264.806 126.08C262.774 126.08 261.366 127.616 261.366 130.096C261.366 132.592 262.79 134.096 264.806 134.096C265.894 134.096 266.838 133.504 267.398 132.72V133.824C267.398 135.52 266.198 136.144 264.918 136.144C263.814 136.144 263.046 135.856 262.406 135.088L261.798 135.984C262.71 136.88 263.606 137.136 264.918 137.136ZM265.094 133.04C263.542 133.04 262.614 131.792 262.614 130.096C262.614 128.384 263.542 127.152 265.094 127.152C266.054 127.152 266.982 127.728 267.398 128.4V131.776C266.982 132.448 266.054 133.04 265.094 133.04Z" fill="#222222"/>
<path d="M272.002 134V123.328H270.802V134H272.002Z" fill="#222222"/>
<path d="M277.683 134.192C278.947 134.192 279.987 133.776 280.755 133.008L280.179 132.224C279.571 132.848 278.675 133.2 277.795 133.2C276.131 133.2 275.107 131.984 275.011 130.528H281.267V130.224C281.267 127.904 279.891 126.08 277.555 126.08C275.347 126.08 273.747 127.888 273.747 130.128C273.747 132.544 275.395 134.192 277.683 134.192ZM280.083 129.648H275.011C275.075 128.464 275.891 127.072 277.539 127.072C279.299 127.072 280.067 128.496 280.083 129.648Z" fill="#222222"/>
<path d="M296.12 134L291.816 123.328H290.168L285.88 134H287.4L288.344 131.632H293.656L294.6 134H296.12ZM293.256 130.448H288.728L291 124.704L293.256 130.448Z" fill="#222222"/>
<path d="M298.643 134V129.76H301.603C303.715 129.76 304.947 128.288 304.947 126.544C304.947 124.8 303.747 123.328 301.603 123.328H297.315V134H298.643ZM301.443 128.576H298.643V124.512H301.443C302.707 124.512 303.571 125.344 303.571 126.544C303.571 127.744 302.707 128.576 301.443 128.576Z" fill="#222222"/>
<path d="M307.834 134V123.328H306.506V134H307.834Z" fill="#222222"/>
<path d="M317.387 134L320.603 126.272H319.291L316.731 132.608L314.155 126.272H312.859L316.075 134H317.387Z" fill="#222222"/>
<path d="M325.143 134.192C326.407 134.192 327.447 133.776 328.215 133.008L327.639 132.224C327.031 132.848 326.135 133.2 325.255 133.2C323.591 133.2 322.567 131.984 322.471 130.528H328.727V130.224C328.727 127.904 327.351 126.08 325.015 126.08C322.807 126.08 321.207 127.888 321.207 130.128C321.207 132.544 322.855 134.192 325.143 134.192ZM327.543 129.648H322.471C322.535 128.464 323.351 127.072 324.999 127.072C326.759 127.072 327.527 128.496 327.543 129.648Z" fill="#222222"/>
<path d="M331.67 134V128.528C332.022 127.904 333.03 127.296 333.766 127.296C333.958 127.296 334.102 127.312 334.246 127.344V126.112C333.19 126.112 332.294 126.704 331.67 127.52V126.272H330.47V134H331.67Z" fill="#222222"/>
<path d="M336.144 125.168C336.592 125.168 336.96 124.816 336.96 124.368C336.96 123.92 336.592 123.552 336.144 123.552C335.712 123.552 335.344 123.92 335.344 124.368C335.344 124.816 335.712 125.168 336.144 125.168ZM336.752 134V126.272H335.552V134H336.752Z" fill="#222222"/>
<path d="M340.481 134V127.328H342.049V126.272H340.481V125.68C340.481 124.704 340.913 124.16 341.697 124.16C342.001 124.16 342.209 124.24 342.385 124.352L342.689 123.44C342.385 123.248 341.969 123.168 341.521 123.168C340.177 123.168 339.281 124.08 339.281 125.68V126.272H338.001V127.328H339.281V134H340.481ZM344.065 125.168C344.513 125.168 344.881 124.816 344.881 124.368C344.881 123.92 344.513 123.552 344.065 123.552C343.633 123.552 343.265 123.92 343.265 124.368C343.265 124.816 343.633 125.168 344.065 125.168ZM344.673 134V126.272H343.473V134H344.673Z" fill="#222222"/>
<path d="M350.374 134.192C351.638 134.192 352.678 133.776 353.446 133.008L352.87 132.224C352.262 132.848 351.366 133.2 350.486 133.2C348.822 133.2 347.798 131.984 347.702 130.528H353.958V130.224C353.958 127.904 352.582 126.08 350.246 126.08C348.038 126.08 346.438 127.888 346.438 130.128C346.438 132.544 348.086 134.192 350.374 134.192ZM352.774 129.648H347.702C347.766 128.464 348.582 127.072 350.23 127.072C351.99 127.072 352.758 128.496 352.774 129.648Z" fill="#222222"/>
<path d="M362.502 134V123.328H361.302V127.44C360.678 126.592 359.734 126.08 358.694 126.08C356.662 126.08 355.254 127.68 355.254 130.144C355.254 132.656 356.678 134.192 358.694 134.192C359.782 134.192 360.726 133.632 361.302 132.848V134H362.502ZM358.982 133.12C357.43 133.12 356.502 131.856 356.502 130.144C356.502 128.432 357.43 127.152 358.982 127.152C359.942 127.152 360.87 127.728 361.302 128.4V131.904C360.87 132.576 359.942 133.12 358.982 133.12Z" fill="#222222"/>
<line x1="196.5" y1="2.18557e-08" x2="196.5" y2="156" stroke="#E1E1E1"/>
<path d="M50.8975 27.0603H55.8817V39.5976H58.8996V27.0603H63.8838V24.2793H50.8975V27.0603Z" fill="#0B0E17"/>
<path d="M74.8582 36.771H69.0509V33.1238H74.0808V30.2972H69.0509V27.0603H74.8582V24.2793H66.033V39.5976H74.8582V36.771Z" fill="#0B0E17"/>
<path d="M84.3238 37.0902C81.5802 37.0902 79.7511 34.9019 79.7511 31.9385C79.7511 28.9752 81.5802 26.8324 84.278 26.8324C86.3357 26.8324 87.4789 27.7442 88.0276 29.2487H91.3199C90.4968 26.1486 88.2105 24.0059 84.278 24.0059C79.7968 24.0059 76.5959 27.3339 76.5959 31.9385C76.5959 36.5431 79.7968 39.9168 84.278 39.9168C88.2105 39.9168 90.5426 37.8652 91.3657 34.5372H88.1648C87.7075 35.996 86.4729 37.0902 84.3238 37.0902Z" fill="#0B0E17"/>
<path d="M96.5326 33.0784H99.5963V33.124H103.117V39.5978H106.135V33.0784H109.61C110.022 33.5799 110.616 33.9446 111.348 33.9446C112.583 33.9446 113.589 32.896 113.589 31.6651C113.589 30.3886 112.583 29.3856 111.348 29.3856C110.616 29.3856 110.022 29.7503 109.61 30.2518H106.135V22H103.117V30.2518H99.5963H96.5326V24.2795H93.5146V39.5978H96.5326V33.0784Z" fill="#0B0E17"/>
<path d="M50.8975 46.2996H55.8817V58.8368H58.8996V46.2996H63.8838V43.5186H50.8975V46.2996Z" fill="#0B0E17"/>
<path d="M67.9078 42.6069C66.8561 42.6069 65.9873 43.4276 65.9873 44.4761C65.9873 45.5247 66.8104 46.3453 67.9078 46.3453C68.9595 46.3453 69.8283 45.5703 69.8283 44.4761C69.7826 43.4276 68.9138 42.6069 67.9078 42.6069Z" fill="#0B0E17"/>
<path d="M69.2796 47.7583H66.4446V58.8367H69.2796V47.7583Z" fill="#0B0E17"/>
<path d="M80.8028 53.366L80.4827 54.2778L80.1169 53.366L75.7271 43.5186H72.2976V58.8368H75.2698V49.1261L75.7271 50.4938L79.2023 58.8368H81.763L85.2382 50.4938L85.6955 49.1261V58.8368H88.7135V43.5186H85.2382L80.8028 53.366Z" fill="#0B0E17"/>
<path d="M91.8228 58.8368H100.648V56.0102H94.8407V52.363H99.8706V49.5364H94.8407V46.2996H100.648V43.5186H91.8228V58.8368Z" fill="#0B0E17"/>
<path d="M108.513 49.7189C106.638 49.0806 105.815 48.6703 105.815 47.5306C105.815 46.482 106.455 45.8893 107.553 45.8893C108.605 45.8893 109.382 46.5732 109.428 47.8041H112.491C112.354 44.7496 110.525 43.2451 107.644 43.2451C104.626 43.2451 102.797 45.1599 102.797 47.8041C102.797 50.3572 104.443 51.5881 107.187 52.4999C109.108 53.1382 109.885 53.7308 109.885 54.7338C109.885 55.7368 109.153 56.4662 107.873 56.4662C106.318 56.4662 105.541 55.6456 105.449 54.1411H102.386C102.477 57.0589 104.306 59.1105 107.781 59.1105C110.662 59.1105 112.903 57.4236 112.903 54.4603C112.949 52.1808 111.805 50.8131 108.513 49.7189Z" fill="#0B0E17"/>
<path d="M71.1516 139.888C71.1516 140.279 71.4691 140.595 71.8608 140.595H94.5544C94.9461 140.595 95.2636 140.279 95.2636 139.888C95.2636 139.498 94.9461 139.181 94.5544 139.181H71.8608C71.4691 139.181 71.1516 139.498 71.1516 139.888Z" fill="#0B0E17"/>
<path d="M72.5701 134.232V137.767H93.8454V134.232C93.8454 133.06 92.8928 132.11 91.7178 132.11H74.6976C73.5226 132.11 72.5701 133.06 72.5701 134.232Z" fill="#0B0E17"/>
<path d="M83.2076 130.429C85.4926 128.207 95.2636 117.994 95.2636 105.949C95.2636 105.702 95.2617 105.456 95.2579 105.211C92.3766 104.96 90.0668 103.212 89.6555 101H76.7598C76.3485 103.212 74.0387 104.96 71.1573 105.211C71.1535 105.456 71.1516 105.702 71.1516 105.949C71.1516 118.006 80.9212 128.208 83.2076 130.429ZM72.57 107.492C72.57 107.118 72.5752 106.747 72.5856 106.379C72.5967 105.996 72.911 105.692 73.2947 105.692C75.3294 105.686 76.9825 104.533 76.9825 103.121C76.9825 102.731 77.3 102.414 77.6916 102.414H88.7229C89.1146 102.414 89.4321 102.731 89.4321 103.121C89.4321 104.535 91.0873 105.686 93.1198 105.692C93.5036 105.692 93.8178 105.996 93.829 106.379C93.8389 106.747 93.8441 107.118 93.8446 107.492C93.8446 118.545 84.0934 127.322 83.6785 127.689C83.4097 127.928 83.0041 127.928 82.7353 127.689C82.3211 127.322 72.57 118.545 72.57 107.492Z" fill="#0B0E17"/>
<path d="M83.2076 118.019C83.6256 118.019 83.9645 117.68 83.9645 117.262C83.9645 116.844 83.6256 116.505 83.2076 116.505C82.7896 116.505 82.4507 116.844 82.4507 117.262C82.4507 117.68 82.7896 118.019 83.2076 118.019Z" fill="#0B0E17"/>
<path d="M92.4268 107.492C92.4268 107.351 92.4268 107.209 92.4268 107.068C90.239 106.829 88.4866 105.508 88.1008 103.828H78.3199C77.9313 105.508 76.1789 106.829 73.9939 107.068C73.9939 107.209 73.9939 107.351 73.9939 107.492C73.9882 116.555 81.2644 124.285 83.2075 126.186C85.1507 124.285 92.4268 116.555 92.4268 107.492ZM81.08 106.656H85.3351C85.7267 106.656 86.0442 106.973 86.0442 107.363C86.0442 107.754 85.7267 108.07 85.3351 108.07H81.08C80.6883 108.07 80.3708 107.754 80.3708 107.363C80.3708 106.973 80.6883 106.656 81.08 106.656ZM79.6616 109.485H86.7534C87.1451 109.485 87.4626 109.801 87.4626 110.192C87.4626 110.582 87.1451 110.899 86.7534 110.899H79.6616C79.27 110.899 78.9525 110.582 78.9525 110.192C78.9525 109.801 79.27 109.485 79.6616 109.485ZM78.2433 113.02C78.2433 112.629 78.5608 112.313 78.9525 112.313H87.4626C87.8543 112.313 88.1718 112.629 88.1718 113.02C88.1718 113.41 87.8543 113.727 87.4626 113.727H78.9525C78.5608 113.727 78.2433 113.41 78.2433 113.02ZM81.08 117.262C81.08 116.091 82.0325 115.141 83.2075 115.141C84.3825 115.141 85.3351 116.091 85.3351 117.262C85.3351 118.434 84.3825 119.383 83.2075 119.383C82.0325 119.383 81.08 118.434 81.08 117.262Z" fill="#0B0E17"/>
<path d="M43.8108 69.7632C44.0388 69.7212 44.2998 69.6882 44.5938 69.6642C44.8938 69.6402 45.1668 69.6282 45.4128 69.6282C45.6888 69.6282 45.9498 69.6582 46.1958 69.7182C46.4478 69.7782 46.6668 69.8772 46.8528 70.0152C47.0448 70.1532 47.1978 70.3332 47.3118 70.5552C47.4258 70.7772 47.4828 71.0472 47.4828 71.3652C47.4828 71.8572 47.3478 72.2562 47.0778 72.5622C46.8078 72.8682 46.4658 73.0722 46.0518 73.1742L46.4838 73.5072L48.0498 76.0002H47.1768L45.4398 73.2822L44.5578 73.1472V76.0002H43.8108V69.7632ZM45.4308 70.2762C45.3528 70.2762 45.2718 70.2762 45.1878 70.2762C45.1038 70.2762 45.0228 70.2792 44.9448 70.2852C44.8668 70.2912 44.7918 70.2972 44.7198 70.3032C44.6538 70.3092 44.5998 70.3182 44.5578 70.3302V72.6522H45.2598C45.6738 72.6522 46.0158 72.5502 46.2858 72.3462C46.5558 72.1422 46.6908 71.8242 46.6908 71.3922C46.6908 71.0682 46.5798 70.8012 46.3578 70.5912C46.1358 70.3812 45.8268 70.2762 45.4308 70.2762Z" fill="#090909"/>
<path d="M48.7537 71.8332C48.9817 71.6952 49.2457 71.5932 49.5457 71.5272C49.8517 71.4612 50.1697 71.4282 50.4997 71.4282C50.8117 71.4282 51.0607 71.4702 51.2467 71.5542C51.4387 71.6382 51.5827 71.7492 51.6787 71.8872C51.7807 72.0192 51.8467 72.1662 51.8767 72.3282C51.9127 72.4902 51.9307 72.6522 51.9307 72.8142C51.9307 73.1742 51.9217 73.5252 51.9037 73.8672C51.8857 74.2092 51.8767 74.5332 51.8767 74.8392C51.8767 75.0612 51.8857 75.2712 51.9037 75.4692C51.9217 75.6672 51.9547 75.8502 52.0027 76.0182H51.4717L51.2827 75.3882H51.2377C51.1837 75.4722 51.1147 75.5562 51.0307 75.6402C50.9527 75.7182 50.8567 75.7902 50.7427 75.8562C50.6287 75.9162 50.4967 75.9672 50.3467 76.0092C50.1967 76.0512 50.0257 76.0722 49.8337 76.0722C49.6417 76.0722 49.4617 76.0422 49.2937 75.9822C49.1317 75.9222 48.9907 75.8382 48.8707 75.7302C48.7507 75.6162 48.6547 75.4812 48.5827 75.3252C48.5167 75.1692 48.4837 74.9922 48.4837 74.7942C48.4837 74.5302 48.5377 74.3112 48.6457 74.1372C48.7537 73.9572 48.9037 73.8162 49.0957 73.7142C49.2937 73.6062 49.5277 73.5312 49.7977 73.4892C50.0737 73.4412 50.3767 73.4172 50.7067 73.4172C50.7907 73.4172 50.8717 73.4172 50.9497 73.4172C51.0337 73.4172 51.1177 73.4232 51.2017 73.4352C51.2197 73.2552 51.2287 73.0932 51.2287 72.9492C51.2287 72.6192 51.1627 72.3882 51.0307 72.2562C50.8987 72.1242 50.6587 72.0582 50.3107 72.0582C50.2087 72.0582 50.0977 72.0672 49.9777 72.0852C49.8637 72.0972 49.7437 72.1182 49.6177 72.1482C49.4977 72.1722 49.3807 72.2052 49.2667 72.2472C49.1587 72.2832 49.0627 72.3252 48.9787 72.3732L48.7537 71.8332ZM50.0317 75.4422C50.1997 75.4422 50.3497 75.4212 50.4817 75.3792C50.6137 75.3312 50.7277 75.2742 50.8237 75.2082C50.9197 75.1362 50.9977 75.0582 51.0577 74.9742C51.1237 74.8902 51.1717 74.8092 51.2017 74.7312V73.9842C51.1177 73.9782 51.0307 73.9752 50.9407 73.9752C50.8567 73.9692 50.7727 73.9662 50.6887 73.9662C50.5027 73.9662 50.3197 73.9782 50.1397 74.0022C49.9657 74.0202 49.8097 74.0592 49.6717 74.1192C49.5397 74.1732 49.4317 74.2512 49.3477 74.3532C49.2697 74.4492 49.2307 74.5722 49.2307 74.7222C49.2307 74.9322 49.3057 75.1062 49.4557 75.2442C49.6057 75.3762 49.7977 75.4422 50.0317 75.4422Z" fill="#090909"/>
<path d="M52.5187 71.5002H53.2207V70.6092L53.9407 70.4022V71.5002H55.1647V72.1302H53.9407V74.6232C53.9407 74.9352 53.9797 75.1572 54.0577 75.2892C54.1357 75.4152 54.2677 75.4782 54.4537 75.4782C54.6097 75.4782 54.7417 75.4632 54.8497 75.4332C54.9577 75.3972 55.0777 75.3522 55.2097 75.2982L55.3717 75.8472C55.2097 75.9252 55.0327 75.9882 54.8407 76.0362C54.6487 76.0842 54.4417 76.1082 54.2197 76.1082C53.8537 76.1082 53.5957 76.0062 53.4457 75.8022C53.2957 75.5922 53.2207 75.2442 53.2207 74.7582V72.1302H52.5187V71.5002Z" fill="#090909"/>
<path d="M59.1731 75.6402C58.9931 75.7842 58.7651 75.8982 58.4891 75.9822C58.2191 76.0662 57.9311 76.1082 57.6251 76.1082C57.2831 76.1082 56.9861 76.0542 56.7341 75.9462C56.4821 75.8322 56.2751 75.6732 56.1131 75.4692C55.9511 75.2592 55.8311 75.0102 55.7531 74.7222C55.6751 74.4342 55.6361 74.1102 55.6361 73.7502C55.6361 72.9822 55.8071 72.3972 56.1491 71.9952C56.4911 71.5932 56.9801 71.3922 57.6161 71.3922C57.8201 71.3922 58.0241 71.4162 58.2281 71.4642C58.4321 71.5062 58.6151 71.5902 58.7771 71.7162C58.9391 71.8422 59.0711 72.0222 59.1731 72.2562C59.2751 72.4842 59.3261 72.7872 59.3261 73.1652C59.3261 73.3632 59.3081 73.5822 59.2721 73.8222H56.3831C56.3831 74.0862 56.4101 74.3202 56.4641 74.5242C56.5181 74.7282 56.6021 74.9022 56.7161 75.0462C56.8301 75.1842 56.9771 75.2922 57.1571 75.3702C57.3431 75.4422 57.5681 75.4782 57.8321 75.4782C58.0361 75.4782 58.2401 75.4422 58.4441 75.3702C58.6481 75.2982 58.8011 75.2142 58.9031 75.1182L59.1731 75.6402ZM57.6251 72.0222C57.2711 72.0222 56.9861 72.1152 56.7701 72.3012C56.5601 72.4872 56.4341 72.8052 56.3921 73.2552H58.6241C58.6241 72.7992 58.5371 72.4812 58.3631 72.3012C58.1891 72.1152 57.9431 72.0222 57.6251 72.0222Z" fill="#090909"/>
<path d="M63.7366 74.4522C63.7366 74.7582 63.7396 75.0372 63.7456 75.2892C63.7516 75.5352 63.7786 75.7782 63.8266 76.0182H63.3406L63.1606 75.3792H63.1246C63.0046 75.5892 62.8306 75.7632 62.6026 75.9012C62.3746 76.0392 62.1076 76.1082 61.8016 76.1082C61.2016 76.1082 60.7546 75.9192 60.4606 75.5412C60.1726 75.1632 60.0286 74.5722 60.0286 73.7682C60.0286 73.0002 60.2086 72.4182 60.5686 72.0222C60.9346 71.6202 61.4356 71.4192 62.0716 71.4192C62.2936 71.4192 62.4676 71.4312 62.5936 71.4552C62.7256 71.4792 62.8666 71.5182 63.0166 71.5722V69.7002H63.7366V74.4522ZM61.9186 75.4782C62.2246 75.4782 62.4676 75.4002 62.6476 75.2442C62.8276 75.0822 62.9506 74.8392 63.0166 74.5152V72.2832C62.9086 72.1992 62.7856 72.1392 62.6476 72.1032C62.5096 72.0672 62.3266 72.0492 62.0986 72.0492C61.6846 72.0492 61.3606 72.1872 61.1266 72.4632C60.8926 72.7332 60.7756 73.1682 60.7756 73.7682C60.7756 74.0142 60.7936 74.2422 60.8296 74.4522C60.8716 74.6622 60.9376 74.8422 61.0276 74.9922C61.1176 75.1422 61.2346 75.2622 61.3786 75.3522C61.5286 75.4362 61.7086 75.4782 61.9186 75.4782Z" fill="#090909"/>
<path d="M70.5202 73.1302H69.2742L68.7702 75.2862H67.2722L67.7762 73.1302H66.7402L67.0482 71.7722H68.0982L68.4482 70.2882H67.4402L67.7482 68.9302H68.7702L69.2602 66.9142H70.7442L70.2682 68.9302H71.5142L72.0042 66.9142H73.4882L73.0122 68.9302H74.0202L73.6702 70.2882H72.6902L72.3402 71.7722H73.3062L72.9702 73.1302H72.0182L71.5142 75.2862H70.0162L70.5202 73.1302ZM69.5962 71.7722H70.8422L71.1922 70.2882H69.9462L69.5962 71.7722Z" fill="#1970FF"/>
<path d="M75.6538 74.4602H77.5998V68.9302L77.8098 67.9782L77.1378 68.8042L75.8918 69.6582L75.1218 68.6082L78.3138 66.0322H79.3358V74.4602H81.2398V76.0002H75.6538V74.4602Z" fill="#1970FF"/>
<path d="M87.989 75.7032C87.809 75.8352 87.596 75.9342 87.35 76.0002C87.104 76.0722 86.846 76.1082 86.576 76.1082C86.228 76.1082 85.934 76.0542 85.694 75.9462C85.454 75.8322 85.256 75.6732 85.1 75.4692C84.95 75.2592 84.839 75.0102 84.767 74.7222C84.701 74.4282 84.668 74.1042 84.668 73.7502C84.668 72.9882 84.836 72.4062 85.172 72.0042C85.508 71.5962 85.991 71.3922 86.621 71.3922C86.909 71.3922 87.152 71.4162 87.35 71.4642C87.554 71.5062 87.737 71.5692 87.899 71.6532L87.692 72.2742C87.554 72.1962 87.401 72.1362 87.233 72.0942C87.065 72.0462 86.885 72.0222 86.693 72.0222C85.841 72.0222 85.415 72.5982 85.415 73.7502C85.415 73.9782 85.436 74.1972 85.478 74.4072C85.526 74.6112 85.601 74.7942 85.703 74.9562C85.811 75.1122 85.949 75.2382 86.117 75.3342C86.291 75.4302 86.504 75.4782 86.756 75.4782C86.972 75.4782 87.164 75.4452 87.332 75.3792C87.506 75.3132 87.647 75.2382 87.755 75.1542L87.989 75.7032Z" fill="#090909"/>
<path d="M89.6038 74.8932C89.6038 75.1032 89.6398 75.2532 89.7118 75.3432C89.7838 75.4332 89.8858 75.4782 90.0178 75.4782C90.0958 75.4782 90.1798 75.4722 90.2698 75.4602C90.3598 75.4482 90.4618 75.4212 90.5758 75.3792L90.6568 75.9462C90.5608 75.9942 90.4258 76.0332 90.2518 76.0632C90.0838 76.0932 89.9368 76.1082 89.8108 76.1082C89.5408 76.1082 89.3188 76.0332 89.1448 75.8832C88.9708 75.7272 88.8838 75.4662 88.8838 75.1002V69.7002H89.6038V74.8932Z" fill="#090909"/>
<path d="M91.406 71.5002H92.126V76.0002H91.406V71.5002ZM91.253 70.1322C91.253 69.9942 91.298 69.8772 91.388 69.7812C91.484 69.6792 91.604 69.6282 91.748 69.6282C91.892 69.6282 92.015 69.6792 92.117 69.7812C92.219 69.8772 92.27 69.9942 92.27 70.1322C92.27 70.2702 92.219 70.3842 92.117 70.4742C92.015 70.5642 91.892 70.6092 91.748 70.6092C91.604 70.6092 91.484 70.5642 91.388 70.4742C91.298 70.3842 91.253 70.2702 91.253 70.1322Z" fill="#090909"/>
<path d="M96.5524 75.7032C96.3724 75.8352 96.1594 75.9342 95.9134 76.0002C95.6674 76.0722 95.4094 76.1082 95.1394 76.1082C94.7914 76.1082 94.4974 76.0542 94.2574 75.9462C94.0174 75.8322 93.8194 75.6732 93.6634 75.4692C93.5134 75.2592 93.4024 75.0102 93.3304 74.7222C93.2644 74.4282 93.2314 74.1042 93.2314 73.7502C93.2314 72.9882 93.3994 72.4062 93.7354 72.0042C94.0714 71.5962 94.5544 71.3922 95.1844 71.3922C95.4724 71.3922 95.7154 71.4162 95.9134 71.4642C96.1174 71.5062 96.3004 71.5692 96.4624 71.6532L96.2554 72.2742C96.1174 72.1962 95.9644 72.1362 95.7964 72.0942C95.6284 72.0462 95.4484 72.0222 95.2564 72.0222C94.4044 72.0222 93.9784 72.5982 93.9784 73.7502C93.9784 73.9782 93.9994 74.1972 94.0414 74.4072C94.0894 74.6112 94.1644 74.7942 94.2664 74.9562C94.3744 75.1122 94.5124 75.2382 94.6804 75.3342C94.8544 75.4302 95.0674 75.4782 95.3194 75.4782C95.5354 75.4782 95.7274 75.4452 95.8954 75.3792C96.0694 75.3132 96.2104 75.2382 96.3184 75.1542L96.5524 75.7032Z" fill="#090909"/>
<path d="M98.5002 73.9752H98.0862V76.0002H97.3662V69.7002H98.0862V73.5342L98.4552 73.4082L99.8502 71.5002H100.687L99.3102 73.3092L98.9412 73.6062L99.3912 73.9662L100.894 76.0002H100.003L98.5002 73.9752Z" fill="#090909"/>
<path d="M102.949 71.5002H103.651V71.2482C103.651 70.9722 103.672 70.7322 103.714 70.5282C103.762 70.3242 103.837 70.1592 103.939 70.0332C104.041 69.9012 104.173 69.8052 104.335 69.7452C104.497 69.6792 104.698 69.6462 104.938 69.6462C105.13 69.6462 105.298 69.6582 105.442 69.6822C105.592 69.7062 105.748 69.7512 105.91 69.8172L105.748 70.4202C105.61 70.3602 105.478 70.3212 105.352 70.3032C105.232 70.2852 105.118 70.2762 105.01 70.2762C104.854 70.2762 104.731 70.3002 104.641 70.3482C104.557 70.3962 104.494 70.4682 104.452 70.5642C104.416 70.6542 104.392 70.7682 104.38 70.9062C104.374 71.0382 104.371 71.1942 104.371 71.3742V71.5002H105.568V72.1302H104.371V76.0002H103.651V72.1302H102.949V71.5002Z" fill="#090909"/>
<path d="M108.264 72.1932C108.084 72.1332 107.913 72.1032 107.751 72.1032C107.493 72.1032 107.289 72.1752 107.139 72.3192C106.989 72.4572 106.896 72.6342 106.86 72.8502V76.0002H106.14V71.5002H106.644L106.779 72.0492H106.815C106.929 71.8452 107.064 71.6892 107.22 71.5812C107.382 71.4672 107.586 71.4102 107.832 71.4102C108.006 71.4102 108.201 71.4402 108.417 71.5002L108.264 72.1932Z" fill="#090909"/>
<path d="M108.949 71.8332C109.177 71.6952 109.441 71.5932 109.741 71.5272C110.047 71.4612 110.365 71.4282 110.695 71.4282C111.007 71.4282 111.256 71.4702 111.442 71.5542C111.634 71.6382 111.778 71.7492 111.874 71.8872C111.976 72.0192 112.042 72.1662 112.072 72.3282C112.108 72.4902 112.126 72.6522 112.126 72.8142C112.126 73.1742 112.117 73.5252 112.099 73.8672C112.081 74.2092 112.072 74.5332 112.072 74.8392C112.072 75.0612 112.081 75.2712 112.099 75.4692C112.117 75.6672 112.15 75.8502 112.198 76.0182H111.667L111.478 75.3882H111.433C111.379 75.4722 111.31 75.5562 111.226 75.6402C111.148 75.7182 111.052 75.7902 110.938 75.8562C110.824 75.9162 110.692 75.9672 110.542 76.0092C110.392 76.0512 110.221 76.0722 110.029 76.0722C109.837 76.0722 109.657 76.0422 109.489 75.9822C109.327 75.9222 109.186 75.8382 109.066 75.7302C108.946 75.6162 108.85 75.4812 108.778 75.3252C108.712 75.1692 108.679 74.9922 108.679 74.7942C108.679 74.5302 108.733 74.3112 108.841 74.1372C108.949 73.9572 109.099 73.8162 109.291 73.7142C109.489 73.6062 109.723 73.5312 109.993 73.4892C110.269 73.4412 110.572 73.4172 110.902 73.4172C110.986 73.4172 111.067 73.4172 111.145 73.4172C111.229 73.4172 111.313 73.4232 111.397 73.4352C111.415 73.2552 111.424 73.0932 111.424 72.9492C111.424 72.6192 111.358 72.3882 111.226 72.2562C111.094 72.1242 110.854 72.0582 110.506 72.0582C110.404 72.0582 110.293 72.0672 110.173 72.0852C110.059 72.0972 109.939 72.1182 109.813 72.1482C109.693 72.1722 109.576 72.2052 109.462 72.2472C109.354 72.2832 109.258 72.3252 109.174 72.3732L108.949 71.8332ZM110.227 75.4422C110.395 75.4422 110.545 75.4212 110.677 75.3792C110.809 75.3312 110.923 75.2742 111.019 75.2082C111.115 75.1362 111.193 75.0582 111.253 74.9742C111.319 74.8902 111.367 74.8092 111.397 74.7312V73.9842C111.313 73.9782 111.226 73.9752 111.136 73.9752C111.052 73.9692 110.968 73.9662 110.884 73.9662C110.698 73.9662 110.515 73.9782 110.335 74.0022C110.161 74.0202 110.005 74.0592 109.867 74.1192C109.735 74.1732 109.627 74.2512 109.543 74.3532C109.465 74.4492 109.426 74.5722 109.426 74.7222C109.426 74.9322 109.501 75.1062 109.651 75.2442C109.801 75.3762 109.993 75.4422 110.227 75.4422Z" fill="#090909"/>
<path d="M113.956 71.5002V74.0652C113.956 74.2992 113.968 74.5062 113.992 74.6862C114.022 74.8602 114.07 75.0072 114.136 75.1272C114.202 75.2412 114.292 75.3282 114.406 75.3882C114.52 75.4482 114.664 75.4782 114.838 75.4782C115 75.4782 115.144 75.4542 115.27 75.4062C115.396 75.3522 115.507 75.2802 115.603 75.1902C115.705 75.1002 115.792 74.9982 115.864 74.8842C115.942 74.7642 116.005 74.6382 116.053 74.5062V71.5002H116.773V74.7222C116.773 74.9382 116.779 75.1632 116.791 75.3972C116.809 75.6252 116.836 75.8262 116.872 76.0002H116.377L116.197 75.2892H116.152C116.014 75.5232 115.828 75.7182 115.594 75.8742C115.36 76.0302 115.063 76.1082 114.703 76.1082C114.463 76.1082 114.25 76.0782 114.064 76.0182C113.884 75.9642 113.731 75.8652 113.605 75.7212C113.485 75.5772 113.392 75.3852 113.326 75.1452C113.266 74.8992 113.236 74.5902 113.236 74.2182V71.5002H113.956Z" fill="#090909"/>
<path d="M121.438 74.4522C121.438 74.7582 121.441 75.0372 121.447 75.2892C121.453 75.5352 121.48 75.7782 121.528 76.0182H121.042L120.862 75.3792H120.826C120.706 75.5892 120.532 75.7632 120.304 75.9012C120.076 76.0392 119.809 76.1082 119.503 76.1082C118.903 76.1082 118.456 75.9192 118.162 75.5412C117.874 75.1632 117.73 74.5722 117.73 73.7682C117.73 73.0002 117.91 72.4182 118.27 72.0222C118.636 71.6202 119.137 71.4192 119.773 71.4192C119.995 71.4192 120.169 71.4312 120.295 71.4552C120.427 71.4792 120.568 71.5182 120.718 71.5722V69.7002H121.438V74.4522ZM119.62 75.4782C119.926 75.4782 120.169 75.4002 120.349 75.2442C120.529 75.0822 120.652 74.8392 120.718 74.5152V72.2832C120.61 72.1992 120.487 72.1392 120.349 72.1032C120.211 72.0672 120.028 72.0492 119.8 72.0492C119.386 72.0492 119.062 72.1872 118.828 72.4632C118.594 72.7332 118.477 73.1682 118.477 73.7682C118.477 74.0142 118.495 74.2422 118.531 74.4522C118.573 74.6622 118.639 74.8422 118.729 74.9922C118.819 75.1422 118.936 75.2622 119.08 75.3522C119.23 75.4362 119.41 75.4782 119.62 75.4782Z" fill="#090909"/>
<path d="M47.458 82.5002H47.953L48.088 83.0402H48.124C48.262 82.8302 48.439 82.6712 48.655 82.5632C48.877 82.4492 49.129 82.3922 49.411 82.3922C50.011 82.3922 50.458 82.5692 50.752 82.9232C51.046 83.2772 51.193 83.8562 51.193 84.6602C51.193 85.0382 51.142 85.3802 51.04 85.6862C50.944 85.9862 50.806 86.2412 50.626 86.4512C50.446 86.6612 50.227 86.8232 49.969 86.9372C49.717 87.0512 49.435 87.1082 49.123 87.1082C48.901 87.1082 48.724 87.0932 48.592 87.0632C48.466 87.0392 48.328 86.9942 48.178 86.9282V88.8002H47.458V82.5002ZM49.276 83.0222C48.97 83.0222 48.727 83.1032 48.547 83.2652C48.373 83.4212 48.25 83.6612 48.178 83.9852V86.2172C48.286 86.3012 48.409 86.3672 48.547 86.4152C48.685 86.4572 48.868 86.4782 49.096 86.4782C49.51 86.4782 49.837 86.3252 50.077 86.0192C50.323 85.7072 50.446 85.2512 50.446 84.6512C50.446 84.4052 50.425 84.1832 50.383 83.9852C50.341 83.7812 50.272 83.6102 50.176 83.4722C50.086 83.3282 49.966 83.2172 49.816 83.1392C49.672 83.0612 49.492 83.0222 49.276 83.0222Z" fill="#090909"/>
<path d="M54.2734 83.1932C54.0934 83.1332 53.9224 83.1032 53.7604 83.1032C53.5024 83.1032 53.2984 83.1752 53.1484 83.3192C52.9984 83.4572 52.9054 83.6342 52.8694 83.8502V87.0002H52.1494V82.5002H52.6534L52.7884 83.0492H52.8244C52.9384 82.8452 53.0734 82.6892 53.2294 82.5812C53.3914 82.4672 53.5954 82.4102 53.8414 82.4102C54.0154 82.4102 54.2104 82.4402 54.4264 82.5002L54.2734 83.1932Z" fill="#090909"/>
<path d="M54.7782 84.7502C54.7782 83.9882 54.9462 83.4062 55.2822 83.0042C55.6242 82.5962 56.1132 82.3922 56.7492 82.3922C57.0852 82.3922 57.3762 82.4492 57.6222 82.5632C57.8742 82.6712 58.0812 82.8302 58.2432 83.0402C58.4052 83.2442 58.5252 83.4932 58.6032 83.7872C58.6812 84.0752 58.7202 84.3962 58.7202 84.7502C58.7202 85.5122 58.5492 86.0972 58.2072 86.5052C57.8712 86.9072 57.3852 87.1082 56.7492 87.1082C56.4132 87.1082 56.1192 87.0542 55.8672 86.9462C55.6212 86.8322 55.4172 86.6732 55.2552 86.4692C55.0932 86.2592 54.9732 86.0102 54.8952 85.7222C54.8172 85.4282 54.7782 85.1042 54.7782 84.7502ZM55.5252 84.7502C55.5252 84.9782 55.5462 85.1972 55.5882 85.4072C55.6362 85.6172 55.7082 85.8002 55.8042 85.9562C55.9002 86.1122 56.0262 86.2382 56.1822 86.3342C56.3382 86.4302 56.5272 86.4782 56.7492 86.4782C57.5652 86.4842 57.9732 85.9082 57.9732 84.7502C57.9732 84.5162 57.9492 84.2942 57.9012 84.0842C57.8592 83.8742 57.7902 83.6912 57.6942 83.5352C57.5982 83.3792 57.4722 83.2562 57.3162 83.1662C57.1602 83.0702 56.9712 83.0222 56.7492 83.0222C55.9332 83.0162 55.5252 83.5922 55.5252 84.7502Z" fill="#090909"/>
<path d="M59.0836 82.5002H59.7856V81.6092L60.5056 81.4022V82.5002H61.7296V83.1302H60.5056V85.6232C60.5056 85.9352 60.5446 86.1572 60.6226 86.2892C60.7006 86.4152 60.8326 86.4782 61.0186 86.4782C61.1746 86.4782 61.3066 86.4632 61.4146 86.4332C61.5226 86.3972 61.6426 86.3522 61.7746 86.2982L61.9366 86.8472C61.7746 86.9252 61.5976 86.9882 61.4056 87.0362C61.2136 87.0842 61.0066 87.1082 60.7846 87.1082C60.4186 87.1082 60.1606 87.0062 60.0106 86.8022C59.8606 86.5922 59.7856 86.2442 59.7856 85.7582V83.1302H59.0836V82.5002Z" fill="#090909"/>
<path d="M65.738 86.6402C65.558 86.7842 65.33 86.8982 65.054 86.9822C64.784 87.0662 64.496 87.1082 64.19 87.1082C63.848 87.1082 63.551 87.0542 63.299 86.9462C63.047 86.8322 62.8399 86.6732 62.6779 86.4692C62.5159 86.2592 62.396 86.0102 62.318 85.7222C62.24 85.4342 62.201 85.1102 62.201 84.7502C62.201 83.9822 62.372 83.3972 62.714 82.9952C63.056 82.5932 63.545 82.3922 64.181 82.3922C64.385 82.3922 64.589 82.4162 64.793 82.4642C64.997 82.5062 65.18 82.5902 65.342 82.7162C65.504 82.8422 65.636 83.0222 65.738 83.2562C65.84 83.4842 65.891 83.7872 65.891 84.1652C65.891 84.3632 65.873 84.5822 65.837 84.8222H62.948C62.948 85.0862 62.9749 85.3202 63.0289 85.5242C63.0829 85.7282 63.167 85.9022 63.281 86.0462C63.395 86.1842 63.542 86.2922 63.722 86.3702C63.908 86.4422 64.133 86.4782 64.397 86.4782C64.601 86.4782 64.805 86.4422 65.009 86.3702C65.213 86.2982 65.366 86.2142 65.468 86.1182L65.738 86.6402ZM64.19 83.0222C63.836 83.0222 63.551 83.1152 63.335 83.3012C63.125 83.4872 62.999 83.8052 62.957 84.2552H65.189C65.189 83.7992 65.102 83.4812 64.928 83.3012C64.754 83.1152 64.508 83.0222 64.19 83.0222Z" fill="#090909"/>
<path d="M69.8178 86.7032C69.6378 86.8352 69.4248 86.9342 69.1788 87.0002C68.9328 87.0722 68.6748 87.1082 68.4048 87.1082C68.0568 87.1082 67.7628 87.0542 67.5228 86.9462C67.2828 86.8322 67.0848 86.6732 66.9288 86.4692C66.7788 86.2592 66.6678 86.0102 66.5958 85.7222C66.5298 85.4282 66.4968 85.1042 66.4968 84.7502C66.4968 83.9882 66.6648 83.4062 67.0008 83.0042C67.3368 82.5962 67.8198 82.3922 68.4498 82.3922C68.7378 82.3922 68.9808 82.4162 69.1788 82.4642C69.3828 82.5062 69.5658 82.5692 69.7278 82.6532L69.5208 83.2742C69.3828 83.1962 69.2298 83.1362 69.0618 83.0942C68.8938 83.0462 68.7138 83.0222 68.5218 83.0222C67.6698 83.0222 67.2438 83.5982 67.2438 84.7502C67.2438 84.9782 67.2648 85.1972 67.3068 85.4072C67.3548 85.6112 67.4298 85.7942 67.5318 85.9562C67.6398 86.1122 67.7778 86.2382 67.9458 86.3342C68.1198 86.4302 68.3328 86.4782 68.5848 86.4782C68.8008 86.4782 68.9928 86.4452 69.1608 86.3792C69.3348 86.3132 69.4758 86.2382 69.5838 86.1542L69.8178 86.7032Z" fill="#090909"/>
<path d="M70.0376 82.5002H70.7396V81.6092L71.4596 81.4022V82.5002H72.6836V83.1302H71.4596V85.6232C71.4596 85.9352 71.4986 86.1572 71.5766 86.2892C71.6546 86.4152 71.7866 86.4782 71.9726 86.4782C72.1286 86.4782 72.2606 86.4632 72.3686 86.4332C72.4766 86.3972 72.5966 86.3522 72.7286 86.2982L72.8906 86.8472C72.7286 86.9252 72.5516 86.9882 72.3596 87.0362C72.1676 87.0842 71.9606 87.1082 71.7386 87.1082C71.3726 87.1082 71.1146 87.0062 70.9646 86.8022C70.8146 86.5922 70.7396 86.2442 70.7396 85.7582V83.1302H70.0376V82.5002Z" fill="#090909"/>
<path d="M73.6566 82.5002H74.3766V87.0002H73.6566V82.5002ZM73.5036 81.1322C73.5036 80.9942 73.5486 80.8772 73.6386 80.7812C73.7346 80.6792 73.8546 80.6282 73.9986 80.6282C74.1426 80.6282 74.2656 80.6792 74.3676 80.7812C74.4696 80.8772 74.5206 80.9942 74.5206 81.1322C74.5206 81.2702 74.4696 81.3842 74.3676 81.4742C74.2656 81.5642 74.1426 81.6092 73.9986 81.6092C73.8546 81.6092 73.7346 81.5642 73.6386 81.4742C73.5486 81.3842 73.5036 81.2702 73.5036 81.1322Z" fill="#090909"/>
<path d="M75.482 84.7502C75.482 83.9882 75.65 83.4062 75.986 83.0042C76.328 82.5962 76.817 82.3922 77.453 82.3922C77.789 82.3922 78.08 82.4492 78.326 82.5632C78.578 82.6712 78.785 82.8302 78.947 83.0402C79.109 83.2442 79.229 83.4932 79.307 83.7872C79.385 84.0752 79.424 84.3962 79.424 84.7502C79.424 85.5122 79.253 86.0972 78.911 86.5052C78.575 86.9072 78.089 87.1082 77.453 87.1082C77.117 87.1082 76.823 87.0542 76.571 86.9462C76.325 86.8322 76.121 86.6732 75.959 86.4692C75.797 86.2592 75.677 86.0102 75.599 85.7222C75.521 85.4282 75.482 85.1042 75.482 84.7502ZM76.229 84.7502C76.229 84.9782 76.25 85.1972 76.292 85.4072C76.34 85.6172 76.412 85.8002 76.508 85.9562C76.604 86.1122 76.73 86.2382 76.886 86.3342C77.042 86.4302 77.231 86.4782 77.453 86.4782C78.269 86.4842 78.677 85.9082 78.677 84.7502C78.677 84.5162 78.653 84.2942 78.605 84.0842C78.563 83.8742 78.494 83.6912 78.398 83.5352C78.302 83.3792 78.176 83.2562 78.02 83.1662C77.864 83.0702 77.675 83.0222 77.453 83.0222C76.637 83.0162 76.229 83.5922 76.229 84.7502Z" fill="#090909"/>
<path d="M83.2704 87.0002V84.4352C83.2704 83.9672 83.2014 83.6162 83.0634 83.3822C82.9314 83.1422 82.6854 83.0222 82.3254 83.0222C82.0074 83.0222 81.7434 83.1092 81.5334 83.2832C81.3294 83.4512 81.1854 83.6642 81.1014 83.9222V87.0002H80.3814V82.5002H80.8854L81.0204 83.0492H81.0564C81.2004 82.8572 81.3924 82.7012 81.6324 82.5812C81.8784 82.4552 82.1694 82.3922 82.5054 82.3922C82.7514 82.3922 82.9674 82.4222 83.1534 82.4822C83.3394 82.5362 83.4924 82.6352 83.6124 82.7792C83.7384 82.9232 83.8314 83.1182 83.8914 83.3642C83.9574 83.6042 83.9904 83.9102 83.9904 84.2822V87.0002H83.2704Z" fill="#090909"/>
<path d="M89.3272 85.7762C89.3272 85.5962 89.2732 85.4552 89.1652 85.3532C89.0572 85.2512 88.9222 85.1672 88.7602 85.1012C88.6042 85.0292 88.4302 84.9632 88.2382 84.9032C88.0522 84.8372 87.8782 84.7562 87.7162 84.6602C87.5602 84.5582 87.4282 84.4292 87.3202 84.2732C87.2122 84.1172 87.1582 83.9072 87.1582 83.6432C87.1582 83.2112 87.2812 82.8962 87.5272 82.6982C87.7732 82.4942 88.1152 82.3922 88.5532 82.3922C88.8772 82.3922 89.1472 82.4222 89.3632 82.4822C89.5852 82.5362 89.7772 82.6022 89.9392 82.6802L89.7682 83.2742C89.6302 83.2082 89.4622 83.1512 89.2642 83.1032C89.0722 83.0492 88.8652 83.0222 88.6432 83.0222C88.3792 83.0222 88.1842 83.0672 88.0582 83.1572C87.9382 83.2472 87.8782 83.4032 87.8782 83.6252C87.8782 83.7812 87.9322 83.9042 88.0402 83.9942C88.1482 84.0782 88.2802 84.1562 88.4362 84.2282C88.5982 84.2942 88.7722 84.3602 88.9582 84.4262C89.1502 84.4922 89.3242 84.5792 89.4802 84.6872C89.6422 84.7952 89.7772 84.9332 89.8852 85.1012C89.9932 85.2632 90.0472 85.4792 90.0472 85.7492C90.0472 85.9412 90.0142 86.1212 89.9482 86.2892C89.8882 86.4572 89.7922 86.6012 89.6602 86.7212C89.5282 86.8412 89.3632 86.9342 89.1652 87.0002C88.9732 87.0722 88.7452 87.1082 88.4812 87.1082C88.1392 87.1082 87.8482 87.0752 87.6082 87.0092C87.3682 86.9432 87.1672 86.8652 87.0052 86.7752L87.2212 86.1632C87.3592 86.2412 87.5392 86.3132 87.7612 86.3792C87.9832 86.4452 88.2082 86.4782 88.4362 86.4782C88.6942 86.4782 88.9072 86.4272 89.0752 86.3252C89.2432 86.2232 89.3272 86.0402 89.3272 85.7762Z" fill="#090909"/>
<path d="M90.7055 84.7502C90.7055 83.9882 90.8735 83.4062 91.2095 83.0042C91.5515 82.5962 92.0405 82.3922 92.6765 82.3922C93.0125 82.3922 93.3035 82.4492 93.5495 82.5632C93.8015 82.6712 94.0085 82.8302 94.1705 83.0402C94.3325 83.2442 94.4525 83.4932 94.5305 83.7872C94.6085 84.0752 94.6475 84.3962 94.6475 84.7502C94.6475 85.5122 94.4765 86.0972 94.1345 86.5052C93.7985 86.9072 93.3125 87.1082 92.6765 87.1082C92.3405 87.1082 92.0465 87.0542 91.7945 86.9462C91.5485 86.8322 91.3445 86.6732 91.1825 86.4692C91.0205 86.2592 90.9005 86.0102 90.8225 85.7222C90.7445 85.4282 90.7055 85.1042 90.7055 84.7502ZM91.4525 84.7502C91.4525 84.9782 91.4735 85.1972 91.5155 85.4072C91.5635 85.6172 91.6355 85.8002 91.7315 85.9562C91.8275 86.1122 91.9535 86.2382 92.1095 86.3342C92.2655 86.4302 92.4545 86.4782 92.6765 86.4782C93.4925 86.4842 93.9005 85.9082 93.9005 84.7502C93.9005 84.5162 93.8765 84.2942 93.8285 84.0842C93.7865 83.8742 93.7175 83.6912 93.6215 83.5352C93.5255 83.3792 93.3995 83.2562 93.2435 83.1662C93.0875 83.0702 92.8985 83.0222 92.6765 83.0222C91.8605 83.0162 91.4525 83.5922 91.4525 84.7502Z" fill="#090909"/>
<path d="M95.0044 82.5002H95.7064V82.2482C95.7064 81.9722 95.7274 81.7322 95.7694 81.5282C95.8174 81.3242 95.8924 81.1592 95.9944 81.0332C96.0964 80.9012 96.2284 80.8052 96.3904 80.7452C96.5524 80.6792 96.7534 80.6462 96.9934 80.6462C97.1854 80.6462 97.3534 80.6582 97.4974 80.6822C97.6474 80.7062 97.8034 80.7512 97.9654 80.8172L97.8034 81.4202C97.6654 81.3602 97.5334 81.3212 97.4074 81.3032C97.2874 81.2852 97.1734 81.2762 97.0654 81.2762C96.9094 81.2762 96.7864 81.3002 96.6964 81.3482C96.6124 81.3962 96.5494 81.4682 96.5074 81.5642C96.4714 81.6542 96.4474 81.7682 96.4354 81.9062C96.4294 82.0382 96.4264 82.1942 96.4264 82.3742V82.5002H97.6234V83.1302H96.4264V87.0002H95.7064V83.1302H95.0044V82.5002Z" fill="#090909"/>
<path d="M97.4611 82.5002H98.1631V81.6092L98.8831 81.4022V82.5002H100.107V83.1302H98.8831V85.6232C98.8831 85.9352 98.9221 86.1572 99.0001 86.2892C99.0781 86.4152 99.2101 86.4782 99.3961 86.4782C99.5521 86.4782 99.6841 86.4632 99.7921 86.4332C99.9001 86.3972 100.02 86.3522 100.152 86.2982L100.314 86.8472C100.152 86.9252 99.9751 86.9882 99.7831 87.0362C99.5911 87.0842 99.3841 87.1082 99.1621 87.1082C98.7961 87.1082 98.5381 87.0062 98.3881 86.8022C98.2381 86.5922 98.1631 86.2442 98.1631 85.7582V83.1302H97.4611V82.5002Z" fill="#090909"/>
<path d="M103.843 82.5002L104.878 85.1282L105.103 85.9922H105.121L105.292 85.1102L106.093 82.5002H106.777L105.265 87.0992H104.914L103.735 84.1292L103.564 83.3912H103.537L103.357 84.1382L102.223 87.0992H101.872L100.306 82.5002H101.089L101.98 85.1192L102.133 85.9922H102.142L102.358 85.1012L103.321 82.5002H103.843Z" fill="#090909"/>
<path d="M107.295 82.8332C107.523 82.6952 107.787 82.5932 108.087 82.5272C108.393 82.4612 108.711 82.4282 109.041 82.4282C109.353 82.4282 109.602 82.4702 109.788 82.5542C109.98 82.6382 110.124 82.7492 110.22 82.8872C110.322 83.0192 110.388 83.1662 110.418 83.3282C110.454 83.4902 110.472 83.6522 110.472 83.8142C110.472 84.1742 110.463 84.5252 110.445 84.8672C110.427 85.2092 110.418 85.5332 110.418 85.8392C110.418 86.0612 110.427 86.2712 110.445 86.4692C110.463 86.6672 110.496 86.8502 110.544 87.0182H110.013L109.824 86.3882H109.779C109.725 86.4722 109.656 86.5562 109.572 86.6402C109.494 86.7182 109.398 86.7902 109.284 86.8562C109.17 86.9162 109.038 86.9672 108.888 87.0092C108.738 87.0512 108.567 87.0722 108.375 87.0722C108.183 87.0722 108.003 87.0422 107.835 86.9822C107.673 86.9222 107.532 86.8382 107.412 86.7302C107.292 86.6162 107.196 86.4812 107.124 86.3252C107.058 86.1692 107.025 85.9922 107.025 85.7942C107.025 85.5302 107.079 85.3112 107.187 85.1372C107.295 84.9572 107.445 84.8162 107.637 84.7142C107.835 84.6062 108.069 84.5312 108.339 84.4892C108.615 84.4412 108.918 84.4172 109.248 84.4172C109.332 84.4172 109.413 84.4172 109.491 84.4172C109.575 84.4172 109.659 84.4232 109.743 84.4352C109.761 84.2552 109.77 84.0932 109.77 83.9492C109.77 83.6192 109.704 83.3882 109.572 83.2562C109.44 83.1242 109.2 83.0582 108.852 83.0582C108.75 83.0582 108.639 83.0672 108.519 83.0852C108.405 83.0972 108.285 83.1182 108.159 83.1482C108.039 83.1722 107.922 83.2052 107.808 83.2472C107.7 83.2832 107.604 83.3252 107.52 83.3732L107.295 82.8332ZM108.573 86.4422C108.741 86.4422 108.891 86.4212 109.023 86.3792C109.155 86.3312 109.269 86.2742 109.365 86.2082C109.461 86.1362 109.539 86.0582 109.599 85.9742C109.665 85.8902 109.713 85.8092 109.743 85.7312V84.9842C109.659 84.9782 109.572 84.9752 109.482 84.9752C109.398 84.9692 109.314 84.9662 109.23 84.9662C109.044 84.9662 108.861 84.9782 108.681 85.0022C108.507 85.0202 108.351 85.0592 108.213 85.1192C108.081 85.1732 107.973 85.2512 107.889 85.3532C107.811 85.4492 107.772 85.5722 107.772 85.7222C107.772 85.9322 107.847 86.1062 107.997 86.2442C108.147 86.3762 108.339 86.4422 108.573 86.4422Z" fill="#090909"/>
<path d="M113.779 83.1932C113.599 83.1332 113.428 83.1032 113.266 83.1032C113.008 83.1032 112.804 83.1752 112.654 83.3192C112.504 83.4572 112.411 83.6342 112.375 83.8502V87.0002H111.655V82.5002H112.159L112.294 83.0492H112.33C112.444 82.8452 112.579 82.6892 112.735 82.5812C112.897 82.4672 113.101 82.4102 113.347 82.4102C113.521 82.4102 113.716 82.4402 113.932 82.5002L113.779 83.1932Z" fill="#090909"/>
<path d="M117.82 86.6402C117.64 86.7842 117.412 86.8982 117.136 86.9822C116.866 87.0662 116.578 87.1082 116.272 87.1082C115.93 87.1082 115.633 87.0542 115.381 86.9462C115.129 86.8322 114.922 86.6732 114.76 86.4692C114.598 86.2592 114.478 86.0102 114.4 85.7222C114.322 85.4342 114.283 85.1102 114.283 84.7502C114.283 83.9822 114.454 83.3972 114.796 82.9952C115.138 82.5932 115.627 82.3922 116.263 82.3922C116.467 82.3922 116.671 82.4162 116.875 82.4642C117.079 82.5062 117.262 82.5902 117.424 82.7162C117.586 82.8422 117.718 83.0222 117.82 83.2562C117.922 83.4842 117.973 83.7872 117.973 84.1652C117.973 84.3632 117.955 84.5822 117.919 84.8222H115.03C115.03 85.0862 115.057 85.3202 115.111 85.5242C115.165 85.7282 115.249 85.9022 115.363 86.0462C115.477 86.1842 115.624 86.2922 115.804 86.3702C115.99 86.4422 116.215 86.4782 116.479 86.4782C116.683 86.4782 116.887 86.4422 117.091 86.3702C117.295 86.2982 117.448 86.2142 117.55 86.1182L117.82 86.6402ZM116.272 83.0222C115.918 83.0222 115.633 83.1152 115.417 83.3012C115.207 83.4872 115.081 83.8052 115.039 84.2552H117.271C117.271 83.7992 117.184 83.4812 117.01 83.3012C116.836 83.1152 116.59 83.0222 116.272 83.0222Z" fill="#090909"/>
<path fill-rule="evenodd" clip-rule="evenodd" d="M13.3691 88.6255C12.8609 80.2195 6.896 76.8856 0 76.2662C0.541404 78.6178 3.05588 83.4114 4.59085 85.2452C6.34703 87.3426 9.56246 89.9805 13.3691 88.6255ZM152.631 88.6258C153.139 80.2195 159.104 76.8856 166 76.2659C165.459 78.6175 162.944 83.4111 161.409 85.2449C159.653 87.3426 156.438 89.9802 152.631 88.6258ZM147.376 100.772C145.042 99.2983 143.182 95.9743 142.745 92.4212C142.36 89.2916 143.445 82.2058 144.375 80.3486C145.61 81.6321 148.109 86.8767 148.803 89.413C149.899 93.4198 149.226 98.2249 147.376 100.773V100.772ZM149.729 114.222C148.75 114.808 147.369 116.192 146.199 117.041C143.574 118.945 140.128 120.512 136.991 119.437C135.635 118.973 133.868 117.92 133.274 116.853C134.494 114.371 136.985 111.711 140.417 111.478C143.155 111.293 145.221 112.092 147.669 113.122L149.729 114.222L149.729 114.222ZM149.618 99.6209C149.674 98.2825 150.615 95.7689 151.206 94.7545C151.995 93.4001 152.966 92.3131 154.314 91.4043C156.314 90.0568 161.395 88.8362 164.076 89.3188C162.336 92.1972 161.419 94.8124 158.79 97.3906C156.297 99.8354 153.508 101.05 149.619 99.6209H149.618ZM139.579 124.547C137.058 125.759 133.299 127.207 130.252 126.865C126.963 126.496 124.102 124.108 123.112 121.614C124.824 119.135 128.787 117.842 132.08 119.111C133.543 119.675 134.948 120.615 136.106 121.497L139.578 124.547H139.579ZM128.085 130.564C126.267 131.729 120.985 132.345 118.441 131.798C115.715 131.211 112.547 128.257 112.004 125.804C116.279 121.833 120.882 123.402 124.928 127.117C125.609 127.741 127.816 129.918 128.085 130.564ZM153.043 47.2875C152.227 46.7728 150.995 44.6889 150.45 43.3647C148.003 37.4204 150.965 31.0719 152.694 26.5013C153.88 28.3002 155.591 33.8246 155.961 36.8369C156.532 41.4835 154.956 45.1406 153.043 47.2875ZM151.51 52.649C147.492 52.8089 145.032 51.0005 143.335 48.2691C141.87 45.9098 140.377 41.6353 139.702 38.0259C142.249 38.4488 146.123 41.0308 147.76 42.5396C149.816 44.4358 151.705 47.8025 151.51 52.6493L151.51 52.649ZM156.387 62.7956C155.621 62.0247 154.716 59.5339 154.435 58.0166C154.035 55.8551 154.242 53.3561 154.805 51.4366C155.517 49.0064 158.229 43.5402 159.429 42.4719C160.387 44.3684 161.169 51.2851 160.865 54.2663C160.51 57.7485 158.683 61.5127 156.387 62.7953V62.7956ZM155.786 77.4573C154.54 70.2901 156.492 66.2386 160.752 62.5293C161.587 61.8024 163.449 60.1652 164.443 59.7026C164.429 63.8507 163.774 68.3533 162.424 71.4737C161.301 74.0699 158.896 77.1316 155.786 77.4576L155.786 77.4573ZM139.357 109.909C137.188 108.178 135.757 103.757 136.076 99.7337C136.322 96.6384 138.183 91.4053 139.357 89.2598C139.904 89.7789 141.015 93.1619 141.254 93.9267C141.806 95.6907 142.25 97.4784 142.467 99.6453C142.936 104.353 141.295 107.879 139.357 109.909ZM148.24 39.0509C145.836 39.6188 142.223 37.106 140.655 34.1038C139.376 31.6547 137.954 26.6263 137.719 23C140.04 23.7045 143.738 26.8059 145.124 28.3191C147.097 30.4721 148.644 34.0662 148.24 39.0506V39.0509ZM154.482 70.511C151.237 70.0271 148.963 67.2226 147.822 64.5606C146.423 61.2986 146.112 56.7252 146.073 52.4843C147.64 53.1742 151.377 57.1285 152.576 58.9721C154.791 62.3788 155.341 65.1594 154.482 70.511H154.482ZM113.453 121.277C113.563 116.316 115.294 113.514 117.486 111.556C119.277 109.955 123.419 108.092 126.125 107.78C125.667 110.432 123.329 115.213 121.999 117.205C120.276 119.786 117.575 121.717 113.453 121.276L113.453 121.277ZM128.561 117.07C127.785 115.954 127.196 113.363 127.123 111.333C126.943 106.318 129.792 102.239 132.375 99.1591C132.966 98.4539 133.416 97.5414 133.956 97.5157C134.467 103.389 135.301 109.19 131.91 114.196C131.343 115.033 129.754 116.6 128.561 117.07ZM158.028 102.567C154.927 106.362 149.514 114.081 142.293 109.194C142.893 106.339 145.391 103.345 147.959 102.308C150.338 101.347 156.627 101.458 158.028 102.567ZM151.522 85.9585C150.394 85.5444 148.831 83.9437 148.22 83.0932C145.95 79.9352 145.61 76.4712 145.85 72.1703C145.914 71.0284 146.34 66.9644 146.656 66.1227C148.167 67.4394 150.846 71.8061 151.801 74.2298C152.497 75.9975 152.979 77.9198 152.933 80.2937C152.898 82.0706 152.267 84.9538 151.522 85.9581V85.9585ZM18.6238 100.773C20.9571 99.2987 22.8166 95.9746 23.2539 92.4215C23.6395 89.2923 22.554 82.2065 21.6237 80.3489C20.3892 81.6325 17.8907 86.8771 17.1967 89.4136C16.0999 93.4201 16.7735 98.2249 18.6238 100.773V100.773ZM16.2705 114.222C17.2495 114.808 18.6303 116.192 19.8002 117.041C22.425 118.946 25.8719 120.511 29.0081 119.437C30.3638 118.973 32.1311 117.92 32.7255 116.854C31.505 114.371 29.0146 111.711 25.5823 111.479C22.8444 111.293 20.7778 112.093 18.3296 113.122L16.2708 114.222H16.2705ZM16.3811 99.6212C16.3254 98.2828 15.3846 95.7693 14.7934 94.7548C14.0046 93.4008 13.0332 92.3134 11.6848 91.4047C9.68551 90.0568 4.60437 88.8366 1.92331 89.3191C3.66273 92.1976 4.58003 94.8127 7.20943 97.391C9.70281 99.8354 12.4918 101.051 16.3808 99.6212H16.3811ZM26.4209 124.547C28.941 125.76 32.7 127.207 35.7467 126.866C39.0371 126.497 41.8977 124.108 42.8872 121.614C41.1751 119.135 37.2122 117.842 33.9189 119.112C32.4564 119.676 31.0523 120.615 29.8935 121.498L26.4212 124.547L26.4209 124.547ZM37.9142 130.565C39.7332 131.729 45.0147 132.346 47.5584 131.798C50.2846 131.211 53.4519 128.258 53.9957 125.804C49.7199 121.833 45.1175 123.403 41.0704 127.117C40.3898 127.741 38.1833 129.918 37.914 130.564L37.9142 130.565ZM12.9569 47.2878C13.772 46.7731 15.0041 44.6893 15.5493 43.3647C17.9967 37.4208 15.0344 31.0722 13.3052 26.5013C12.1202 28.3005 10.4081 33.8253 10.0379 36.8373C9.467 41.4838 11.0436 45.1409 12.9569 47.2878ZM14.4895 52.6493C18.5075 52.8092 20.9676 51.0009 22.6638 48.2695C24.129 45.9101 25.6226 41.6356 26.2981 38.0263C23.7501 38.4491 19.8767 41.0311 18.2401 42.54C16.1834 44.4365 14.2945 47.8029 14.4895 52.6497V52.6493ZM9.61168 62.7959C10.3784 62.0251 11.2832 59.5342 11.5639 58.0169C11.9642 55.8554 11.7573 53.3565 11.1942 51.4369C10.4819 49.0068 7.77031 43.5409 6.57041 42.4722C5.61227 44.3687 4.83018 51.2855 5.1336 54.2673C5.48841 57.7492 7.31599 61.5134 9.61141 62.7956L9.61168 62.7959ZM10.2131 77.4579C11.459 70.2897 9.50729 66.2389 5.24718 62.5293C4.41236 61.8024 2.54936 60.1652 1.55633 59.7026C1.56931 63.8507 2.22538 68.3533 3.57565 71.4737C4.69848 74.0699 7.10343 77.1316 10.2128 77.4579H10.2131ZM26.6418 109.909C28.8112 108.178 30.2421 103.757 29.9227 99.7341C29.6769 96.6384 27.8155 91.4053 26.6418 89.2601C26.0953 89.7789 24.9838 93.1619 24.7448 93.9267C24.1933 95.6907 23.7488 97.4784 23.5327 99.6453C23.0629 104.353 24.7037 107.879 26.6418 109.909ZM17.759 39.0509C20.1626 39.6188 23.7763 37.106 25.3438 34.1038C26.6229 31.6547 28.0446 26.6263 28.2801 23.0003C25.9585 23.7045 22.2619 26.8059 20.8746 28.3191C18.9013 30.4721 17.3555 34.0662 17.759 39.0506V39.0509ZM11.5169 70.511C14.7618 70.0271 17.0364 67.2226 18.1776 64.5603C19.576 61.2986 19.8873 56.7249 19.9265 52.4843C18.3588 53.1745 14.6217 57.1285 13.4226 58.9721C11.2078 62.3788 10.6577 65.1594 11.5171 70.511H11.5169ZM52.5459 121.277C52.4367 116.316 50.7054 113.515 48.513 111.556C46.7222 109.955 42.5803 108.092 39.8735 107.78C40.3319 110.432 42.6703 115.213 44.0003 117.205C45.7229 119.786 48.4243 121.716 52.5457 121.277H52.5459ZM37.438 117.07C38.2141 115.954 38.8031 113.363 38.8764 111.333C39.056 106.318 36.207 102.239 33.6244 99.1591C33.0332 98.4539 32.5835 97.5414 32.0437 97.5157C31.5318 103.389 30.698 109.19 34.0893 114.196C34.6569 115.033 36.2457 116.6 37.4383 117.07H37.438ZM7.97097 102.567C11.0717 106.361 16.4852 114.081 23.7063 109.194C23.1059 106.339 20.6077 103.345 18.0402 102.308C15.6607 101.347 9.37235 101.458 7.97097 102.567ZM14.4776 85.9585C15.605 85.5444 17.1686 83.9434 17.7793 83.0939C20.0484 79.9359 20.3895 76.4716 20.149 72.1707C20.0852 71.0288 19.6588 66.9647 19.3432 66.123C17.8323 67.4398 15.1531 71.8064 14.1982 74.2301C13.5018 75.9982 13.0199 77.9201 13.0664 80.294C13.1013 82.0709 13.7317 84.9541 14.4776 85.9585Z" fill="#D2D2D2"/>
</svg>