<svg xmlns="http://www.w3.org/2000/svg" width="166" height="132" viewBox="0 0 166 132" fill="none">
<g clip-path="url(#clip0_4587_1287)">
<path d="M50.8975 5.95653H55.8817V18.4938H58.8996V5.95653H63.8838V3.17554H50.8975V5.95653Z" fill="#0B0E17"/>
<path d="M74.8584 15.6672H69.0512V12.02H74.0811V9.19343H69.0512V5.95653H74.8584V3.17554H66.0332V18.4938H74.8584V15.6672Z" fill="#0B0E17"/>
<path d="M84.3235 15.9863C81.5799 15.9863 79.7508 13.798 79.7508 10.8347C79.7508 7.8713 81.5799 5.72856 84.2778 5.72856C86.3355 5.72856 87.4786 6.64036 88.0274 8.14484H91.3197C90.4966 5.04471 88.2103 2.90198 84.2778 2.90198C79.7966 2.90198 76.5957 6.23005 76.5957 10.8347C76.5957 15.4392 79.7966 18.8129 84.2778 18.8129C88.2103 18.8129 90.5423 16.7614 91.3654 13.4333H88.1645C87.7073 14.8922 86.4727 15.9863 84.3235 15.9863Z" fill="#0B0E17"/>
<path d="M96.5326 11.9744H99.5963V12.02H103.117V18.4938H106.135V11.9744H109.61C110.022 12.4759 110.616 12.8406 111.348 12.8406C112.583 12.8406 113.589 11.792 113.589 10.5611C113.589 9.28457 112.583 8.28159 111.348 8.28159C110.616 8.28159 110.022 8.64631 109.61 9.1478H106.135V0.895996H103.117V9.1478H99.5963H96.5326V3.1755H93.5146V18.4938H96.5326V11.9744Z" fill="#0B0E17"/>
<path d="M50.8975 25.1955H55.8817V37.7328H58.8996V25.1955H63.8838V22.4146H50.8975V25.1955Z" fill="#0B0E17"/>
<path d="M67.9078 21.5027C66.8561 21.5027 65.9873 22.3233 65.9873 23.3719C65.9873 24.4205 66.8104 25.2411 67.9078 25.2411C68.9595 25.2411 69.8283 24.466 69.8283 23.3719C69.7826 22.3233 68.9138 21.5027 67.9078 21.5027Z" fill="#0B0E17"/>
<path d="M69.2794 26.6544H66.4443V37.7328H69.2794V26.6544Z" fill="#0B0E17"/>
<path d="M80.803 32.262L80.4829 33.1738L80.1171 32.262L75.7273 22.4146H72.2979V37.7328H75.2701V28.0221L75.7273 29.3898L79.2026 37.7328H81.7633L85.2385 29.3898L85.6958 28.0221V37.7328H88.7137V22.4146H85.2385L80.803 32.262Z" fill="#0B0E17"/>
<path d="M91.8232 37.7328H100.648V34.9062H94.8412V31.259H99.8711V28.4324H94.8412V25.1955H100.648V22.4146H91.8232V37.7328Z" fill="#0B0E17"/>
<path d="M108.513 28.6148C106.638 27.9765 105.815 27.5662 105.815 26.4265C105.815 25.3779 106.455 24.7852 107.553 24.7852C108.605 24.7852 109.382 25.4691 109.428 26.7H112.491C112.354 23.6455 110.525 22.141 107.644 22.141C104.626 22.141 102.797 24.0558 102.797 26.7C102.797 29.253 104.443 30.484 107.187 31.3958C109.108 32.034 109.885 32.6267 109.885 33.6297C109.885 34.6327 109.153 35.3621 107.873 35.3621C106.318 35.3621 105.541 34.5415 105.449 33.037H102.386C102.477 35.9548 104.306 38.0063 107.781 38.0063C110.662 38.0063 112.903 36.3195 112.903 33.3561C112.949 31.0766 111.805 29.7089 108.513 28.6148Z" fill="#0B0E17"/>
<path d="M71.1514 118.784C71.1514 119.175 71.4689 119.491 71.8605 119.491H94.5542C94.9459 119.491 95.2634 119.175 95.2634 118.784C95.2634 118.394 94.9459 118.077 94.5542 118.077H71.8605C71.4689 118.077 71.1514 118.394 71.1514 118.784Z" fill="#0B0E17"/>
<path d="M72.5693 113.128V116.663H93.8446V113.128C93.8446 111.956 92.8921 111.007 91.7171 111.007H74.6969C73.5219 111.007 72.5693 111.956 72.5693 113.128Z" fill="#0B0E17"/>
<path d="M83.2074 109.325C85.4923 107.103 95.2634 96.8902 95.2634 84.8454C95.2634 84.5979 95.2615 84.3519 95.2577 84.1072C92.3763 83.8555 90.0665 82.1084 89.6552 79.896H76.7595C76.3482 82.1084 74.0384 83.8555 71.157 84.1072C71.1533 84.3519 71.1514 84.5979 71.1514 84.8454C71.1514 96.9022 80.921 107.104 83.2074 109.325ZM72.5697 86.3882C72.5697 86.0144 72.5749 85.6432 72.5853 85.2746C72.5965 84.8921 72.9107 84.5879 73.2945 84.588C75.3291 84.5824 76.9822 83.4292 76.9822 82.0172C76.9822 81.6267 77.2997 81.3101 77.6914 81.3101H88.7226C89.1143 81.3101 89.4318 81.6267 89.4318 82.0172C89.4318 83.4313 91.087 84.5824 93.1195 84.588C93.5033 84.5879 93.8176 84.8921 93.8287 85.2746C93.8386 85.6432 93.8438 86.0144 93.8443 86.3882C93.8443 97.441 84.0931 106.218 83.6783 106.585C83.4094 106.824 83.0039 106.824 82.7351 106.585C82.3209 106.218 72.5697 97.441 72.5697 86.3882Z" fill="#0B0E17"/>
<path d="M83.2071 96.9156C83.6251 96.9156 83.964 96.5766 83.964 96.1583C83.964 95.7401 83.6251 95.4011 83.2071 95.4011C82.7891 95.4011 82.4502 95.7401 82.4502 96.1583C82.4502 96.5766 82.7891 96.9156 83.2071 96.9156Z" fill="#0B0E17"/>
<path d="M92.4271 86.3882C92.4271 86.2468 92.4271 86.1054 92.4271 85.964C90.2393 85.725 88.4869 84.4042 88.1011 82.7242H78.3201C77.9315 84.4042 76.1791 85.725 73.9941 85.964C73.9941 86.1054 73.9941 86.2468 73.9941 86.3882C73.9885 95.4513 81.2646 103.181 83.2078 105.082C85.1509 103.181 92.4271 95.4513 92.4271 86.3882ZM81.0802 85.5525H85.3353C85.727 85.5525 86.0445 85.869 86.0445 86.2595C86.0445 86.65 85.727 86.9666 85.3353 86.9666H81.0802C80.6886 86.9666 80.3711 86.65 80.3711 86.2595C80.3711 85.869 80.6886 85.5525 81.0802 85.5525ZM79.6619 88.3807H86.7537C87.1453 88.3807 87.4628 88.6973 87.4628 89.0878C87.4628 89.4783 87.1453 89.7948 86.7537 89.7948H79.6619C79.2702 89.7948 78.9527 89.4783 78.9527 89.0878C78.9527 88.6973 79.2702 88.3807 79.6619 88.3807ZM78.2435 91.916C78.2435 91.5255 78.561 91.2089 78.9527 91.2089H87.4628C87.8545 91.2089 88.172 91.5255 88.172 91.916C88.172 92.3065 87.8545 92.6231 87.4628 92.6231H78.9527C78.561 92.6231 78.2435 92.3065 78.2435 91.916ZM81.0802 96.1584C81.0802 94.9869 82.0328 94.0372 83.2078 94.0372C84.3828 94.0372 85.3353 94.9869 85.3353 96.1584C85.3353 97.3299 84.3828 98.2795 83.2078 98.2795C82.0328 98.2795 81.0802 97.3299 81.0802 96.1584Z" fill="#0B0E17"/>
<path d="M43.8105 48.659C44.0385 48.617 44.2995 48.584 44.5935 48.56C44.8935 48.536 45.1665 48.524 45.4125 48.524C45.6885 48.524 45.9495 48.554 46.1955 48.614C46.4475 48.674 46.6665 48.773 46.8525 48.911C47.0445 49.049 47.1975 49.229 47.3115 49.451C47.4255 49.673 47.4825 49.943 47.4825 50.261C47.4825 50.753 47.3475 51.152 47.0775 51.458C46.8075 51.764 46.4655 51.968 46.0515 52.07L46.4835 52.403L48.0495 54.896H47.1765L45.4395 52.178L44.5575 52.043V54.896H43.8105V48.659ZM45.4305 49.172C45.3525 49.172 45.2715 49.172 45.1875 49.172C45.1035 49.172 45.0225 49.175 44.9445 49.181C44.8665 49.187 44.7915 49.193 44.7195 49.199C44.6535 49.205 44.5995 49.214 44.5575 49.226V51.548H45.2595C45.6735 51.548 46.0155 51.446 46.2855 51.242C46.5555 51.038 46.6905 50.72 46.6905 50.288C46.6905 49.964 46.5795 49.697 46.3575 49.487C46.1355 49.277 45.8265 49.172 45.4305 49.172Z" fill="#090909"/>
<path d="M48.7534 50.729C48.9814 50.591 49.2454 50.489 49.5454 50.423C49.8514 50.357 50.1694 50.324 50.4994 50.324C50.8114 50.324 51.0604 50.366 51.2464 50.45C51.4384 50.534 51.5824 50.645 51.6784 50.783C51.7804 50.915 51.8464 51.062 51.8764 51.224C51.9124 51.386 51.9304 51.548 51.9304 51.71C51.9304 52.07 51.9214 52.421 51.9034 52.763C51.8854 53.105 51.8764 53.429 51.8764 53.735C51.8764 53.957 51.8854 54.167 51.9034 54.365C51.9214 54.563 51.9544 54.746 52.0024 54.914H51.4714L51.2824 54.284H51.2374C51.1834 54.368 51.1144 54.452 51.0304 54.536C50.9524 54.614 50.8564 54.686 50.7424 54.752C50.6284 54.812 50.4964 54.863 50.3464 54.905C50.1964 54.947 50.0254 54.968 49.8334 54.968C49.6414 54.968 49.4614 54.938 49.2934 54.878C49.1314 54.818 48.9904 54.734 48.8704 54.626C48.7504 54.512 48.6544 54.377 48.5824 54.221C48.5164 54.065 48.4834 53.888 48.4834 53.69C48.4834 53.426 48.5374 53.207 48.6454 53.033C48.7534 52.853 48.9034 52.712 49.0954 52.61C49.2934 52.502 49.5274 52.427 49.7974 52.385C50.0734 52.337 50.3764 52.313 50.7064 52.313C50.7904 52.313 50.8714 52.313 50.9494 52.313C51.0334 52.313 51.1174 52.319 51.2014 52.331C51.2194 52.151 51.2284 51.989 51.2284 51.845C51.2284 51.515 51.1624 51.284 51.0304 51.152C50.8984 51.02 50.6584 50.954 50.3104 50.954C50.2084 50.954 50.0974 50.963 49.9774 50.981C49.8634 50.993 49.7434 51.014 49.6174 51.044C49.4974 51.068 49.3804 51.101 49.2664 51.143C49.1584 51.179 49.0624 51.221 48.9784 51.269L48.7534 50.729ZM50.0314 54.338C50.1994 54.338 50.3494 54.317 50.4814 54.275C50.6134 54.227 50.7274 54.17 50.8234 54.104C50.9194 54.032 50.9974 53.954 51.0574 53.87C51.1234 53.786 51.1714 53.705 51.2014 53.627V52.88C51.1174 52.874 51.0304 52.871 50.9404 52.871C50.8564 52.865 50.7724 52.862 50.6884 52.862C50.5024 52.862 50.3194 52.874 50.1394 52.898C49.9654 52.916 49.8094 52.955 49.6714 53.015C49.5394 53.069 49.4314 53.147 49.3474 53.249C49.2694 53.345 49.2304 53.468 49.2304 53.618C49.2304 53.828 49.3054 54.002 49.4554 54.14C49.6054 54.272 49.7974 54.338 50.0314 54.338Z" fill="#090909"/>
<path d="M52.5185 50.396H53.2205V49.505L53.9405 49.298V50.396H55.1645V51.026H53.9405V53.519C53.9405 53.831 53.9795 54.053 54.0575 54.185C54.1355 54.311 54.2675 54.374 54.4535 54.374C54.6095 54.374 54.7415 54.359 54.8495 54.329C54.9575 54.293 55.0775 54.248 55.2095 54.194L55.3715 54.743C55.2095 54.821 55.0325 54.884 54.8405 54.932C54.6485 54.98 54.4415 55.004 54.2195 55.004C53.8535 55.004 53.5955 54.902 53.4455 54.698C53.2955 54.488 53.2205 54.14 53.2205 53.654V51.026H52.5185V50.396Z" fill="#090909"/>
<path d="M59.1728 54.536C58.9928 54.68 58.7648 54.794 58.4888 54.878C58.2188 54.962 57.9308 55.004 57.6248 55.004C57.2828 55.004 56.9858 54.95 56.7338 54.842C56.4818 54.728 56.2748 54.569 56.1128 54.365C55.9508 54.155 55.8308 53.906 55.7528 53.618C55.6748 53.33 55.6358 53.006 55.6358 52.646C55.6358 51.878 55.8068 51.293 56.1488 50.891C56.4908 50.489 56.9798 50.288 57.6158 50.288C57.8198 50.288 58.0238 50.312 58.2278 50.36C58.4318 50.402 58.6148 50.486 58.7768 50.612C58.9388 50.738 59.0708 50.918 59.1728 51.152C59.2748 51.38 59.3258 51.683 59.3258 52.061C59.3258 52.259 59.3078 52.478 59.2718 52.718H56.3828C56.3828 52.982 56.4098 53.216 56.4638 53.42C56.5178 53.624 56.6018 53.798 56.7158 53.942C56.8298 54.08 56.9768 54.188 57.1568 54.266C57.3428 54.338 57.5678 54.374 57.8318 54.374C58.0358 54.374 58.2398 54.338 58.4438 54.266C58.6478 54.194 58.8008 54.11 58.9028 54.014L59.1728 54.536ZM57.6248 50.918C57.2708 50.918 56.9858 51.011 56.7698 51.197C56.5598 51.383 56.4338 51.701 56.3918 52.151H58.6238C58.6238 51.695 58.5368 51.377 58.3628 51.197C58.1888 51.011 57.9428 50.918 57.6248 50.918Z" fill="#090909"/>
<path d="M63.7364 53.348C63.7364 53.654 63.7394 53.933 63.7454 54.185C63.7514 54.431 63.7784 54.674 63.8264 54.914H63.3404L63.1604 54.275H63.1244C63.0044 54.485 62.8304 54.659 62.6024 54.797C62.3744 54.935 62.1074 55.004 61.8014 55.004C61.2014 55.004 60.7544 54.815 60.4604 54.437C60.1724 54.059 60.0284 53.468 60.0284 52.664C60.0284 51.896 60.2084 51.314 60.5684 50.918C60.9344 50.516 61.4354 50.315 62.0714 50.315C62.2934 50.315 62.4674 50.327 62.5934 50.351C62.7254 50.375 62.8664 50.414 63.0164 50.468V48.596H63.7364V53.348ZM61.9184 54.374C62.2244 54.374 62.4674 54.296 62.6474 54.14C62.8274 53.978 62.9504 53.735 63.0164 53.411V51.179C62.9084 51.095 62.7854 51.035 62.6474 50.999C62.5094 50.963 62.3264 50.945 62.0984 50.945C61.6844 50.945 61.3604 51.083 61.1264 51.359C60.8924 51.629 60.7754 52.064 60.7754 52.664C60.7754 52.91 60.7934 53.138 60.8294 53.348C60.8714 53.558 60.9374 53.738 61.0274 53.888C61.1174 54.038 61.2344 54.158 61.3784 54.248C61.5284 54.332 61.7084 54.374 61.9184 54.374Z" fill="#090909"/>
<path d="M70.52 52.026H69.274L68.77 54.182H67.272L67.776 52.026H66.74L67.048 50.668H68.098L68.448 49.184H67.44L67.748 47.826H68.77L69.26 45.81H70.744L70.268 47.826H71.514L72.004 45.81H73.488L73.012 47.826H74.02L73.67 49.184H72.69L72.34 50.668H73.306L72.97 52.026H72.018L71.514 54.182H70.016L70.52 52.026ZM69.596 50.668H70.842L71.192 49.184H69.946L69.596 50.668Z" fill="#1970FF"/>
<path d="M75.6536 53.356H77.5996V47.826L77.8096 46.874L77.1376 47.7L75.8916 48.554L75.1216 47.504L78.3136 44.928H79.3356V53.356H81.2396V54.896H75.6536V53.356Z" fill="#1970FF"/>
<path d="M87.9888 54.599C87.8088 54.731 87.5958 54.83 87.3498 54.896C87.1038 54.968 86.8458 55.004 86.5758 55.004C86.2278 55.004 85.9338 54.95 85.6938 54.842C85.4538 54.728 85.2558 54.569 85.0998 54.365C84.9498 54.155 84.8388 53.906 84.7668 53.618C84.7008 53.324 84.6678 53 84.6678 52.646C84.6678 51.884 84.8358 51.302 85.1718 50.9C85.5078 50.492 85.9908 50.288 86.6208 50.288C86.9088 50.288 87.1518 50.312 87.3498 50.36C87.5538 50.402 87.7368 50.465 87.8988 50.549L87.6918 51.17C87.5538 51.092 87.4008 51.032 87.2328 50.99C87.0648 50.942 86.8848 50.918 86.6928 50.918C85.8408 50.918 85.4148 51.494 85.4148 52.646C85.4148 52.874 85.4358 53.093 85.4778 53.303C85.5258 53.507 85.6008 53.69 85.7028 53.852C85.8108 54.008 85.9488 54.134 86.1168 54.23C86.2908 54.326 86.5038 54.374 86.7558 54.374C86.9718 54.374 87.1638 54.341 87.3318 54.275C87.5058 54.209 87.6468 54.134 87.7548 54.05L87.9888 54.599Z" fill="#090909"/>
<path d="M89.6036 53.789C89.6036 53.999 89.6396 54.149 89.7116 54.239C89.7836 54.329 89.8856 54.374 90.0176 54.374C90.0956 54.374 90.1796 54.368 90.2696 54.356C90.3596 54.344 90.4616 54.317 90.5756 54.275L90.6566 54.842C90.5606 54.89 90.4256 54.929 90.2516 54.959C90.0836 54.989 89.9366 55.004 89.8106 55.004C89.5406 55.004 89.3186 54.929 89.1446 54.779C88.9706 54.623 88.8836 54.362 88.8836 53.996V48.596H89.6036V53.789Z" fill="#090909"/>
<path d="M91.4057 50.396H92.1257V54.896H91.4057V50.396ZM91.2527 49.028C91.2527 48.89 91.2977 48.773 91.3877 48.677C91.4837 48.575 91.6037 48.524 91.7477 48.524C91.8917 48.524 92.0147 48.575 92.1167 48.677C92.2187 48.773 92.2697 48.89 92.2697 49.028C92.2697 49.166 92.2187 49.28 92.1167 49.37C92.0147 49.46 91.8917 49.505 91.7477 49.505C91.6037 49.505 91.4837 49.46 91.3877 49.37C91.2977 49.28 91.2527 49.166 91.2527 49.028Z" fill="#090909"/>
<path d="M96.5521 54.599C96.3721 54.731 96.1591 54.83 95.9131 54.896C95.6671 54.968 95.4091 55.004 95.1391 55.004C94.7911 55.004 94.4971 54.95 94.2571 54.842C94.0171 54.728 93.8191 54.569 93.6631 54.365C93.5131 54.155 93.4021 53.906 93.3301 53.618C93.2641 53.324 93.2311 53 93.2311 52.646C93.2311 51.884 93.3991 51.302 93.7351 50.9C94.0711 50.492 94.5541 50.288 95.1841 50.288C95.4721 50.288 95.7151 50.312 95.9131 50.36C96.1171 50.402 96.3001 50.465 96.4621 50.549L96.2551 51.17C96.1171 51.092 95.9641 51.032 95.7961 50.99C95.6281 50.942 95.4481 50.918 95.2561 50.918C94.4041 50.918 93.9781 51.494 93.9781 52.646C93.9781 52.874 93.9991 53.093 94.0411 53.303C94.0891 53.507 94.1641 53.69 94.2661 53.852C94.3741 54.008 94.5121 54.134 94.6801 54.23C94.8541 54.326 95.0671 54.374 95.3191 54.374C95.5351 54.374 95.7271 54.341 95.8951 54.275C96.0691 54.209 96.2101 54.134 96.3181 54.05L96.5521 54.599Z" fill="#090909"/>
<path d="M98.4999 52.871H98.0859V54.896H97.3659V48.596H98.0859V52.43L98.4549 52.304L99.8499 50.396H100.687L99.3099 52.205L98.9409 52.502L99.3909 52.862L100.894 54.896H100.003L98.4999 52.871Z" fill="#090909"/>
<path d="M102.949 50.396H103.651V50.144C103.651 49.868 103.672 49.628 103.714 49.424C103.762 49.22 103.837 49.055 103.939 48.929C104.041 48.797 104.173 48.701 104.335 48.641C104.497 48.575 104.698 48.542 104.938 48.542C105.13 48.542 105.298 48.554 105.442 48.578C105.592 48.602 105.748 48.647 105.91 48.713L105.748 49.316C105.61 49.256 105.478 49.217 105.352 49.199C105.232 49.181 105.118 49.172 105.01 49.172C104.854 49.172 104.731 49.196 104.641 49.244C104.557 49.292 104.494 49.364 104.452 49.46C104.416 49.55 104.392 49.664 104.38 49.802C104.374 49.934 104.371 50.09 104.371 50.27V50.396H105.568V51.026H104.371V54.896H103.651V51.026H102.949V50.396Z" fill="#090909"/>
<path d="M108.264 51.089C108.084 51.029 107.913 50.999 107.751 50.999C107.493 50.999 107.289 51.071 107.139 51.215C106.989 51.353 106.896 51.53 106.86 51.746V54.896H106.14V50.396H106.644L106.779 50.945H106.815C106.929 50.741 107.064 50.585 107.22 50.477C107.382 50.363 107.586 50.306 107.832 50.306C108.006 50.306 108.201 50.336 108.417 50.396L108.264 51.089Z" fill="#090909"/>
<path d="M108.949 50.729C109.177 50.591 109.441 50.489 109.741 50.423C110.047 50.357 110.365 50.324 110.695 50.324C111.007 50.324 111.256 50.366 111.442 50.45C111.634 50.534 111.778 50.645 111.874 50.783C111.976 50.915 112.042 51.062 112.072 51.224C112.108 51.386 112.126 51.548 112.126 51.71C112.126 52.07 112.117 52.421 112.099 52.763C112.081 53.105 112.072 53.429 112.072 53.735C112.072 53.957 112.081 54.167 112.099 54.365C112.117 54.563 112.15 54.746 112.198 54.914H111.667L111.478 54.284H111.433C111.379 54.368 111.31 54.452 111.226 54.536C111.148 54.614 111.052 54.686 110.938 54.752C110.824 54.812 110.692 54.863 110.542 54.905C110.392 54.947 110.221 54.968 110.029 54.968C109.837 54.968 109.657 54.938 109.489 54.878C109.327 54.818 109.186 54.734 109.066 54.626C108.946 54.512 108.85 54.377 108.778 54.221C108.712 54.065 108.679 53.888 108.679 53.69C108.679 53.426 108.733 53.207 108.841 53.033C108.949 52.853 109.099 52.712 109.291 52.61C109.489 52.502 109.723 52.427 109.993 52.385C110.269 52.337 110.572 52.313 110.902 52.313C110.986 52.313 111.067 52.313 111.145 52.313C111.229 52.313 111.313 52.319 111.397 52.331C111.415 52.151 111.424 51.989 111.424 51.845C111.424 51.515 111.358 51.284 111.226 51.152C111.094 51.02 110.854 50.954 110.506 50.954C110.404 50.954 110.293 50.963 110.173 50.981C110.059 50.993 109.939 51.014 109.813 51.044C109.693 51.068 109.576 51.101 109.462 51.143C109.354 51.179 109.258 51.221 109.174 51.269L108.949 50.729ZM110.227 54.338C110.395 54.338 110.545 54.317 110.677 54.275C110.809 54.227 110.923 54.17 111.019 54.104C111.115 54.032 111.193 53.954 111.253 53.87C111.319 53.786 111.367 53.705 111.397 53.627V52.88C111.313 52.874 111.226 52.871 111.136 52.871C111.052 52.865 110.968 52.862 110.884 52.862C110.698 52.862 110.515 52.874 110.335 52.898C110.161 52.916 110.005 52.955 109.867 53.015C109.735 53.069 109.627 53.147 109.543 53.249C109.465 53.345 109.426 53.468 109.426 53.618C109.426 53.828 109.501 54.002 109.651 54.14C109.801 54.272 109.993 54.338 110.227 54.338Z" fill="#090909"/>
<path d="M113.956 50.396V52.961C113.956 53.195 113.968 53.402 113.992 53.582C114.022 53.756 114.07 53.903 114.136 54.023C114.202 54.137 114.292 54.224 114.406 54.284C114.52 54.344 114.664 54.374 114.838 54.374C115 54.374 115.144 54.35 115.27 54.302C115.396 54.248 115.507 54.176 115.603 54.086C115.705 53.996 115.792 53.894 115.864 53.78C115.942 53.66 116.005 53.534 116.053 53.402V50.396H116.773V53.618C116.773 53.834 116.779 54.059 116.791 54.293C116.809 54.521 116.836 54.722 116.872 54.896H116.377L116.197 54.185H116.152C116.014 54.419 115.828 54.614 115.594 54.77C115.36 54.926 115.063 55.004 114.703 55.004C114.463 55.004 114.25 54.974 114.064 54.914C113.884 54.86 113.731 54.761 113.605 54.617C113.485 54.473 113.392 54.281 113.326 54.041C113.266 53.795 113.236 53.486 113.236 53.114V50.396H113.956Z" fill="#090909"/>
<path d="M121.438 53.348C121.438 53.654 121.441 53.933 121.447 54.185C121.453 54.431 121.48 54.674 121.528 54.914H121.042L120.862 54.275H120.826C120.706 54.485 120.532 54.659 120.304 54.797C120.076 54.935 119.809 55.004 119.503 55.004C118.903 55.004 118.456 54.815 118.162 54.437C117.874 54.059 117.73 53.468 117.73 52.664C117.73 51.896 117.91 51.314 118.27 50.918C118.636 50.516 119.137 50.315 119.773 50.315C119.995 50.315 120.169 50.327 120.295 50.351C120.427 50.375 120.568 50.414 120.718 50.468V48.596H121.438V53.348ZM119.62 54.374C119.926 54.374 120.169 54.296 120.349 54.14C120.529 53.978 120.652 53.735 120.718 53.411V51.179C120.61 51.095 120.487 51.035 120.349 50.999C120.211 50.963 120.028 50.945 119.8 50.945C119.386 50.945 119.062 51.083 118.828 51.359C118.594 51.629 118.477 52.064 118.477 52.664C118.477 52.91 118.495 53.138 118.531 53.348C118.573 53.558 118.639 53.738 118.729 53.888C118.819 54.038 118.936 54.158 119.08 54.248C119.23 54.332 119.41 54.374 119.62 54.374Z" fill="#090909"/>
<path d="M47.4578 61.396H47.9528L48.0878 61.936H48.1238C48.2618 61.726 48.4388 61.567 48.6548 61.459C48.8768 61.345 49.1288 61.288 49.4108 61.288C50.0108 61.288 50.4578 61.465 50.7518 61.819C51.0458 62.173 51.1928 62.752 51.1928 63.556C51.1928 63.934 51.1418 64.276 51.0398 64.582C50.9438 64.882 50.8058 65.137 50.6258 65.347C50.4458 65.557 50.2268 65.719 49.9688 65.833C49.7168 65.947 49.4348 66.004 49.1228 66.004C48.9008 66.004 48.7238 65.989 48.5918 65.959C48.4658 65.935 48.3278 65.89 48.1778 65.824V67.696H47.4578V61.396ZM49.2758 61.918C48.9698 61.918 48.7268 61.999 48.5468 62.161C48.3728 62.317 48.2498 62.557 48.1778 62.881V65.113C48.2858 65.197 48.4088 65.263 48.5468 65.311C48.6848 65.353 48.8678 65.374 49.0958 65.374C49.5098 65.374 49.8368 65.221 50.0768 64.915C50.3228 64.603 50.4458 64.147 50.4458 63.547C50.4458 63.301 50.4248 63.079 50.3828 62.881C50.3408 62.677 50.2718 62.506 50.1758 62.368C50.0858 62.224 49.9658 62.113 49.8158 62.035C49.6718 61.957 49.4918 61.918 49.2758 61.918Z" fill="#090909"/>
<path d="M54.2731 62.089C54.0931 62.029 53.9221 61.999 53.7601 61.999C53.5021 61.999 53.2981 62.071 53.1481 62.215C52.9981 62.353 52.9051 62.53 52.8691 62.746V65.896H52.1491V61.396H52.6531L52.7881 61.945H52.8241C52.9381 61.741 53.0731 61.585 53.2291 61.477C53.3911 61.363 53.5951 61.306 53.8411 61.306C54.0151 61.306 54.2101 61.336 54.4261 61.396L54.2731 62.089Z" fill="#090909"/>
<path d="M54.7779 63.646C54.7779 62.884 54.9459 62.302 55.2819 61.9C55.6239 61.492 56.1129 61.288 56.7489 61.288C57.0849 61.288 57.3759 61.345 57.6219 61.459C57.8739 61.567 58.0809 61.726 58.2429 61.936C58.4049 62.14 58.5249 62.389 58.6029 62.683C58.6809 62.971 58.7199 63.292 58.7199 63.646C58.7199 64.408 58.5489 64.993 58.2069 65.401C57.8709 65.803 57.3849 66.004 56.7489 66.004C56.4129 66.004 56.1189 65.95 55.8669 65.842C55.6209 65.728 55.4169 65.569 55.2549 65.365C55.0929 65.155 54.9729 64.906 54.8949 64.618C54.8169 64.324 54.7779 64 54.7779 63.646ZM55.5249 63.646C55.5249 63.874 55.5459 64.093 55.5879 64.303C55.6359 64.513 55.7079 64.696 55.8039 64.852C55.8999 65.008 56.0259 65.134 56.1819 65.23C56.3379 65.326 56.5269 65.374 56.7489 65.374C57.5649 65.38 57.9729 64.804 57.9729 63.646C57.9729 63.412 57.9489 63.19 57.9009 62.98C57.8589 62.77 57.7899 62.587 57.6939 62.431C57.5979 62.275 57.4719 62.152 57.3159 62.062C57.1599 61.966 56.9709 61.918 56.7489 61.918C55.9329 61.912 55.5249 62.488 55.5249 63.646Z" fill="#090909"/>
<path d="M59.0834 61.396H59.7854V60.505L60.5054 60.298V61.396H61.7294V62.026H60.5054V64.519C60.5054 64.831 60.5444 65.053 60.6224 65.185C60.7004 65.311 60.8324 65.374 61.0184 65.374C61.1744 65.374 61.3064 65.359 61.4144 65.329C61.5224 65.293 61.6424 65.248 61.7744 65.194L61.9364 65.743C61.7744 65.821 61.5974 65.884 61.4054 65.932C61.2134 65.98 61.0064 66.004 60.7844 66.004C60.4184 66.004 60.1604 65.902 60.0104 65.698C59.8604 65.488 59.7854 65.14 59.7854 64.654V62.026H59.0834V61.396Z" fill="#090909"/>
<path d="M65.7377 65.536C65.5577 65.68 65.3297 65.794 65.0537 65.878C64.7837 65.962 64.4957 66.004 64.1897 66.004C63.8477 66.004 63.5507 65.95 63.2987 65.842C63.0467 65.728 62.8397 65.569 62.6777 65.365C62.5157 65.155 62.3957 64.906 62.3177 64.618C62.2397 64.33 62.2007 64.006 62.2007 63.646C62.2007 62.878 62.3717 62.293 62.7137 61.891C63.0557 61.489 63.5447 61.288 64.1807 61.288C64.3847 61.288 64.5887 61.312 64.7927 61.36C64.9967 61.402 65.1797 61.486 65.3417 61.612C65.5037 61.738 65.6357 61.918 65.7377 62.152C65.8397 62.38 65.8907 62.683 65.8907 63.061C65.8907 63.259 65.8727 63.478 65.8367 63.718H62.9477C62.9477 63.982 62.9747 64.216 63.0287 64.42C63.0827 64.624 63.1667 64.798 63.2807 64.942C63.3947 65.08 63.5417 65.188 63.7217 65.266C63.9077 65.338 64.1327 65.374 64.3967 65.374C64.6007 65.374 64.8047 65.338 65.0087 65.266C65.2127 65.194 65.3657 65.11 65.4677 65.014L65.7377 65.536ZM64.1897 61.918C63.8357 61.918 63.5507 62.011 63.3347 62.197C63.1247 62.383 62.9987 62.701 62.9567 63.151H65.1887C65.1887 62.695 65.1017 62.377 64.9277 62.197C64.7537 62.011 64.5077 61.918 64.1897 61.918Z" fill="#090909"/>
<path d="M69.8176 65.599C69.6376 65.731 69.4246 65.83 69.1786 65.896C68.9326 65.968 68.6746 66.004 68.4046 66.004C68.0566 66.004 67.7626 65.95 67.5226 65.842C67.2826 65.728 67.0846 65.569 66.9286 65.365C66.7786 65.155 66.6676 64.906 66.5956 64.618C66.5296 64.324 66.4966 64 66.4966 63.646C66.4966 62.884 66.6646 62.302 67.0006 61.9C67.3366 61.492 67.8196 61.288 68.4496 61.288C68.7376 61.288 68.9806 61.312 69.1786 61.36C69.3826 61.402 69.5656 61.465 69.7276 61.549L69.5206 62.17C69.3826 62.092 69.2296 62.032 69.0616 61.99C68.8936 61.942 68.7136 61.918 68.5216 61.918C67.6696 61.918 67.2436 62.494 67.2436 63.646C67.2436 63.874 67.2646 64.093 67.3066 64.303C67.3546 64.507 67.4296 64.69 67.5316 64.852C67.6396 65.008 67.7776 65.134 67.9456 65.23C68.1196 65.326 68.3326 65.374 68.5846 65.374C68.8006 65.374 68.9926 65.341 69.1606 65.275C69.3346 65.209 69.4756 65.134 69.5836 65.05L69.8176 65.599Z" fill="#090909"/>
<path d="M70.0373 61.396H70.7393V60.505L71.4593 60.298V61.396H72.6833V62.026H71.4593V64.519C71.4593 64.831 71.4983 65.053 71.5763 65.185C71.6543 65.311 71.7863 65.374 71.9723 65.374C72.1283 65.374 72.2603 65.359 72.3683 65.329C72.4763 65.293 72.5963 65.248 72.7283 65.194L72.8903 65.743C72.7283 65.821 72.5513 65.884 72.3593 65.932C72.1673 65.98 71.9603 66.004 71.7383 66.004C71.3723 66.004 71.1143 65.902 70.9643 65.698C70.8143 65.488 70.7393 65.14 70.7393 64.654V62.026H70.0373V61.396Z" fill="#090909"/>
<path d="M73.6564 61.396H74.3764V65.896H73.6564V61.396ZM73.5034 60.028C73.5034 59.89 73.5484 59.773 73.6384 59.677C73.7344 59.575 73.8544 59.524 73.9984 59.524C74.1424 59.524 74.2654 59.575 74.3674 59.677C74.4694 59.773 74.5204 59.89 74.5204 60.028C74.5204 60.166 74.4694 60.28 74.3674 60.37C74.2654 60.46 74.1424 60.505 73.9984 60.505C73.8544 60.505 73.7344 60.46 73.6384 60.37C73.5484 60.28 73.5034 60.166 73.5034 60.028Z" fill="#090909"/>
<path d="M75.4818 63.646C75.4818 62.884 75.6498 62.302 75.9858 61.9C76.3278 61.492 76.8168 61.288 77.4528 61.288C77.7888 61.288 78.0798 61.345 78.3258 61.459C78.5778 61.567 78.7848 61.726 78.9468 61.936C79.1088 62.14 79.2288 62.389 79.3068 62.683C79.3848 62.971 79.4238 63.292 79.4238 63.646C79.4238 64.408 79.2528 64.993 78.9108 65.401C78.5748 65.803 78.0888 66.004 77.4528 66.004C77.1168 66.004 76.8228 65.95 76.5708 65.842C76.3248 65.728 76.1208 65.569 75.9588 65.365C75.7968 65.155 75.6768 64.906 75.5988 64.618C75.5208 64.324 75.4818 64 75.4818 63.646ZM76.2288 63.646C76.2288 63.874 76.2498 64.093 76.2918 64.303C76.3398 64.513 76.4118 64.696 76.5078 64.852C76.6038 65.008 76.7298 65.134 76.8858 65.23C77.0418 65.326 77.2308 65.374 77.4528 65.374C78.2688 65.38 78.6768 64.804 78.6768 63.646C78.6768 63.412 78.6528 63.19 78.6048 62.98C78.5628 62.77 78.4938 62.587 78.3978 62.431C78.3018 62.275 78.1758 62.152 78.0198 62.062C77.8638 61.966 77.6748 61.918 77.4528 61.918C76.6368 61.912 76.2288 62.488 76.2288 63.646Z" fill="#090909"/>
<path d="M83.2702 65.896V63.331C83.2702 62.863 83.2012 62.512 83.0632 62.278C82.9312 62.038 82.6852 61.918 82.3252 61.918C82.0072 61.918 81.7432 62.005 81.5332 62.179C81.3292 62.347 81.1852 62.56 81.1012 62.818V65.896H80.3812V61.396H80.8852L81.0202 61.945H81.0562C81.2002 61.753 81.3922 61.597 81.6322 61.477C81.8782 61.351 82.1692 61.288 82.5052 61.288C82.7512 61.288 82.9672 61.318 83.1532 61.378C83.3392 61.432 83.4922 61.531 83.6122 61.675C83.7382 61.819 83.8312 62.014 83.8912 62.26C83.9572 62.5 83.9902 62.806 83.9902 63.178V65.896H83.2702Z" fill="#090909"/>
<path d="M89.3269 64.672C89.3269 64.492 89.2729 64.351 89.1649 64.249C89.0569 64.147 88.9219 64.063 88.7599 63.997C88.6039 63.925 88.4299 63.859 88.2379 63.799C88.0519 63.733 87.8779 63.652 87.7159 63.556C87.5599 63.454 87.4279 63.325 87.3199 63.169C87.2119 63.013 87.1579 62.803 87.1579 62.539C87.1579 62.107 87.2809 61.792 87.5269 61.594C87.7729 61.39 88.1149 61.288 88.5529 61.288C88.8769 61.288 89.1469 61.318 89.3629 61.378C89.5849 61.432 89.7769 61.498 89.9389 61.576L89.7679 62.17C89.6299 62.104 89.4619 62.047 89.2639 61.999C89.0719 61.945 88.8649 61.918 88.6429 61.918C88.3789 61.918 88.1839 61.963 88.0579 62.053C87.9379 62.143 87.8779 62.299 87.8779 62.521C87.8779 62.677 87.9319 62.8 88.0399 62.89C88.1479 62.974 88.2799 63.052 88.4359 63.124C88.5979 63.19 88.7719 63.256 88.9579 63.322C89.1499 63.388 89.3239 63.475 89.4799 63.583C89.6419 63.691 89.7769 63.829 89.8849 63.997C89.9929 64.159 90.0469 64.375 90.0469 64.645C90.0469 64.837 90.0139 65.017 89.9479 65.185C89.8879 65.353 89.7919 65.497 89.6599 65.617C89.5279 65.737 89.3629 65.83 89.1649 65.896C88.9729 65.968 88.7449 66.004 88.4809 66.004C88.1389 66.004 87.8479 65.971 87.6079 65.905C87.3679 65.839 87.1669 65.761 87.0049 65.671L87.2209 65.059C87.3589 65.137 87.5389 65.209 87.7609 65.275C87.9829 65.341 88.2079 65.374 88.4359 65.374C88.6939 65.374 88.9069 65.323 89.0749 65.221C89.2429 65.119 89.3269 64.936 89.3269 64.672Z" fill="#090909"/>
<path d="M90.7052 63.646C90.7052 62.884 90.8732 62.302 91.2092 61.9C91.5512 61.492 92.0402 61.288 92.6762 61.288C93.0122 61.288 93.3032 61.345 93.5492 61.459C93.8012 61.567 94.0082 61.726 94.1702 61.936C94.3322 62.14 94.4522 62.389 94.5302 62.683C94.6082 62.971 94.6472 63.292 94.6472 63.646C94.6472 64.408 94.4762 64.993 94.1342 65.401C93.7982 65.803 93.3122 66.004 92.6762 66.004C92.3402 66.004 92.0462 65.95 91.7942 65.842C91.5482 65.728 91.3442 65.569 91.1822 65.365C91.0202 65.155 90.9002 64.906 90.8222 64.618C90.7442 64.324 90.7052 64 90.7052 63.646ZM91.4522 63.646C91.4522 63.874 91.4732 64.093 91.5152 64.303C91.5632 64.513 91.6352 64.696 91.7312 64.852C91.8272 65.008 91.9532 65.134 92.1092 65.23C92.2652 65.326 92.4542 65.374 92.6762 65.374C93.4922 65.38 93.9002 64.804 93.9002 63.646C93.9002 63.412 93.8762 63.19 93.8282 62.98C93.7862 62.77 93.7172 62.587 93.6212 62.431C93.5252 62.275 93.3992 62.152 93.2432 62.062C93.0872 61.966 92.8982 61.918 92.6762 61.918C91.8602 61.912 91.4522 62.488 91.4522 63.646Z" fill="#090909"/>
<path d="M95.0042 61.396H95.7062V61.144C95.7062 60.868 95.7272 60.628 95.7692 60.424C95.8172 60.22 95.8922 60.055 95.9942 59.929C96.0962 59.797 96.2282 59.701 96.3902 59.641C96.5522 59.575 96.7532 59.542 96.9932 59.542C97.1852 59.542 97.3532 59.554 97.4972 59.578C97.6472 59.602 97.8032 59.647 97.9652 59.713L97.8032 60.316C97.6652 60.256 97.5332 60.217 97.4072 60.199C97.2872 60.181 97.1732 60.172 97.0652 60.172C96.9092 60.172 96.7862 60.196 96.6962 60.244C96.6122 60.292 96.5492 60.364 96.5072 60.46C96.4712 60.55 96.4472 60.664 96.4352 60.802C96.4292 60.934 96.4262 61.09 96.4262 61.27V61.396H97.6232V62.026H96.4262V65.896H95.7062V62.026H95.0042V61.396Z" fill="#090909"/>
<path d="M97.4608 61.396H98.1628V60.505L98.8828 60.298V61.396H100.107V62.026H98.8828V64.519C98.8828 64.831 98.9218 65.053 98.9998 65.185C99.0778 65.311 99.2098 65.374 99.3958 65.374C99.5518 65.374 99.6838 65.359 99.7918 65.329C99.8998 65.293 100.02 65.248 100.152 65.194L100.314 65.743C100.152 65.821 99.9748 65.884 99.7828 65.932C99.5908 65.98 99.3838 66.004 99.1618 66.004C98.7958 66.004 98.5378 65.902 98.3878 65.698C98.2378 65.488 98.1628 65.14 98.1628 64.654V62.026H97.4608V61.396Z" fill="#090909"/>
<path d="M103.843 61.396L104.878 64.024L105.103 64.888H105.121L105.292 64.006L106.093 61.396H106.777L105.265 65.995H104.914L103.735 63.025L103.564 62.287H103.537L103.357 63.034L102.223 65.995H101.872L100.306 61.396H101.089L101.98 64.015L102.133 64.888H102.142L102.358 63.997L103.321 61.396H103.843Z" fill="#090909"/>
<path d="M107.295 61.729C107.523 61.591 107.787 61.489 108.087 61.423C108.393 61.357 108.711 61.324 109.041 61.324C109.353 61.324 109.602 61.366 109.788 61.45C109.98 61.534 110.124 61.645 110.22 61.783C110.322 61.915 110.388 62.062 110.418 62.224C110.454 62.386 110.472 62.548 110.472 62.71C110.472 63.07 110.463 63.421 110.445 63.763C110.427 64.105 110.418 64.429 110.418 64.735C110.418 64.957 110.427 65.167 110.445 65.365C110.463 65.563 110.496 65.746 110.544 65.914H110.013L109.824 65.284H109.779C109.725 65.368 109.656 65.452 109.572 65.536C109.494 65.614 109.398 65.686 109.284 65.752C109.17 65.812 109.038 65.863 108.888 65.905C108.738 65.947 108.567 65.968 108.375 65.968C108.183 65.968 108.003 65.938 107.835 65.878C107.673 65.818 107.532 65.734 107.412 65.626C107.292 65.512 107.196 65.377 107.124 65.221C107.058 65.065 107.025 64.888 107.025 64.69C107.025 64.426 107.079 64.207 107.187 64.033C107.295 63.853 107.445 63.712 107.637 63.61C107.835 63.502 108.069 63.427 108.339 63.385C108.615 63.337 108.918 63.313 109.248 63.313C109.332 63.313 109.413 63.313 109.491 63.313C109.575 63.313 109.659 63.319 109.743 63.331C109.761 63.151 109.77 62.989 109.77 62.845C109.77 62.515 109.704 62.284 109.572 62.152C109.44 62.02 109.2 61.954 108.852 61.954C108.75 61.954 108.639 61.963 108.519 61.981C108.405 61.993 108.285 62.014 108.159 62.044C108.039 62.068 107.922 62.101 107.808 62.143C107.7 62.179 107.604 62.221 107.52 62.269L107.295 61.729ZM108.573 65.338C108.741 65.338 108.891 65.317 109.023 65.275C109.155 65.227 109.269 65.17 109.365 65.104C109.461 65.032 109.539 64.954 109.599 64.87C109.665 64.786 109.713 64.705 109.743 64.627V63.88C109.659 63.874 109.572 63.871 109.482 63.871C109.398 63.865 109.314 63.862 109.23 63.862C109.044 63.862 108.861 63.874 108.681 63.898C108.507 63.916 108.351 63.955 108.213 64.015C108.081 64.069 107.973 64.147 107.889 64.249C107.811 64.345 107.772 64.468 107.772 64.618C107.772 64.828 107.847 65.002 107.997 65.14C108.147 65.272 108.339 65.338 108.573 65.338Z" fill="#090909"/>
<path d="M113.778 62.089C113.598 62.029 113.427 61.999 113.265 61.999C113.007 61.999 112.803 62.071 112.653 62.215C112.503 62.353 112.41 62.53 112.374 62.746V65.896H111.654V61.396H112.158L112.293 61.945H112.329C112.443 61.741 112.578 61.585 112.734 61.477C112.896 61.363 113.1 61.306 113.346 61.306C113.52 61.306 113.715 61.336 113.931 61.396L113.778 62.089Z" fill="#090909"/>
<path d="M117.82 65.536C117.64 65.68 117.412 65.794 117.136 65.878C116.866 65.962 116.578 66.004 116.272 66.004C115.93 66.004 115.633 65.95 115.381 65.842C115.129 65.728 114.922 65.569 114.76 65.365C114.598 65.155 114.478 64.906 114.4 64.618C114.322 64.33 114.283 64.006 114.283 63.646C114.283 62.878 114.454 62.293 114.796 61.891C115.138 61.489 115.627 61.288 116.263 61.288C116.467 61.288 116.671 61.312 116.875 61.36C117.079 61.402 117.262 61.486 117.424 61.612C117.586 61.738 117.718 61.918 117.82 62.152C117.922 62.38 117.973 62.683 117.973 63.061C117.973 63.259 117.955 63.478 117.919 63.718H115.03C115.03 63.982 115.057 64.216 115.111 64.42C115.165 64.624 115.249 64.798 115.363 64.942C115.477 65.08 115.624 65.188 115.804 65.266C115.99 65.338 116.215 65.374 116.479 65.374C116.683 65.374 116.887 65.338 117.091 65.266C117.295 65.194 117.448 65.11 117.55 65.014L117.82 65.536ZM116.272 61.918C115.918 61.918 115.633 62.011 115.417 62.197C115.207 62.383 115.081 62.701 115.039 63.151H117.271C117.271 62.695 117.184 62.377 117.01 62.197C116.836 62.011 116.59 61.918 116.272 61.918Z" fill="#090909"/>
</g>
<path fill-rule="evenodd" clip-rule="evenodd" d="M13.3691 67.5215C12.8609 59.1155 6.896 55.7816 0 55.1622C0.541404 57.5138 3.05588 62.3074 4.59085 64.1412C6.34703 66.2386 9.56246 68.8765 13.3691 67.5215ZM152.631 67.5218C153.139 59.1155 159.104 55.7816 166 55.1619C165.459 57.5135 162.944 62.3071 161.409 64.1409C159.653 66.2386 156.438 68.8762 152.631 67.5218ZM147.376 79.6683C145.042 78.1943 143.182 74.8703 142.745 71.3172C142.36 68.1876 143.445 61.1018 144.375 59.2446C145.61 60.5281 148.109 65.7727 148.803 68.309C149.899 72.3158 149.226 77.1209 147.376 79.6686V79.6683ZM149.729 93.1176C148.75 93.7038 147.369 95.0879 146.199 95.9367C143.574 97.8414 140.128 99.4075 136.991 98.333C135.635 97.8688 133.868 96.8157 133.274 95.7494C134.494 93.267 136.985 90.6068 140.417 90.3743C143.155 90.189 145.221 90.9883 147.669 92.018L149.729 93.1179L149.729 93.1176ZM149.618 78.5169C149.674 77.1785 150.615 74.6649 151.206 73.6505C151.995 72.2961 152.966 71.2091 154.314 70.3003C156.314 68.9528 161.395 67.7322 164.076 68.2148C162.336 71.0932 161.419 73.7084 158.79 76.2866C156.297 78.7314 153.508 79.9465 149.619 78.5169H149.618ZM139.579 103.443C137.058 104.655 133.299 106.103 130.252 105.761C126.963 105.392 124.102 103.004 123.112 100.51C124.824 98.0308 128.787 96.7381 132.08 98.0071C133.543 98.5709 134.948 99.5105 136.106 100.393L139.578 103.443H139.579ZM128.085 109.46C126.267 110.625 120.985 111.241 118.441 110.694C115.715 110.107 112.547 107.153 112.004 104.7C116.279 100.729 120.882 102.298 124.928 106.013C125.609 106.637 127.816 108.814 128.085 109.46ZM153.043 26.1835C152.227 25.6688 150.995 23.5849 150.45 22.2607C148.003 16.3164 150.965 9.96788 152.694 5.39725C153.88 7.19616 155.591 12.7206 155.961 15.7329C156.532 20.3795 154.956 24.0366 153.043 26.1835ZM151.51 31.545C147.492 31.7049 145.032 29.8965 143.335 27.1651C141.87 24.8058 140.377 20.5313 139.702 16.9219C142.249 17.3448 146.123 19.9268 147.76 21.4356C149.816 23.3318 151.705 26.6985 151.51 31.5453L151.51 31.545ZM156.387 41.6916C155.621 40.9207 154.716 38.4299 154.435 36.9126C154.035 34.7511 154.242 32.2521 154.805 30.3326C155.517 27.9024 158.229 22.4362 159.429 21.3679C160.387 23.2644 161.169 30.1811 160.865 33.1623C160.51 36.6445 158.683 40.4087 156.387 41.6912V41.6916ZM155.786 56.3533C154.54 49.1861 156.492 45.1346 160.752 41.4253C161.587 40.6984 163.449 39.0612 164.443 38.5986C164.429 42.7467 163.774 47.2493 162.424 50.3697C161.301 52.9659 158.896 56.0276 155.786 56.3536L155.786 56.3533ZM139.357 88.8055C137.188 87.0743 135.757 82.6535 136.076 78.6297C136.322 75.5344 138.183 70.3013 139.357 68.1558C139.904 68.6749 141.015 72.0579 141.254 72.8227C141.806 74.5867 142.25 76.3744 142.467 78.5413C142.936 83.2488 141.295 86.7748 139.357 88.8055ZM148.24 17.9469C145.836 18.5148 142.223 16.002 140.655 12.9998C139.376 10.5507 137.954 5.52228 137.719 1.896C140.04 2.60045 143.738 5.70187 145.124 7.21513C147.097 9.36813 148.644 12.9622 148.24 17.9466V17.9469ZM154.482 49.407C151.237 48.9231 148.963 46.1186 147.822 43.4566C146.423 40.1946 146.112 35.6212 146.073 31.3803C147.64 32.0702 151.377 36.0245 152.576 37.8681C154.791 41.2748 155.341 44.0553 154.482 49.407H154.482ZM113.453 100.173C113.563 95.2123 115.294 92.4104 117.486 90.4516C119.277 88.8512 123.419 86.9879 126.125 86.6759C125.667 89.328 123.329 94.109 121.999 96.1011C120.276 98.6817 117.575 100.613 113.453 100.172L113.453 100.173ZM128.561 95.9659C127.785 94.8504 127.196 92.2593 127.123 90.2286C126.943 85.2138 129.792 81.1351 132.375 78.0551C132.966 77.3499 133.416 76.4374 133.956 76.4117C134.467 82.2848 135.301 88.0861 131.91 93.0918C131.343 93.9294 129.754 95.4959 128.561 95.9659ZM158.028 81.4635C154.927 85.2578 149.514 92.9773 142.293 88.0902C142.893 85.2348 145.391 82.2414 147.959 81.2042C150.338 80.243 156.627 80.3538 158.028 81.4635ZM151.522 64.8545C150.394 64.4404 148.831 62.8397 148.22 61.9892C145.95 58.8312 145.61 55.3672 145.85 51.0663C145.914 49.9244 146.34 45.8604 146.656 45.0187C148.167 46.3354 150.846 50.7021 151.801 53.1258C152.497 54.8935 152.979 56.8158 152.933 59.1897C152.898 60.9666 152.267 63.8498 151.522 64.8541V64.8545ZM18.6238 79.669C20.9571 78.1947 22.8166 74.8706 23.2539 71.3175C23.6395 68.1883 22.554 61.1025 21.6237 59.2449C20.3892 60.5285 17.8907 65.7731 17.1967 68.3096C16.0999 72.3161 16.7735 77.1209 18.6238 79.6693V79.669ZM16.2705 93.1176C17.2495 93.7045 18.6303 95.0883 19.8002 95.9371C22.425 97.8417 25.8719 99.4072 29.0081 98.3334C30.3638 97.8692 32.1311 96.816 32.7255 95.7497C31.505 93.2673 29.0146 90.6071 25.5823 90.375C22.8444 90.1893 20.7778 90.9886 18.3296 92.0184L16.2708 93.1176H16.2705ZM16.3811 78.5172C16.3254 77.1788 15.3846 74.6653 14.7934 73.6508C14.0046 72.2968 13.0332 71.2094 11.6848 70.3007C9.68551 68.9528 4.60437 67.7326 1.92331 68.2151C3.66273 71.0936 4.58003 73.7087 7.20943 76.287C9.70281 78.7314 12.4918 79.9468 16.3808 78.5172H16.3811ZM26.4209 103.443C28.941 104.656 32.7 106.103 35.7467 105.762C39.0371 105.393 41.8977 103.004 42.8872 100.51C41.1751 98.0311 37.2122 96.7384 33.9189 98.0081C32.4564 98.5716 31.0523 99.5112 29.8935 100.394L26.4212 103.443L26.4209 103.443ZM37.9142 109.461C39.7332 110.625 45.0147 111.242 47.5584 110.694C50.2846 110.107 53.4519 107.154 53.9957 104.7C49.7199 100.729 45.1175 102.299 41.0704 106.013C40.3898 106.637 38.1833 108.814 37.914 109.46L37.9142 109.461ZM12.9569 26.1838C13.772 25.6691 15.0041 23.5852 15.5493 22.2607C17.9967 16.3168 15.0344 9.96822 13.3052 5.39725C12.1202 7.1965 10.4081 12.7213 10.0379 15.7333C9.467 20.3798 11.0436 24.0369 12.9569 26.1838ZM14.4895 31.5453C18.5075 31.7052 20.9676 29.8969 22.6638 27.1654C24.129 24.8061 25.6226 20.5316 26.2981 16.9223C23.7501 17.3451 19.8767 19.9271 18.2401 21.436C16.1834 23.3325 14.2945 26.6989 14.4895 31.5457V31.5453ZM9.61168 41.6919C10.3784 40.9211 11.2832 38.4302 11.5639 36.9129C11.9642 34.7514 11.7573 32.2525 11.1942 30.3329C10.4819 27.9028 7.77031 22.4369 6.57041 21.3682C5.61227 23.2647 4.83018 30.1815 5.1336 33.1633C5.48841 36.6452 7.31599 40.4094 9.61141 41.6916L9.61168 41.6919ZM10.2131 56.3539C11.459 49.1857 9.50729 45.1349 5.24718 41.4253C4.41236 40.6984 2.54936 39.0612 1.55633 38.5986C1.56931 42.7467 2.22538 47.2493 3.57565 50.3697C4.69848 52.9659 7.10343 56.0276 10.2128 56.3539H10.2131ZM26.6418 88.8055C28.8112 87.0743 30.2421 82.6535 29.9227 78.6301C29.6769 75.5344 27.8155 70.3013 26.6418 68.1561C26.0953 68.6749 24.9838 72.0579 24.7448 72.8227C24.1933 74.5867 23.7488 76.3744 23.5327 78.5413C23.0629 83.2488 24.7037 86.7748 26.6418 88.8055ZM17.759 17.9469C20.1626 18.5148 23.7763 16.002 25.3438 12.9998C26.6229 10.5507 28.0446 5.52228 28.2801 1.89633C25.9585 2.60045 22.2619 5.70187 20.8746 7.21513C18.9013 9.36813 17.3555 12.9622 17.759 17.9466V17.9469ZM11.5169 49.407C14.7618 48.9231 17.0364 46.1186 18.1776 43.4563C19.576 40.1946 19.8873 35.6209 19.9265 31.3803C18.3588 32.0705 14.6217 36.0245 13.4226 37.8681C11.2078 41.2748 10.6577 44.0553 11.5171 49.407H11.5169ZM52.5459 100.173C52.4367 95.2123 50.7054 92.4108 48.513 90.4516C46.7222 88.8512 42.5803 86.9883 39.8735 86.6759C40.3319 89.328 42.6703 94.109 44.0003 96.1011C45.7229 98.6817 48.4243 100.612 52.5457 100.173H52.5459ZM37.438 95.9659C38.2141 94.8504 38.8031 92.2593 38.8764 90.2286C39.056 85.2138 36.207 81.1351 33.6244 78.0551C33.0332 77.3499 32.5835 76.4374 32.0437 76.4117C31.5318 82.2848 30.698 88.0861 34.0893 93.0918C34.6569 93.9294 36.2457 95.4959 37.4383 95.9659H37.438ZM7.97097 81.4635C11.0717 85.2575 16.4852 92.9773 23.7063 88.0902C23.1059 85.2348 20.6077 82.2414 18.0402 81.2042C15.6607 80.243 9.37235 80.3538 7.97097 81.4635ZM14.4776 64.8545C15.605 64.4404 17.1686 62.8394 17.7793 61.9899C20.0484 58.8319 20.3895 55.3676 20.149 51.0667C20.0852 49.9248 19.6588 45.8607 19.3432 45.019C17.8323 46.3358 15.1531 50.7024 14.1982 53.1261C13.5018 54.8942 13.0199 56.8161 13.0664 59.19C13.1013 60.9669 13.7317 63.8501 14.4776 64.8545Z" fill="#D2D2D2"/>
<defs>
<clipPath id="clip0_4587_1287">
<rect width="137" height="131" fill="white" transform="translate(14 0.895996)"/>
</clipPath>
</defs>
</svg>