<svg xmlns="http://www.w3.org/2000/svg" xmlns:xlink="http://www.w3.org/1999/xlink" width="15px" height="15px" viewBox="0 0 15 15" version="1.1">
    <g id="Page-1" stroke="none" stroke-width="1" fill="none" fill-rule="evenodd">
        <g id="3.-Analytics---Dashboard" transform="translate(-505.000000, -151.000000)">
            <g id="Group-6" transform="translate(505.000000, 151.000000)">
                <circle id="Oval" fill="#EFF6FF" cx="7.5" cy="7.5" r="7.5"/>
                <g id="?" transform="translate(5.090000, 4.230000)" fill="#B9CAF0" fill-rule="nonzero">
                    <path d="M1.69,4.73 C1.47,4.49 1.36,4.19333333 1.36,3.84 C1.36,3.57333333 1.43666667,3.335 1.59,3.125 C1.74333333,2.915 1.91166667,2.75666667 2.095,2.65 C2.27833333,2.54333333 2.44666667,2.41666667 2.6,2.27 C2.75333333,2.12333333 2.83,1.97666667 2.83,1.83 C2.83,1.66333333 2.76333333,1.52666667 2.63,1.42 C2.49666667,1.31333333 2.3,1.26 2.04,1.26 C1.56,1.26 1.15,1.46666667 0.81,1.88 L0,0.97 C0.546666667,0.323333333 1.27666667,0 2.19,0 C2.83,0 3.33666667,0.145 3.71,0.435 C4.08333333,0.725 4.27,1.10666667 4.27,1.58 C4.27,1.84666667 4.21333333,2.08666667 4.1,2.3 C3.98666667,2.51333333 3.84666667,2.68666667 3.68,2.82 C3.51333333,2.95333333 3.34833333,3.07666667 3.185,3.19 C3.02166667,3.30333333 2.88333333,3.42666667 2.77,3.56 C2.65666667,3.69333333 2.6,3.83666667 2.6,3.99 C2.6,4.16333333 2.66333333,4.30333333 2.79,4.41 L1.69,4.73 Z M2.74,6.64 C2.58,6.8 2.39,6.88 2.17,6.88 C1.95,6.88 1.76,6.8 1.6,6.64 C1.44,6.48 1.36,6.29 1.36,6.07 C1.36,5.85 1.44,5.66 1.6,5.5 C1.76,5.34 1.95,5.26 2.17,5.26 C2.39,5.26 2.58,5.34 2.74,5.5 C2.9,5.66 2.98,5.85 2.98,6.07 C2.98,6.29 2.9,6.48 2.74,6.64 Z" id="Shape"/>
                </g>
            </g>
        </g>
    </g>
</svg>