<svg xmlns="http://www.w3.org/2000/svg" width="40" height="42">
    <g fill-rule="nonzero" fill="none">
        <path d="M19 0a6 6 0 1 0 0 12 6 6 0 0 0 0-12zm1.873 8.162A1.993 1.993 0 0 1 19.6 9.376V9.6a.598.598 0 1 1-1.197 0V9.37a2.026 2.026 0 0 1-.844-.497 1.952 1.952 0 0 1-.428-.635.6.6 0 1 1 1.1-.475c.043.1.101.187.176.259.16.162.372.25.594.25a.792.792 0 0 0 .273-1.534l-.959-.345a1.999 1.999 0 0 1-1.189-2.554A1.993 1.993 0 0 1 18.4 2.622v-.222a.6.6 0 1 1 1.199 0v.229a2.014 2.014 0 0 1 1.274 1.138.6.6 0 0 1-.32.786.604.604 0 0 1-.785-.321.773.773 0 0 0-.174-.253c-.159-.164-.416-.24-.594-.251a.792.792 0 0 0-.273 1.534l.959.346a1.994 1.994 0 0 1 1.188 2.553z" fill="#188BFF"/>
        <path d="M36.63 22.027a4.43 4.43 0 0 0-3.002 1.187c-1.882-5.567-7.794-9.634-14.805-9.634-1.704 0-3.338.25-4.869.692L7.306 12.04a.782.782 0 0 0-.803.19.793.793 0 0 0-.19.809l1.508 4.552a13.59 13.59 0 0 0-3.056 3.882H1.57C.7 21.474 0 22.182 0 23.054v6.315c0 .871.701 1.579 1.569 1.579h2.497c.739 2.092 2.051 3.964 3.777 5.482v3.991c0 .872.701 1.579 1.568 1.579h3.14c.867 0 1.568-.707 1.568-1.579v-.64a17.57 17.57 0 0 0 4.704.64c1.64 0 3.22-.227 4.704-.64v.64c0 .872.701 1.579 1.568 1.579h3.14c.867 0 1.568-.707 1.568-1.579V36.43c2.754-2.424 4.458-5.752 4.458-9.43 0-.636-.068-1.256-.167-1.869a2.892 2.892 0 0 1 2.537-1.525c.993 0 1.799.813 1.799 1.81 0 .57-.46 1.032-1.024 1.032-.265 0-.484-.218-.38-.587a.787.787 0 0 0 .784-.79.787.787 0 0 0-.784-.79c-.92 0-1.67.755-1.67 1.68 0 1.139.919 2.064 2.051 2.064A2.604 2.604 0 0 0 40 25.415c-.002-1.867-1.512-3.388-3.37-3.388zm-25.65 1.026a1.573 1.573 0 0 1-1.569-1.579c0-.871.702-1.578 1.569-1.578s1.569.707 1.569 1.578c0 .872-.702 1.58-1.569 1.58zm13.31-4.548a.786.786 0 0 1-.95.579c-2.999-.74-6.039-.74-9.038 0a.788.788 0 0 1-.949-.58.791.791 0 0 1 .576-.955 20.273 20.273 0 0 1 9.785 0c.422.105.679.532.577.956z" fill="#075FB7"/>
    </g>
</svg>