<svg xmlns="http://www.w3.org/2000/svg" width="10" height="13" viewBox="0 0 10 13" fill="none">
<g clip-path="url(#clip0_5046_2)">
<path d="M4.55959 0.0250721C3.18394 0.211145 2.05181 1.05853 1.53627 2.29064C1.47409 2.439 1.39378 2.68291 1.35492 2.83126C1.28756 3.10283 1.28756 3.12043 1.27202 4.28716L1.25648 5.46898L1.08808 5.48658C0.57772 5.53687 0.170984 5.88387 0.0388601 6.37923C0.00518135 6.50244 0 6.90979 0 9.22062C0 11.0864 0.00777202 11.9564 0.0284974 12.0494C0.124352 12.497 0.518135 12.8792 0.979275 12.9723C1.17358 13.0125 8.80052 13.0125 8.99482 12.9723C9.4456 12.8817 9.84197 12.5046 9.9456 12.0696C9.96373 11.9941 9.97409 11.0235 9.97409 9.24074C9.97409 6.91231 9.96891 6.50244 9.93523 6.37923C9.82642 5.96937 9.51813 5.65002 9.11658 5.52933C8.96632 5.48407 8.83161 5.48155 6.03109 5.48155H3.10622L3.11399 4.39277C3.12435 3.33668 3.12435 3.30147 3.18394 3.13049C3.36528 2.60244 3.70725 2.21018 4.18394 1.98639C4.47409 1.84809 4.6943 1.80283 5.05181 1.80534C5.41969 1.80786 5.66839 1.86318 6.01036 2.02662C6.20466 2.12217 6.29275 2.18252 6.45078 2.3359C6.76166 2.64016 6.89637 2.95196 6.92746 3.4448C6.94041 3.63339 6.95855 3.71385 7.01813 3.83706C7.1943 4.20418 7.58549 4.40786 7.99482 4.34499C8.37047 4.28968 8.64767 4.03823 8.74611 3.67111C8.78497 3.52778 8.78497 3.46995 8.75907 3.19335C8.67876 2.33088 8.35492 1.6419 7.75907 1.06859C7.23057 0.555634 6.56736 0.218689 5.81088 0.0753622C5.49482 0.0150146 4.8342 -0.0126448 4.55959 0.0250721ZM6.89378 7.32469C7.06477 7.41269 7.15803 7.55853 7.17098 7.75467C7.17876 7.88039 7.17098 7.9332 7.12435 8.01869C7.04145 8.1771 5.23575 11.0688 5.18394 11.1241C4.99741 11.3278 4.58549 11.3228 4.3886 11.109C4.35751 11.0788 4.02591 10.5986 3.65026 10.0454L2.96632 9.04209V8.85099C2.96632 8.60205 3.03627 8.48639 3.2513 8.38581C3.37306 8.32546 3.4171 8.31792 3.53886 8.33049C3.79016 8.35563 3.83679 8.40341 4.32902 9.11753L4.76943 9.76124L5.48186 8.62217C5.87306 7.99354 6.21762 7.45544 6.2487 7.42527C6.40414 7.26434 6.68912 7.22159 6.89378 7.32469Z" fill="#17D384"/>
</g>
<defs>
<clipPath id="clip0_5046_2">
<rect width="10" height="13" fill="white"/>
</clipPath>
</defs>
</svg>