<svg xmlns="http://www.w3.org/2000/svg" width="36" height="36">
    <g fill="#188BFF" fill-rule="nonzero">
        <path d="M16.023 0H.977A.966.966 0 0 0 0 .954v34.092c0 .527.437.954.977.954h15.046c.54 0 .977-.427.977-.954V.954A.966.966 0 0 0 16.023 0zM35.027 0H19.973A.977.977 0 0 0 19 .98v15.04c0 .54.436.98.973.98h15.054c.538 0 .973-.44.973-.98V.98a.977.977 0 0 0-.973-.98zM35.027 19H19.973a.97.97 0 0 0-.973.966v15.068a.97.97 0 0 0 .973.966h15.054a.97.97 0 0 0 .973-.966V19.966a.97.97 0 0 0-.973-.966z"/>
    </g>
</svg>