<svg xmlns="http://www.w3.org/2000/svg" width="237" height="72" viewBox="0 0 237 72" fill="none">
<path d="M216.389 63.6C213.789 62.5333 212.089 61.0666 211.289 59.2C210.555 57.2666 210.422 54.3 210.889 50.3C211.022 48.2333 211.089 46.8666 211.089 46.2C211.089 45.5333 210.722 44.8666 209.989 44.2C209.789 43.9333 209.422 43.5666 208.889 43.1C208.422 42.6333 208.222 42.2333 208.289 41.9C208.222 41.4333 208.255 40.9333 208.389 40.4C208.522 39.8 208.722 39.5 208.989 39.5C209.255 39.5 209.522 39.4333 209.789 39.3C210.122 39.1666 210.422 39.1666 210.689 39.3C210.955 39.3 211.255 39.3333 211.589 39.4C211.922 39.4666 212.089 39.6333 212.089 39.9C212.355 40.3666 212.789 40.4333 213.389 40.1C213.989 39.7 214.622 38.8333 215.289 37.5C215.955 36.4333 216.822 35.3666 217.889 34.3C219.022 33.2333 220.122 32.2666 221.189 31.4C222.322 30.4666 223.255 29.8 223.989 29.4C224.322 29.2666 224.822 29.1 225.489 28.9C226.155 28.7 226.855 28.5333 227.589 28.4C228.389 28.2666 229.055 28.2333 229.589 28.3C230.789 28.3666 231.789 28.7 232.589 29.3C233.455 29.9 234.255 30.6 234.989 31.4C235.855 32 236.389 32.8 236.589 33.8C236.855 34.8 236.922 35.8666 236.789 37C236.655 38.1333 236.355 39.1666 235.889 40.1C235.689 40.7666 235.122 41.5666 234.189 42.5C233.255 43.4333 232.189 44.3333 230.989 45.2C229.789 46.0666 228.689 46.7 227.689 47.1C226.822 47.3 225.689 47.4666 224.289 47.6C222.955 47.7333 221.689 47.8 220.489 47.8C219.355 47.7333 218.589 47.6 218.189 47.4C217.722 47.1333 217.355 47.5 217.089 48.5C216.822 49.5 216.622 50.9333 216.489 52.8C216.355 54.2666 216.355 55.3333 216.489 56C216.622 56.6666 216.755 57.1333 216.889 57.4C217.355 57.8666 217.989 58.4666 218.789 59.2C219.655 59.8666 220.855 59.9666 222.389 59.5C223.655 59.1666 224.889 58.3 226.089 56.9C227.355 55.5 228.522 54.3666 229.589 53.5C229.855 53.0333 230.289 52.7666 230.889 52.7C231.555 52.5666 232.255 52.6 232.989 52.8C233.722 53.2666 234.022 53.8333 233.889 54.5C233.822 55.1 233.489 56.0333 232.889 57.3C232.689 57.7666 232.222 58.3666 231.489 59.1C230.822 59.7666 230.055 60.4666 229.189 61.2C228.389 61.8666 227.655 62.4 226.989 62.8C224.989 63.8666 223.122 64.4333 221.389 64.5C219.655 64.5 217.989 64.2 216.389 63.6ZM222.289 43.3C223.755 42.9666 224.922 42.7333 225.789 42.6C226.655 42.4666 227.489 42.1 228.289 41.5C229.089 40.8333 230.089 39.6 231.289 37.8C231.555 37.0666 231.622 36.3333 231.489 35.6C231.422 34.8666 231.255 34.3666 230.989 34.1C230.389 33.4333 229.655 33.2333 228.789 33.5C227.989 33.7 227.222 34.0666 226.489 34.6C226.022 34.8 225.322 35.3 224.389 36.1C223.522 36.8333 222.655 37.7 221.789 38.7C220.922 39.6333 220.222 40.5 219.689 41.3C219.155 42.1 219.022 42.5666 219.289 42.7C219.155 42.9666 219.522 43.1333 220.389 43.2C221.322 43.2666 221.955 43.3 222.289 43.3Z" fill="white"/>
<path d="M164.132 61.1C163.398 60.6333 162.732 60.0333 162.132 59.3C161.532 58.5 161.232 57.5 161.232 56.3C161.232 55.6333 161.365 54.5 161.632 52.9C161.898 51.3 162.265 49.5 162.732 47.5C163.198 45.5 163.665 43.6333 164.132 41.9C164.798 40.7 165.365 39.5 165.832 38.3C166.298 37.1 166.532 36.3666 166.532 36.1C166.665 35.3 166.832 34.3666 167.032 33.3C167.298 32.2333 167.565 31.2666 167.832 30.4C168.098 29.5333 168.298 29.0333 168.432 28.9C168.765 28.5666 169.165 28.3666 169.632 28.3C170.098 28.1666 170.565 28.2333 171.032 28.5C171.565 28.7 171.965 29.1333 172.232 29.8C172.965 30.6 173.332 31.5666 173.332 32.7C173.332 33.7666 172.965 35.3666 172.232 37.5C171.632 38.8333 171.032 40.4 170.432 42.2C169.832 44 169.298 45.6666 168.832 47.2C168.432 48.6666 168.198 49.6666 168.132 50.2L166.132 50.8C167.265 49.7333 168.332 48.6333 169.332 47.5C170.332 46.3 171.065 45.3666 171.532 44.7C172.665 43.1666 173.632 41.9 174.432 40.9C175.298 39.8333 176.398 38.5666 177.732 37.1C179.065 35.5666 180.365 34.6333 181.632 34.3C182.965 33.9 183.998 33.7 184.732 33.7C186.198 33.9666 187.365 34.7333 188.232 36C189.165 37.2 189.765 39 190.032 41.4C190.032 42.3333 189.932 43.4333 189.732 44.7C189.598 45.9666 189.532 46.6 189.532 46.6C189.532 46.6 190.065 45.9 191.132 44.5C192.265 43.1 193.765 41.5666 195.632 39.9C196.898 38.9666 198.132 38.4333 199.332 38.3C200.532 38.1 201.598 38.5 202.532 39.5C204.265 40.4333 205.398 41.8666 205.932 43.8C206.465 45.6666 206.598 48.0666 206.332 51C206.132 52.7333 206.098 54.0333 206.232 54.9C206.365 55.7 206.565 56.5 206.832 57.3C207.365 57.5666 207.465 58.1333 207.132 59C206.798 59.8 206.398 60.2 205.932 60.2C205.265 60.2 204.498 60.0666 203.632 59.8C202.832 59.5333 202.098 59.1 201.432 58.5C200.832 57.8333 200.532 56.9333 200.532 55.8V49.6C200.532 48.1333 200.465 46.9333 200.332 46C200.265 45.0666 200.098 44.5 199.832 44.3C199.098 43.9 198.032 44.3333 196.632 45.6C195.232 46.8666 193.732 48.5666 192.132 50.7C190.532 52.8333 189.032 55.0333 187.632 57.3C186.365 59.3666 185.565 60.5666 185.232 60.9C184.965 61.1666 184.465 61.0666 183.732 60.6C182.265 60.1333 181.332 59.5 180.932 58.7C180.598 57.8333 180.565 56.8666 180.832 55.8C181.165 54.6666 181.565 53.1333 182.032 51.2C182.565 49.2666 183.065 47.4 183.532 45.6C183.998 43.7333 184.298 42.4 184.432 41.6C184.165 41.0666 183.698 40.9 183.032 41.1C182.432 41.2333 181.798 41.5333 181.132 42C180.332 42.5333 179.365 43.5333 178.232 45C177.098 46.4666 175.932 48.1666 174.732 50.1C173.932 51.3666 173.098 52.6333 172.232 53.9C171.365 55.1 170.565 56.1666 169.832 57.1C169.098 58.0333 168.465 58.7333 167.932 59.2C166.998 60.6666 166.365 61.4666 166.032 61.6C165.698 61.7333 165.065 61.5666 164.132 61.1Z" fill="white"/>
<path d="M140.678 62.2C139.278 62.4666 138.378 62.5666 137.978 62.5C137.645 62.3666 137.111 61.9666 136.378 61.3C135.311 60.7666 134.411 60.1 133.678 59.3C133.011 58.5 132.511 57.6666 132.178 56.8C131.911 55.8666 131.811 55.1 131.878 54.5C132.078 52.1666 132.645 49.6666 133.578 47C134.511 44.3333 135.645 41.7666 136.978 39.3C138.311 36.8333 139.745 34.7333 141.278 33C142.878 31.2 144.411 30.0333 145.878 29.5C147.211 28.9666 148.478 28.7666 149.678 28.9C150.878 29.0333 151.745 29.6666 152.278 30.8C153.278 32.7333 153.045 33.9666 151.578 34.5C151.378 34.5 151.145 34.6 150.878 34.8C150.611 34.9333 150.478 35.1333 150.478 35.4C150.745 35.5333 151.478 35.5666 152.678 35.5C153.878 35.3666 155.078 35.1666 156.278 34.9C157.545 34.5666 158.378 34.2333 158.778 33.9C159.178 33.7 159.478 33.6 159.678 33.6C159.878 33.6 160.378 33.6666 161.178 33.8C162.311 34.1333 162.878 34.5333 162.878 35C162.878 35.2666 162.978 35.5333 163.178 35.8C163.378 36 163.611 36.1 163.878 36.1C164.345 36.1666 164.278 36.4666 163.678 37C163.145 37.5333 162.211 38.2666 160.878 39.2C159.611 40 158.811 40.5333 158.478 40.8C158.211 41 158.178 41.4666 158.378 42.2C158.911 43.4666 158.945 44.9333 158.478 46.6C158.011 48.2666 157.178 49.9666 155.978 51.7C154.778 53.4333 153.311 55.0666 151.578 56.6C149.911 58.0666 148.111 59.3333 146.178 60.4C144.311 61.4 142.478 62 140.678 62.2ZM138.978 57.8C139.245 57.8 139.711 57.6666 140.378 57.4C141.045 57.0666 141.578 56.8 141.978 56.6C142.245 56.3333 142.578 56.0333 142.978 55.7C143.445 55.3 143.811 55.0666 144.078 55C144.345 55 144.678 54.9 145.078 54.7C145.478 54.4333 146.045 53.9333 146.778 53.2C147.511 52.4 148.478 51.2333 149.678 49.7C151.011 48.2333 152.045 46.9 152.778 45.7C153.511 44.4333 153.711 43.2666 153.378 42.2C153.311 41.9333 153.111 41.7666 152.778 41.7C152.511 41.6333 152.145 41.4666 151.678 41.2C151.011 41.2 150.378 41.0333 149.778 40.7C149.245 40.3 148.611 39.8 147.878 39.2L146.278 37.2L144.578 38.9C143.511 39.9666 142.378 41.5666 141.178 43.7C140.045 45.7666 139.078 47.9 138.278 50.1C137.478 52.2333 137.011 53.9333 136.878 55.2C136.811 56.2 136.978 56.8666 137.378 57.2C137.778 57.5333 138.311 57.7333 138.978 57.8Z" fill="white"/>
<path d="M111.619 63.7C110.152 63.7 109.052 63.6333 108.319 63.5C107.586 63.3666 107.019 63.1667 106.619 62.9C106.219 62.6333 105.752 62.2667 105.219 61.8C104.952 61.2667 104.619 60.7 104.219 60.1C103.819 59.5 103.486 59.0667 103.219 58.8C102.952 57.8 102.819 56.5 102.819 54.9C102.886 53.3 103.086 51.5666 103.419 49.7C103.819 47.8333 104.352 46.1 105.019 44.5C105.286 43.9667 105.519 43.4333 105.719 42.9C105.919 42.3667 106.019 42.1 106.019 42.1C106.019 41.7666 106.419 40.9666 107.219 39.7C108.086 38.4333 109.019 37.1 110.019 35.7C111.086 34.3 111.952 33.3 112.619 32.7C113.086 32.1667 113.786 31.6 114.719 31C115.719 30.4 116.586 29.9667 117.319 29.7C118.052 29.4333 118.786 29.2 119.519 29C120.319 28.8 121.219 28.7 122.219 28.7C123.152 28.7 124.019 28.9 124.819 29.3C125.619 29.7 126.386 30.4 127.119 31.4C128.319 32.6 128.986 33.8 129.119 35C129.319 36.1333 129.286 37.3 129.019 38.5C128.686 39.8333 128.252 40.8666 127.719 41.6C127.186 42.2667 126.586 42.5667 125.919 42.5C125.252 42.4333 124.486 41.9333 123.619 41C123.352 40.4667 123.219 40.0333 123.219 39.7C123.219 39.3 123.352 38.7333 123.619 38C123.886 37.0667 123.886 36.1 123.619 35.1C123.352 34.1 122.919 33.6 122.319 33.6C121.452 33.6 120.486 34 119.419 34.8C118.419 35.5333 117.386 36.4666 116.319 37.6C115.852 38.1333 115.186 38.9666 114.319 40.1C113.519 41.1666 112.719 42.3666 111.919 43.7C111.119 44.9666 110.452 46.2 109.919 47.4C109.186 49.6 108.586 51.3666 108.119 52.7C107.719 54.0333 107.519 54.7 107.519 54.7C107.519 54.9666 107.586 55.2333 107.719 55.5C107.919 55.7 108.019 55.9333 108.019 56.2C108.019 57 108.486 57.6333 109.419 58.1C110.152 58.5667 111.019 58.8333 112.019 58.9C113.019 58.9 114.252 58.5667 115.719 57.9C116.786 57.3667 117.786 56.6667 118.719 55.8C119.719 54.9333 120.752 54.1667 121.819 53.5C122.552 53.0333 123.119 52.6333 123.519 52.3C123.986 51.9666 124.219 51.9333 124.219 52.2C124.219 52.4666 124.319 52.6 124.519 52.6C124.719 52.6 124.952 52.4666 125.219 52.2C125.619 51.6666 126.052 51.3333 126.519 51.2C126.986 51 127.386 50.9333 127.719 51C128.119 51 128.319 51.1 128.319 51.3C128.186 51.9 128.319 52.4 128.719 52.8C128.719 53.0667 128.619 53.4333 128.419 53.9C128.286 54.3 128.086 54.6333 127.819 54.9C127.486 55.3667 126.986 55.9 126.319 56.5C125.719 57.1 125.152 57.6333 124.619 58.1C124.086 58.5 123.819 58.7 123.819 58.7C123.552 58.6333 123.286 58.7 123.019 58.9C122.819 59.1 122.586 59.3333 122.319 59.6C121.786 60.0667 121.286 60.4333 120.819 60.7C120.352 60.9 119.986 61 119.719 61C119.252 61.2667 118.886 61.4333 118.619 61.5C118.419 61.5667 118.319 61.7333 118.319 62C117.652 62.6667 116.819 63.1333 115.819 63.4C114.886 63.6 113.486 63.7 111.619 63.7Z" fill="white"/>
<path d="M93.2247 66C91.958 66.3333 90.9247 66.0667 90.1247 65.2C89.3913 64.3333 88.958 63 88.8247 61.2C88.6913 59.4 88.8913 57.2667 89.4247 54.8C89.758 54 90.0247 53.2333 90.2247 52.5C90.4247 51.7 90.5247 51.0666 90.5247 50.6C90.658 49.9333 90.9247 48.9666 91.3247 47.7C91.7247 46.3666 92.158 45 92.6247 43.6C93.0913 42.2 93.5247 40.9666 93.9247 39.9C94.3913 38.7666 94.6913 38.0667 94.8247 37.8C95.0913 37.8 95.3247 37.5666 95.5247 37.1C95.7247 36.6333 95.8247 36.1666 95.8247 35.7C95.8247 35.1666 95.9247 34.5666 96.1247 33.9C96.3913 33.2333 96.658 32.7666 96.9247 32.5C96.9247 32.1666 96.9913 31.8 97.1247 31.4C97.3247 30.9333 97.4247 30.5666 97.4247 30.3C97.4247 30.0333 97.4913 29.7666 97.6247 29.5C97.8247 29.2333 97.9247 28.9666 97.9247 28.7C98.3913 27.8333 98.9913 26.4666 99.7247 24.6C100.525 22.6666 101.358 20.5333 102.225 18.2C103.158 15.8666 104.025 13.5666 104.825 11.3C105.625 9.03331 106.258 7.13331 106.725 5.59998C107.258 3.99998 107.525 3.03331 107.525 2.69998C107.525 2.16664 107.658 1.76664 107.925 1.49998C108.191 1.23331 108.591 1.09998 109.125 1.09998C109.325 0.899978 109.558 0.766646 109.825 0.699976C110.158 0.63331 110.458 0.599976 110.725 0.599976C110.725 0.599976 110.858 0.73331 111.125 0.999977C111.391 1.26664 111.791 1.66664 112.325 2.19998C112.858 2.66664 113.158 3.19998 113.225 3.79998C113.358 4.39998 113.425 5.09998 113.425 5.89998C113.425 6.76665 113.325 7.53332 113.125 8.19998C112.925 8.86665 112.525 9.83331 111.925 11.1C111.325 12.3666 110.391 14.3333 109.125 17C108.591 18.3333 108.025 19.6 107.425 20.8C106.825 21.9333 106.525 22.6333 106.525 22.9C106.525 23.1666 106.391 23.5666 106.125 24.1C105.925 24.6333 105.691 25.3 105.425 26.1C105.158 26.6333 104.791 27.4333 104.325 28.5C103.858 29.5 103.358 30.6 102.825 31.8C102.358 32.9333 101.958 33.9333 101.625 34.8C101.291 35.6 101.125 36.0666 101.125 36.2C101.125 36.4666 101.091 36.7333 101.025 37C101.025 37.2666 100.891 37.5333 100.625 37.8C100.358 37.8 100.191 38 100.125 38.4C100.125 38.7333 100.125 38.9 100.125 38.9C100.125 39.5666 99.5913 41.3333 98.5247 44.2C97.458 47.8666 96.458 51.2333 95.5247 54.3C94.658 57.3666 94.2247 59.8333 94.2247 61.7C94.2247 63.3 94.1913 64.3666 94.1247 64.9C94.058 65.3666 93.758 65.7333 93.2247 66Z" fill="white"/>
<path d="M80.3284 62.5C78.9284 63.7 77.295 64.4 75.4284 64.6C73.6284 64.8 71.8617 64.5333 70.1284 63.8C68.395 63 66.9617 61.8 65.8284 60.2C64.695 58.7333 63.9617 57.0666 63.6284 55.2C63.295 53.2666 63.2617 50.7666 63.5284 47.7C63.7284 45.1 64.5617 42.5 66.0284 39.9C67.495 37.2333 69.2617 34.8666 71.3284 32.8C73.4617 30.7333 75.5617 29.3 77.6284 28.5C78.6284 27.8333 79.4617 27.5333 80.1284 27.6C80.8617 27.6 81.9617 27.6666 83.4284 27.8C84.9617 28 86.095 28.3 86.8284 28.7C87.6284 29.1 88.2617 29.6333 88.7284 30.3C89.7284 31.3 90.395 32.3 90.7284 33.3C91.0617 34.2333 91.2284 35.1666 91.2284 36.1C90.9617 37.5666 89.9617 39.3666 88.2284 41.5C86.5617 43.5666 84.3617 45.2666 81.6284 46.6C80.1617 47.0666 78.5617 47.2666 76.8284 47.2C75.095 47.1333 73.6617 46.7 72.5284 45.9C71.2617 45.3666 70.4284 45.4666 70.0284 46.2C69.6284 46.8666 69.2617 48.5333 68.9284 51.2C68.6617 53.7333 68.8617 55.6 69.5284 56.8C70.195 57.9333 71.095 58.6 72.2284 58.8C73.5617 59.0666 74.595 59.2666 75.3284 59.4C76.1284 59.4666 77.095 59.1666 78.2284 58.5C79.295 57.8333 79.9617 57.4666 80.2284 57.4C80.495 57.2666 80.695 57.1333 80.8284 57C81.0284 56.8 81.4617 56.3666 82.1284 55.7C82.595 55.2333 82.9617 54.9 83.2284 54.7C83.495 54.4333 83.795 54.3 84.1284 54.3C84.4617 54.3 84.7617 54.4666 85.0284 54.8C85.295 55.0666 85.5617 55.2666 85.8284 55.4C86.495 55.4 86.6284 55.8 86.2284 56.6C85.895 57.4 85.195 58.3666 84.1284 59.5C83.0617 60.5666 81.795 61.5666 80.3284 62.5ZM80.2284 41.3C80.9617 40.9666 81.7284 40.5 82.5284 39.9C83.3284 39.2333 83.995 38.5333 84.5284 37.8C85.1284 37 85.4284 36.3333 85.4284 35.8C85.4284 34.8666 84.995 34.1 84.1284 33.5C83.2617 32.8333 81.9617 32.7333 80.2284 33.2C79.495 33.4 78.6617 33.9 77.7284 34.7C76.795 35.4333 75.895 36.2666 75.0284 37.2C74.2284 38.1333 73.5617 38.9666 73.0284 39.7C72.5617 40.4333 72.395 40.8666 72.5284 41C72.7284 41.3333 73.295 41.6 74.2284 41.8C75.1617 41.9333 76.195 41.9666 77.3284 41.9C78.5284 41.8333 79.495 41.6333 80.2284 41.3Z" fill="white"/>
<path d="M35.5793 71.3C34.7126 71.3666 33.9126 71.1666 33.1793 70.7C32.5126 70.3 32.0459 69.7666 31.7793 69.1C31.5126 68.7666 31.1126 68.2 30.5793 67.4C30.0459 66.6 29.7126 65.8 29.5793 65C29.3793 62.8666 29.2459 60.8 29.1793 58.8C29.1793 56.8 29.2793 54 29.4793 50.4C29.6793 47.4666 30.0459 44.6333 30.5793 41.9C31.1793 39.1 31.7459 36.6 32.2793 34.4C32.8793 32.2 33.3459 30.4666 33.6793 29.2C34.0126 27.8666 34.0793 27.2 33.8793 27.2C33.6126 27.2 33.2126 27.7 32.6793 28.7C32.1459 29.6333 31.5459 30.8 30.8793 32.2C30.2126 33.6 29.5459 35 28.8793 36.4C28.2126 37.7333 27.6459 38.8333 27.1793 39.7C26.2459 41.7666 25.1459 43.9666 23.8793 46.3C22.6793 48.5666 21.4459 50.7666 20.1793 52.9C18.9126 55.0333 17.8126 56.9 16.8793 58.5C16.2793 59.1666 15.5793 60.1333 14.7793 61.4C13.9793 62.6 13.1126 63.8666 12.1793 65.2C11.2459 66.5333 10.2793 67.6333 9.27927 68.5C7.8126 69.9 6.34593 70.6666 4.87926 70.8C3.47926 70.9333 2.27927 70.5666 1.27927 69.7C1.07927 69.4333 0.845936 69.1 0.579268 68.7C0.379269 68.3666 0.212602 67.9 0.0792684 67.3C-0.0540653 66.7 -0.0207336 66 0.179267 65.2C0.1126 64.2666 0.1126 62.8333 0.179267 60.9C0.3126 58.9 0.512599 56.7333 0.779265 54.4C1.04593 52 1.3126 49.7 1.57927 47.5C1.9126 45.3 2.2126 43.4666 2.47927 42C3.07927 37.7333 3.87926 33.3666 4.87926 28.9C5.94593 24.4333 6.9126 19.9333 7.77927 15.4C8.3126 14.0666 8.77927 12.5666 9.17927 10.9C9.64593 9.16663 10.1126 7.56663 10.5793 6.09996C10.6459 4.63329 10.9793 3.66663 11.5793 3.19996C12.1793 2.66663 12.8459 2.49996 13.5793 2.69996C14.3793 2.83329 15.0126 3.23329 15.4793 3.89996C16.1459 4.56663 16.6459 5.59996 16.9793 6.99996C17.3793 8.39996 17.1126 10.1666 16.1793 12.3C14.8459 15.5666 13.5459 19.5666 12.2793 24.3C11.0793 28.9666 9.97927 34.6333 8.97927 41.3C8.7126 42.9 8.4126 44.8 8.07927 47C7.74594 49.2 7.44593 51.3333 7.17927 53.4C6.9126 55.4666 6.7126 57.2 6.57927 58.6C6.5126 60 6.54593 60.7333 6.67927 60.8C7.2126 60.9333 7.94593 60.5333 8.87926 59.6C9.8126 58.6 10.6459 57.3 11.3793 55.7C14.1126 51.1666 16.8126 46.4333 19.4793 41.5C22.2126 36.5 24.8126 31.5666 27.2793 26.7C28.4126 24.7666 29.5459 22.6666 30.6793 20.4C31.8793 18.0666 33.0126 15.9333 34.0793 14C35.2126 12 36.2459 10.2 37.1793 8.59996C38.1126 6.9333 38.9126 5.56663 39.5793 4.49997C40.2459 3.4333 40.7793 2.83329 41.1793 2.69996C42.2459 2.76663 43.1459 3.0333 43.8793 3.49997C44.6793 3.89996 45.3459 4.76663 45.8793 6.09996C46.0126 6.43329 45.9793 6.99996 45.7793 7.79996C45.5793 8.59996 45.3459 9.29996 45.0793 9.89996C45.0126 10.3666 44.7126 11.3333 44.1793 12.8C43.7126 14.2666 43.2793 15.9 42.8793 17.7C42.2126 19.5 41.6126 21.3 41.0793 23.1C40.6126 24.8333 40.2793 26.2666 40.0793 27.4C39.5459 30.2666 38.8793 33.4333 38.0793 36.9C37.2793 40.3 36.5793 43.7 35.9793 47.1C35.4459 50.4333 35.1459 53.4333 35.0793 56.1C35.0126 57.9666 35.0126 59.4333 35.0793 60.5C35.2126 61.5666 35.4126 62.4 35.6793 63C35.8126 63.5333 36.2126 63.8666 36.8793 64C37.6126 64.1333 38.2126 63.9 38.6793 63.3C40.0126 61.6333 41.1459 60.1333 42.0793 58.8C43.0793 57.4 44.0126 56 44.8793 54.6C45.7459 53.1333 46.6459 51.5 47.5793 49.7C49.2459 46.6333 50.9459 43.2333 52.6793 39.5C54.4793 35.7 56.1793 31.9333 57.7793 28.2C59.4459 24.4666 60.8793 21.2 62.0793 18.4C63.3459 14.8 64.3459 11.9333 65.0793 9.79996C65.8793 7.66663 66.5793 6.06663 67.1793 4.99997C67.7793 3.9333 68.4126 3.19996 69.0793 2.79996C69.4126 2.53329 69.8793 2.39996 70.4793 2.39996C71.0793 2.39996 71.6793 2.66663 72.2793 3.19996C72.5459 3.46663 72.7793 3.89997 72.9793 4.49997C73.2459 5.0333 73.3459 5.69996 73.2793 6.49996C72.9459 7.56663 72.3459 9.26663 71.4793 11.6C70.6793 13.9333 69.7459 16.5 68.6793 19.3C67.6126 22.1 66.5793 24.7666 65.5793 27.3C64.5793 29.8333 63.7126 31.8666 62.9793 33.4C62.2459 34.8 61.5459 36 60.8793 37C60.2126 38 59.8793 38.7666 59.8793 39.3C59.8793 39.5666 59.5459 40.4 58.8793 41.8C58.2126 43.1333 57.3459 44.7666 56.2793 46.7C55.2793 48.6333 54.1793 50.6333 52.9793 52.7C51.7793 54.7666 50.6459 56.6666 49.5793 58.4C48.5126 60.1333 47.6126 61.4666 46.8793 62.4C45.2126 64.4666 43.5793 66.1666 41.9793 67.5C40.4459 68.8333 39.1126 69.8 37.9793 70.4C36.8459 71 36.0459 71.3 35.5793 71.3Z" fill="white"/>
</svg>